<?xml version="1.0" encoding="utf-8" standalone="no"?>
<!DOCTYPE svg PUBLIC "-//W3C//DTD SVG 1.1//EN"
  "http://www.w3.org/Graphics/SVG/1.1/DTD/svg11.dtd">
<svg xmlns:xlink="http://www.w3.org/1999/xlink" width="864pt" height="576pt" viewBox="0 0 864 576" xmlns="http://www.w3.org/2000/svg" version="1.1">
 <metadata>
  <rdf:RDF xmlns:dc="http://purl.org/dc/elements/1.1/" xmlns:cc="http://creativecommons.org/ns#" xmlns:rdf="http://www.w3.org/1999/02/22-rdf-syntax-ns#">
   <cc:Work>
    <dc:type rdf:resource="http://purl.org/dc/dcmitype/StillImage"/>
    <dc:date>2025-04-16T10:14:22.148563</dc:date>
    <dc:format>image/svg+xml</dc:format>
    <dc:creator>
     <cc:Agent>
      <dc:title>Matplotlib v3.10.1, https://matplotlib.org/</dc:title>
     </cc:Agent>
    </dc:creator>
   </cc:Work>
  </rdf:RDF>
 </metadata>
 <defs>
  <style type="text/css">*{stroke-linejoin: round; stroke-linecap: butt}</style>
 </defs>
 <g id="figure_1">
  <g id="patch_1">
   <path d="M 0 576 
L 864 576 
L 864 0 
L 0 0 
z
" style="fill: #ffffff"/>
  </g>
  <g id="axes_1">
   <g id="patch_2">
    <path d="M 108 270.72 
L 412.363636 270.72 
L 412.363636 69.12 
L 108 69.12 
z
" style="fill: #ffffff"/>
   </g>
   <g id="matplotlib.axis_1">
    <g id="xtick_1">
     <g id="line2d_1">
      <path d="M 108 270.72 
L 108 69.12 
" clip-path="url(#p7043202638)" style="fill: none; stroke: #b0b0b0; stroke-width: 0.8; stroke-linecap: square"/>
     </g>
     <g id="line2d_2">
      <defs>
       <path id="m4ef662ddf8" d="M 0 0 
L 0 3.5 
" style="stroke: #000000; stroke-width: 0.8"/>
      </defs>
      <g>
       <use xlink:href="#m4ef662ddf8" x="108" y="270.72" style="stroke: #000000; stroke-width: 0.8"/>
      </g>
     </g>
    </g>
    <g id="xtick_2">
     <g id="line2d_3">
      <path d="M 184.090909 270.72 
L 184.090909 69.12 
" clip-path="url(#p7043202638)" style="fill: none; stroke: #b0b0b0; stroke-width: 0.8; stroke-linecap: square"/>
     </g>
     <g id="line2d_4">
      <g>
       <use xlink:href="#m4ef662ddf8" x="184.090909" y="270.72" style="stroke: #000000; stroke-width: 0.8"/>
      </g>
     </g>
    </g>
    <g id="xtick_3">
     <g id="line2d_5">
      <path d="M 260.181818 270.72 
L 260.181818 69.12 
" clip-path="url(#p7043202638)" style="fill: none; stroke: #b0b0b0; stroke-width: 0.8; stroke-linecap: square"/>
     </g>
     <g id="line2d_6">
      <g>
       <use xlink:href="#m4ef662ddf8" x="260.181818" y="270.72" style="stroke: #000000; stroke-width: 0.8"/>
      </g>
     </g>
    </g>
    <g id="xtick_4">
     <g id="line2d_7">
      <path d="M 336.272727 270.72 
L 336.272727 69.12 
" clip-path="url(#p7043202638)" style="fill: none; stroke: #b0b0b0; stroke-width: 0.8; stroke-linecap: square"/>
     </g>
     <g id="line2d_8">
      <g>
       <use xlink:href="#m4ef662ddf8" x="336.272727" y="270.72" style="stroke: #000000; stroke-width: 0.8"/>
      </g>
     </g>
    </g>
    <g id="xtick_5">
     <g id="line2d_9">
      <path d="M 412.363636 270.72 
L 412.363636 69.12 
" clip-path="url(#p7043202638)" style="fill: none; stroke: #b0b0b0; stroke-width: 0.8; stroke-linecap: square"/>
     </g>
     <g id="line2d_10">
      <g>
       <use xlink:href="#m4ef662ddf8" x="412.363636" y="270.72" style="stroke: #000000; stroke-width: 0.8"/>
      </g>
     </g>
    </g>
   </g>
   <g id="matplotlib.axis_2">
    <g id="ytick_1">
     <g id="line2d_11">
      <path d="M 108 270.72 
L 412.363636 270.72 
" clip-path="url(#p7043202638)" style="fill: none; stroke: #b0b0b0; stroke-width: 0.8; stroke-linecap: square"/>
     </g>
     <g id="line2d_12">
      <defs>
       <path id="m38773a80f3" d="M 0 0 
L -3.5 0 
" style="stroke: #000000; stroke-width: 0.8"/>
      </defs>
      <g>
       <use xlink:href="#m38773a80f3" x="108" y="270.72" style="stroke: #000000; stroke-width: 0.8"/>
      </g>
     </g>
     <g id="text_1">
      <!-- −0.4 -->
      <g transform="translate(67.004063 276.038906) scale(0.14 -0.14)">
       <defs>
        <path id="DejaVuSans-2212" d="M 678 2272 
L 4684 2272 
L 4684 1741 
L 678 1741 
L 678 2272 
z
" transform="scale(0.015625)"/>
        <path id="DejaVuSans-30" d="M 2034 4250 
Q 1547 4250 1301 3770 
Q 1056 3291 1056 2328 
Q 1056 1369 1301 889 
Q 1547 409 2034 409 
Q 2525 409 2770 889 
Q 3016 1369 3016 2328 
Q 3016 3291 2770 3770 
Q 2525 4250 2034 4250 
z
M 2034 4750 
Q 2819 4750 3233 4129 
Q 3647 3509 3647 2328 
Q 3647 1150 3233 529 
Q 2819 -91 2034 -91 
Q 1250 -91 836 529 
Q 422 1150 422 2328 
Q 422 3509 836 4129 
Q 1250 4750 2034 4750 
z
" transform="scale(0.015625)"/>
        <path id="DejaVuSans-2e" d="M 684 794 
L 1344 794 
L 1344 0 
L 684 0 
L 684 794 
z
" transform="scale(0.015625)"/>
        <path id="DejaVuSans-34" d="M 2419 4116 
L 825 1625 
L 2419 1625 
L 2419 4116 
z
M 2253 4666 
L 3047 4666 
L 3047 1625 
L 3713 1625 
L 3713 1100 
L 3047 1100 
L 3047 0 
L 2419 0 
L 2419 1100 
L 313 1100 
L 313 1709 
L 2253 4666 
z
" transform="scale(0.015625)"/>
       </defs>
       <use xlink:href="#DejaVuSans-2212"/>
       <use xlink:href="#DejaVuSans-30" transform="translate(83.789062 0)"/>
       <use xlink:href="#DejaVuSans-2e" transform="translate(147.412109 0)"/>
       <use xlink:href="#DejaVuSans-34" transform="translate(179.199219 0)"/>
      </g>
     </g>
    </g>
    <g id="ytick_2">
     <g id="line2d_13">
      <path d="M 108 230.4 
L 412.363636 230.4 
" clip-path="url(#p7043202638)" style="fill: none; stroke: #b0b0b0; stroke-width: 0.8; stroke-linecap: square"/>
     </g>
     <g id="line2d_14">
      <g>
       <use xlink:href="#m38773a80f3" x="108" y="230.4" style="stroke: #000000; stroke-width: 0.8"/>
      </g>
     </g>
     <g id="text_2">
      <!-- −0.2 -->
      <g transform="translate(67.004063 235.718906) scale(0.14 -0.14)">
       <defs>
        <path id="DejaVuSans-32" d="M 1228 531 
L 3431 531 
L 3431 0 
L 469 0 
L 469 531 
Q 828 903 1448 1529 
Q 2069 2156 2228 2338 
Q 2531 2678 2651 2914 
Q 2772 3150 2772 3378 
Q 2772 3750 2511 3984 
Q 2250 4219 1831 4219 
Q 1534 4219 1204 4116 
Q 875 4013 500 3803 
L 500 4441 
Q 881 4594 1212 4672 
Q 1544 4750 1819 4750 
Q 2544 4750 2975 4387 
Q 3406 4025 3406 3419 
Q 3406 3131 3298 2873 
Q 3191 2616 2906 2266 
Q 2828 2175 2409 1742 
Q 1991 1309 1228 531 
z
" transform="scale(0.015625)"/>
       </defs>
       <use xlink:href="#DejaVuSans-2212"/>
       <use xlink:href="#DejaVuSans-30" transform="translate(83.789062 0)"/>
       <use xlink:href="#DejaVuSans-2e" transform="translate(147.412109 0)"/>
       <use xlink:href="#DejaVuSans-32" transform="translate(179.199219 0)"/>
      </g>
     </g>
    </g>
    <g id="ytick_3">
     <g id="line2d_15">
      <path d="M 108 190.08 
L 412.363636 190.08 
" clip-path="url(#p7043202638)" style="fill: none; stroke: #b0b0b0; stroke-width: 0.8; stroke-linecap: square"/>
     </g>
     <g id="line2d_16">
      <g>
       <use xlink:href="#m38773a80f3" x="108" y="190.08" style="stroke: #000000; stroke-width: 0.8"/>
      </g>
     </g>
     <g id="text_3">
      <!-- 0.0 -->
      <g transform="translate(78.735625 195.398906) scale(0.14 -0.14)">
       <use xlink:href="#DejaVuSans-30"/>
       <use xlink:href="#DejaVuSans-2e" transform="translate(63.623047 0)"/>
       <use xlink:href="#DejaVuSans-30" transform="translate(95.410156 0)"/>
      </g>
     </g>
    </g>
    <g id="ytick_4">
     <g id="line2d_17">
      <path d="M 108 149.76 
L 412.363636 149.76 
" clip-path="url(#p7043202638)" style="fill: none; stroke: #b0b0b0; stroke-width: 0.8; stroke-linecap: square"/>
     </g>
     <g id="line2d_18">
      <g>
       <use xlink:href="#m38773a80f3" x="108" y="149.76" style="stroke: #000000; stroke-width: 0.8"/>
      </g>
     </g>
     <g id="text_4">
      <!-- 0.2 -->
      <g transform="translate(78.735625 155.078906) scale(0.14 -0.14)">
       <use xlink:href="#DejaVuSans-30"/>
       <use xlink:href="#DejaVuSans-2e" transform="translate(63.623047 0)"/>
       <use xlink:href="#DejaVuSans-32" transform="translate(95.410156 0)"/>
      </g>
     </g>
    </g>
    <g id="ytick_5">
     <g id="line2d_19">
      <path d="M 108 109.44 
L 412.363636 109.44 
" clip-path="url(#p7043202638)" style="fill: none; stroke: #b0b0b0; stroke-width: 0.8; stroke-linecap: square"/>
     </g>
     <g id="line2d_20">
      <g>
       <use xlink:href="#m38773a80f3" x="108" y="109.44" style="stroke: #000000; stroke-width: 0.8"/>
      </g>
     </g>
     <g id="text_5">
      <!-- 0.4 -->
      <g transform="translate(78.735625 114.758906) scale(0.14 -0.14)">
       <use xlink:href="#DejaVuSans-30"/>
       <use xlink:href="#DejaVuSans-2e" transform="translate(63.623047 0)"/>
       <use xlink:href="#DejaVuSans-34" transform="translate(95.410156 0)"/>
      </g>
     </g>
    </g>
    <g id="ytick_6">
     <g id="line2d_21">
      <path d="M 108 69.12 
L 412.363636 69.12 
" clip-path="url(#p7043202638)" style="fill: none; stroke: #b0b0b0; stroke-width: 0.8; stroke-linecap: square"/>
     </g>
     <g id="line2d_22">
      <g>
       <use xlink:href="#m38773a80f3" x="108" y="69.12" style="stroke: #000000; stroke-width: 0.8"/>
      </g>
     </g>
     <g id="text_6">
      <!-- 0.6 -->
      <g transform="translate(78.735625 74.438906) scale(0.14 -0.14)">
       <defs>
        <path id="DejaVuSans-36" d="M 2113 2584 
Q 1688 2584 1439 2293 
Q 1191 2003 1191 1497 
Q 1191 994 1439 701 
Q 1688 409 2113 409 
Q 2538 409 2786 701 
Q 3034 994 3034 1497 
Q 3034 2003 2786 2293 
Q 2538 2584 2113 2584 
z
M 3366 4563 
L 3366 3988 
Q 3128 4100 2886 4159 
Q 2644 4219 2406 4219 
Q 1781 4219 1451 3797 
Q 1122 3375 1075 2522 
Q 1259 2794 1537 2939 
Q 1816 3084 2150 3084 
Q 2853 3084 3261 2657 
Q 3669 2231 3669 1497 
Q 3669 778 3244 343 
Q 2819 -91 2113 -91 
Q 1303 -91 875 529 
Q 447 1150 447 2328 
Q 447 3434 972 4092 
Q 1497 4750 2381 4750 
Q 2619 4750 2861 4703 
Q 3103 4656 3366 4563 
z
" transform="scale(0.015625)"/>
       </defs>
       <use xlink:href="#DejaVuSans-30"/>
       <use xlink:href="#DejaVuSans-2e" transform="translate(63.623047 0)"/>
       <use xlink:href="#DejaVuSans-36" transform="translate(95.410156 0)"/>
      </g>
     </g>
    </g>
    <g id="text_7">
     <!-- Elevation [m] -->
     <g transform="translate(60.0925 216.941406) rotate(-90) scale(0.14 -0.14)">
      <defs>
       <path id="DejaVuSans-45" d="M 628 4666 
L 3578 4666 
L 3578 4134 
L 1259 4134 
L 1259 2753 
L 3481 2753 
L 3481 2222 
L 1259 2222 
L 1259 531 
L 3634 531 
L 3634 0 
L 628 0 
L 628 4666 
z
" transform="scale(0.015625)"/>
       <path id="DejaVuSans-6c" d="M 603 4863 
L 1178 4863 
L 1178 0 
L 603 0 
L 603 4863 
z
" transform="scale(0.015625)"/>
       <path id="DejaVuSans-65" d="M 3597 1894 
L 3597 1613 
L 953 1613 
Q 991 1019 1311 708 
Q 1631 397 2203 397 
Q 2534 397 2845 478 
Q 3156 559 3463 722 
L 3463 178 
Q 3153 47 2828 -22 
Q 2503 -91 2169 -91 
Q 1331 -91 842 396 
Q 353 884 353 1716 
Q 353 2575 817 3079 
Q 1281 3584 2069 3584 
Q 2775 3584 3186 3129 
Q 3597 2675 3597 1894 
z
M 3022 2063 
Q 3016 2534 2758 2815 
Q 2500 3097 2075 3097 
Q 1594 3097 1305 2825 
Q 1016 2553 972 2059 
L 3022 2063 
z
" transform="scale(0.015625)"/>
       <path id="DejaVuSans-76" d="M 191 3500 
L 800 3500 
L 1894 563 
L 2988 3500 
L 3597 3500 
L 2284 0 
L 1503 0 
L 191 3500 
z
" transform="scale(0.015625)"/>
       <path id="DejaVuSans-61" d="M 2194 1759 
Q 1497 1759 1228 1600 
Q 959 1441 959 1056 
Q 959 750 1161 570 
Q 1363 391 1709 391 
Q 2188 391 2477 730 
Q 2766 1069 2766 1631 
L 2766 1759 
L 2194 1759 
z
M 3341 1997 
L 3341 0 
L 2766 0 
L 2766 531 
Q 2569 213 2275 61 
Q 1981 -91 1556 -91 
Q 1019 -91 701 211 
Q 384 513 384 1019 
Q 384 1609 779 1909 
Q 1175 2209 1959 2209 
L 2766 2209 
L 2766 2266 
Q 2766 2663 2505 2880 
Q 2244 3097 1772 3097 
Q 1472 3097 1187 3025 
Q 903 2953 641 2809 
L 641 3341 
Q 956 3463 1253 3523 
Q 1550 3584 1831 3584 
Q 2591 3584 2966 3190 
Q 3341 2797 3341 1997 
z
" transform="scale(0.015625)"/>
       <path id="DejaVuSans-74" d="M 1172 4494 
L 1172 3500 
L 2356 3500 
L 2356 3053 
L 1172 3053 
L 1172 1153 
Q 1172 725 1289 603 
Q 1406 481 1766 481 
L 2356 481 
L 2356 0 
L 1766 0 
Q 1100 0 847 248 
Q 594 497 594 1153 
L 594 3053 
L 172 3053 
L 172 3500 
L 594 3500 
L 594 4494 
L 1172 4494 
z
" transform="scale(0.015625)"/>
       <path id="DejaVuSans-69" d="M 603 3500 
L 1178 3500 
L 1178 0 
L 603 0 
L 603 3500 
z
M 603 4863 
L 1178 4863 
L 1178 4134 
L 603 4134 
L 603 4863 
z
" transform="scale(0.015625)"/>
       <path id="DejaVuSans-6f" d="M 1959 3097 
Q 1497 3097 1228 2736 
Q 959 2375 959 1747 
Q 959 1119 1226 758 
Q 1494 397 1959 397 
Q 2419 397 2687 759 
Q 2956 1122 2956 1747 
Q 2956 2369 2687 2733 
Q 2419 3097 1959 3097 
z
M 1959 3584 
Q 2709 3584 3137 3096 
Q 3566 2609 3566 1747 
Q 3566 888 3137 398 
Q 2709 -91 1959 -91 
Q 1206 -91 779 398 
Q 353 888 353 1747 
Q 353 2609 779 3096 
Q 1206 3584 1959 3584 
z
" transform="scale(0.015625)"/>
       <path id="DejaVuSans-6e" d="M 3513 2113 
L 3513 0 
L 2938 0 
L 2938 2094 
Q 2938 2591 2744 2837 
Q 2550 3084 2163 3084 
Q 1697 3084 1428 2787 
Q 1159 2491 1159 1978 
L 1159 0 
L 581 0 
L 581 3500 
L 1159 3500 
L 1159 2956 
Q 1366 3272 1645 3428 
Q 1925 3584 2291 3584 
Q 2894 3584 3203 3211 
Q 3513 2838 3513 2113 
z
" transform="scale(0.015625)"/>
       <path id="DejaVuSans-20" transform="scale(0.015625)"/>
       <path id="DejaVuSans-5b" d="M 550 4863 
L 1875 4863 
L 1875 4416 
L 1125 4416 
L 1125 -397 
L 1875 -397 
L 1875 -844 
L 550 -844 
L 550 4863 
z
" transform="scale(0.015625)"/>
       <path id="DejaVuSans-6d" d="M 3328 2828 
Q 3544 3216 3844 3400 
Q 4144 3584 4550 3584 
Q 5097 3584 5394 3201 
Q 5691 2819 5691 2113 
L 5691 0 
L 5113 0 
L 5113 2094 
Q 5113 2597 4934 2840 
Q 4756 3084 4391 3084 
Q 3944 3084 3684 2787 
Q 3425 2491 3425 1978 
L 3425 0 
L 2847 0 
L 2847 2094 
Q 2847 2600 2669 2842 
Q 2491 3084 2119 3084 
Q 1678 3084 1418 2786 
Q 1159 2488 1159 1978 
L 1159 0 
L 581 0 
L 581 3500 
L 1159 3500 
L 1159 2956 
Q 1356 3278 1631 3431 
Q 1906 3584 2284 3584 
Q 2666 3584 2933 3390 
Q 3200 3197 3328 2828 
z
" transform="scale(0.015625)"/>
       <path id="DejaVuSans-5d" d="M 1947 4863 
L 1947 -844 
L 622 -844 
L 622 -397 
L 1369 -397 
L 1369 4416 
L 622 4416 
L 622 4863 
L 1947 4863 
z
" transform="scale(0.015625)"/>
      </defs>
      <use xlink:href="#DejaVuSans-45"/>
      <use xlink:href="#DejaVuSans-6c" transform="translate(63.183594 0)"/>
      <use xlink:href="#DejaVuSans-65" transform="translate(90.966797 0)"/>
      <use xlink:href="#DejaVuSans-76" transform="translate(152.490234 0)"/>
      <use xlink:href="#DejaVuSans-61" transform="translate(211.669922 0)"/>
      <use xlink:href="#DejaVuSans-74" transform="translate(272.949219 0)"/>
      <use xlink:href="#DejaVuSans-69" transform="translate(312.158203 0)"/>
      <use xlink:href="#DejaVuSans-6f" transform="translate(339.941406 0)"/>
      <use xlink:href="#DejaVuSans-6e" transform="translate(401.123047 0)"/>
      <use xlink:href="#DejaVuSans-20" transform="translate(464.501953 0)"/>
      <use xlink:href="#DejaVuSans-5b" transform="translate(496.289062 0)"/>
      <use xlink:href="#DejaVuSans-6d" transform="translate(535.302734 0)"/>
      <use xlink:href="#DejaVuSans-5d" transform="translate(632.714844 0)"/>
     </g>
    </g>
   </g>
   <g id="line2d_23">
    <path d="M 108 210.24 
L 113.113761 210.127769 
L 118.231054 209.792018 
L 123.423823 209.22668 
L 128.696173 208.427832 
L 134.121378 207.379265 
L 139.774306 206.056313 
L 145.662711 204.447461 
L 151.935695 202.500897 
L 158.819234 200.126837 
L 166.623119 197.193158 
L 176.477981 193.235296 
L 204.439223 181.85837 
L 212.186449 179.031916 
L 219.035051 176.765968 
L 225.260227 174.935701 
L 231.155905 173.432151 
L 236.785234 172.226112 
L 242.214837 171.290883 
L 247.514281 170.605398 
L 252.671988 170.161783 
L 257.760511 169.945179 
L 262.853564 169.950656 
L 267.94162 170.178111 
L 273.098398 170.632451 
L 278.313905 171.315898 
L 283.660349 172.241977 
L 289.207731 173.432151 
L 294.94276 174.891653 
L 301.011281 176.667094 
L 307.551659 178.815086 
L 314.847752 181.451308 
L 323.466136 184.812067 
L 336.067223 189.994474 
L 352.240254 196.605622 
L 360.767909 199.845389 
L 368.008176 202.362831 
L 374.492496 204.386478 
L 380.520236 206.038758 
L 386.242258 207.379265 
L 391.736025 208.439637 
L 397.07659 209.244424 
L 402.26912 209.803852 
L 407.386273 210.133671 
L 412.295461 210.23998 
L 412.295461 210.23998 
" clip-path="url(#p7043202638)" style="fill: none; stroke: #1f77b4; stroke-width: 3; stroke-linecap: square"/>
   </g>
   <g id="line2d_24">
    <path d="M 108 209.218296 
L 113.591171 209.107641 
L 119.18696 208.776084 
L 124.86045 208.216793 
L 130.616967 207.423895 
L 136.462315 206.392684 
L 142.472084 205.103803 
L 148.654483 203.548061 
L 155.089106 201.697784 
L 161.93023 199.495357 
L 169.340505 196.870405 
L 177.7126 193.661043 
L 188.361643 189.324116 
L 211.561777 179.801889 
L 219.193676 176.961669 
L 225.661947 174.786405 
L 231.480798 173.060628 
L 236.867191 171.692801 
L 241.967191 170.626647 
L 246.850293 169.8332 
L 251.589032 169.289261 
L 256.174631 168.983635 
L 260.766311 168.900113 
L 265.357099 169.040542 
L 269.94006 169.401823 
L 274.674326 170.00087 
L 279.551119 170.84741 
L 284.561089 171.944236 
L 289.85696 173.33251 
L 295.585057 175.06865 
L 301.883358 177.215861 
L 309.113874 179.923043 
L 318.299388 183.614405 
L 348.14973 195.794735 
L 356.162169 198.715429 
L 363.306156 201.087764 
L 369.965337 203.069123 
L 376.297458 204.724412 
L 382.384412 206.088831 
L 388.304632 207.190378 
L 394.134116 208.048602 
L 399.810623 208.661828 
L 405.476461 209.050448 
L 411.06829 209.212353 
L 412.295461 209.21828 
L 412.295461 209.21828 
" clip-path="url(#p7043202638)" style="fill: none; stroke: #ff7f0e; stroke-width: 3; stroke-linecap: square"/>
   </g>
   <g id="line2d_25">
    <path d="M 108 190.08 
L 412.363636 190.08 
" clip-path="url(#p7043202638)" style="fill: none; stroke-dasharray: 3.7,1.6; stroke-dashoffset: 0; stroke: #000000"/>
   </g>
   <g id="patch_3">
    <path d="M 108 270.72 
L 108 69.12 
" style="fill: none; stroke: #000000; stroke-width: 0.8; stroke-linejoin: miter; stroke-linecap: square"/>
   </g>
   <g id="patch_4">
    <path d="M 412.363636 270.72 
L 412.363636 69.12 
" style="fill: none; stroke: #000000; stroke-width: 0.8; stroke-linejoin: miter; stroke-linecap: square"/>
   </g>
   <g id="patch_5">
    <path d="M 108 270.72 
L 412.363636 270.72 
" style="fill: none; stroke: #000000; stroke-width: 0.8; stroke-linejoin: miter; stroke-linecap: square"/>
   </g>
   <g id="patch_6">
    <path d="M 108 69.12 
L 412.363636 69.12 
" style="fill: none; stroke: #000000; stroke-width: 0.8; stroke-linejoin: miter; stroke-linecap: square"/>
   </g>
   <g id="text_8">
    <!-- $ak = 0.1$ -->
    <g transform="translate(226.497818 63.12) scale(0.168 -0.168)">
     <defs>
      <path id="DejaVuSans-Oblique-61" d="M 3438 1997 
L 3047 0 
L 2472 0 
L 2578 531 
Q 2325 219 2001 64 
Q 1678 -91 1281 -91 
Q 834 -91 548 182 
Q 263 456 263 884 
Q 263 1497 752 1853 
Q 1241 2209 2100 2209 
L 2900 2209 
L 2931 2363 
Q 2938 2388 2941 2417 
Q 2944 2447 2944 2509 
Q 2944 2788 2717 2942 
Q 2491 3097 2081 3097 
Q 1800 3097 1504 3025 
Q 1209 2953 897 2809 
L 997 3341 
Q 1322 3463 1633 3523 
Q 1944 3584 2234 3584 
Q 2853 3584 3176 3315 
Q 3500 3047 3500 2534 
Q 3500 2431 3484 2292 
Q 3469 2153 3438 1997 
z
M 2816 1759 
L 2241 1759 
Q 1534 1759 1195 1570 
Q 856 1381 856 984 
Q 856 709 1029 553 
Q 1203 397 1509 397 
Q 1978 397 2328 733 
Q 2678 1069 2791 1631 
L 2816 1759 
z
" transform="scale(0.015625)"/>
      <path id="DejaVuSans-Oblique-6b" d="M 1172 4863 
L 1747 4863 
L 1197 2028 
L 3169 3500 
L 3916 3500 
L 1716 1825 
L 3322 0 
L 2625 0 
L 1131 1709 
L 800 0 
L 225 0 
L 1172 4863 
z
" transform="scale(0.015625)"/>
      <path id="DejaVuSans-3d" d="M 678 2906 
L 4684 2906 
L 4684 2381 
L 678 2381 
L 678 2906 
z
M 678 1631 
L 4684 1631 
L 4684 1100 
L 678 1100 
L 678 1631 
z
" transform="scale(0.015625)"/>
      <path id="DejaVuSans-31" d="M 794 531 
L 1825 531 
L 1825 4091 
L 703 3866 
L 703 4441 
L 1819 4666 
L 2450 4666 
L 2450 531 
L 3481 531 
L 3481 0 
L 794 0 
L 794 531 
z
" transform="scale(0.015625)"/>
     </defs>
     <use xlink:href="#DejaVuSans-Oblique-61" transform="translate(0 0.015625)"/>
     <use xlink:href="#DejaVuSans-Oblique-6b" transform="translate(61.279297 0.015625)"/>
     <use xlink:href="#DejaVuSans-3d" transform="translate(138.671875 0.015625)"/>
     <use xlink:href="#DejaVuSans-30" transform="translate(241.943359 0.015625)"/>
     <use xlink:href="#DejaVuSans-2e" transform="translate(305.566406 0.015625)"/>
     <use xlink:href="#DejaVuSans-31" transform="translate(337.353516 0.015625)"/>
    </g>
   </g>
   <g id="legend_1">
    <g id="patch_7">
     <path d="M 117.8 121.41875 
L 271.491562 121.41875 
Q 274.291562 121.41875 274.291562 118.61875 
L 274.291562 78.92 
Q 274.291562 76.12 271.491562 76.12 
L 117.8 76.12 
Q 115 76.12 115 78.92 
L 115 118.61875 
Q 115 121.41875 117.8 121.41875 
z
" style="fill: #ffffff; opacity: 0.8; stroke: #cccccc; stroke-linejoin: miter"/>
    </g>
    <g id="line2d_26">
     <path d="M 120.6 87.457813 
L 134.6 87.457813 
L 148.6 87.457813 
" style="fill: none; stroke: #1f77b4; stroke-width: 3; stroke-linecap: square"/>
    </g>
    <g id="text_9">
     <!-- Linear wave -->
     <g transform="translate(159.8 92.357813) scale(0.14 -0.14)">
      <defs>
       <path id="DejaVuSans-4c" d="M 628 4666 
L 1259 4666 
L 1259 531 
L 3531 531 
L 3531 0 
L 628 0 
L 628 4666 
z
" transform="scale(0.015625)"/>
       <path id="DejaVuSans-72" d="M 2631 2963 
Q 2534 3019 2420 3045 
Q 2306 3072 2169 3072 
Q 1681 3072 1420 2755 
Q 1159 2438 1159 1844 
L 1159 0 
L 581 0 
L 581 3500 
L 1159 3500 
L 1159 2956 
Q 1341 3275 1631 3429 
Q 1922 3584 2338 3584 
Q 2397 3584 2469 3576 
Q 2541 3569 2628 3553 
L 2631 2963 
z
" transform="scale(0.015625)"/>
       <path id="DejaVuSans-77" d="M 269 3500 
L 844 3500 
L 1563 769 
L 2278 3500 
L 2956 3500 
L 3675 769 
L 4391 3500 
L 4966 3500 
L 4050 0 
L 3372 0 
L 2619 2869 
L 1863 0 
L 1184 0 
L 269 3500 
z
" transform="scale(0.015625)"/>
      </defs>
      <use xlink:href="#DejaVuSans-4c"/>
      <use xlink:href="#DejaVuSans-69" transform="translate(55.712891 0)"/>
      <use xlink:href="#DejaVuSans-6e" transform="translate(83.496094 0)"/>
      <use xlink:href="#DejaVuSans-65" transform="translate(146.875 0)"/>
      <use xlink:href="#DejaVuSans-61" transform="translate(208.398438 0)"/>
      <use xlink:href="#DejaVuSans-72" transform="translate(269.677734 0)"/>
      <use xlink:href="#DejaVuSans-20" transform="translate(310.791016 0)"/>
      <use xlink:href="#DejaVuSans-77" transform="translate(342.578125 0)"/>
      <use xlink:href="#DejaVuSans-61" transform="translate(424.365234 0)"/>
      <use xlink:href="#DejaVuSans-76" transform="translate(485.644531 0)"/>
      <use xlink:href="#DejaVuSans-65" transform="translate(544.824219 0)"/>
     </g>
    </g>
    <g id="line2d_27">
     <path d="M 120.6 108.007188 
L 134.6 108.007188 
L 148.6 108.007188 
" style="fill: none; stroke: #ff7f0e; stroke-width: 3; stroke-linecap: square"/>
    </g>
    <g id="text_10">
     <!-- Nonlinear wave -->
     <g transform="translate(159.8 112.907188) scale(0.14 -0.14)">
      <defs>
       <path id="DejaVuSans-4e" d="M 628 4666 
L 1478 4666 
L 3547 763 
L 3547 4666 
L 4159 4666 
L 4159 0 
L 3309 0 
L 1241 3903 
L 1241 0 
L 628 0 
L 628 4666 
z
" transform="scale(0.015625)"/>
      </defs>
      <use xlink:href="#DejaVuSans-4e"/>
      <use xlink:href="#DejaVuSans-6f" transform="translate(74.804688 0)"/>
      <use xlink:href="#DejaVuSans-6e" transform="translate(135.986328 0)"/>
      <use xlink:href="#DejaVuSans-6c" transform="translate(199.365234 0)"/>
      <use xlink:href="#DejaVuSans-69" transform="translate(227.148438 0)"/>
      <use xlink:href="#DejaVuSans-6e" transform="translate(254.931641 0)"/>
      <use xlink:href="#DejaVuSans-65" transform="translate(318.310547 0)"/>
      <use xlink:href="#DejaVuSans-61" transform="translate(379.833984 0)"/>
      <use xlink:href="#DejaVuSans-72" transform="translate(441.113281 0)"/>
      <use xlink:href="#DejaVuSans-20" transform="translate(482.226562 0)"/>
      <use xlink:href="#DejaVuSans-77" transform="translate(514.013672 0)"/>
      <use xlink:href="#DejaVuSans-61" transform="translate(595.800781 0)"/>
      <use xlink:href="#DejaVuSans-76" transform="translate(657.080078 0)"/>
      <use xlink:href="#DejaVuSans-65" transform="translate(716.259766 0)"/>
     </g>
    </g>
   </g>
  </g>
  <g id="axes_2">
   <g id="patch_8">
    <path d="M 473.236364 270.72 
L 777.6 270.72 
L 777.6 69.12 
L 473.236364 69.12 
z
" style="fill: #ffffff"/>
   </g>
   <g id="matplotlib.axis_3">
    <g id="xtick_6">
     <g id="line2d_28">
      <path d="M 473.236364 270.72 
L 473.236364 69.12 
" clip-path="url(#p191b22e6db)" style="fill: none; stroke: #b0b0b0; stroke-width: 0.8; stroke-linecap: square"/>
     </g>
     <g id="line2d_29">
      <g>
       <use xlink:href="#m4ef662ddf8" x="473.236364" y="270.72" style="stroke: #000000; stroke-width: 0.8"/>
      </g>
     </g>
    </g>
    <g id="xtick_7">
     <g id="line2d_30">
      <path d="M 549.327273 270.72 
L 549.327273 69.12 
" clip-path="url(#p191b22e6db)" style="fill: none; stroke: #b0b0b0; stroke-width: 0.8; stroke-linecap: square"/>
     </g>
     <g id="line2d_31">
      <g>
       <use xlink:href="#m4ef662ddf8" x="549.327273" y="270.72" style="stroke: #000000; stroke-width: 0.8"/>
      </g>
     </g>
    </g>
    <g id="xtick_8">
     <g id="line2d_32">
      <path d="M 625.418182 270.72 
L 625.418182 69.12 
" clip-path="url(#p191b22e6db)" style="fill: none; stroke: #b0b0b0; stroke-width: 0.8; stroke-linecap: square"/>
     </g>
     <g id="line2d_33">
      <g>
       <use xlink:href="#m4ef662ddf8" x="625.418182" y="270.72" style="stroke: #000000; stroke-width: 0.8"/>
      </g>
     </g>
    </g>
    <g id="xtick_9">
     <g id="line2d_34">
      <path d="M 701.509091 270.72 
L 701.509091 69.12 
" clip-path="url(#p191b22e6db)" style="fill: none; stroke: #b0b0b0; stroke-width: 0.8; stroke-linecap: square"/>
     </g>
     <g id="line2d_35">
      <g>
       <use xlink:href="#m4ef662ddf8" x="701.509091" y="270.72" style="stroke: #000000; stroke-width: 0.8"/>
      </g>
     </g>
    </g>
    <g id="xtick_10">
     <g id="line2d_36">
      <path d="M 777.6 270.72 
L 777.6 69.12 
" clip-path="url(#p191b22e6db)" style="fill: none; stroke: #b0b0b0; stroke-width: 0.8; stroke-linecap: square"/>
     </g>
     <g id="line2d_37">
      <g>
       <use xlink:href="#m4ef662ddf8" x="777.6" y="270.72" style="stroke: #000000; stroke-width: 0.8"/>
      </g>
     </g>
    </g>
   </g>
   <g id="matplotlib.axis_4">
    <g id="ytick_7">
     <g id="line2d_38">
      <path d="M 473.236364 270.72 
L 777.6 270.72 
" clip-path="url(#p191b22e6db)" style="fill: none; stroke: #b0b0b0; stroke-width: 0.8; stroke-linecap: square"/>
     </g>
     <g id="line2d_39">
      <g>
       <use xlink:href="#m38773a80f3" x="473.236364" y="270.72" style="stroke: #000000; stroke-width: 0.8"/>
      </g>
     </g>
    </g>
    <g id="ytick_8">
     <g id="line2d_40">
      <path d="M 473.236364 230.4 
L 777.6 230.4 
" clip-path="url(#p191b22e6db)" style="fill: none; stroke: #b0b0b0; stroke-width: 0.8; stroke-linecap: square"/>
     </g>
     <g id="line2d_41">
      <g>
       <use xlink:href="#m38773a80f3" x="473.236364" y="230.4" style="stroke: #000000; stroke-width: 0.8"/>
      </g>
     </g>
    </g>
    <g id="ytick_9">
     <g id="line2d_42">
      <path d="M 473.236364 190.08 
L 777.6 190.08 
" clip-path="url(#p191b22e6db)" style="fill: none; stroke: #b0b0b0; stroke-width: 0.8; stroke-linecap: square"/>
     </g>
     <g id="line2d_43">
      <g>
       <use xlink:href="#m38773a80f3" x="473.236364" y="190.08" style="stroke: #000000; stroke-width: 0.8"/>
      </g>
     </g>
    </g>
    <g id="ytick_10">
     <g id="line2d_44">
      <path d="M 473.236364 149.76 
L 777.6 149.76 
" clip-path="url(#p191b22e6db)" style="fill: none; stroke: #b0b0b0; stroke-width: 0.8; stroke-linecap: square"/>
     </g>
     <g id="line2d_45">
      <g>
       <use xlink:href="#m38773a80f3" x="473.236364" y="149.76" style="stroke: #000000; stroke-width: 0.8"/>
      </g>
     </g>
    </g>
    <g id="ytick_11">
     <g id="line2d_46">
      <path d="M 473.236364 109.44 
L 777.6 109.44 
" clip-path="url(#p191b22e6db)" style="fill: none; stroke: #b0b0b0; stroke-width: 0.8; stroke-linecap: square"/>
     </g>
     <g id="line2d_47">
      <g>
       <use xlink:href="#m38773a80f3" x="473.236364" y="109.44" style="stroke: #000000; stroke-width: 0.8"/>
      </g>
     </g>
    </g>
    <g id="ytick_12">
     <g id="line2d_48">
      <path d="M 473.236364 69.12 
L 777.6 69.12 
" clip-path="url(#p191b22e6db)" style="fill: none; stroke: #b0b0b0; stroke-width: 0.8; stroke-linecap: square"/>
     </g>
     <g id="line2d_49">
      <g>
       <use xlink:href="#m38773a80f3" x="473.236364" y="69.12" style="stroke: #000000; stroke-width: 0.8"/>
      </g>
     </g>
    </g>
   </g>
   <g id="line2d_50">
    <path d="M 473.236364 230.4 
L 476.826477 230.289317 
L 480.418149 229.957683 
L 484.077181 229.394515 
L 487.741133 228.605931 
L 491.476185 227.575324 
L 495.284597 226.295108 
L 499.233756 224.731409 
L 503.32728 222.867743 
L 507.569459 220.68968 
L 512.031175 218.146109 
L 516.786094 215.174044 
L 521.911837 211.700493 
L 527.491703 207.645633 
L 533.891507 202.711682 
L 541.860126 196.270717 
L 567.835914 175.046395 
L 574.08904 170.355395 
L 579.639418 166.464223 
L 584.68198 163.196286 
L 589.347806 160.431014 
L 593.782001 158.057385 
L 597.963724 156.064257 
L 602.05395 154.359726 
L 605.945925 152.973967 
L 609.810075 151.834935 
L 613.538453 150.966424 
L 617.21192 150.337187 
L 620.817016 149.94175 
L 624.438309 149.768249 
L 628.063109 149.820088 
L 631.67849 150.096242 
L 635.272155 150.59136 
L 638.928886 151.318129 
L 642.635867 152.280213 
L 646.474185 153.509452 
L 650.428586 155.015778 
L 654.485069 156.803549 
L 658.718749 158.917919 
L 663.113699 161.36424 
L 667.739448 164.193766 
L 672.740898 167.517654 
L 678.170489 171.396912 
L 684.30636 176.06033 
L 691.695283 181.96721 
L 703.46785 191.709935 
L 715.226514 201.345754 
L 722.329493 206.881256 
L 728.322375 211.27578 
L 733.652448 214.914019 
L 738.541899 217.988354 
L 743.136042 220.618671 
L 747.509084 222.867743 
L 751.667456 224.758976 
L 755.681034 226.342279 
L 759.553569 227.634214 
L 763.352546 228.668565 
L 767.080323 229.452974 
L 770.739004 229.99625 
L 774.330473 230.308194 
L 777.535895 230.399965 
L 777.535895 230.399965 
" clip-path="url(#p191b22e6db)" style="fill: none; stroke: #1f77b4; stroke-width: 3; stroke-linecap: square"/>
   </g>
   <g id="line2d_51">
    <path d="M 473.236364 226.13439 
L 477.595936 226.02301 
L 481.958303 225.688776 
L 486.326285 225.131413 
L 490.702762 224.35047 
L 495.155329 223.328877 
L 499.622923 222.075657 
L 504.1741 220.566653 
L 508.813514 218.790554 
L 513.480496 216.766088 
L 518.312482 214.424566 
L 523.250869 211.781004 
L 528.303662 208.823945 
L 533.617242 205.452385 
L 539.138752 201.682686 
L 545.026812 197.390018 
L 551.45537 192.422319 
L 558.844184 186.421903 
L 569.149547 177.735253 
L 582.185302 166.789927 
L 588.405194 161.86334 
L 593.430364 158.153267 
L 597.873789 155.143845 
L 601.870385 152.704184 
L 605.478953 150.754661 
L 608.86204 149.172265 
L 612.098912 147.901483 
L 615.177482 146.929493 
L 618.183985 146.215011 
L 621.110197 145.750972 
L 623.948454 145.524313 
L 626.789945 145.520458 
L 629.628417 145.739484 
L 632.457739 146.176982 
L 635.368873 146.850299 
L 638.35422 147.767624 
L 641.500737 148.971028 
L 644.79693 150.475436 
L 648.322786 152.338154 
L 652.061336 154.569968 
L 656.172363 157.289534 
L 660.799988 160.628055 
L 666.154383 164.776224 
L 672.902713 170.302003 
L 685.680927 181.127401 
L 695.675094 189.446017 
L 702.897552 195.173184 
L 709.25631 199.935269 
L 715.08873 204.028897 
L 720.56458 207.605625 
L 725.839642 210.78756 
L 730.926964 213.597008 
L 735.837371 216.056841 
L 740.645544 218.217683 
L 745.357926 220.091408 
L 749.980148 221.689776 
L 754.517158 223.024316 
L 758.973328 224.106252 
L 763.41687 224.957159 
L 767.786703 225.570368 
L 772.150207 225.960351 
L 776.510216 226.127429 
L 777.535895 226.134366 
L 777.535895 226.134366 
" clip-path="url(#p191b22e6db)" style="fill: none; stroke: #ff7f0e; stroke-width: 3; stroke-linecap: square"/>
   </g>
   <g id="line2d_52">
    <path d="M 473.236364 190.08 
L 777.6 190.08 
" clip-path="url(#p191b22e6db)" style="fill: none; stroke-dasharray: 3.7,1.6; stroke-dashoffset: 0; stroke: #000000"/>
   </g>
   <g id="patch_9">
    <path d="M 473.236364 270.72 
L 473.236364 69.12 
" style="fill: none; stroke: #000000; stroke-width: 0.8; stroke-linejoin: miter; stroke-linecap: square"/>
   </g>
   <g id="patch_10">
    <path d="M 777.6 270.72 
L 777.6 69.12 
" style="fill: none; stroke: #000000; stroke-width: 0.8; stroke-linejoin: miter; stroke-linecap: square"/>
   </g>
   <g id="patch_11">
    <path d="M 473.236364 270.72 
L 777.6 270.72 
" style="fill: none; stroke: #000000; stroke-width: 0.8; stroke-linejoin: miter; stroke-linecap: square"/>
   </g>
   <g id="patch_12">
    <path d="M 473.236364 69.12 
L 777.6 69.12 
" style="fill: none; stroke: #000000; stroke-width: 0.8; stroke-linejoin: miter; stroke-linecap: square"/>
   </g>
   <g id="text_11">
    <!-- $ak = 0.2$ -->
    <g transform="translate(592.154182 63.12) scale(0.168 -0.168)">
     <use xlink:href="#DejaVuSans-Oblique-61" transform="translate(0 0.015625)"/>
     <use xlink:href="#DejaVuSans-Oblique-6b" transform="translate(61.279297 0.015625)"/>
     <use xlink:href="#DejaVuSans-3d" transform="translate(138.671875 0.015625)"/>
     <use xlink:href="#DejaVuSans-30" transform="translate(241.943359 0.015625)"/>
     <use xlink:href="#DejaVuSans-2e" transform="translate(305.566406 0.015625)"/>
     <use xlink:href="#DejaVuSans-32" transform="translate(331.853516 0.015625)"/>
    </g>
   </g>
  </g>
  <g id="axes_3">
   <g id="patch_13">
    <path d="M 108 512.64 
L 412.363636 512.64 
L 412.363636 311.04 
L 108 311.04 
z
" style="fill: #ffffff"/>
   </g>
   <g id="matplotlib.axis_5">
    <g id="xtick_11">
     <g id="line2d_53">
      <path d="M 108 512.64 
L 108 311.04 
" clip-path="url(#p936bf56fb2)" style="fill: none; stroke: #b0b0b0; stroke-width: 0.8; stroke-linecap: square"/>
     </g>
     <g id="line2d_54">
      <g>
       <use xlink:href="#m4ef662ddf8" x="108" y="512.64" style="stroke: #000000; stroke-width: 0.8"/>
      </g>
     </g>
     <g id="text_12">
      <!-- -π -->
      <g transform="translate(101.260312 530.277812) scale(0.14 -0.14)">
       <defs>
        <path id="DejaVuSans-2d" d="M 313 2009 
L 1997 2009 
L 1997 1497 
L 313 1497 
L 313 2009 
z
" transform="scale(0.015625)"/>
        <path id="DejaVuSans-3c0" d="M 231 3500 
L 3584 3500 
L 3584 2925 
L 3144 2925 
L 3144 775 
Q 3144 550 3220 451 
Q 3297 353 3469 353 
Q 3516 353 3584 361 
Q 3653 369 3675 372 
L 3675 -44 
Q 3566 -84 3450 -103 
Q 3334 -122 3219 -122 
Q 2844 -122 2700 83 
Q 2556 288 2556 838 
L 2556 2925 
L 1266 2925 
L 1266 0 
L 678 0 
L 678 2925 
L 231 2925 
L 231 3500 
z
" transform="scale(0.015625)"/>
       </defs>
       <use xlink:href="#DejaVuSans-2d"/>
       <use xlink:href="#DejaVuSans-3c0" transform="translate(36.083984 0)"/>
      </g>
     </g>
    </g>
    <g id="xtick_12">
     <g id="line2d_55">
      <path d="M 184.090909 512.64 
L 184.090909 311.04 
" clip-path="url(#p936bf56fb2)" style="fill: none; stroke: #b0b0b0; stroke-width: 0.8; stroke-linecap: square"/>
     </g>
     <g id="line2d_56">
      <g>
       <use xlink:href="#m4ef662ddf8" x="184.090909" y="512.64" style="stroke: #000000; stroke-width: 0.8"/>
      </g>
     </g>
     <g id="text_13">
      <!-- -π/2 -->
      <g transform="translate(170.539347 530.277812) scale(0.14 -0.14)">
       <defs>
        <path id="DejaVuSans-2f" d="M 1625 4666 
L 2156 4666 
L 531 -594 
L 0 -594 
L 1625 4666 
z
" transform="scale(0.015625)"/>
       </defs>
       <use xlink:href="#DejaVuSans-2d"/>
       <use xlink:href="#DejaVuSans-3c0" transform="translate(36.083984 0)"/>
       <use xlink:href="#DejaVuSans-2f" transform="translate(96.289062 0)"/>
       <use xlink:href="#DejaVuSans-32" transform="translate(129.980469 0)"/>
      </g>
     </g>
    </g>
    <g id="xtick_13">
     <g id="line2d_57">
      <path d="M 260.181818 512.64 
L 260.181818 311.04 
" clip-path="url(#p936bf56fb2)" style="fill: none; stroke: #b0b0b0; stroke-width: 0.8; stroke-linecap: square"/>
     </g>
     <g id="line2d_58">
      <g>
       <use xlink:href="#m4ef662ddf8" x="260.181818" y="512.64" style="stroke: #000000; stroke-width: 0.8"/>
      </g>
     </g>
     <g id="text_14">
      <!-- 0 -->
      <g transform="translate(255.728068 530.277812) scale(0.14 -0.14)">
       <use xlink:href="#DejaVuSans-30"/>
      </g>
     </g>
    </g>
    <g id="xtick_14">
     <g id="line2d_59">
      <path d="M 336.272727 512.64 
L 336.272727 311.04 
" clip-path="url(#p936bf56fb2)" style="fill: none; stroke: #b0b0b0; stroke-width: 0.8; stroke-linecap: square"/>
     </g>
     <g id="line2d_60">
      <g>
       <use xlink:href="#m4ef662ddf8" x="336.272727" y="512.64" style="stroke: #000000; stroke-width: 0.8"/>
      </g>
     </g>
     <g id="text_15">
      <!-- π/2 -->
      <g transform="translate(325.246634 530.277812) scale(0.14 -0.14)">
       <use xlink:href="#DejaVuSans-3c0"/>
       <use xlink:href="#DejaVuSans-2f" transform="translate(60.205078 0)"/>
       <use xlink:href="#DejaVuSans-32" transform="translate(93.896484 0)"/>
      </g>
     </g>
    </g>
    <g id="xtick_15">
     <g id="line2d_61">
      <path d="M 412.363636 512.64 
L 412.363636 311.04 
" clip-path="url(#p936bf56fb2)" style="fill: none; stroke: #b0b0b0; stroke-width: 0.8; stroke-linecap: square"/>
     </g>
     <g id="line2d_62">
      <g>
       <use xlink:href="#m4ef662ddf8" x="412.363636" y="512.64" style="stroke: #000000; stroke-width: 0.8"/>
      </g>
     </g>
     <g id="text_16">
      <!-- π -->
      <g transform="translate(408.149418 530.277812) scale(0.14 -0.14)">
       <use xlink:href="#DejaVuSans-3c0"/>
      </g>
     </g>
    </g>
    <g id="text_17">
     <!-- Phase -->
     <g transform="translate(239.281349 547.827188) scale(0.14 -0.14)">
      <defs>
       <path id="DejaVuSans-50" d="M 1259 4147 
L 1259 2394 
L 2053 2394 
Q 2494 2394 2734 2622 
Q 2975 2850 2975 3272 
Q 2975 3691 2734 3919 
Q 2494 4147 2053 4147 
L 1259 4147 
z
M 628 4666 
L 2053 4666 
Q 2838 4666 3239 4311 
Q 3641 3956 3641 3272 
Q 3641 2581 3239 2228 
Q 2838 1875 2053 1875 
L 1259 1875 
L 1259 0 
L 628 0 
L 628 4666 
z
" transform="scale(0.015625)"/>
       <path id="DejaVuSans-68" d="M 3513 2113 
L 3513 0 
L 2938 0 
L 2938 2094 
Q 2938 2591 2744 2837 
Q 2550 3084 2163 3084 
Q 1697 3084 1428 2787 
Q 1159 2491 1159 1978 
L 1159 0 
L 581 0 
L 581 4863 
L 1159 4863 
L 1159 2956 
Q 1366 3272 1645 3428 
Q 1925 3584 2291 3584 
Q 2894 3584 3203 3211 
Q 3513 2838 3513 2113 
z
" transform="scale(0.015625)"/>
       <path id="DejaVuSans-73" d="M 2834 3397 
L 2834 2853 
Q 2591 2978 2328 3040 
Q 2066 3103 1784 3103 
Q 1356 3103 1142 2972 
Q 928 2841 928 2578 
Q 928 2378 1081 2264 
Q 1234 2150 1697 2047 
L 1894 2003 
Q 2506 1872 2764 1633 
Q 3022 1394 3022 966 
Q 3022 478 2636 193 
Q 2250 -91 1575 -91 
Q 1294 -91 989 -36 
Q 684 19 347 128 
L 347 722 
Q 666 556 975 473 
Q 1284 391 1588 391 
Q 1994 391 2212 530 
Q 2431 669 2431 922 
Q 2431 1156 2273 1281 
Q 2116 1406 1581 1522 
L 1381 1569 
Q 847 1681 609 1914 
Q 372 2147 372 2553 
Q 372 3047 722 3315 
Q 1072 3584 1716 3584 
Q 2034 3584 2315 3537 
Q 2597 3491 2834 3397 
z
" transform="scale(0.015625)"/>
      </defs>
      <use xlink:href="#DejaVuSans-50"/>
      <use xlink:href="#DejaVuSans-68" transform="translate(60.302734 0)"/>
      <use xlink:href="#DejaVuSans-61" transform="translate(123.681641 0)"/>
      <use xlink:href="#DejaVuSans-73" transform="translate(184.960938 0)"/>
      <use xlink:href="#DejaVuSans-65" transform="translate(237.060547 0)"/>
     </g>
    </g>
   </g>
   <g id="matplotlib.axis_6">
    <g id="ytick_13">
     <g id="line2d_63">
      <path d="M 108 512.64 
L 412.363636 512.64 
" clip-path="url(#p936bf56fb2)" style="fill: none; stroke: #b0b0b0; stroke-width: 0.8; stroke-linecap: square"/>
     </g>
     <g id="line2d_64">
      <g>
       <use xlink:href="#m38773a80f3" x="108" y="512.64" style="stroke: #000000; stroke-width: 0.8"/>
      </g>
     </g>
     <g id="text_18">
      <!-- −0.4 -->
      <g transform="translate(67.004063 517.958906) scale(0.14 -0.14)">
       <use xlink:href="#DejaVuSans-2212"/>
       <use xlink:href="#DejaVuSans-30" transform="translate(83.789062 0)"/>
       <use xlink:href="#DejaVuSans-2e" transform="translate(147.412109 0)"/>
       <use xlink:href="#DejaVuSans-34" transform="translate(179.199219 0)"/>
      </g>
     </g>
    </g>
    <g id="ytick_14">
     <g id="line2d_65">
      <path d="M 108 472.32 
L 412.363636 472.32 
" clip-path="url(#p936bf56fb2)" style="fill: none; stroke: #b0b0b0; stroke-width: 0.8; stroke-linecap: square"/>
     </g>
     <g id="line2d_66">
      <g>
       <use xlink:href="#m38773a80f3" x="108" y="472.32" style="stroke: #000000; stroke-width: 0.8"/>
      </g>
     </g>
     <g id="text_19">
      <!-- −0.2 -->
      <g transform="translate(67.004063 477.638906) scale(0.14 -0.14)">
       <use xlink:href="#DejaVuSans-2212"/>
       <use xlink:href="#DejaVuSans-30" transform="translate(83.789062 0)"/>
       <use xlink:href="#DejaVuSans-2e" transform="translate(147.412109 0)"/>
       <use xlink:href="#DejaVuSans-32" transform="translate(179.199219 0)"/>
      </g>
     </g>
    </g>
    <g id="ytick_15">
     <g id="line2d_67">
      <path d="M 108 432 
L 412.363636 432 
" clip-path="url(#p936bf56fb2)" style="fill: none; stroke: #b0b0b0; stroke-width: 0.8; stroke-linecap: square"/>
     </g>
     <g id="line2d_68">
      <g>
       <use xlink:href="#m38773a80f3" x="108" y="432" style="stroke: #000000; stroke-width: 0.8"/>
      </g>
     </g>
     <g id="text_20">
      <!-- 0.0 -->
      <g transform="translate(78.735625 437.318906) scale(0.14 -0.14)">
       <use xlink:href="#DejaVuSans-30"/>
       <use xlink:href="#DejaVuSans-2e" transform="translate(63.623047 0)"/>
       <use xlink:href="#DejaVuSans-30" transform="translate(95.410156 0)"/>
      </g>
     </g>
    </g>
    <g id="ytick_16">
     <g id="line2d_69">
      <path d="M 108 391.68 
L 412.363636 391.68 
" clip-path="url(#p936bf56fb2)" style="fill: none; stroke: #b0b0b0; stroke-width: 0.8; stroke-linecap: square"/>
     </g>
     <g id="line2d_70">
      <g>
       <use xlink:href="#m38773a80f3" x="108" y="391.68" style="stroke: #000000; stroke-width: 0.8"/>
      </g>
     </g>
     <g id="text_21">
      <!-- 0.2 -->
      <g transform="translate(78.735625 396.998906) scale(0.14 -0.14)">
       <use xlink:href="#DejaVuSans-30"/>
       <use xlink:href="#DejaVuSans-2e" transform="translate(63.623047 0)"/>
       <use xlink:href="#DejaVuSans-32" transform="translate(95.410156 0)"/>
      </g>
     </g>
    </g>
    <g id="ytick_17">
     <g id="line2d_71">
      <path d="M 108 351.36 
L 412.363636 351.36 
" clip-path="url(#p936bf56fb2)" style="fill: none; stroke: #b0b0b0; stroke-width: 0.8; stroke-linecap: square"/>
     </g>
     <g id="line2d_72">
      <g>
       <use xlink:href="#m38773a80f3" x="108" y="351.36" style="stroke: #000000; stroke-width: 0.8"/>
      </g>
     </g>
     <g id="text_22">
      <!-- 0.4 -->
      <g transform="translate(78.735625 356.678906) scale(0.14 -0.14)">
       <use xlink:href="#DejaVuSans-30"/>
       <use xlink:href="#DejaVuSans-2e" transform="translate(63.623047 0)"/>
       <use xlink:href="#DejaVuSans-34" transform="translate(95.410156 0)"/>
      </g>
     </g>
    </g>
    <g id="ytick_18">
     <g id="line2d_73">
      <path d="M 108 311.04 
L 412.363636 311.04 
" clip-path="url(#p936bf56fb2)" style="fill: none; stroke: #b0b0b0; stroke-width: 0.8; stroke-linecap: square"/>
     </g>
     <g id="line2d_74">
      <g>
       <use xlink:href="#m38773a80f3" x="108" y="311.04" style="stroke: #000000; stroke-width: 0.8"/>
      </g>
     </g>
     <g id="text_23">
      <!-- 0.6 -->
      <g transform="translate(78.735625 316.358906) scale(0.14 -0.14)">
       <use xlink:href="#DejaVuSans-30"/>
       <use xlink:href="#DejaVuSans-2e" transform="translate(63.623047 0)"/>
       <use xlink:href="#DejaVuSans-36" transform="translate(95.410156 0)"/>
      </g>
     </g>
    </g>
    <g id="text_24">
     <!-- Elevation [m] -->
     <g transform="translate(60.0925 458.861406) rotate(-90) scale(0.14 -0.14)">
      <use xlink:href="#DejaVuSans-45"/>
      <use xlink:href="#DejaVuSans-6c" transform="translate(63.183594 0)"/>
      <use xlink:href="#DejaVuSans-65" transform="translate(90.966797 0)"/>
      <use xlink:href="#DejaVuSans-76" transform="translate(152.490234 0)"/>
      <use xlink:href="#DejaVuSans-61" transform="translate(211.669922 0)"/>
      <use xlink:href="#DejaVuSans-74" transform="translate(272.949219 0)"/>
      <use xlink:href="#DejaVuSans-69" transform="translate(312.158203 0)"/>
      <use xlink:href="#DejaVuSans-6f" transform="translate(339.941406 0)"/>
      <use xlink:href="#DejaVuSans-6e" transform="translate(401.123047 0)"/>
      <use xlink:href="#DejaVuSans-20" transform="translate(464.501953 0)"/>
      <use xlink:href="#DejaVuSans-5b" transform="translate(496.289062 0)"/>
      <use xlink:href="#DejaVuSans-6d" transform="translate(535.302734 0)"/>
      <use xlink:href="#DejaVuSans-5d" transform="translate(632.714844 0)"/>
     </g>
    </g>
   </g>
   <g id="line2d_75">
    <path d="M 108 492.48 
L 110.958178 492.367262 
L 113.917208 492.029339 
L 116.877948 491.467103 
L 119.903034 490.663292 
L 122.931741 489.629405 
L 126.026988 488.340152 
L 129.252229 486.752202 
L 132.547233 484.879406 
L 135.97627 482.67087 
L 139.542091 480.105215 
L 143.247961 477.162901 
L 147.161042 473.769675 
L 151.350812 469.835141 
L 155.825855 465.32108 
L 160.726642 460.053024 
L 166.20281 453.829681 
L 172.618656 446.189928 
L 181.408455 435.347412 
L 197.341468 415.661825 
L 203.922714 407.925313 
L 209.430587 401.785908 
L 214.337275 396.642934 
L 218.84429 392.237054 
L 223.004859 388.47435 
L 226.969939 385.186692 
L 230.721526 382.364326 
L 234.235989 379.99 
L 237.691144 377.922437 
L 240.96854 376.215241 
L 244.151913 374.801339 
L 247.220292 373.672165 
L 250.267187 372.782387 
L 253.272889 372.134103 
L 256.213429 371.722834 
L 259.18731 371.532746 
L 262.16986 371.570927 
L 265.13521 371.835924 
L 268.05983 372.318053 
L 271.043135 373.033912 
L 274.062933 373.986214 
L 277.212096 375.219318 
L 280.359675 376.691511 
L 283.600781 378.451319 
L 287.0195 380.567084 
L 290.499553 382.983741 
L 294.126495 385.771307 
L 297.975603 389.012575 
L 302.028647 392.718371 
L 306.353735 396.975353 
L 311.091002 401.956905 
L 316.288395 407.750737 
L 322.286207 414.779038 
L 329.883586 424.046075 
L 352.780795 452.214181 
L 358.728897 459.043711 
L 363.895583 464.649033 
L 368.566845 469.399136 
L 372.886104 473.483014 
L 376.926796 477.00571 
L 380.758867 480.057743 
L 384.387366 482.67087 
L 387.878654 484.917083 
L 391.235586 486.817881 
L 394.522517 488.424118 
L 397.679295 489.722366 
L 400.769435 490.755896 
L 403.794204 491.536097 
L 406.754725 492.075025 
L 409.713627 492.389522 
L 412.302011 492.479951 
L 412.302011 492.479951 
" clip-path="url(#p936bf56fb2)" style="fill: none; stroke: #1f77b4; stroke-width: 3; stroke-linecap: square"/>
   </g>
   <g id="line2d_76">
    <path d="M 108 482.063214 
L 111.944384 481.951395 
L 115.890792 481.615721 
L 119.841264 481.055538 
L 123.797885 480.269748 
L 127.762798 479.256803 
L 131.800442 477.993447 
L 135.851387 476.491076 
L 139.91823 474.746524 
L 144.066765 472.72349 
L 148.237701 470.442362 
L 152.498277 467.857294 
L 156.853741 464.949726 
L 161.245341 461.74874 
L 165.743827 458.192134 
L 170.357428 454.256319 
L 175.096006 449.915398 
L 179.971523 445.140912 
L 184.998689 439.901658 
L 190.266886 434.083089 
L 195.804975 427.629791 
L 201.801872 420.295092 
L 208.721158 411.46801 
L 219.185086 397.702437 
L 227.986739 386.261814 
L 233.048866 380.039179 
L 237.07116 375.438013 
L 240.431319 371.917326 
L 243.372873 369.138225 
L 246.072169 366.8829 
L 248.498736 365.129889 
L 250.743432 363.764211 
L 252.908743 362.698758 
L 254.982859 361.924273 
L 256.954684 361.421025 
L 258.938798 361.150481 
L 260.803447 361.115039 
L 262.665962 361.291753 
L 264.643229 361.709027 
L 266.603906 362.35118 
L 268.662175 363.261311 
L 270.807204 364.454419 
L 273.143344 366.019238 
L 275.651099 367.980994 
L 278.310464 370.346498 
L 281.313455 373.323681 
L 284.721787 377.030238 
L 288.679763 381.677073 
L 293.577417 387.788133 
L 300.665427 397.025099 
L 315.753424 416.753231 
L 322.433626 425.069213 
L 328.314194 432.042121 
L 333.761304 438.16512 
L 338.955181 443.675562 
L 343.988331 448.692483 
L 348.810843 453.189549 
L 353.504251 457.267048 
L 358.079175 460.952037 
L 362.544439 464.269128 
L 366.971367 467.282286 
L 371.301456 469.962185 
L 375.540282 472.328081 
L 379.755403 474.427073 
L 383.887683 476.238533 
L 388.003145 477.799748 
L 392.042482 479.09603 
L 396.070635 480.155589 
L 400.028174 480.969679 
L 403.9793 481.557994 
L 407.926103 481.921687 
L 411.87063 482.061467 
L 412.302011 482.063187 
L 412.302011 482.063187 
" clip-path="url(#p936bf56fb2)" style="fill: none; stroke: #ff7f0e; stroke-width: 3; stroke-linecap: square"/>
   </g>
   <g id="line2d_77">
    <path d="M 108 432 
L 412.363636 432 
" clip-path="url(#p936bf56fb2)" style="fill: none; stroke-dasharray: 3.7,1.6; stroke-dashoffset: 0; stroke: #000000"/>
   </g>
   <g id="patch_14">
    <path d="M 108 512.64 
L 108 311.04 
" style="fill: none; stroke: #000000; stroke-width: 0.8; stroke-linejoin: miter; stroke-linecap: square"/>
   </g>
   <g id="patch_15">
    <path d="M 412.363636 512.64 
L 412.363636 311.04 
" style="fill: none; stroke: #000000; stroke-width: 0.8; stroke-linejoin: miter; stroke-linecap: square"/>
   </g>
   <g id="patch_16">
    <path d="M 108 512.64 
L 412.363636 512.64 
" style="fill: none; stroke: #000000; stroke-width: 0.8; stroke-linejoin: miter; stroke-linecap: square"/>
   </g>
   <g id="patch_17">
    <path d="M 108 311.04 
L 412.363636 311.04 
" style="fill: none; stroke: #000000; stroke-width: 0.8; stroke-linejoin: miter; stroke-linecap: square"/>
   </g>
   <g id="text_25">
    <!-- $ak = 0.3$ -->
    <g transform="translate(226.497818 305.04) scale(0.168 -0.168)">
     <defs>
      <path id="DejaVuSans-33" d="M 2597 2516 
Q 3050 2419 3304 2112 
Q 3559 1806 3559 1356 
Q 3559 666 3084 287 
Q 2609 -91 1734 -91 
Q 1441 -91 1130 -33 
Q 819 25 488 141 
L 488 750 
Q 750 597 1062 519 
Q 1375 441 1716 441 
Q 2309 441 2620 675 
Q 2931 909 2931 1356 
Q 2931 1769 2642 2001 
Q 2353 2234 1838 2234 
L 1294 2234 
L 1294 2753 
L 1863 2753 
Q 2328 2753 2575 2939 
Q 2822 3125 2822 3475 
Q 2822 3834 2567 4026 
Q 2313 4219 1838 4219 
Q 1578 4219 1281 4162 
Q 984 4106 628 3988 
L 628 4550 
Q 988 4650 1302 4700 
Q 1616 4750 1894 4750 
Q 2613 4750 3031 4423 
Q 3450 4097 3450 3541 
Q 3450 3153 3228 2886 
Q 3006 2619 2597 2516 
z
" transform="scale(0.015625)"/>
     </defs>
     <use xlink:href="#DejaVuSans-Oblique-61" transform="translate(0 0.015625)"/>
     <use xlink:href="#DejaVuSans-Oblique-6b" transform="translate(61.279297 0.015625)"/>
     <use xlink:href="#DejaVuSans-3d" transform="translate(138.671875 0.015625)"/>
     <use xlink:href="#DejaVuSans-30" transform="translate(241.943359 0.015625)"/>
     <use xlink:href="#DejaVuSans-2e" transform="translate(305.566406 0.015625)"/>
     <use xlink:href="#DejaVuSans-33" transform="translate(337.353516 0.015625)"/>
    </g>
   </g>
  </g>
  <g id="axes_4">
   <g id="patch_18">
    <path d="M 473.236364 512.64 
L 777.6 512.64 
L 777.6 311.04 
L 473.236364 311.04 
z
" style="fill: #ffffff"/>
   </g>
   <g id="matplotlib.axis_7">
    <g id="xtick_16">
     <g id="line2d_78">
      <path d="M 473.236364 512.64 
L 473.236364 311.04 
" clip-path="url(#pa899cf1679)" style="fill: none; stroke: #b0b0b0; stroke-width: 0.8; stroke-linecap: square"/>
     </g>
     <g id="line2d_79">
      <g>
       <use xlink:href="#m4ef662ddf8" x="473.236364" y="512.64" style="stroke: #000000; stroke-width: 0.8"/>
      </g>
     </g>
     <g id="text_26">
      <!-- -π -->
      <g transform="translate(466.496676 530.277812) scale(0.14 -0.14)">
       <use xlink:href="#DejaVuSans-2d"/>
       <use xlink:href="#DejaVuSans-3c0" transform="translate(36.083984 0)"/>
      </g>
     </g>
    </g>
    <g id="xtick_17">
     <g id="line2d_80">
      <path d="M 549.327273 512.64 
L 549.327273 311.04 
" clip-path="url(#pa899cf1679)" style="fill: none; stroke: #b0b0b0; stroke-width: 0.8; stroke-linecap: square"/>
     </g>
     <g id="line2d_81">
      <g>
       <use xlink:href="#m4ef662ddf8" x="549.327273" y="512.64" style="stroke: #000000; stroke-width: 0.8"/>
      </g>
     </g>
     <g id="text_27">
      <!-- -π/2 -->
      <g transform="translate(535.77571 530.277812) scale(0.14 -0.14)">
       <use xlink:href="#DejaVuSans-2d"/>
       <use xlink:href="#DejaVuSans-3c0" transform="translate(36.083984 0)"/>
       <use xlink:href="#DejaVuSans-2f" transform="translate(96.289062 0)"/>
       <use xlink:href="#DejaVuSans-32" transform="translate(129.980469 0)"/>
      </g>
     </g>
    </g>
    <g id="xtick_18">
     <g id="line2d_82">
      <path d="M 625.418182 512.64 
L 625.418182 311.04 
" clip-path="url(#pa899cf1679)" style="fill: none; stroke: #b0b0b0; stroke-width: 0.8; stroke-linecap: square"/>
     </g>
     <g id="line2d_83">
      <g>
       <use xlink:href="#m4ef662ddf8" x="625.418182" y="512.64" style="stroke: #000000; stroke-width: 0.8"/>
      </g>
     </g>
     <g id="text_28">
      <!-- 0 -->
      <g transform="translate(620.964432 530.277812) scale(0.14 -0.14)">
       <use xlink:href="#DejaVuSans-30"/>
      </g>
     </g>
    </g>
    <g id="xtick_19">
     <g id="line2d_84">
      <path d="M 701.509091 512.64 
L 701.509091 311.04 
" clip-path="url(#pa899cf1679)" style="fill: none; stroke: #b0b0b0; stroke-width: 0.8; stroke-linecap: square"/>
     </g>
     <g id="line2d_85">
      <g>
       <use xlink:href="#m4ef662ddf8" x="701.509091" y="512.64" style="stroke: #000000; stroke-width: 0.8"/>
      </g>
     </g>
     <g id="text_29">
      <!-- π/2 -->
      <g transform="translate(690.482997 530.277812) scale(0.14 -0.14)">
       <use xlink:href="#DejaVuSans-3c0"/>
       <use xlink:href="#DejaVuSans-2f" transform="translate(60.205078 0)"/>
       <use xlink:href="#DejaVuSans-32" transform="translate(93.896484 0)"/>
      </g>
     </g>
    </g>
    <g id="xtick_20">
     <g id="line2d_86">
      <path d="M 777.6 512.64 
L 777.6 311.04 
" clip-path="url(#pa899cf1679)" style="fill: none; stroke: #b0b0b0; stroke-width: 0.8; stroke-linecap: square"/>
     </g>
     <g id="line2d_87">
      <g>
       <use xlink:href="#m4ef662ddf8" x="777.6" y="512.64" style="stroke: #000000; stroke-width: 0.8"/>
      </g>
     </g>
     <g id="text_30">
      <!-- π -->
      <g transform="translate(773.385781 530.277812) scale(0.14 -0.14)">
       <use xlink:href="#DejaVuSans-3c0"/>
      </g>
     </g>
    </g>
    <g id="text_31">
     <!-- Phase -->
     <g transform="translate(604.517713 547.827188) scale(0.14 -0.14)">
      <use xlink:href="#DejaVuSans-50"/>
      <use xlink:href="#DejaVuSans-68" transform="translate(60.302734 0)"/>
      <use xlink:href="#DejaVuSans-61" transform="translate(123.681641 0)"/>
      <use xlink:href="#DejaVuSans-73" transform="translate(184.960938 0)"/>
      <use xlink:href="#DejaVuSans-65" transform="translate(237.060547 0)"/>
     </g>
    </g>
   </g>
   <g id="matplotlib.axis_8">
    <g id="ytick_19">
     <g id="line2d_88">
      <path d="M 473.236364 512.64 
L 777.6 512.64 
" clip-path="url(#pa899cf1679)" style="fill: none; stroke: #b0b0b0; stroke-width: 0.8; stroke-linecap: square"/>
     </g>
     <g id="line2d_89">
      <g>
       <use xlink:href="#m38773a80f3" x="473.236364" y="512.64" style="stroke: #000000; stroke-width: 0.8"/>
      </g>
     </g>
    </g>
    <g id="ytick_20">
     <g id="line2d_90">
      <path d="M 473.236364 472.32 
L 777.6 472.32 
" clip-path="url(#pa899cf1679)" style="fill: none; stroke: #b0b0b0; stroke-width: 0.8; stroke-linecap: square"/>
     </g>
     <g id="line2d_91">
      <g>
       <use xlink:href="#m38773a80f3" x="473.236364" y="472.32" style="stroke: #000000; stroke-width: 0.8"/>
      </g>
     </g>
    </g>
    <g id="ytick_21">
     <g id="line2d_92">
      <path d="M 473.236364 432 
L 777.6 432 
" clip-path="url(#pa899cf1679)" style="fill: none; stroke: #b0b0b0; stroke-width: 0.8; stroke-linecap: square"/>
     </g>
     <g id="line2d_93">
      <g>
       <use xlink:href="#m38773a80f3" x="473.236364" y="432" style="stroke: #000000; stroke-width: 0.8"/>
      </g>
     </g>
    </g>
    <g id="ytick_22">
     <g id="line2d_94">
      <path d="M 473.236364 391.68 
L 777.6 391.68 
" clip-path="url(#pa899cf1679)" style="fill: none; stroke: #b0b0b0; stroke-width: 0.8; stroke-linecap: square"/>
     </g>
     <g id="line2d_95">
      <g>
       <use xlink:href="#m38773a80f3" x="473.236364" y="391.68" style="stroke: #000000; stroke-width: 0.8"/>
      </g>
     </g>
    </g>
    <g id="ytick_23">
     <g id="line2d_96">
      <path d="M 473.236364 351.36 
L 777.6 351.36 
" clip-path="url(#pa899cf1679)" style="fill: none; stroke: #b0b0b0; stroke-width: 0.8; stroke-linecap: square"/>
     </g>
     <g id="line2d_97">
      <g>
       <use xlink:href="#m38773a80f3" x="473.236364" y="351.36" style="stroke: #000000; stroke-width: 0.8"/>
      </g>
     </g>
    </g>
    <g id="ytick_24">
     <g id="line2d_98">
      <path d="M 473.236364 311.04 
L 777.6 311.04 
" clip-path="url(#pa899cf1679)" style="fill: none; stroke: #b0b0b0; stroke-width: 0.8; stroke-linecap: square"/>
     </g>
     <g id="line2d_99">
      <g>
       <use xlink:href="#m38773a80f3" x="473.236364" y="311.04" style="stroke: #000000; stroke-width: 0.8"/>
      </g>
     </g>
    </g>
   </g>
   <g id="line2d_100">
    <path d="M 473.236364 512.64 
L 475.785732 512.52835 
L 478.335589 512.193623 
L 480.886424 511.63649 
L 483.499523 510.836851 
L 486.175549 509.780271 
L 488.915254 508.452734 
L 491.719492 506.840771 
L 494.589225 504.931617 
L 497.586778 502.664309 
L 500.652435 500.065773 
L 503.910785 497.005407 
L 507.302937 493.507221 
L 510.893708 489.47611 
L 514.687288 484.874879 
L 518.751509 479.586547 
L 523.157142 473.477063 
L 527.979174 466.399062 
L 533.42774 457.995365 
L 539.992223 447.444109 
L 550.035899 430.820388 
L 561.577197 411.82413 
L 568.056926 401.591715 
L 573.416107 393.531603 
L 578.18835 386.747241 
L 582.492662 381.002756 
L 586.546695 375.959495 
L 590.337173 371.598304 
L 593.846092 367.889994 
L 597.242763 364.620409 
L 600.424594 361.857741 
L 603.479465 359.489823 
L 606.400106 357.495391 
L 609.299705 355.783153 
L 612.053542 354.409669 
L 614.7821 353.296032 
L 617.478685 352.440708 
L 620.109467 351.84377 
L 622.59307 351.497102 
L 625.214158 351.360715 
L 627.84659 351.461309 
L 630.356708 351.77871 
L 633.021445 352.351295 
L 635.59789 353.134053 
L 638.229518 354.163823 
L 640.901819 355.44451 
L 643.732067 357.054775 
L 646.589603 358.940023 
L 649.58726 361.190752 
L 652.715956 363.828829 
L 655.970231 366.874252 
L 659.346829 370.34454 
L 662.929536 374.353685 
L 666.707888 378.922779 
L 670.753878 384.172609 
L 675.131432 390.227047 
L 679.898466 397.206174 
L 685.325351 405.55722 
L 691.864517 416.050481 
L 701.610467 432.168762 
L 713.717116 452.10833 
L 720.172847 462.306656 
L 725.527326 470.365064 
L 730.263511 477.105688 
L 734.588743 482.886603 
L 738.638756 487.932967 
L 742.420624 492.29308 
L 746.001601 496.08343 
L 749.385589 499.343907 
L 752.575775 502.117082 
L 755.635894 504.491673 
L 758.628751 506.534398 
L 761.494633 508.223973 
L 764.295702 509.617635 
L 767.032867 510.728888 
L 769.706934 511.571867 
L 772.31861 512.161193 
L 774.868521 512.511833 
L 777.417908 512.63943 
L 777.539303 512.639937 
L 777.539303 512.639937 
" clip-path="url(#pa899cf1679)" style="fill: none; stroke: #1f77b4; stroke-width: 3; stroke-linecap: square"/>
   </g>
   <g id="line2d_101">
    <path d="M 473.236364 490.880417 
L 477.060569 490.770439 
L 480.886424 490.440258 
L 484.715593 489.88913 
L 488.61068 489.10173 
L 492.512757 488.083157 
L 496.423715 486.830966 
L 500.345527 485.342095 
L 504.34187 483.583869 
L 508.353881 481.573008 
L 512.384053 479.304015 
L 516.497594 476.72938 
L 520.635752 473.874145 
L 524.801958 470.729203 
L 529.063917 467.229418 
L 533.363262 463.40733 
L 537.705172 459.247934 
L 542.095636 454.733646 
L 546.541675 449.843745 
L 551.051629 444.553628 
L 555.635568 438.833815 
L 560.305864 432.648575 
L 565.078047 425.954004 
L 569.89803 418.808048 
L 574.861491 411.047947 
L 579.923535 402.720905 
L 585.205386 393.603599 
L 590.867022 383.381121 
L 597.436718 371.039638 
L 610.844235 345.691863 
L 613.891667 340.504893 
L 616.175312 337.012735 
L 618.155502 334.377544 
L 619.743867 332.603465 
L 621.233529 331.270601 
L 622.59307 330.373301 
L 623.791949 329.85877 
L 624.806399 329.637119 
L 625.826157 329.616745 
L 626.842361 329.798763 
L 628.045349 330.269964 
L 629.219384 330.985196 
L 630.542373 332.071289 
L 631.986326 333.560579 
L 633.689656 335.667382 
L 635.59789 338.39447 
L 637.948924 342.159013 
L 641.029745 347.553615 
L 645.469953 355.838253 
L 662.241931 387.536698 
L 667.937035 397.636519 
L 673.2732 406.654892 
L 678.401229 414.892032 
L 683.36451 422.453236 
L 688.265063 429.517781 
L 693.051502 436.032285 
L 697.742048 442.047612 
L 702.351009 447.60472 
L 706.889887 452.737108 
L 711.36811 457.472523 
L 715.793544 461.83419 
L 720.172847 465.841713 
L 724.511734 469.511746 
L 728.752122 472.811574 
L 732.96228 475.809235 
L 737.145932 478.51475 
L 741.244485 480.902629 
L 745.32348 483.022438 
L 749.324156 484.853993 
L 753.310824 486.436292 
L 757.285704 487.773444 
L 761.189953 488.853809 
L 765.086716 489.702409 
L 768.977832 490.321261 
L 772.865088 490.711817 
L 776.689537 490.874184 
L 777.539303 490.88039 
L 777.539303 490.88039 
" clip-path="url(#pa899cf1679)" style="fill: none; stroke: #ff7f0e; stroke-width: 3; stroke-linecap: square"/>
   </g>
   <g id="line2d_102">
    <path d="M 473.236364 432 
L 777.6 432 
" clip-path="url(#pa899cf1679)" style="fill: none; stroke-dasharray: 3.7,1.6; stroke-dashoffset: 0; stroke: #000000"/>
   </g>
   <g id="patch_19">
    <path d="M 473.236364 512.64 
L 473.236364 311.04 
" style="fill: none; stroke: #000000; stroke-width: 0.8; stroke-linejoin: miter; stroke-linecap: square"/>
   </g>
   <g id="patch_20">
    <path d="M 777.6 512.64 
L 777.6 311.04 
" style="fill: none; stroke: #000000; stroke-width: 0.8; stroke-linejoin: miter; stroke-linecap: square"/>
   </g>
   <g id="patch_21">
    <path d="M 473.236364 512.64 
L 777.6 512.64 
" style="fill: none; stroke: #000000; stroke-width: 0.8; stroke-linejoin: miter; stroke-linecap: square"/>
   </g>
   <g id="patch_22">
    <path d="M 473.236364 311.04 
L 777.6 311.04 
" style="fill: none; stroke: #000000; stroke-width: 0.8; stroke-linejoin: miter; stroke-linecap: square"/>
   </g>
   <g id="text_32">
    <!-- $ak = 0.4$ -->
    <g transform="translate(591.734182 305.04) scale(0.168 -0.168)">
     <use xlink:href="#DejaVuSans-Oblique-61" transform="translate(0 0.015625)"/>
     <use xlink:href="#DejaVuSans-Oblique-6b" transform="translate(61.279297 0.015625)"/>
     <use xlink:href="#DejaVuSans-3d" transform="translate(138.671875 0.015625)"/>
     <use xlink:href="#DejaVuSans-30" transform="translate(241.943359 0.015625)"/>
     <use xlink:href="#DejaVuSans-2e" transform="translate(305.566406 0.015625)"/>
     <use xlink:href="#DejaVuSans-34" transform="translate(337.353516 0.015625)"/>
    </g>
   </g>
  </g>
 </g>
 <defs>
  <clipPath id="p7043202638">
   <rect x="108" y="69.12" width="304.363636" height="201.6"/>
  </clipPath>
  <clipPath id="p191b22e6db">
   <rect x="473.236364" y="69.12" width="304.363636" height="201.6"/>
  </clipPath>
  <clipPath id="p936bf56fb2">
   <rect x="108" y="311.04" width="304.363636" height="201.6"/>
  </clipPath>
  <clipPath id="pa899cf1679">
   <rect x="473.236364" y="311.04" width="304.363636" height="201.6"/>
  </clipPath>
 </defs>
</svg>
