<?xml version="1.0" encoding="utf-8" standalone="no"?>
<!DOCTYPE svg PUBLIC "-//W3C//DTD SVG 1.1//EN"
  "http://www.w3.org/Graphics/SVG/1.1/DTD/svg11.dtd">
<svg xmlns:xlink="http://www.w3.org/1999/xlink" width="864pt" height="360pt" viewBox="0 0 864 360" xmlns="http://www.w3.org/2000/svg" version="1.1">
 <metadata>
  <rdf:RDF xmlns:dc="http://purl.org/dc/elements/1.1/" xmlns:cc="http://creativecommons.org/ns#" xmlns:rdf="http://www.w3.org/1999/02/22-rdf-syntax-ns#">
   <cc:Work>
    <dc:type rdf:resource="http://purl.org/dc/dcmitype/StillImage"/>
    <dc:date>2025-05-13T02:01:24.951225</dc:date>
    <dc:format>image/svg+xml</dc:format>
    <dc:creator>
     <cc:Agent>
      <dc:title>Matplotlib v3.10.3, https://matplotlib.org/</dc:title>
     </cc:Agent>
    </dc:creator>
   </cc:Work>
  </rdf:RDF>
 </metadata>
 <defs>
  <style type="text/css">*{stroke-linejoin: round; stroke-linecap: butt}</style>
 </defs>
 <g id="figure_1">
  <g id="patch_1">
   <path d="M 0 360 
L 864 360 
L 864 0 
L 0 0 
z
" style="fill: #ffffff"/>
  </g>
  <g id="axes_1">
   <g id="patch_2">
    <path d="M 57.62 304.144 
L 408.915 304.144 
L 408.915 34.08 
L 57.62 34.08 
z
" style="fill: #ffffff"/>
   </g>
   <g id="matplotlib.axis_1">
    <g id="xtick_1">
     <g id="line2d_1">
      <path d="M 57.62 304.144 
L 57.62 34.08 
" clip-path="url(#p0907ba3592)" style="fill: none; stroke: #b0b0b0; stroke-width: 0.8; stroke-linecap: square"/>
     </g>
     <g id="line2d_2">
      <defs>
       <path id="maf5f1657f9" d="M 0 0 
L 0 3.5 
" style="stroke: #000000; stroke-width: 0.8"/>
      </defs>
      <g>
       <use xlink:href="#maf5f1657f9" x="57.62" y="304.144" style="stroke: #000000; stroke-width: 0.8"/>
      </g>
     </g>
     <g id="text_1">
      <!-- 0 -->
      <g transform="translate(53.16625 321.781813) scale(0.14 -0.14)">
       <defs>
        <path id="DejaVuSans-30" d="M 2034 4250 
Q 1547 4250 1301 3770 
Q 1056 3291 1056 2328 
Q 1056 1369 1301 889 
Q 1547 409 2034 409 
Q 2525 409 2770 889 
Q 3016 1369 3016 2328 
Q 3016 3291 2770 3770 
Q 2525 4250 2034 4250 
z
M 2034 4750 
Q 2819 4750 3233 4129 
Q 3647 3509 3647 2328 
Q 3647 1150 3233 529 
Q 2819 -91 2034 -91 
Q 1250 -91 836 529 
Q 422 1150 422 2328 
Q 422 3509 836 4129 
Q 1250 4750 2034 4750 
z
" transform="scale(0.015625)"/>
       </defs>
       <use xlink:href="#DejaVuSans-30"/>
      </g>
     </g>
    </g>
    <g id="xtick_2">
     <g id="line2d_3">
      <path d="M 101.531875 304.144 
L 101.531875 34.08 
" clip-path="url(#p0907ba3592)" style="fill: none; stroke: #b0b0b0; stroke-width: 0.8; stroke-linecap: square"/>
     </g>
     <g id="line2d_4">
      <g>
       <use xlink:href="#maf5f1657f9" x="101.531875" y="304.144" style="stroke: #000000; stroke-width: 0.8"/>
      </g>
     </g>
     <g id="text_2">
      <!-- 10 -->
      <g transform="translate(92.624375 321.781813) scale(0.14 -0.14)">
       <defs>
        <path id="DejaVuSans-31" d="M 794 531 
L 1825 531 
L 1825 4091 
L 703 3866 
L 703 4441 
L 1819 4666 
L 2450 4666 
L 2450 531 
L 3481 531 
L 3481 0 
L 794 0 
L 794 531 
z
" transform="scale(0.015625)"/>
       </defs>
       <use xlink:href="#DejaVuSans-31"/>
       <use xlink:href="#DejaVuSans-30" transform="translate(63.623047 0)"/>
      </g>
     </g>
    </g>
    <g id="xtick_3">
     <g id="line2d_5">
      <path d="M 145.44375 304.144 
L 145.44375 34.08 
" clip-path="url(#p0907ba3592)" style="fill: none; stroke: #b0b0b0; stroke-width: 0.8; stroke-linecap: square"/>
     </g>
     <g id="line2d_6">
      <g>
       <use xlink:href="#maf5f1657f9" x="145.44375" y="304.144" style="stroke: #000000; stroke-width: 0.8"/>
      </g>
     </g>
     <g id="text_3">
      <!-- 20 -->
      <g transform="translate(136.53625 321.781813) scale(0.14 -0.14)">
       <defs>
        <path id="DejaVuSans-32" d="M 1228 531 
L 3431 531 
L 3431 0 
L 469 0 
L 469 531 
Q 828 903 1448 1529 
Q 2069 2156 2228 2338 
Q 2531 2678 2651 2914 
Q 2772 3150 2772 3378 
Q 2772 3750 2511 3984 
Q 2250 4219 1831 4219 
Q 1534 4219 1204 4116 
Q 875 4013 500 3803 
L 500 4441 
Q 881 4594 1212 4672 
Q 1544 4750 1819 4750 
Q 2544 4750 2975 4387 
Q 3406 4025 3406 3419 
Q 3406 3131 3298 2873 
Q 3191 2616 2906 2266 
Q 2828 2175 2409 1742 
Q 1991 1309 1228 531 
z
" transform="scale(0.015625)"/>
       </defs>
       <use xlink:href="#DejaVuSans-32"/>
       <use xlink:href="#DejaVuSans-30" transform="translate(63.623047 0)"/>
      </g>
     </g>
    </g>
    <g id="xtick_4">
     <g id="line2d_7">
      <path d="M 189.355625 304.144 
L 189.355625 34.08 
" clip-path="url(#p0907ba3592)" style="fill: none; stroke: #b0b0b0; stroke-width: 0.8; stroke-linecap: square"/>
     </g>
     <g id="line2d_8">
      <g>
       <use xlink:href="#maf5f1657f9" x="189.355625" y="304.144" style="stroke: #000000; stroke-width: 0.8"/>
      </g>
     </g>
     <g id="text_4">
      <!-- 30 -->
      <g transform="translate(180.448125 321.781813) scale(0.14 -0.14)">
       <defs>
        <path id="DejaVuSans-33" d="M 2597 2516 
Q 3050 2419 3304 2112 
Q 3559 1806 3559 1356 
Q 3559 666 3084 287 
Q 2609 -91 1734 -91 
Q 1441 -91 1130 -33 
Q 819 25 488 141 
L 488 750 
Q 750 597 1062 519 
Q 1375 441 1716 441 
Q 2309 441 2620 675 
Q 2931 909 2931 1356 
Q 2931 1769 2642 2001 
Q 2353 2234 1838 2234 
L 1294 2234 
L 1294 2753 
L 1863 2753 
Q 2328 2753 2575 2939 
Q 2822 3125 2822 3475 
Q 2822 3834 2567 4026 
Q 2313 4219 1838 4219 
Q 1578 4219 1281 4162 
Q 984 4106 628 3988 
L 628 4550 
Q 988 4650 1302 4700 
Q 1616 4750 1894 4750 
Q 2613 4750 3031 4423 
Q 3450 4097 3450 3541 
Q 3450 3153 3228 2886 
Q 3006 2619 2597 2516 
z
" transform="scale(0.015625)"/>
       </defs>
       <use xlink:href="#DejaVuSans-33"/>
       <use xlink:href="#DejaVuSans-30" transform="translate(63.623047 0)"/>
      </g>
     </g>
    </g>
    <g id="xtick_5">
     <g id="line2d_9">
      <path d="M 233.2675 304.144 
L 233.2675 34.08 
" clip-path="url(#p0907ba3592)" style="fill: none; stroke: #b0b0b0; stroke-width: 0.8; stroke-linecap: square"/>
     </g>
     <g id="line2d_10">
      <g>
       <use xlink:href="#maf5f1657f9" x="233.2675" y="304.144" style="stroke: #000000; stroke-width: 0.8"/>
      </g>
     </g>
     <g id="text_5">
      <!-- 40 -->
      <g transform="translate(224.36 321.781813) scale(0.14 -0.14)">
       <defs>
        <path id="DejaVuSans-34" d="M 2419 4116 
L 825 1625 
L 2419 1625 
L 2419 4116 
z
M 2253 4666 
L 3047 4666 
L 3047 1625 
L 3713 1625 
L 3713 1100 
L 3047 1100 
L 3047 0 
L 2419 0 
L 2419 1100 
L 313 1100 
L 313 1709 
L 2253 4666 
z
" transform="scale(0.015625)"/>
       </defs>
       <use xlink:href="#DejaVuSans-34"/>
       <use xlink:href="#DejaVuSans-30" transform="translate(63.623047 0)"/>
      </g>
     </g>
    </g>
    <g id="xtick_6">
     <g id="line2d_11">
      <path d="M 277.179375 304.144 
L 277.179375 34.08 
" clip-path="url(#p0907ba3592)" style="fill: none; stroke: #b0b0b0; stroke-width: 0.8; stroke-linecap: square"/>
     </g>
     <g id="line2d_12">
      <g>
       <use xlink:href="#maf5f1657f9" x="277.179375" y="304.144" style="stroke: #000000; stroke-width: 0.8"/>
      </g>
     </g>
     <g id="text_6">
      <!-- 50 -->
      <g transform="translate(268.271875 321.781813) scale(0.14 -0.14)">
       <defs>
        <path id="DejaVuSans-35" d="M 691 4666 
L 3169 4666 
L 3169 4134 
L 1269 4134 
L 1269 2991 
Q 1406 3038 1543 3061 
Q 1681 3084 1819 3084 
Q 2600 3084 3056 2656 
Q 3513 2228 3513 1497 
Q 3513 744 3044 326 
Q 2575 -91 1722 -91 
Q 1428 -91 1123 -41 
Q 819 9 494 109 
L 494 744 
Q 775 591 1075 516 
Q 1375 441 1709 441 
Q 2250 441 2565 725 
Q 2881 1009 2881 1497 
Q 2881 1984 2565 2268 
Q 2250 2553 1709 2553 
Q 1456 2553 1204 2497 
Q 953 2441 691 2322 
L 691 4666 
z
" transform="scale(0.015625)"/>
       </defs>
       <use xlink:href="#DejaVuSans-35"/>
       <use xlink:href="#DejaVuSans-30" transform="translate(63.623047 0)"/>
      </g>
     </g>
    </g>
    <g id="xtick_7">
     <g id="line2d_13">
      <path d="M 321.09125 304.144 
L 321.09125 34.08 
" clip-path="url(#p0907ba3592)" style="fill: none; stroke: #b0b0b0; stroke-width: 0.8; stroke-linecap: square"/>
     </g>
     <g id="line2d_14">
      <g>
       <use xlink:href="#maf5f1657f9" x="321.09125" y="304.144" style="stroke: #000000; stroke-width: 0.8"/>
      </g>
     </g>
     <g id="text_7">
      <!-- 60 -->
      <g transform="translate(312.18375 321.781813) scale(0.14 -0.14)">
       <defs>
        <path id="DejaVuSans-36" d="M 2113 2584 
Q 1688 2584 1439 2293 
Q 1191 2003 1191 1497 
Q 1191 994 1439 701 
Q 1688 409 2113 409 
Q 2538 409 2786 701 
Q 3034 994 3034 1497 
Q 3034 2003 2786 2293 
Q 2538 2584 2113 2584 
z
M 3366 4563 
L 3366 3988 
Q 3128 4100 2886 4159 
Q 2644 4219 2406 4219 
Q 1781 4219 1451 3797 
Q 1122 3375 1075 2522 
Q 1259 2794 1537 2939 
Q 1816 3084 2150 3084 
Q 2853 3084 3261 2657 
Q 3669 2231 3669 1497 
Q 3669 778 3244 343 
Q 2819 -91 2113 -91 
Q 1303 -91 875 529 
Q 447 1150 447 2328 
Q 447 3434 972 4092 
Q 1497 4750 2381 4750 
Q 2619 4750 2861 4703 
Q 3103 4656 3366 4563 
z
" transform="scale(0.015625)"/>
       </defs>
       <use xlink:href="#DejaVuSans-36"/>
       <use xlink:href="#DejaVuSans-30" transform="translate(63.623047 0)"/>
      </g>
     </g>
    </g>
    <g id="xtick_8">
     <g id="line2d_15">
      <path d="M 365.003125 304.144 
L 365.003125 34.08 
" clip-path="url(#p0907ba3592)" style="fill: none; stroke: #b0b0b0; stroke-width: 0.8; stroke-linecap: square"/>
     </g>
     <g id="line2d_16">
      <g>
       <use xlink:href="#maf5f1657f9" x="365.003125" y="304.144" style="stroke: #000000; stroke-width: 0.8"/>
      </g>
     </g>
     <g id="text_8">
      <!-- 70 -->
      <g transform="translate(356.095625 321.781813) scale(0.14 -0.14)">
       <defs>
        <path id="DejaVuSans-37" d="M 525 4666 
L 3525 4666 
L 3525 4397 
L 1831 0 
L 1172 0 
L 2766 4134 
L 525 4134 
L 525 4666 
z
" transform="scale(0.015625)"/>
       </defs>
       <use xlink:href="#DejaVuSans-37"/>
       <use xlink:href="#DejaVuSans-30" transform="translate(63.623047 0)"/>
      </g>
     </g>
    </g>
    <g id="xtick_9">
     <g id="line2d_17">
      <path d="M 408.915 304.144 
L 408.915 34.08 
" clip-path="url(#p0907ba3592)" style="fill: none; stroke: #b0b0b0; stroke-width: 0.8; stroke-linecap: square"/>
     </g>
     <g id="line2d_18">
      <g>
       <use xlink:href="#maf5f1657f9" x="408.915" y="304.144" style="stroke: #000000; stroke-width: 0.8"/>
      </g>
     </g>
     <g id="text_9">
      <!-- 80 -->
      <g transform="translate(400.0075 321.781813) scale(0.14 -0.14)">
       <defs>
        <path id="DejaVuSans-38" d="M 2034 2216 
Q 1584 2216 1326 1975 
Q 1069 1734 1069 1313 
Q 1069 891 1326 650 
Q 1584 409 2034 409 
Q 2484 409 2743 651 
Q 3003 894 3003 1313 
Q 3003 1734 2745 1975 
Q 2488 2216 2034 2216 
z
M 1403 2484 
Q 997 2584 770 2862 
Q 544 3141 544 3541 
Q 544 4100 942 4425 
Q 1341 4750 2034 4750 
Q 2731 4750 3128 4425 
Q 3525 4100 3525 3541 
Q 3525 3141 3298 2862 
Q 3072 2584 2669 2484 
Q 3125 2378 3379 2068 
Q 3634 1759 3634 1313 
Q 3634 634 3220 271 
Q 2806 -91 2034 -91 
Q 1263 -91 848 271 
Q 434 634 434 1313 
Q 434 1759 690 2068 
Q 947 2378 1403 2484 
z
M 1172 3481 
Q 1172 3119 1398 2916 
Q 1625 2713 2034 2713 
Q 2441 2713 2670 2916 
Q 2900 3119 2900 3481 
Q 2900 3844 2670 4047 
Q 2441 4250 2034 4250 
Q 1625 4250 1398 4047 
Q 1172 3844 1172 3481 
z
" transform="scale(0.015625)"/>
       </defs>
       <use xlink:href="#DejaVuSans-38"/>
       <use xlink:href="#DejaVuSans-30" transform="translate(63.623047 0)"/>
      </g>
     </g>
    </g>
    <g id="text_10">
     <!-- U$_{10}$ [m/s] -->
     <g transform="translate(201.1375 339.331187) scale(0.14 -0.14)">
      <defs>
       <path id="DejaVuSans-55" d="M 556 4666 
L 1191 4666 
L 1191 1831 
Q 1191 1081 1462 751 
Q 1734 422 2344 422 
Q 2950 422 3222 751 
Q 3494 1081 3494 1831 
L 3494 4666 
L 4128 4666 
L 4128 1753 
Q 4128 841 3676 375 
Q 3225 -91 2344 -91 
Q 1459 -91 1007 375 
Q 556 841 556 1753 
L 556 4666 
z
" transform="scale(0.015625)"/>
       <path id="DejaVuSans-20" transform="scale(0.015625)"/>
       <path id="DejaVuSans-5b" d="M 550 4863 
L 1875 4863 
L 1875 4416 
L 1125 4416 
L 1125 -397 
L 1875 -397 
L 1875 -844 
L 550 -844 
L 550 4863 
z
" transform="scale(0.015625)"/>
       <path id="DejaVuSans-6d" d="M 3328 2828 
Q 3544 3216 3844 3400 
Q 4144 3584 4550 3584 
Q 5097 3584 5394 3201 
Q 5691 2819 5691 2113 
L 5691 0 
L 5113 0 
L 5113 2094 
Q 5113 2597 4934 2840 
Q 4756 3084 4391 3084 
Q 3944 3084 3684 2787 
Q 3425 2491 3425 1978 
L 3425 0 
L 2847 0 
L 2847 2094 
Q 2847 2600 2669 2842 
Q 2491 3084 2119 3084 
Q 1678 3084 1418 2786 
Q 1159 2488 1159 1978 
L 1159 0 
L 581 0 
L 581 3500 
L 1159 3500 
L 1159 2956 
Q 1356 3278 1631 3431 
Q 1906 3584 2284 3584 
Q 2666 3584 2933 3390 
Q 3200 3197 3328 2828 
z
" transform="scale(0.015625)"/>
       <path id="DejaVuSans-2f" d="M 1625 4666 
L 2156 4666 
L 531 -594 
L 0 -594 
L 1625 4666 
z
" transform="scale(0.015625)"/>
       <path id="DejaVuSans-73" d="M 2834 3397 
L 2834 2853 
Q 2591 2978 2328 3040 
Q 2066 3103 1784 3103 
Q 1356 3103 1142 2972 
Q 928 2841 928 2578 
Q 928 2378 1081 2264 
Q 1234 2150 1697 2047 
L 1894 2003 
Q 2506 1872 2764 1633 
Q 3022 1394 3022 966 
Q 3022 478 2636 193 
Q 2250 -91 1575 -91 
Q 1294 -91 989 -36 
Q 684 19 347 128 
L 347 722 
Q 666 556 975 473 
Q 1284 391 1588 391 
Q 1994 391 2212 530 
Q 2431 669 2431 922 
Q 2431 1156 2273 1281 
Q 2116 1406 1581 1522 
L 1381 1569 
Q 847 1681 609 1914 
Q 372 2147 372 2553 
Q 372 3047 722 3315 
Q 1072 3584 1716 3584 
Q 2034 3584 2315 3537 
Q 2597 3491 2834 3397 
z
" transform="scale(0.015625)"/>
       <path id="DejaVuSans-5d" d="M 1947 4863 
L 1947 -844 
L 622 -844 
L 622 -397 
L 1369 -397 
L 1369 4416 
L 622 4416 
L 622 4863 
L 1947 4863 
z
" transform="scale(0.015625)"/>
      </defs>
      <use xlink:href="#DejaVuSans-55" transform="translate(0 0.015625)"/>
      <use xlink:href="#DejaVuSans-31" transform="translate(74.150391 -16.390625) scale(0.7)"/>
      <use xlink:href="#DejaVuSans-30" transform="translate(118.686523 -16.390625) scale(0.7)"/>
      <use xlink:href="#DejaVuSans-20" transform="translate(165.957031 0.015625)"/>
      <use xlink:href="#DejaVuSans-5b" transform="translate(197.744141 0.015625)"/>
      <use xlink:href="#DejaVuSans-6d" transform="translate(236.757812 0.015625)"/>
      <use xlink:href="#DejaVuSans-2f" transform="translate(334.169922 0.015625)"/>
      <use xlink:href="#DejaVuSans-73" transform="translate(367.861328 0.015625)"/>
      <use xlink:href="#DejaVuSans-5d" transform="translate(419.960938 0.015625)"/>
     </g>
    </g>
   </g>
   <g id="matplotlib.axis_2">
    <g id="ytick_1">
     <g id="line2d_19">
      <path d="M 57.62 304.144 
L 408.915 304.144 
" clip-path="url(#p0907ba3592)" style="fill: none; stroke: #b0b0b0; stroke-width: 0.8; stroke-linecap: square"/>
     </g>
     <g id="line2d_20">
      <defs>
       <path id="m99cd30ce5c" d="M 0 0 
L -3.5 0 
" style="stroke: #000000; stroke-width: 0.8"/>
      </defs>
      <g>
       <use xlink:href="#m99cd30ce5c" x="57.62" y="304.144" style="stroke: #000000; stroke-width: 0.8"/>
      </g>
     </g>
     <g id="text_11">
      <!-- 0 -->
      <g transform="translate(41.7125 309.462906) scale(0.14 -0.14)">
       <use xlink:href="#DejaVuSans-30"/>
      </g>
     </g>
    </g>
    <g id="ytick_2">
     <g id="line2d_21">
      <path d="M 57.62 262.595692 
L 408.915 262.595692 
" clip-path="url(#p0907ba3592)" style="fill: none; stroke: #b0b0b0; stroke-width: 0.8; stroke-linecap: square"/>
     </g>
     <g id="line2d_22">
      <g>
       <use xlink:href="#m99cd30ce5c" x="57.62" y="262.595692" style="stroke: #000000; stroke-width: 0.8"/>
      </g>
     </g>
     <g id="text_12">
      <!-- 2 -->
      <g transform="translate(41.7125 267.914599) scale(0.14 -0.14)">
       <use xlink:href="#DejaVuSans-32"/>
      </g>
     </g>
    </g>
    <g id="ytick_3">
     <g id="line2d_23">
      <path d="M 57.62 221.047385 
L 408.915 221.047385 
" clip-path="url(#p0907ba3592)" style="fill: none; stroke: #b0b0b0; stroke-width: 0.8; stroke-linecap: square"/>
     </g>
     <g id="line2d_24">
      <g>
       <use xlink:href="#m99cd30ce5c" x="57.62" y="221.047385" style="stroke: #000000; stroke-width: 0.8"/>
      </g>
     </g>
     <g id="text_13">
      <!-- 4 -->
      <g transform="translate(41.7125 226.366291) scale(0.14 -0.14)">
       <use xlink:href="#DejaVuSans-34"/>
      </g>
     </g>
    </g>
    <g id="ytick_4">
     <g id="line2d_25">
      <path d="M 57.62 179.499077 
L 408.915 179.499077 
" clip-path="url(#p0907ba3592)" style="fill: none; stroke: #b0b0b0; stroke-width: 0.8; stroke-linecap: square"/>
     </g>
     <g id="line2d_26">
      <g>
       <use xlink:href="#m99cd30ce5c" x="57.62" y="179.499077" style="stroke: #000000; stroke-width: 0.8"/>
      </g>
     </g>
     <g id="text_14">
      <!-- 6 -->
      <g transform="translate(41.7125 184.817983) scale(0.14 -0.14)">
       <use xlink:href="#DejaVuSans-36"/>
      </g>
     </g>
    </g>
    <g id="ytick_5">
     <g id="line2d_27">
      <path d="M 57.62 137.950769 
L 408.915 137.950769 
" clip-path="url(#p0907ba3592)" style="fill: none; stroke: #b0b0b0; stroke-width: 0.8; stroke-linecap: square"/>
     </g>
     <g id="line2d_28">
      <g>
       <use xlink:href="#m99cd30ce5c" x="57.62" y="137.950769" style="stroke: #000000; stroke-width: 0.8"/>
      </g>
     </g>
     <g id="text_15">
      <!-- 8 -->
      <g transform="translate(41.7125 143.269675) scale(0.14 -0.14)">
       <use xlink:href="#DejaVuSans-38"/>
      </g>
     </g>
    </g>
    <g id="ytick_6">
     <g id="line2d_29">
      <path d="M 57.62 96.402462 
L 408.915 96.402462 
" clip-path="url(#p0907ba3592)" style="fill: none; stroke: #b0b0b0; stroke-width: 0.8; stroke-linecap: square"/>
     </g>
     <g id="line2d_30">
      <g>
       <use xlink:href="#m99cd30ce5c" x="57.62" y="96.402462" style="stroke: #000000; stroke-width: 0.8"/>
      </g>
     </g>
     <g id="text_16">
      <!-- 10 -->
      <g transform="translate(32.805 101.721368) scale(0.14 -0.14)">
       <use xlink:href="#DejaVuSans-31"/>
       <use xlink:href="#DejaVuSans-30" transform="translate(63.623047 0)"/>
      </g>
     </g>
    </g>
    <g id="ytick_7">
     <g id="line2d_31">
      <path d="M 57.62 54.854154 
L 408.915 54.854154 
" clip-path="url(#p0907ba3592)" style="fill: none; stroke: #b0b0b0; stroke-width: 0.8; stroke-linecap: square"/>
     </g>
     <g id="line2d_32">
      <g>
       <use xlink:href="#m99cd30ce5c" x="57.62" y="54.854154" style="stroke: #000000; stroke-width: 0.8"/>
      </g>
     </g>
     <g id="text_17">
      <!-- 12 -->
      <g transform="translate(32.805 60.17306) scale(0.14 -0.14)">
       <use xlink:href="#DejaVuSans-31"/>
       <use xlink:href="#DejaVuSans-32" transform="translate(63.623047 0)"/>
      </g>
     </g>
    </g>
    <g id="text_18">
     <!-- Hs [m] -->
     <g transform="translate(25.893437 192.528094) rotate(-90) scale(0.14 -0.14)">
      <defs>
       <path id="DejaVuSans-48" d="M 628 4666 
L 1259 4666 
L 1259 2753 
L 3553 2753 
L 3553 4666 
L 4184 4666 
L 4184 0 
L 3553 0 
L 3553 2222 
L 1259 2222 
L 1259 0 
L 628 0 
L 628 4666 
z
" transform="scale(0.015625)"/>
      </defs>
      <use xlink:href="#DejaVuSans-48"/>
      <use xlink:href="#DejaVuSans-73" transform="translate(75.195312 0)"/>
      <use xlink:href="#DejaVuSans-20" transform="translate(127.294922 0)"/>
      <use xlink:href="#DejaVuSans-5b" transform="translate(159.082031 0)"/>
      <use xlink:href="#DejaVuSans-6d" transform="translate(198.095703 0)"/>
      <use xlink:href="#DejaVuSans-5d" transform="translate(295.507812 0)"/>
     </g>
    </g>
   </g>
   <g id="line2d_33">
    <path d="M 62.011187 298.625797 
L 66.402375 293.996476 
L 70.793562 289.63508 
L 75.18475 285.474195 
L 79.575937 281.423256 
L 83.967125 277.463001 
L 88.358312 273.554042 
L 92.7495 269.775678 
L 97.140687 265.996303 
L 101.531875 262.31636 
L 105.923063 258.615063 
L 110.31425 255.052306 
L 114.705437 251.417363 
L 119.096625 247.872618 
L 123.487812 244.400106 
L 127.879 240.857759 
L 132.270187 237.360827 
L 136.661375 233.990916 
L 141.052562 230.576234 
L 145.44375 227.121278 
L 149.834937 223.709437 
L 154.226125 220.414705 
L 158.617312 217.118205 
L 163.0085 213.769452 
L 167.399687 210.403462 
L 171.790875 207.077504 
L 176.182063 203.844832 
L 180.57325 200.657029 
L 184.964438 197.423638 
L 189.355625 194.154155 
L 193.746813 190.874615 
L 198.138 187.62182 
L 202.529188 184.43213 
L 206.920375 181.322959 
L 211.311563 178.208579 
L 215.70275 175.058143 
L 220.093938 171.877965 
L 224.485125 168.68283 
L 228.876313 165.494279 
L 233.2675 162.336683 
L 237.658688 159.232026 
L 242.049875 156.194763 
L 246.441063 153.173777 
L 250.83225 150.12431 
L 255.223438 147.047383 
L 259.614625 143.948305 
L 264.005812 140.836676 
L 268.397 137.725649 
L 272.788187 134.630422 
L 277.179375 131.5662 
L 281.570562 128.545984 
L 285.96175 125.578679 
L 290.352937 122.643167 
L 294.744125 119.687419 
L 299.135312 116.70922 
L 303.5265 113.709934 
L 307.917687 110.693132 
L 312.308875 107.664579 
L 316.700063 104.631969 
L 321.09125 101.604401 
L 325.482438 98.591634 
L 329.873625 95.603212 
L 334.264813 92.64755 
L 338.656 89.731142 
L 343.047188 86.857955 
L 347.438375 83.997717 
L 351.829563 81.120365 
L 356.22075 78.225383 
L 360.611938 75.313254 
L 365.003125 72.38556 
L 369.394313 69.445012 
L 373.7855 66.49542 
L 378.176688 63.541567 
L 382.567875 60.589004 
L 386.959063 57.643769 
L 391.35025 54.71204 
L 395.741438 51.799771 
L 400.132625 48.912324 
L 404.523813 46.054134 
L 408.915 43.228445 
" clip-path="url(#p0907ba3592)" style="fill: none; stroke: #1f77b4; stroke-width: 3; stroke-linecap: square"/>
   </g>
   <g id="line2d_34">
    <path d="M 62.011187 298.625797 
L 66.402375 293.996476 
L 70.793562 289.63508 
L 75.18475 285.474195 
L 79.575937 281.423257 
L 83.967125 277.463003 
L 88.358312 273.554046 
L 92.7495 269.775689 
L 97.140687 265.996329 
L 101.531875 262.316417 
L 105.923063 258.615179 
L 110.31425 255.052525 
L 114.705437 251.417758 
L 119.096625 247.873295 
L 123.487812 244.401222 
L 127.879 240.859539 
L 132.270187 237.363584 
L 136.661375 233.995069 
L 141.052562 230.582349 
L 145.44375 227.130102 
L 149.834937 223.721929 
L 154.226125 220.432067 
L 158.617312 217.141961 
L 163.0085 213.80152 
L 167.399687 210.446208 
L 171.790875 207.135213 
L 176.182063 203.921632 
L 180.57325 200.757929 
L 184.964438 197.554786 
L 189.355625 194.322931 
L 193.746813 191.089774 
L 198.138 187.893596 
L 202.529188 184.772303 
L 206.920375 181.744936 
L 211.311563 178.728138 
L 215.70275 175.69365 
L 220.093938 172.650491 
L 224.485125 169.616355 
L 228.876313 166.61581 
L 233.2675 163.676277 
L 237.658688 160.822735 
L 242.049875 158.072593 
L 246.441063 155.379262 
L 250.83225 152.703368 
L 255.223438 150.050804 
L 259.614625 147.43196 
L 264.005812 144.86159 
L 268.397 142.357888 
L 272.788187 139.940786 
L 277.179375 137.629727 
L 281.570562 135.441366 
L 285.96175 133.387703 
L 290.352937 131.452759 
L 294.744125 129.593789 
L 299.135312 127.814336 
L 303.5265 126.121227 
L 307.917687 124.523264 
L 312.308875 123.030931 
L 316.700063 121.655931 
L 321.09125 120.410428 
L 325.482438 119.306085 
L 329.873625 118.353013 
L 334.264813 117.558822 
L 338.656 116.927898 
L 343.047188 116.461136 
L 347.438375 116.13523 
L 351.829563 115.930941 
L 356.22075 115.848709 
L 360.611938 115.891106 
L 365.003125 116.064033 
L 369.394313 116.367092 
L 373.7855 116.809831 
L 378.176688 117.391821 
L 382.567875 118.121594 
L 386.959063 118.997364 
L 391.35025 120.026595 
L 395.741438 121.197989 
L 400.132625 122.523966 
L 404.523813 123.974774 
L 408.915 125.570025 
" clip-path="url(#p0907ba3592)" style="fill: none; stroke: #ff7f0e; stroke-width: 3; stroke-linecap: square"/>
   </g>
   <g id="patch_3">
    <path d="M 57.62 304.144 
L 57.62 34.08 
" style="fill: none; stroke: #000000; stroke-width: 0.8; stroke-linejoin: miter; stroke-linecap: square"/>
   </g>
   <g id="patch_4">
    <path d="M 408.915 304.144 
L 408.915 34.08 
" style="fill: none; stroke: #000000; stroke-width: 0.8; stroke-linejoin: miter; stroke-linecap: square"/>
   </g>
   <g id="patch_5">
    <path d="M 57.62 304.144 
L 408.915 304.144 
" style="fill: none; stroke: #000000; stroke-width: 0.8; stroke-linejoin: miter; stroke-linecap: square"/>
   </g>
   <g id="patch_6">
    <path d="M 57.62 34.08 
L 408.915 34.08 
" style="fill: none; stroke: #000000; stroke-width: 0.8; stroke-linejoin: miter; stroke-linecap: square"/>
   </g>
   <g id="text_19">
    <!-- Significant wave height -->
    <g transform="translate(134.665937 28.08) scale(0.168 -0.168)">
     <defs>
      <path id="DejaVuSans-53" d="M 3425 4513 
L 3425 3897 
Q 3066 4069 2747 4153 
Q 2428 4238 2131 4238 
Q 1616 4238 1336 4038 
Q 1056 3838 1056 3469 
Q 1056 3159 1242 3001 
Q 1428 2844 1947 2747 
L 2328 2669 
Q 3034 2534 3370 2195 
Q 3706 1856 3706 1288 
Q 3706 609 3251 259 
Q 2797 -91 1919 -91 
Q 1588 -91 1214 -16 
Q 841 59 441 206 
L 441 856 
Q 825 641 1194 531 
Q 1563 422 1919 422 
Q 2459 422 2753 634 
Q 3047 847 3047 1241 
Q 3047 1584 2836 1778 
Q 2625 1972 2144 2069 
L 1759 2144 
Q 1053 2284 737 2584 
Q 422 2884 422 3419 
Q 422 4038 858 4394 
Q 1294 4750 2059 4750 
Q 2388 4750 2728 4690 
Q 3069 4631 3425 4513 
z
" transform="scale(0.015625)"/>
      <path id="DejaVuSans-69" d="M 603 3500 
L 1178 3500 
L 1178 0 
L 603 0 
L 603 3500 
z
M 603 4863 
L 1178 4863 
L 1178 4134 
L 603 4134 
L 603 4863 
z
" transform="scale(0.015625)"/>
      <path id="DejaVuSans-67" d="M 2906 1791 
Q 2906 2416 2648 2759 
Q 2391 3103 1925 3103 
Q 1463 3103 1205 2759 
Q 947 2416 947 1791 
Q 947 1169 1205 825 
Q 1463 481 1925 481 
Q 2391 481 2648 825 
Q 2906 1169 2906 1791 
z
M 3481 434 
Q 3481 -459 3084 -895 
Q 2688 -1331 1869 -1331 
Q 1566 -1331 1297 -1286 
Q 1028 -1241 775 -1147 
L 775 -588 
Q 1028 -725 1275 -790 
Q 1522 -856 1778 -856 
Q 2344 -856 2625 -561 
Q 2906 -266 2906 331 
L 2906 616 
Q 2728 306 2450 153 
Q 2172 0 1784 0 
Q 1141 0 747 490 
Q 353 981 353 1791 
Q 353 2603 747 3093 
Q 1141 3584 1784 3584 
Q 2172 3584 2450 3431 
Q 2728 3278 2906 2969 
L 2906 3500 
L 3481 3500 
L 3481 434 
z
" transform="scale(0.015625)"/>
      <path id="DejaVuSans-6e" d="M 3513 2113 
L 3513 0 
L 2938 0 
L 2938 2094 
Q 2938 2591 2744 2837 
Q 2550 3084 2163 3084 
Q 1697 3084 1428 2787 
Q 1159 2491 1159 1978 
L 1159 0 
L 581 0 
L 581 3500 
L 1159 3500 
L 1159 2956 
Q 1366 3272 1645 3428 
Q 1925 3584 2291 3584 
Q 2894 3584 3203 3211 
Q 3513 2838 3513 2113 
z
" transform="scale(0.015625)"/>
      <path id="DejaVuSans-66" d="M 2375 4863 
L 2375 4384 
L 1825 4384 
Q 1516 4384 1395 4259 
Q 1275 4134 1275 3809 
L 1275 3500 
L 2222 3500 
L 2222 3053 
L 1275 3053 
L 1275 0 
L 697 0 
L 697 3053 
L 147 3053 
L 147 3500 
L 697 3500 
L 697 3744 
Q 697 4328 969 4595 
Q 1241 4863 1831 4863 
L 2375 4863 
z
" transform="scale(0.015625)"/>
      <path id="DejaVuSans-63" d="M 3122 3366 
L 3122 2828 
Q 2878 2963 2633 3030 
Q 2388 3097 2138 3097 
Q 1578 3097 1268 2742 
Q 959 2388 959 1747 
Q 959 1106 1268 751 
Q 1578 397 2138 397 
Q 2388 397 2633 464 
Q 2878 531 3122 666 
L 3122 134 
Q 2881 22 2623 -34 
Q 2366 -91 2075 -91 
Q 1284 -91 818 406 
Q 353 903 353 1747 
Q 353 2603 823 3093 
Q 1294 3584 2113 3584 
Q 2378 3584 2631 3529 
Q 2884 3475 3122 3366 
z
" transform="scale(0.015625)"/>
      <path id="DejaVuSans-61" d="M 2194 1759 
Q 1497 1759 1228 1600 
Q 959 1441 959 1056 
Q 959 750 1161 570 
Q 1363 391 1709 391 
Q 2188 391 2477 730 
Q 2766 1069 2766 1631 
L 2766 1759 
L 2194 1759 
z
M 3341 1997 
L 3341 0 
L 2766 0 
L 2766 531 
Q 2569 213 2275 61 
Q 1981 -91 1556 -91 
Q 1019 -91 701 211 
Q 384 513 384 1019 
Q 384 1609 779 1909 
Q 1175 2209 1959 2209 
L 2766 2209 
L 2766 2266 
Q 2766 2663 2505 2880 
Q 2244 3097 1772 3097 
Q 1472 3097 1187 3025 
Q 903 2953 641 2809 
L 641 3341 
Q 956 3463 1253 3523 
Q 1550 3584 1831 3584 
Q 2591 3584 2966 3190 
Q 3341 2797 3341 1997 
z
" transform="scale(0.015625)"/>
      <path id="DejaVuSans-74" d="M 1172 4494 
L 1172 3500 
L 2356 3500 
L 2356 3053 
L 1172 3053 
L 1172 1153 
Q 1172 725 1289 603 
Q 1406 481 1766 481 
L 2356 481 
L 2356 0 
L 1766 0 
Q 1100 0 847 248 
Q 594 497 594 1153 
L 594 3053 
L 172 3053 
L 172 3500 
L 594 3500 
L 594 4494 
L 1172 4494 
z
" transform="scale(0.015625)"/>
      <path id="DejaVuSans-77" d="M 269 3500 
L 844 3500 
L 1563 769 
L 2278 3500 
L 2956 3500 
L 3675 769 
L 4391 3500 
L 4966 3500 
L 4050 0 
L 3372 0 
L 2619 2869 
L 1863 0 
L 1184 0 
L 269 3500 
z
" transform="scale(0.015625)"/>
      <path id="DejaVuSans-76" d="M 191 3500 
L 800 3500 
L 1894 563 
L 2988 3500 
L 3597 3500 
L 2284 0 
L 1503 0 
L 191 3500 
z
" transform="scale(0.015625)"/>
      <path id="DejaVuSans-65" d="M 3597 1894 
L 3597 1613 
L 953 1613 
Q 991 1019 1311 708 
Q 1631 397 2203 397 
Q 2534 397 2845 478 
Q 3156 559 3463 722 
L 3463 178 
Q 3153 47 2828 -22 
Q 2503 -91 2169 -91 
Q 1331 -91 842 396 
Q 353 884 353 1716 
Q 353 2575 817 3079 
Q 1281 3584 2069 3584 
Q 2775 3584 3186 3129 
Q 3597 2675 3597 1894 
z
M 3022 2063 
Q 3016 2534 2758 2815 
Q 2500 3097 2075 3097 
Q 1594 3097 1305 2825 
Q 1016 2553 972 2059 
L 3022 2063 
z
" transform="scale(0.015625)"/>
      <path id="DejaVuSans-68" d="M 3513 2113 
L 3513 0 
L 2938 0 
L 2938 2094 
Q 2938 2591 2744 2837 
Q 2550 3084 2163 3084 
Q 1697 3084 1428 2787 
Q 1159 2491 1159 1978 
L 1159 0 
L 581 0 
L 581 4863 
L 1159 4863 
L 1159 2956 
Q 1366 3272 1645 3428 
Q 1925 3584 2291 3584 
Q 2894 3584 3203 3211 
Q 3513 2838 3513 2113 
z
" transform="scale(0.015625)"/>
     </defs>
     <use xlink:href="#DejaVuSans-53"/>
     <use xlink:href="#DejaVuSans-69" transform="translate(63.476562 0)"/>
     <use xlink:href="#DejaVuSans-67" transform="translate(91.259766 0)"/>
     <use xlink:href="#DejaVuSans-6e" transform="translate(154.736328 0)"/>
     <use xlink:href="#DejaVuSans-69" transform="translate(218.115234 0)"/>
     <use xlink:href="#DejaVuSans-66" transform="translate(245.898438 0)"/>
     <use xlink:href="#DejaVuSans-69" transform="translate(281.103516 0)"/>
     <use xlink:href="#DejaVuSans-63" transform="translate(308.886719 0)"/>
     <use xlink:href="#DejaVuSans-61" transform="translate(363.867188 0)"/>
     <use xlink:href="#DejaVuSans-6e" transform="translate(425.146484 0)"/>
     <use xlink:href="#DejaVuSans-74" transform="translate(488.525391 0)"/>
     <use xlink:href="#DejaVuSans-20" transform="translate(527.734375 0)"/>
     <use xlink:href="#DejaVuSans-77" transform="translate(559.521484 0)"/>
     <use xlink:href="#DejaVuSans-61" transform="translate(641.308594 0)"/>
     <use xlink:href="#DejaVuSans-76" transform="translate(702.587891 0)"/>
     <use xlink:href="#DejaVuSans-65" transform="translate(761.767578 0)"/>
     <use xlink:href="#DejaVuSans-20" transform="translate(823.291016 0)"/>
     <use xlink:href="#DejaVuSans-68" transform="translate(855.078125 0)"/>
     <use xlink:href="#DejaVuSans-65" transform="translate(918.457031 0)"/>
     <use xlink:href="#DejaVuSans-69" transform="translate(979.980469 0)"/>
     <use xlink:href="#DejaVuSans-67" transform="translate(1007.763672 0)"/>
     <use xlink:href="#DejaVuSans-68" transform="translate(1071.240234 0)"/>
     <use xlink:href="#DejaVuSans-74" transform="translate(1134.619141 0)"/>
    </g>
   </g>
   <g id="legend_1">
    <g id="patch_7">
     <path d="M 67.42 86.37875 
L 248.540625 86.37875 
Q 251.340625 86.37875 251.340625 83.57875 
L 251.340625 43.88 
Q 251.340625 41.08 248.540625 41.08 
L 67.42 41.08 
Q 64.62 41.08 64.62 43.88 
L 64.62 83.57875 
Q 64.62 86.37875 67.42 86.37875 
z
" style="fill: #ffffff; opacity: 0.8; stroke: #cccccc; stroke-linejoin: miter"/>
    </g>
    <g id="line2d_35">
     <path d="M 70.22 52.417812 
L 84.22 52.417812 
L 98.22 52.417812 
" style="fill: none; stroke: #1f77b4; stroke-width: 3; stroke-linecap: square"/>
    </g>
    <g id="text_20">
     <!-- JONSWAP -->
     <g transform="translate(109.42 57.317812) scale(0.14 -0.14)">
      <defs>
       <path id="DejaVuSans-4a" d="M 628 4666 
L 1259 4666 
L 1259 325 
Q 1259 -519 939 -900 
Q 619 -1281 -91 -1281 
L -331 -1281 
L -331 -750 
L -134 -750 
Q 284 -750 456 -515 
Q 628 -281 628 325 
L 628 4666 
z
" transform="scale(0.015625)"/>
       <path id="DejaVuSans-4f" d="M 2522 4238 
Q 1834 4238 1429 3725 
Q 1025 3213 1025 2328 
Q 1025 1447 1429 934 
Q 1834 422 2522 422 
Q 3209 422 3611 934 
Q 4013 1447 4013 2328 
Q 4013 3213 3611 3725 
Q 3209 4238 2522 4238 
z
M 2522 4750 
Q 3503 4750 4090 4092 
Q 4678 3434 4678 2328 
Q 4678 1225 4090 567 
Q 3503 -91 2522 -91 
Q 1538 -91 948 565 
Q 359 1222 359 2328 
Q 359 3434 948 4092 
Q 1538 4750 2522 4750 
z
" transform="scale(0.015625)"/>
       <path id="DejaVuSans-4e" d="M 628 4666 
L 1478 4666 
L 3547 763 
L 3547 4666 
L 4159 4666 
L 4159 0 
L 3309 0 
L 1241 3903 
L 1241 0 
L 628 0 
L 628 4666 
z
" transform="scale(0.015625)"/>
       <path id="DejaVuSans-57" d="M 213 4666 
L 850 4666 
L 1831 722 
L 2809 4666 
L 3519 4666 
L 4500 722 
L 5478 4666 
L 6119 4666 
L 4947 0 
L 4153 0 
L 3169 4050 
L 2175 0 
L 1381 0 
L 213 4666 
z
" transform="scale(0.015625)"/>
       <path id="DejaVuSans-41" d="M 2188 4044 
L 1331 1722 
L 3047 1722 
L 2188 4044 
z
M 1831 4666 
L 2547 4666 
L 4325 0 
L 3669 0 
L 3244 1197 
L 1141 1197 
L 716 0 
L 50 0 
L 1831 4666 
z
" transform="scale(0.015625)"/>
       <path id="DejaVuSans-50" d="M 1259 4147 
L 1259 2394 
L 2053 2394 
Q 2494 2394 2734 2622 
Q 2975 2850 2975 3272 
Q 2975 3691 2734 3919 
Q 2494 4147 2053 4147 
L 1259 4147 
z
M 628 4666 
L 2053 4666 
Q 2838 4666 3239 4311 
Q 3641 3956 3641 3272 
Q 3641 2581 3239 2228 
Q 2838 1875 2053 1875 
L 1259 1875 
L 1259 0 
L 628 0 
L 628 4666 
z
" transform="scale(0.015625)"/>
      </defs>
      <use xlink:href="#DejaVuSans-4a"/>
      <use xlink:href="#DejaVuSans-4f" transform="translate(29.492188 0)"/>
      <use xlink:href="#DejaVuSans-4e" transform="translate(108.203125 0)"/>
      <use xlink:href="#DejaVuSans-53" transform="translate(183.007812 0)"/>
      <use xlink:href="#DejaVuSans-57" transform="translate(246.484375 0)"/>
      <use xlink:href="#DejaVuSans-41" transform="translate(339.861328 0)"/>
      <use xlink:href="#DejaVuSans-50" transform="translate(408.269531 0)"/>
     </g>
    </g>
    <g id="line2d_36">
     <path d="M 70.22 72.967187 
L 84.22 72.967187 
L 98.22 72.967187 
" style="fill: none; stroke: #ff7f0e; stroke-width: 3; stroke-linecap: square"/>
    </g>
    <g id="text_21">
     <!-- JONSWAP + tearing -->
     <g transform="translate(109.42 77.867187) scale(0.14 -0.14)">
      <defs>
       <path id="DejaVuSans-2b" d="M 2944 4013 
L 2944 2272 
L 4684 2272 
L 4684 1741 
L 2944 1741 
L 2944 0 
L 2419 0 
L 2419 1741 
L 678 1741 
L 678 2272 
L 2419 2272 
L 2419 4013 
L 2944 4013 
z
" transform="scale(0.015625)"/>
       <path id="DejaVuSans-72" d="M 2631 2963 
Q 2534 3019 2420 3045 
Q 2306 3072 2169 3072 
Q 1681 3072 1420 2755 
Q 1159 2438 1159 1844 
L 1159 0 
L 581 0 
L 581 3500 
L 1159 3500 
L 1159 2956 
Q 1341 3275 1631 3429 
Q 1922 3584 2338 3584 
Q 2397 3584 2469 3576 
Q 2541 3569 2628 3553 
L 2631 2963 
z
" transform="scale(0.015625)"/>
      </defs>
      <use xlink:href="#DejaVuSans-4a"/>
      <use xlink:href="#DejaVuSans-4f" transform="translate(29.492188 0)"/>
      <use xlink:href="#DejaVuSans-4e" transform="translate(108.203125 0)"/>
      <use xlink:href="#DejaVuSans-53" transform="translate(183.007812 0)"/>
      <use xlink:href="#DejaVuSans-57" transform="translate(246.484375 0)"/>
      <use xlink:href="#DejaVuSans-41" transform="translate(339.861328 0)"/>
      <use xlink:href="#DejaVuSans-50" transform="translate(408.269531 0)"/>
      <use xlink:href="#DejaVuSans-20" transform="translate(468.572266 0)"/>
      <use xlink:href="#DejaVuSans-2b" transform="translate(500.359375 0)"/>
      <use xlink:href="#DejaVuSans-20" transform="translate(584.148438 0)"/>
      <use xlink:href="#DejaVuSans-74" transform="translate(615.935547 0)"/>
      <use xlink:href="#DejaVuSans-65" transform="translate(655.144531 0)"/>
      <use xlink:href="#DejaVuSans-61" transform="translate(716.667969 0)"/>
      <use xlink:href="#DejaVuSans-72" transform="translate(777.947266 0)"/>
      <use xlink:href="#DejaVuSans-69" transform="translate(819.060547 0)"/>
      <use xlink:href="#DejaVuSans-6e" transform="translate(846.84375 0)"/>
      <use xlink:href="#DejaVuSans-67" transform="translate(910.222656 0)"/>
     </g>
    </g>
   </g>
  </g>
  <g id="axes_2">
   <g id="patch_8">
    <path d="M 488.72 304.144 
L 840.015 304.144 
L 840.015 34.08 
L 488.72 34.08 
z
" style="fill: #ffffff"/>
   </g>
   <g id="matplotlib.axis_3">
    <g id="xtick_10">
     <g id="line2d_37">
      <path d="M 488.72 304.144 
L 488.72 34.08 
" clip-path="url(#p6bd34a98e7)" style="fill: none; stroke: #b0b0b0; stroke-width: 0.8; stroke-linecap: square"/>
     </g>
     <g id="line2d_38">
      <g>
       <use xlink:href="#maf5f1657f9" x="488.72" y="304.144" style="stroke: #000000; stroke-width: 0.8"/>
      </g>
     </g>
     <g id="text_22">
      <!-- 0 -->
      <g transform="translate(484.26625 321.781813) scale(0.14 -0.14)">
       <use xlink:href="#DejaVuSans-30"/>
      </g>
     </g>
    </g>
    <g id="xtick_11">
     <g id="line2d_39">
      <path d="M 532.631875 304.144 
L 532.631875 34.08 
" clip-path="url(#p6bd34a98e7)" style="fill: none; stroke: #b0b0b0; stroke-width: 0.8; stroke-linecap: square"/>
     </g>
     <g id="line2d_40">
      <g>
       <use xlink:href="#maf5f1657f9" x="532.631875" y="304.144" style="stroke: #000000; stroke-width: 0.8"/>
      </g>
     </g>
     <g id="text_23">
      <!-- 10 -->
      <g transform="translate(523.724375 321.781813) scale(0.14 -0.14)">
       <use xlink:href="#DejaVuSans-31"/>
       <use xlink:href="#DejaVuSans-30" transform="translate(63.623047 0)"/>
      </g>
     </g>
    </g>
    <g id="xtick_12">
     <g id="line2d_41">
      <path d="M 576.54375 304.144 
L 576.54375 34.08 
" clip-path="url(#p6bd34a98e7)" style="fill: none; stroke: #b0b0b0; stroke-width: 0.8; stroke-linecap: square"/>
     </g>
     <g id="line2d_42">
      <g>
       <use xlink:href="#maf5f1657f9" x="576.54375" y="304.144" style="stroke: #000000; stroke-width: 0.8"/>
      </g>
     </g>
     <g id="text_24">
      <!-- 20 -->
      <g transform="translate(567.63625 321.781813) scale(0.14 -0.14)">
       <use xlink:href="#DejaVuSans-32"/>
       <use xlink:href="#DejaVuSans-30" transform="translate(63.623047 0)"/>
      </g>
     </g>
    </g>
    <g id="xtick_13">
     <g id="line2d_43">
      <path d="M 620.455625 304.144 
L 620.455625 34.08 
" clip-path="url(#p6bd34a98e7)" style="fill: none; stroke: #b0b0b0; stroke-width: 0.8; stroke-linecap: square"/>
     </g>
     <g id="line2d_44">
      <g>
       <use xlink:href="#maf5f1657f9" x="620.455625" y="304.144" style="stroke: #000000; stroke-width: 0.8"/>
      </g>
     </g>
     <g id="text_25">
      <!-- 30 -->
      <g transform="translate(611.548125 321.781813) scale(0.14 -0.14)">
       <use xlink:href="#DejaVuSans-33"/>
       <use xlink:href="#DejaVuSans-30" transform="translate(63.623047 0)"/>
      </g>
     </g>
    </g>
    <g id="xtick_14">
     <g id="line2d_45">
      <path d="M 664.3675 304.144 
L 664.3675 34.08 
" clip-path="url(#p6bd34a98e7)" style="fill: none; stroke: #b0b0b0; stroke-width: 0.8; stroke-linecap: square"/>
     </g>
     <g id="line2d_46">
      <g>
       <use xlink:href="#maf5f1657f9" x="664.3675" y="304.144" style="stroke: #000000; stroke-width: 0.8"/>
      </g>
     </g>
     <g id="text_26">
      <!-- 40 -->
      <g transform="translate(655.46 321.781813) scale(0.14 -0.14)">
       <use xlink:href="#DejaVuSans-34"/>
       <use xlink:href="#DejaVuSans-30" transform="translate(63.623047 0)"/>
      </g>
     </g>
    </g>
    <g id="xtick_15">
     <g id="line2d_47">
      <path d="M 708.279375 304.144 
L 708.279375 34.08 
" clip-path="url(#p6bd34a98e7)" style="fill: none; stroke: #b0b0b0; stroke-width: 0.8; stroke-linecap: square"/>
     </g>
     <g id="line2d_48">
      <g>
       <use xlink:href="#maf5f1657f9" x="708.279375" y="304.144" style="stroke: #000000; stroke-width: 0.8"/>
      </g>
     </g>
     <g id="text_27">
      <!-- 50 -->
      <g transform="translate(699.371875 321.781813) scale(0.14 -0.14)">
       <use xlink:href="#DejaVuSans-35"/>
       <use xlink:href="#DejaVuSans-30" transform="translate(63.623047 0)"/>
      </g>
     </g>
    </g>
    <g id="xtick_16">
     <g id="line2d_49">
      <path d="M 752.19125 304.144 
L 752.19125 34.08 
" clip-path="url(#p6bd34a98e7)" style="fill: none; stroke: #b0b0b0; stroke-width: 0.8; stroke-linecap: square"/>
     </g>
     <g id="line2d_50">
      <g>
       <use xlink:href="#maf5f1657f9" x="752.19125" y="304.144" style="stroke: #000000; stroke-width: 0.8"/>
      </g>
     </g>
     <g id="text_28">
      <!-- 60 -->
      <g transform="translate(743.28375 321.781813) scale(0.14 -0.14)">
       <use xlink:href="#DejaVuSans-36"/>
       <use xlink:href="#DejaVuSans-30" transform="translate(63.623047 0)"/>
      </g>
     </g>
    </g>
    <g id="xtick_17">
     <g id="line2d_51">
      <path d="M 796.103125 304.144 
L 796.103125 34.08 
" clip-path="url(#p6bd34a98e7)" style="fill: none; stroke: #b0b0b0; stroke-width: 0.8; stroke-linecap: square"/>
     </g>
     <g id="line2d_52">
      <g>
       <use xlink:href="#maf5f1657f9" x="796.103125" y="304.144" style="stroke: #000000; stroke-width: 0.8"/>
      </g>
     </g>
     <g id="text_29">
      <!-- 70 -->
      <g transform="translate(787.195625 321.781813) scale(0.14 -0.14)">
       <use xlink:href="#DejaVuSans-37"/>
       <use xlink:href="#DejaVuSans-30" transform="translate(63.623047 0)"/>
      </g>
     </g>
    </g>
    <g id="xtick_18">
     <g id="line2d_53">
      <path d="M 840.015 304.144 
L 840.015 34.08 
" clip-path="url(#p6bd34a98e7)" style="fill: none; stroke: #b0b0b0; stroke-width: 0.8; stroke-linecap: square"/>
     </g>
     <g id="line2d_54">
      <g>
       <use xlink:href="#maf5f1657f9" x="840.015" y="304.144" style="stroke: #000000; stroke-width: 0.8"/>
      </g>
     </g>
     <g id="text_30">
      <!-- 80 -->
      <g transform="translate(831.1075 321.781813) scale(0.14 -0.14)">
       <use xlink:href="#DejaVuSans-38"/>
       <use xlink:href="#DejaVuSans-30" transform="translate(63.623047 0)"/>
      </g>
     </g>
    </g>
    <g id="text_31">
     <!-- U$_{10}$ [m/s] -->
     <g transform="translate(632.2375 339.331187) scale(0.14 -0.14)">
      <use xlink:href="#DejaVuSans-55" transform="translate(0 0.015625)"/>
      <use xlink:href="#DejaVuSans-31" transform="translate(74.150391 -16.390625) scale(0.7)"/>
      <use xlink:href="#DejaVuSans-30" transform="translate(118.686523 -16.390625) scale(0.7)"/>
      <use xlink:href="#DejaVuSans-20" transform="translate(165.957031 0.015625)"/>
      <use xlink:href="#DejaVuSans-5b" transform="translate(197.744141 0.015625)"/>
      <use xlink:href="#DejaVuSans-6d" transform="translate(236.757812 0.015625)"/>
      <use xlink:href="#DejaVuSans-2f" transform="translate(334.169922 0.015625)"/>
      <use xlink:href="#DejaVuSans-73" transform="translate(367.861328 0.015625)"/>
      <use xlink:href="#DejaVuSans-5d" transform="translate(419.960938 0.015625)"/>
     </g>
    </g>
   </g>
   <g id="matplotlib.axis_4">
    <g id="ytick_8">
     <g id="line2d_55">
      <path d="M 488.72 304.144 
L 840.015 304.144 
" clip-path="url(#p6bd34a98e7)" style="fill: none; stroke: #b0b0b0; stroke-width: 0.8; stroke-linecap: square"/>
     </g>
     <g id="line2d_56">
      <g>
       <use xlink:href="#m99cd30ce5c" x="488.72" y="304.144" style="stroke: #000000; stroke-width: 0.8"/>
      </g>
     </g>
     <g id="text_32">
      <!-- 0.00 -->
      <g transform="translate(450.548125 309.462906) scale(0.14 -0.14)">
       <defs>
        <path id="DejaVuSans-2e" d="M 684 794 
L 1344 794 
L 1344 0 
L 684 0 
L 684 794 
z
" transform="scale(0.015625)"/>
       </defs>
       <use xlink:href="#DejaVuSans-30"/>
       <use xlink:href="#DejaVuSans-2e" transform="translate(63.623047 0)"/>
       <use xlink:href="#DejaVuSans-30" transform="translate(95.410156 0)"/>
       <use xlink:href="#DejaVuSans-30" transform="translate(159.033203 0)"/>
      </g>
     </g>
    </g>
    <g id="ytick_9">
     <g id="line2d_57">
      <path d="M 488.72 272.371765 
L 840.015 272.371765 
" clip-path="url(#p6bd34a98e7)" style="fill: none; stroke: #b0b0b0; stroke-width: 0.8; stroke-linecap: square"/>
     </g>
     <g id="line2d_58">
      <g>
       <use xlink:href="#m99cd30ce5c" x="488.72" y="272.371765" style="stroke: #000000; stroke-width: 0.8"/>
      </g>
     </g>
     <g id="text_33">
      <!-- 0.02 -->
      <g transform="translate(450.548125 277.690671) scale(0.14 -0.14)">
       <use xlink:href="#DejaVuSans-30"/>
       <use xlink:href="#DejaVuSans-2e" transform="translate(63.623047 0)"/>
       <use xlink:href="#DejaVuSans-30" transform="translate(95.410156 0)"/>
       <use xlink:href="#DejaVuSans-32" transform="translate(159.033203 0)"/>
      </g>
     </g>
    </g>
    <g id="ytick_10">
     <g id="line2d_59">
      <path d="M 488.72 240.599529 
L 840.015 240.599529 
" clip-path="url(#p6bd34a98e7)" style="fill: none; stroke: #b0b0b0; stroke-width: 0.8; stroke-linecap: square"/>
     </g>
     <g id="line2d_60">
      <g>
       <use xlink:href="#m99cd30ce5c" x="488.72" y="240.599529" style="stroke: #000000; stroke-width: 0.8"/>
      </g>
     </g>
     <g id="text_34">
      <!-- 0.04 -->
      <g transform="translate(450.548125 245.918436) scale(0.14 -0.14)">
       <use xlink:href="#DejaVuSans-30"/>
       <use xlink:href="#DejaVuSans-2e" transform="translate(63.623047 0)"/>
       <use xlink:href="#DejaVuSans-30" transform="translate(95.410156 0)"/>
       <use xlink:href="#DejaVuSans-34" transform="translate(159.033203 0)"/>
      </g>
     </g>
    </g>
    <g id="ytick_11">
     <g id="line2d_61">
      <path d="M 488.72 208.827294 
L 840.015 208.827294 
" clip-path="url(#p6bd34a98e7)" style="fill: none; stroke: #b0b0b0; stroke-width: 0.8; stroke-linecap: square"/>
     </g>
     <g id="line2d_62">
      <g>
       <use xlink:href="#m99cd30ce5c" x="488.72" y="208.827294" style="stroke: #000000; stroke-width: 0.8"/>
      </g>
     </g>
     <g id="text_35">
      <!-- 0.06 -->
      <g transform="translate(450.548125 214.1462) scale(0.14 -0.14)">
       <use xlink:href="#DejaVuSans-30"/>
       <use xlink:href="#DejaVuSans-2e" transform="translate(63.623047 0)"/>
       <use xlink:href="#DejaVuSans-30" transform="translate(95.410156 0)"/>
       <use xlink:href="#DejaVuSans-36" transform="translate(159.033203 0)"/>
      </g>
     </g>
    </g>
    <g id="ytick_12">
     <g id="line2d_63">
      <path d="M 488.72 177.055059 
L 840.015 177.055059 
" clip-path="url(#p6bd34a98e7)" style="fill: none; stroke: #b0b0b0; stroke-width: 0.8; stroke-linecap: square"/>
     </g>
     <g id="line2d_64">
      <g>
       <use xlink:href="#m99cd30ce5c" x="488.72" y="177.055059" style="stroke: #000000; stroke-width: 0.8"/>
      </g>
     </g>
     <g id="text_36">
      <!-- 0.08 -->
      <g transform="translate(450.548125 182.373965) scale(0.14 -0.14)">
       <use xlink:href="#DejaVuSans-30"/>
       <use xlink:href="#DejaVuSans-2e" transform="translate(63.623047 0)"/>
       <use xlink:href="#DejaVuSans-30" transform="translate(95.410156 0)"/>
       <use xlink:href="#DejaVuSans-38" transform="translate(159.033203 0)"/>
      </g>
     </g>
    </g>
    <g id="ytick_13">
     <g id="line2d_65">
      <path d="M 488.72 145.282824 
L 840.015 145.282824 
" clip-path="url(#p6bd34a98e7)" style="fill: none; stroke: #b0b0b0; stroke-width: 0.8; stroke-linecap: square"/>
     </g>
     <g id="line2d_66">
      <g>
       <use xlink:href="#m99cd30ce5c" x="488.72" y="145.282824" style="stroke: #000000; stroke-width: 0.8"/>
      </g>
     </g>
     <g id="text_37">
      <!-- 0.10 -->
      <g transform="translate(450.548125 150.60173) scale(0.14 -0.14)">
       <use xlink:href="#DejaVuSans-30"/>
       <use xlink:href="#DejaVuSans-2e" transform="translate(63.623047 0)"/>
       <use xlink:href="#DejaVuSans-31" transform="translate(95.410156 0)"/>
       <use xlink:href="#DejaVuSans-30" transform="translate(159.033203 0)"/>
      </g>
     </g>
    </g>
    <g id="ytick_14">
     <g id="line2d_67">
      <path d="M 488.72 113.510588 
L 840.015 113.510588 
" clip-path="url(#p6bd34a98e7)" style="fill: none; stroke: #b0b0b0; stroke-width: 0.8; stroke-linecap: square"/>
     </g>
     <g id="line2d_68">
      <g>
       <use xlink:href="#m99cd30ce5c" x="488.72" y="113.510588" style="stroke: #000000; stroke-width: 0.8"/>
      </g>
     </g>
     <g id="text_38">
      <!-- 0.12 -->
      <g transform="translate(450.548125 118.829494) scale(0.14 -0.14)">
       <use xlink:href="#DejaVuSans-30"/>
       <use xlink:href="#DejaVuSans-2e" transform="translate(63.623047 0)"/>
       <use xlink:href="#DejaVuSans-31" transform="translate(95.410156 0)"/>
       <use xlink:href="#DejaVuSans-32" transform="translate(159.033203 0)"/>
      </g>
     </g>
    </g>
    <g id="ytick_15">
     <g id="line2d_69">
      <path d="M 488.72 81.738353 
L 840.015 81.738353 
" clip-path="url(#p6bd34a98e7)" style="fill: none; stroke: #b0b0b0; stroke-width: 0.8; stroke-linecap: square"/>
     </g>
     <g id="line2d_70">
      <g>
       <use xlink:href="#m99cd30ce5c" x="488.72" y="81.738353" style="stroke: #000000; stroke-width: 0.8"/>
      </g>
     </g>
     <g id="text_39">
      <!-- 0.14 -->
      <g transform="translate(450.548125 87.057259) scale(0.14 -0.14)">
       <use xlink:href="#DejaVuSans-30"/>
       <use xlink:href="#DejaVuSans-2e" transform="translate(63.623047 0)"/>
       <use xlink:href="#DejaVuSans-31" transform="translate(95.410156 0)"/>
       <use xlink:href="#DejaVuSans-34" transform="translate(159.033203 0)"/>
      </g>
     </g>
    </g>
    <g id="ytick_16">
     <g id="line2d_71">
      <path d="M 488.72 49.966118 
L 840.015 49.966118 
" clip-path="url(#p6bd34a98e7)" style="fill: none; stroke: #b0b0b0; stroke-width: 0.8; stroke-linecap: square"/>
     </g>
     <g id="line2d_72">
      <g>
       <use xlink:href="#m99cd30ce5c" x="488.72" y="49.966118" style="stroke: #000000; stroke-width: 0.8"/>
      </g>
     </g>
     <g id="text_40">
      <!-- 0.16 -->
      <g transform="translate(450.548125 55.285024) scale(0.14 -0.14)">
       <use xlink:href="#DejaVuSans-30"/>
       <use xlink:href="#DejaVuSans-2e" transform="translate(63.623047 0)"/>
       <use xlink:href="#DejaVuSans-31" transform="translate(95.410156 0)"/>
       <use xlink:href="#DejaVuSans-36" transform="translate(159.033203 0)"/>
      </g>
     </g>
    </g>
    <g id="text_41">
     <!-- MSS -->
     <g transform="translate(443.636562 184.0395) rotate(-90) scale(0.14 -0.14)">
      <defs>
       <path id="DejaVuSans-4d" d="M 628 4666 
L 1569 4666 
L 2759 1491 
L 3956 4666 
L 4897 4666 
L 4897 0 
L 4281 0 
L 4281 4097 
L 3078 897 
L 2444 897 
L 1241 4097 
L 1241 0 
L 628 0 
L 628 4666 
z
" transform="scale(0.015625)"/>
      </defs>
      <use xlink:href="#DejaVuSans-4d"/>
      <use xlink:href="#DejaVuSans-53" transform="translate(86.279297 0)"/>
      <use xlink:href="#DejaVuSans-53" transform="translate(149.755859 0)"/>
     </g>
    </g>
   </g>
   <g id="line2d_73">
    <path d="M 493.111187 274.245076 
L 497.502375 261.78383 
L 501.893562 252.246075 
L 506.28475 244.234685 
L 510.675937 237.185666 
L 515.067125 230.82161 
L 519.458312 224.9723 
L 523.8495 219.551632 
L 528.240687 214.450821 
L 532.631875 209.645976 
L 537.023062 205.063801 
L 541.41425 200.71197 
L 545.805437 196.520598 
L 550.196625 192.499272 
L 554.587812 188.633051 
L 558.979 184.878694 
L 563.370187 181.243411 
L 567.761375 177.734854 
L 572.152562 174.31517 
L 576.54375 170.975417 
L 580.934937 167.721834 
L 585.326125 164.562524 
L 589.717312 161.474746 
L 594.1085 158.444828 
L 598.499687 155.472831 
L 602.890875 152.563273 
L 607.282062 149.721758 
L 611.67325 146.939565 
L 616.064437 144.200403 
L 620.455625 141.502405 
L 624.846812 138.846185 
L 629.238 136.234391 
L 633.629187 133.670408 
L 638.020375 131.15575 
L 642.411562 128.677724 
L 646.80275 126.230366 
L 651.193937 123.812633 
L 655.585125 121.424618 
L 659.976312 119.067471 
L 664.3675 116.743024 
L 668.758687 114.453198 
L 673.149875 112.199308 
L 677.541062 109.974556 
L 681.93225 107.772457 
L 686.323437 105.592067 
L 690.714625 103.432934 
L 695.105812 101.295138 
L 699.497 99.179258 
L 703.888187 97.086243 
L 708.279375 95.017221 
L 712.670562 92.973247 
L 717.06175 90.955057 
L 721.452937 88.960054 
L 725.844125 86.981903 
L 730.235312 85.019753 
L 734.6265 83.073131 
L 739.017687 81.1418 
L 743.408875 79.225766 
L 747.800062 77.325274 
L 752.19125 75.440769 
L 756.582437 73.572839 
L 760.973625 71.722133 
L 765.364812 69.889264 
L 769.756 68.07472 
L 774.147187 66.278784 
L 778.538375 64.498215 
L 782.929562 62.729634 
L 787.32075 60.97264 
L 791.711937 59.226926 
L 796.103125 57.492288 
L 800.494312 55.768633 
L 804.8855 54.05598 
L 809.276687 52.35446 
L 813.667875 50.664298 
L 818.059062 48.985797 
L 822.45025 47.31931 
L 826.841437 45.665207 
L 831.232625 44.023841 
L 835.623812 42.395513 
L 840.015 40.78044 
" clip-path="url(#p6bd34a98e7)" style="fill: none; stroke: #1f77b4; stroke-width: 3; stroke-linecap: square"/>
   </g>
   <g id="line2d_74">
    <path d="M 493.111187 274.245077 
L 497.502375 261.783848 
L 501.893562 252.246258 
L 506.28475 244.235602 
L 510.675937 237.188845 
L 515.067125 230.829852 
L 519.458312 224.990694 
L 523.8495 219.588385 
L 528.240687 214.518488 
L 532.631875 209.762608 
L 537.023062 205.254768 
L 541.41425 201.011001 
L 545.805437 196.972923 
L 550.196625 193.162277 
L 554.587812 189.578976 
L 558.979 186.199125 
L 563.370187 183.049228 
L 567.761375 180.157611 
L 572.152562 177.516097 
L 576.54375 175.146157 
L 580.934937 173.083631 
L 585.326125 171.366064 
L 589.717312 170.01377 
L 594.1085 169.058758 
L 598.499687 168.542946 
L 602.890875 168.768042 
L 607.282062 169.599677 
L 611.67325 171.085458 
L 616.064437 173.274783 
L 620.455625 176.210108 
L 624.846812 179.919702 
L 629.238 184.410808 
L 633.629187 189.66376 
L 638.020375 195.628888 
L 642.411562 202.241704 
L 646.80275 209.381306 
L 651.193937 216.85468 
L 655.585125 224.385987 
L 659.976312 231.599529 
L 664.3675 238.04354 
L 668.758687 243.620684 
L 673.149875 248.47884 
L 677.541062 252.751228 
L 681.93225 256.541965 
L 686.323437 259.928816 
L 690.714625 262.974236 
L 695.105812 265.728337 
L 699.497 268.231961 
L 703.888187 270.518195 
L 708.279375 272.614512 
L 712.670562 274.544178 
L 717.06175 276.326389 
L 721.452937 277.978279 
L 725.844125 279.51482 
L 730.235312 280.947474 
L 734.6265 282.284434 
L 739.017687 283.535088 
L 743.408875 284.70584 
L 747.800062 285.802686 
L 752.19125 286.831477 
L 756.582437 287.797597 
L 760.973625 288.705768 
L 765.364812 289.560039 
L 769.756 290.363898 
L 774.147187 291.120719 
L 778.538375 291.834548 
L 782.929562 292.509941 
L 787.32075 293.146112 
L 791.711937 293.746725 
L 796.103125 294.317227 
L 800.494312 294.853808 
L 804.8855 295.364921 
L 809.276687 295.846726 
L 813.667875 296.306013 
L 818.059062 296.739927 
L 822.45025 297.15503 
L 826.841437 297.546237 
L 831.232625 297.923034 
L 835.623812 298.276581 
L 840.015 298.61792 
" clip-path="url(#p6bd34a98e7)" style="fill: none; stroke: #ff7f0e; stroke-width: 3; stroke-linecap: square"/>
   </g>
   <g id="line2d_75">
    <path d="M 493.111187 294.28463 
L 497.502375 284.488982 
L 501.893562 274.819139 
L 506.28475 265.334001 
L 510.675937 256.087903 
L 515.067125 247.129471 
L 519.458312 238.500756 
L 523.8495 230.236671 
L 528.240687 222.364729 
L 532.631875 214.905066 
L 537.023062 207.870712 
L 541.41425 201.268061 
L 545.805437 195.0975 
L 550.196625 189.354136 
L 554.587812 184.028572 
L 558.979 179.107707 
L 563.370187 174.575502 
L 567.761375 170.413705 
L 572.152562 166.602507 
L 576.54375 163.121129 
L 580.934937 159.948314 
L 585.326125 157.062755 
L 589.717312 154.443432 
L 594.1085 152.069882 
L 598.499687 149.922407 
L 602.890875 147.982223 
L 607.282062 146.231562 
L 611.67325 144.653733 
L 616.064437 143.233152 
L 620.455625 141.955346 
L 624.846812 140.806932 
L 629.238 139.775591 
L 633.629187 138.850017 
L 638.020375 138.01987 
L 642.411562 137.275719 
L 646.80275 136.608984 
L 651.193937 136.011873 
L 655.585125 135.477326 
L 659.976312 134.998957 
L 664.3675 134.570997 
L 668.758687 134.188241 
L 673.149875 133.846002 
L 677.541062 133.54006 
L 681.93225 133.26662 
L 686.323437 133.022274 
L 690.714625 132.80396 
L 695.105812 132.608935 
L 699.497 132.434735 
L 703.888187 132.279155 
L 708.279375 132.140219 
" clip-path="url(#p6bd34a98e7)" style="fill: none; stroke-dasharray: 11.1,4.8; stroke-dashoffset: 0; stroke: #2ca02c; stroke-width: 3"/>
   </g>
   <g id="patch_9">
    <path d="M 488.72 304.144 
L 488.72 34.08 
" style="fill: none; stroke: #000000; stroke-width: 0.8; stroke-linejoin: miter; stroke-linecap: square"/>
   </g>
   <g id="patch_10">
    <path d="M 840.015 304.144 
L 840.015 34.08 
" style="fill: none; stroke: #000000; stroke-width: 0.8; stroke-linejoin: miter; stroke-linecap: square"/>
   </g>
   <g id="patch_11">
    <path d="M 488.72 304.144 
L 840.015 304.144 
" style="fill: none; stroke: #000000; stroke-width: 0.8; stroke-linejoin: miter; stroke-linecap: square"/>
   </g>
   <g id="patch_12">
    <path d="M 488.72 34.08 
L 840.015 34.08 
" style="fill: none; stroke: #000000; stroke-width: 0.8; stroke-linejoin: miter; stroke-linecap: square"/>
   </g>
   <g id="text_42">
    <!-- Mean square slope -->
    <g transform="translate(585.177812 28.08) scale(0.168 -0.168)">
     <defs>
      <path id="DejaVuSans-71" d="M 947 1747 
Q 947 1113 1208 752 
Q 1469 391 1925 391 
Q 2381 391 2643 752 
Q 2906 1113 2906 1747 
Q 2906 2381 2643 2742 
Q 2381 3103 1925 3103 
Q 1469 3103 1208 2742 
Q 947 2381 947 1747 
z
M 2906 525 
Q 2725 213 2448 61 
Q 2172 -91 1784 -91 
Q 1150 -91 751 415 
Q 353 922 353 1747 
Q 353 2572 751 3078 
Q 1150 3584 1784 3584 
Q 2172 3584 2448 3432 
Q 2725 3281 2906 2969 
L 2906 3500 
L 3481 3500 
L 3481 -1331 
L 2906 -1331 
L 2906 525 
z
" transform="scale(0.015625)"/>
      <path id="DejaVuSans-75" d="M 544 1381 
L 544 3500 
L 1119 3500 
L 1119 1403 
Q 1119 906 1312 657 
Q 1506 409 1894 409 
Q 2359 409 2629 706 
Q 2900 1003 2900 1516 
L 2900 3500 
L 3475 3500 
L 3475 0 
L 2900 0 
L 2900 538 
Q 2691 219 2414 64 
Q 2138 -91 1772 -91 
Q 1169 -91 856 284 
Q 544 659 544 1381 
z
M 1991 3584 
L 1991 3584 
z
" transform="scale(0.015625)"/>
      <path id="DejaVuSans-6c" d="M 603 4863 
L 1178 4863 
L 1178 0 
L 603 0 
L 603 4863 
z
" transform="scale(0.015625)"/>
      <path id="DejaVuSans-6f" d="M 1959 3097 
Q 1497 3097 1228 2736 
Q 959 2375 959 1747 
Q 959 1119 1226 758 
Q 1494 397 1959 397 
Q 2419 397 2687 759 
Q 2956 1122 2956 1747 
Q 2956 2369 2687 2733 
Q 2419 3097 1959 3097 
z
M 1959 3584 
Q 2709 3584 3137 3096 
Q 3566 2609 3566 1747 
Q 3566 888 3137 398 
Q 2709 -91 1959 -91 
Q 1206 -91 779 398 
Q 353 888 353 1747 
Q 353 2609 779 3096 
Q 1206 3584 1959 3584 
z
" transform="scale(0.015625)"/>
      <path id="DejaVuSans-70" d="M 1159 525 
L 1159 -1331 
L 581 -1331 
L 581 3500 
L 1159 3500 
L 1159 2969 
Q 1341 3281 1617 3432 
Q 1894 3584 2278 3584 
Q 2916 3584 3314 3078 
Q 3713 2572 3713 1747 
Q 3713 922 3314 415 
Q 2916 -91 2278 -91 
Q 1894 -91 1617 61 
Q 1341 213 1159 525 
z
M 3116 1747 
Q 3116 2381 2855 2742 
Q 2594 3103 2138 3103 
Q 1681 3103 1420 2742 
Q 1159 2381 1159 1747 
Q 1159 1113 1420 752 
Q 1681 391 2138 391 
Q 2594 391 2855 752 
Q 3116 1113 3116 1747 
z
" transform="scale(0.015625)"/>
     </defs>
     <use xlink:href="#DejaVuSans-4d"/>
     <use xlink:href="#DejaVuSans-65" transform="translate(86.279297 0)"/>
     <use xlink:href="#DejaVuSans-61" transform="translate(147.802734 0)"/>
     <use xlink:href="#DejaVuSans-6e" transform="translate(209.082031 0)"/>
     <use xlink:href="#DejaVuSans-20" transform="translate(272.460938 0)"/>
     <use xlink:href="#DejaVuSans-73" transform="translate(304.248047 0)"/>
     <use xlink:href="#DejaVuSans-71" transform="translate(356.347656 0)"/>
     <use xlink:href="#DejaVuSans-75" transform="translate(419.824219 0)"/>
     <use xlink:href="#DejaVuSans-61" transform="translate(483.203125 0)"/>
     <use xlink:href="#DejaVuSans-72" transform="translate(544.482422 0)"/>
     <use xlink:href="#DejaVuSans-65" transform="translate(583.345703 0)"/>
     <use xlink:href="#DejaVuSans-20" transform="translate(644.869141 0)"/>
     <use xlink:href="#DejaVuSans-73" transform="translate(676.65625 0)"/>
     <use xlink:href="#DejaVuSans-6c" transform="translate(728.755859 0)"/>
     <use xlink:href="#DejaVuSans-6f" transform="translate(756.539062 0)"/>
     <use xlink:href="#DejaVuSans-70" transform="translate(817.720703 0)"/>
     <use xlink:href="#DejaVuSans-65" transform="translate(881.197266 0)"/>
    </g>
   </g>
   <g id="legend_2">
    <g id="patch_13">
     <path d="M 498.52 106.928125 
L 745.823438 106.928125 
Q 748.623438 106.928125 748.623438 104.128125 
L 748.623438 43.88 
Q 748.623438 41.08 745.823438 41.08 
L 498.52 41.08 
Q 495.72 41.08 495.72 43.88 
L 495.72 104.128125 
Q 495.72 106.928125 498.52 106.928125 
z
" style="fill: #ffffff; opacity: 0.8; stroke: #cccccc; stroke-linejoin: miter"/>
    </g>
    <g id="line2d_76">
     <path d="M 501.32 52.417812 
L 515.32 52.417812 
L 529.32 52.417812 
" style="fill: none; stroke: #1f77b4; stroke-width: 3; stroke-linecap: square"/>
    </g>
    <g id="text_43">
     <!-- JONSWAP -->
     <g transform="translate(540.52 57.317812) scale(0.14 -0.14)">
      <use xlink:href="#DejaVuSans-4a"/>
      <use xlink:href="#DejaVuSans-4f" transform="translate(29.492188 0)"/>
      <use xlink:href="#DejaVuSans-4e" transform="translate(108.203125 0)"/>
      <use xlink:href="#DejaVuSans-53" transform="translate(183.007812 0)"/>
      <use xlink:href="#DejaVuSans-57" transform="translate(246.484375 0)"/>
      <use xlink:href="#DejaVuSans-41" transform="translate(339.861328 0)"/>
      <use xlink:href="#DejaVuSans-50" transform="translate(408.269531 0)"/>
     </g>
    </g>
    <g id="line2d_77">
     <path d="M 501.32 72.967187 
L 515.32 72.967187 
L 529.32 72.967187 
" style="fill: none; stroke: #ff7f0e; stroke-width: 3; stroke-linecap: square"/>
    </g>
    <g id="text_44">
     <!-- JONSWAP + tearing -->
     <g transform="translate(540.52 77.867187) scale(0.14 -0.14)">
      <use xlink:href="#DejaVuSans-4a"/>
      <use xlink:href="#DejaVuSans-4f" transform="translate(29.492188 0)"/>
      <use xlink:href="#DejaVuSans-4e" transform="translate(108.203125 0)"/>
      <use xlink:href="#DejaVuSans-53" transform="translate(183.007812 0)"/>
      <use xlink:href="#DejaVuSans-57" transform="translate(246.484375 0)"/>
      <use xlink:href="#DejaVuSans-41" transform="translate(339.861328 0)"/>
      <use xlink:href="#DejaVuSans-50" transform="translate(408.269531 0)"/>
      <use xlink:href="#DejaVuSans-20" transform="translate(468.572266 0)"/>
      <use xlink:href="#DejaVuSans-2b" transform="translate(500.359375 0)"/>
      <use xlink:href="#DejaVuSans-20" transform="translate(584.148438 0)"/>
      <use xlink:href="#DejaVuSans-74" transform="translate(615.935547 0)"/>
      <use xlink:href="#DejaVuSans-65" transform="translate(655.144531 0)"/>
      <use xlink:href="#DejaVuSans-61" transform="translate(716.667969 0)"/>
      <use xlink:href="#DejaVuSans-72" transform="translate(777.947266 0)"/>
      <use xlink:href="#DejaVuSans-69" transform="translate(819.060547 0)"/>
      <use xlink:href="#DejaVuSans-6e" transform="translate(846.84375 0)"/>
      <use xlink:href="#DejaVuSans-67" transform="translate(910.222656 0)"/>
     </g>
    </g>
    <g id="line2d_78">
     <path d="M 501.32 93.516562 
L 515.32 93.516562 
L 529.32 93.516562 
" style="fill: none; stroke-dasharray: 11.1,4.8; stroke-dashoffset: 0; stroke: #2ca02c; stroke-width: 3"/>
    </g>
    <g id="text_45">
     <!-- Field data (Davis et al. 2023) -->
     <g transform="translate(540.52 98.416562) scale(0.14 -0.14)">
      <defs>
       <path id="DejaVuSans-46" d="M 628 4666 
L 3309 4666 
L 3309 4134 
L 1259 4134 
L 1259 2759 
L 3109 2759 
L 3109 2228 
L 1259 2228 
L 1259 0 
L 628 0 
L 628 4666 
z
" transform="scale(0.015625)"/>
       <path id="DejaVuSans-64" d="M 2906 2969 
L 2906 4863 
L 3481 4863 
L 3481 0 
L 2906 0 
L 2906 525 
Q 2725 213 2448 61 
Q 2172 -91 1784 -91 
Q 1150 -91 751 415 
Q 353 922 353 1747 
Q 353 2572 751 3078 
Q 1150 3584 1784 3584 
Q 2172 3584 2448 3432 
Q 2725 3281 2906 2969 
z
M 947 1747 
Q 947 1113 1208 752 
Q 1469 391 1925 391 
Q 2381 391 2643 752 
Q 2906 1113 2906 1747 
Q 2906 2381 2643 2742 
Q 2381 3103 1925 3103 
Q 1469 3103 1208 2742 
Q 947 2381 947 1747 
z
" transform="scale(0.015625)"/>
       <path id="DejaVuSans-28" d="M 1984 4856 
Q 1566 4138 1362 3434 
Q 1159 2731 1159 2009 
Q 1159 1288 1364 580 
Q 1569 -128 1984 -844 
L 1484 -844 
Q 1016 -109 783 600 
Q 550 1309 550 2009 
Q 550 2706 781 3412 
Q 1013 4119 1484 4856 
L 1984 4856 
z
" transform="scale(0.015625)"/>
       <path id="DejaVuSans-44" d="M 1259 4147 
L 1259 519 
L 2022 519 
Q 2988 519 3436 956 
Q 3884 1394 3884 2338 
Q 3884 3275 3436 3711 
Q 2988 4147 2022 4147 
L 1259 4147 
z
M 628 4666 
L 1925 4666 
Q 3281 4666 3915 4102 
Q 4550 3538 4550 2338 
Q 4550 1131 3912 565 
Q 3275 0 1925 0 
L 628 0 
L 628 4666 
z
" transform="scale(0.015625)"/>
       <path id="DejaVuSans-29" d="M 513 4856 
L 1013 4856 
Q 1481 4119 1714 3412 
Q 1947 2706 1947 2009 
Q 1947 1309 1714 600 
Q 1481 -109 1013 -844 
L 513 -844 
Q 928 -128 1133 580 
Q 1338 1288 1338 2009 
Q 1338 2731 1133 3434 
Q 928 4138 513 4856 
z
" transform="scale(0.015625)"/>
      </defs>
      <use xlink:href="#DejaVuSans-46"/>
      <use xlink:href="#DejaVuSans-69" transform="translate(50.269531 0)"/>
      <use xlink:href="#DejaVuSans-65" transform="translate(78.052734 0)"/>
      <use xlink:href="#DejaVuSans-6c" transform="translate(139.576172 0)"/>
      <use xlink:href="#DejaVuSans-64" transform="translate(167.359375 0)"/>
      <use xlink:href="#DejaVuSans-20" transform="translate(230.835938 0)"/>
      <use xlink:href="#DejaVuSans-64" transform="translate(262.623047 0)"/>
      <use xlink:href="#DejaVuSans-61" transform="translate(326.099609 0)"/>
      <use xlink:href="#DejaVuSans-74" transform="translate(387.378906 0)"/>
      <use xlink:href="#DejaVuSans-61" transform="translate(426.587891 0)"/>
      <use xlink:href="#DejaVuSans-20" transform="translate(487.867188 0)"/>
      <use xlink:href="#DejaVuSans-28" transform="translate(519.654297 0)"/>
      <use xlink:href="#DejaVuSans-44" transform="translate(558.667969 0)"/>
      <use xlink:href="#DejaVuSans-61" transform="translate(635.669922 0)"/>
      <use xlink:href="#DejaVuSans-76" transform="translate(696.949219 0)"/>
      <use xlink:href="#DejaVuSans-69" transform="translate(756.128906 0)"/>
      <use xlink:href="#DejaVuSans-73" transform="translate(783.912109 0)"/>
      <use xlink:href="#DejaVuSans-20" transform="translate(836.011719 0)"/>
      <use xlink:href="#DejaVuSans-65" transform="translate(867.798828 0)"/>
      <use xlink:href="#DejaVuSans-74" transform="translate(929.322266 0)"/>
      <use xlink:href="#DejaVuSans-20" transform="translate(968.53125 0)"/>
      <use xlink:href="#DejaVuSans-61" transform="translate(1000.318359 0)"/>
      <use xlink:href="#DejaVuSans-6c" transform="translate(1061.597656 0)"/>
      <use xlink:href="#DejaVuSans-2e" transform="translate(1089.380859 0)"/>
      <use xlink:href="#DejaVuSans-20" transform="translate(1121.167969 0)"/>
      <use xlink:href="#DejaVuSans-32" transform="translate(1152.955078 0)"/>
      <use xlink:href="#DejaVuSans-30" transform="translate(1216.578125 0)"/>
      <use xlink:href="#DejaVuSans-32" transform="translate(1280.201172 0)"/>
      <use xlink:href="#DejaVuSans-33" transform="translate(1343.824219 0)"/>
      <use xlink:href="#DejaVuSans-29" transform="translate(1407.447266 0)"/>
     </g>
    </g>
   </g>
  </g>
 </g>
 <defs>
  <clipPath id="p0907ba3592">
   <rect x="57.62" y="34.08" width="351.295" height="270.064"/>
  </clipPath>
  <clipPath id="p6bd34a98e7">
   <rect x="488.72" y="34.08" width="351.295" height="270.064"/>
  </clipPath>
 </defs>
</svg>
