<?xml version="1.0" encoding="utf-8" standalone="no"?>
<!DOCTYPE svg PUBLIC "-//W3C//DTD SVG 1.1//EN"
  "http://www.w3.org/Graphics/SVG/1.1/DTD/svg11.dtd">
<svg xmlns:xlink="http://www.w3.org/1999/xlink" width="864pt" height="360pt" viewBox="0 0 864 360" xmlns="http://www.w3.org/2000/svg" version="1.1">
 <metadata>
  <rdf:RDF xmlns:dc="http://purl.org/dc/elements/1.1/" xmlns:cc="http://creativecommons.org/ns#" xmlns:rdf="http://www.w3.org/1999/02/22-rdf-syntax-ns#">
   <cc:Work>
    <dc:type rdf:resource="http://purl.org/dc/dcmitype/StillImage"/>
    <dc:date>2025-04-16T12:43:52.417899</dc:date>
    <dc:format>image/svg+xml</dc:format>
    <dc:creator>
     <cc:Agent>
      <dc:title>Matplotlib v3.10.1, https://matplotlib.org/</dc:title>
     </cc:Agent>
    </dc:creator>
   </cc:Work>
  </rdf:RDF>
 </metadata>
 <defs>
  <style type="text/css">*{stroke-linejoin: round; stroke-linecap: butt}</style>
 </defs>
 <g id="figure_1">
  <g id="patch_1">
   <path d="M 0 360 
L 864 360 
L 864 0 
L 0 0 
z
" style="fill: #ffffff"/>
  </g>
  <g id="axes_1">
   <g id="patch_2">
    <path d="M 108 320.4 
L 412.363636 320.4 
L 412.363636 43.2 
L 108 43.2 
z
" style="fill: #ffffff"/>
   </g>
   <g id="matplotlib.axis_1">
    <g id="xtick_1">
     <g id="line2d_1">
      <path d="M 108 320.4 
L 108 43.2 
" clip-path="url(#p77da8c4186)" style="fill: none; stroke: #b0b0b0; stroke-width: 0.8; stroke-linecap: square"/>
     </g>
     <g id="line2d_2">
      <defs>
       <path id="m6c92672c99" d="M 0 0 
L 0 3.5 
" style="stroke: #000000; stroke-width: 0.8"/>
      </defs>
      <g>
       <use xlink:href="#m6c92672c99" x="108" y="320.4" style="stroke: #000000; stroke-width: 0.8"/>
      </g>
     </g>
     <g id="text_1">
      <!-- 0 -->
      <g transform="translate(103.54625 338.037813) scale(0.14 -0.14)">
       <defs>
        <path id="DejaVuSans-30" d="M 2034 4250 
Q 1547 4250 1301 3770 
Q 1056 3291 1056 2328 
Q 1056 1369 1301 889 
Q 1547 409 2034 409 
Q 2525 409 2770 889 
Q 3016 1369 3016 2328 
Q 3016 3291 2770 3770 
Q 2525 4250 2034 4250 
z
M 2034 4750 
Q 2819 4750 3233 4129 
Q 3647 3509 3647 2328 
Q 3647 1150 3233 529 
Q 2819 -91 2034 -91 
Q 1250 -91 836 529 
Q 422 1150 422 2328 
Q 422 3509 836 4129 
Q 1250 4750 2034 4750 
z
" transform="scale(0.015625)"/>
       </defs>
       <use xlink:href="#DejaVuSans-30"/>
      </g>
     </g>
    </g>
    <g id="xtick_2">
     <g id="line2d_3">
      <path d="M 158.727273 320.4 
L 158.727273 43.2 
" clip-path="url(#p77da8c4186)" style="fill: none; stroke: #b0b0b0; stroke-width: 0.8; stroke-linecap: square"/>
     </g>
     <g id="line2d_4">
      <g>
       <use xlink:href="#m6c92672c99" x="158.727273" y="320.4" style="stroke: #000000; stroke-width: 0.8"/>
      </g>
     </g>
     <g id="text_2">
      <!-- 10 -->
      <g transform="translate(149.819773 338.037813) scale(0.14 -0.14)">
       <defs>
        <path id="DejaVuSans-31" d="M 794 531 
L 1825 531 
L 1825 4091 
L 703 3866 
L 703 4441 
L 1819 4666 
L 2450 4666 
L 2450 531 
L 3481 531 
L 3481 0 
L 794 0 
L 794 531 
z
" transform="scale(0.015625)"/>
       </defs>
       <use xlink:href="#DejaVuSans-31"/>
       <use xlink:href="#DejaVuSans-30" transform="translate(63.623047 0)"/>
      </g>
     </g>
    </g>
    <g id="xtick_3">
     <g id="line2d_5">
      <path d="M 209.454545 320.4 
L 209.454545 43.2 
" clip-path="url(#p77da8c4186)" style="fill: none; stroke: #b0b0b0; stroke-width: 0.8; stroke-linecap: square"/>
     </g>
     <g id="line2d_6">
      <g>
       <use xlink:href="#m6c92672c99" x="209.454545" y="320.4" style="stroke: #000000; stroke-width: 0.8"/>
      </g>
     </g>
     <g id="text_3">
      <!-- 20 -->
      <g transform="translate(200.547045 338.037813) scale(0.14 -0.14)">
       <defs>
        <path id="DejaVuSans-32" d="M 1228 531 
L 3431 531 
L 3431 0 
L 469 0 
L 469 531 
Q 828 903 1448 1529 
Q 2069 2156 2228 2338 
Q 2531 2678 2651 2914 
Q 2772 3150 2772 3378 
Q 2772 3750 2511 3984 
Q 2250 4219 1831 4219 
Q 1534 4219 1204 4116 
Q 875 4013 500 3803 
L 500 4441 
Q 881 4594 1212 4672 
Q 1544 4750 1819 4750 
Q 2544 4750 2975 4387 
Q 3406 4025 3406 3419 
Q 3406 3131 3298 2873 
Q 3191 2616 2906 2266 
Q 2828 2175 2409 1742 
Q 1991 1309 1228 531 
z
" transform="scale(0.015625)"/>
       </defs>
       <use xlink:href="#DejaVuSans-32"/>
       <use xlink:href="#DejaVuSans-30" transform="translate(63.623047 0)"/>
      </g>
     </g>
    </g>
    <g id="xtick_4">
     <g id="line2d_7">
      <path d="M 260.181818 320.4 
L 260.181818 43.2 
" clip-path="url(#p77da8c4186)" style="fill: none; stroke: #b0b0b0; stroke-width: 0.8; stroke-linecap: square"/>
     </g>
     <g id="line2d_8">
      <g>
       <use xlink:href="#m6c92672c99" x="260.181818" y="320.4" style="stroke: #000000; stroke-width: 0.8"/>
      </g>
     </g>
     <g id="text_4">
      <!-- 30 -->
      <g transform="translate(251.274318 338.037813) scale(0.14 -0.14)">
       <defs>
        <path id="DejaVuSans-33" d="M 2597 2516 
Q 3050 2419 3304 2112 
Q 3559 1806 3559 1356 
Q 3559 666 3084 287 
Q 2609 -91 1734 -91 
Q 1441 -91 1130 -33 
Q 819 25 488 141 
L 488 750 
Q 750 597 1062 519 
Q 1375 441 1716 441 
Q 2309 441 2620 675 
Q 2931 909 2931 1356 
Q 2931 1769 2642 2001 
Q 2353 2234 1838 2234 
L 1294 2234 
L 1294 2753 
L 1863 2753 
Q 2328 2753 2575 2939 
Q 2822 3125 2822 3475 
Q 2822 3834 2567 4026 
Q 2313 4219 1838 4219 
Q 1578 4219 1281 4162 
Q 984 4106 628 3988 
L 628 4550 
Q 988 4650 1302 4700 
Q 1616 4750 1894 4750 
Q 2613 4750 3031 4423 
Q 3450 4097 3450 3541 
Q 3450 3153 3228 2886 
Q 3006 2619 2597 2516 
z
" transform="scale(0.015625)"/>
       </defs>
       <use xlink:href="#DejaVuSans-33"/>
       <use xlink:href="#DejaVuSans-30" transform="translate(63.623047 0)"/>
      </g>
     </g>
    </g>
    <g id="xtick_5">
     <g id="line2d_9">
      <path d="M 310.909091 320.4 
L 310.909091 43.2 
" clip-path="url(#p77da8c4186)" style="fill: none; stroke: #b0b0b0; stroke-width: 0.8; stroke-linecap: square"/>
     </g>
     <g id="line2d_10">
      <g>
       <use xlink:href="#m6c92672c99" x="310.909091" y="320.4" style="stroke: #000000; stroke-width: 0.8"/>
      </g>
     </g>
     <g id="text_5">
      <!-- 40 -->
      <g transform="translate(302.001591 338.037813) scale(0.14 -0.14)">
       <defs>
        <path id="DejaVuSans-34" d="M 2419 4116 
L 825 1625 
L 2419 1625 
L 2419 4116 
z
M 2253 4666 
L 3047 4666 
L 3047 1625 
L 3713 1625 
L 3713 1100 
L 3047 1100 
L 3047 0 
L 2419 0 
L 2419 1100 
L 313 1100 
L 313 1709 
L 2253 4666 
z
" transform="scale(0.015625)"/>
       </defs>
       <use xlink:href="#DejaVuSans-34"/>
       <use xlink:href="#DejaVuSans-30" transform="translate(63.623047 0)"/>
      </g>
     </g>
    </g>
    <g id="xtick_6">
     <g id="line2d_11">
      <path d="M 361.636364 320.4 
L 361.636364 43.2 
" clip-path="url(#p77da8c4186)" style="fill: none; stroke: #b0b0b0; stroke-width: 0.8; stroke-linecap: square"/>
     </g>
     <g id="line2d_12">
      <g>
       <use xlink:href="#m6c92672c99" x="361.636364" y="320.4" style="stroke: #000000; stroke-width: 0.8"/>
      </g>
     </g>
     <g id="text_6">
      <!-- 50 -->
      <g transform="translate(352.728864 338.037813) scale(0.14 -0.14)">
       <defs>
        <path id="DejaVuSans-35" d="M 691 4666 
L 3169 4666 
L 3169 4134 
L 1269 4134 
L 1269 2991 
Q 1406 3038 1543 3061 
Q 1681 3084 1819 3084 
Q 2600 3084 3056 2656 
Q 3513 2228 3513 1497 
Q 3513 744 3044 326 
Q 2575 -91 1722 -91 
Q 1428 -91 1123 -41 
Q 819 9 494 109 
L 494 744 
Q 775 591 1075 516 
Q 1375 441 1709 441 
Q 2250 441 2565 725 
Q 2881 1009 2881 1497 
Q 2881 1984 2565 2268 
Q 2250 2553 1709 2553 
Q 1456 2553 1204 2497 
Q 953 2441 691 2322 
L 691 4666 
z
" transform="scale(0.015625)"/>
       </defs>
       <use xlink:href="#DejaVuSans-35"/>
       <use xlink:href="#DejaVuSans-30" transform="translate(63.623047 0)"/>
      </g>
     </g>
    </g>
    <g id="xtick_7">
     <g id="line2d_13">
      <path d="M 412.363636 320.4 
L 412.363636 43.2 
" clip-path="url(#p77da8c4186)" style="fill: none; stroke: #b0b0b0; stroke-width: 0.8; stroke-linecap: square"/>
     </g>
     <g id="line2d_14">
      <g>
       <use xlink:href="#m6c92672c99" x="412.363636" y="320.4" style="stroke: #000000; stroke-width: 0.8"/>
      </g>
     </g>
     <g id="text_7">
      <!-- 60 -->
      <g transform="translate(403.456136 338.037813) scale(0.14 -0.14)">
       <defs>
        <path id="DejaVuSans-36" d="M 2113 2584 
Q 1688 2584 1439 2293 
Q 1191 2003 1191 1497 
Q 1191 994 1439 701 
Q 1688 409 2113 409 
Q 2538 409 2786 701 
Q 3034 994 3034 1497 
Q 3034 2003 2786 2293 
Q 2538 2584 2113 2584 
z
M 3366 4563 
L 3366 3988 
Q 3128 4100 2886 4159 
Q 2644 4219 2406 4219 
Q 1781 4219 1451 3797 
Q 1122 3375 1075 2522 
Q 1259 2794 1537 2939 
Q 1816 3084 2150 3084 
Q 2853 3084 3261 2657 
Q 3669 2231 3669 1497 
Q 3669 778 3244 343 
Q 2819 -91 2113 -91 
Q 1303 -91 875 529 
Q 447 1150 447 2328 
Q 447 3434 972 4092 
Q 1497 4750 2381 4750 
Q 2619 4750 2861 4703 
Q 3103 4656 3366 4563 
z
" transform="scale(0.015625)"/>
       </defs>
       <use xlink:href="#DejaVuSans-36"/>
       <use xlink:href="#DejaVuSans-30" transform="translate(63.623047 0)"/>
      </g>
     </g>
    </g>
    <g id="text_8">
     <!-- U [m/s] -->
     <g transform="translate(234.548693 355.587188) scale(0.14 -0.14)">
      <defs>
       <path id="DejaVuSans-55" d="M 556 4666 
L 1191 4666 
L 1191 1831 
Q 1191 1081 1462 751 
Q 1734 422 2344 422 
Q 2950 422 3222 751 
Q 3494 1081 3494 1831 
L 3494 4666 
L 4128 4666 
L 4128 1753 
Q 4128 841 3676 375 
Q 3225 -91 2344 -91 
Q 1459 -91 1007 375 
Q 556 841 556 1753 
L 556 4666 
z
" transform="scale(0.015625)"/>
       <path id="DejaVuSans-20" transform="scale(0.015625)"/>
       <path id="DejaVuSans-5b" d="M 550 4863 
L 1875 4863 
L 1875 4416 
L 1125 4416 
L 1125 -397 
L 1875 -397 
L 1875 -844 
L 550 -844 
L 550 4863 
z
" transform="scale(0.015625)"/>
       <path id="DejaVuSans-6d" d="M 3328 2828 
Q 3544 3216 3844 3400 
Q 4144 3584 4550 3584 
Q 5097 3584 5394 3201 
Q 5691 2819 5691 2113 
L 5691 0 
L 5113 0 
L 5113 2094 
Q 5113 2597 4934 2840 
Q 4756 3084 4391 3084 
Q 3944 3084 3684 2787 
Q 3425 2491 3425 1978 
L 3425 0 
L 2847 0 
L 2847 2094 
Q 2847 2600 2669 2842 
Q 2491 3084 2119 3084 
Q 1678 3084 1418 2786 
Q 1159 2488 1159 1978 
L 1159 0 
L 581 0 
L 581 3500 
L 1159 3500 
L 1159 2956 
Q 1356 3278 1631 3431 
Q 1906 3584 2284 3584 
Q 2666 3584 2933 3390 
Q 3200 3197 3328 2828 
z
" transform="scale(0.015625)"/>
       <path id="DejaVuSans-2f" d="M 1625 4666 
L 2156 4666 
L 531 -594 
L 0 -594 
L 1625 4666 
z
" transform="scale(0.015625)"/>
       <path id="DejaVuSans-73" d="M 2834 3397 
L 2834 2853 
Q 2591 2978 2328 3040 
Q 2066 3103 1784 3103 
Q 1356 3103 1142 2972 
Q 928 2841 928 2578 
Q 928 2378 1081 2264 
Q 1234 2150 1697 2047 
L 1894 2003 
Q 2506 1872 2764 1633 
Q 3022 1394 3022 966 
Q 3022 478 2636 193 
Q 2250 -91 1575 -91 
Q 1294 -91 989 -36 
Q 684 19 347 128 
L 347 722 
Q 666 556 975 473 
Q 1284 391 1588 391 
Q 1994 391 2212 530 
Q 2431 669 2431 922 
Q 2431 1156 2273 1281 
Q 2116 1406 1581 1522 
L 1381 1569 
Q 847 1681 609 1914 
Q 372 2147 372 2553 
Q 372 3047 722 3315 
Q 1072 3584 1716 3584 
Q 2034 3584 2315 3537 
Q 2597 3491 2834 3397 
z
" transform="scale(0.015625)"/>
       <path id="DejaVuSans-5d" d="M 1947 4863 
L 1947 -844 
L 622 -844 
L 622 -397 
L 1369 -397 
L 1369 4416 
L 622 4416 
L 622 4863 
L 1947 4863 
z
" transform="scale(0.015625)"/>
      </defs>
      <use xlink:href="#DejaVuSans-55"/>
      <use xlink:href="#DejaVuSans-20" transform="translate(73.193359 0)"/>
      <use xlink:href="#DejaVuSans-5b" transform="translate(104.980469 0)"/>
      <use xlink:href="#DejaVuSans-6d" transform="translate(143.994141 0)"/>
      <use xlink:href="#DejaVuSans-2f" transform="translate(241.40625 0)"/>
      <use xlink:href="#DejaVuSans-73" transform="translate(275.097656 0)"/>
      <use xlink:href="#DejaVuSans-5d" transform="translate(327.197266 0)"/>
     </g>
    </g>
   </g>
   <g id="matplotlib.axis_2">
    <g id="ytick_1">
     <g id="line2d_15">
      <path d="M 108 313.687165 
L 412.363636 313.687165 
" clip-path="url(#p77da8c4186)" style="fill: none; stroke: #b0b0b0; stroke-width: 0.8; stroke-linecap: square"/>
     </g>
     <g id="line2d_16">
      <defs>
       <path id="mc2ec562f0d" d="M 0 0 
L -3.5 0 
" style="stroke: #000000; stroke-width: 0.8"/>
      </defs>
      <g>
       <use xlink:href="#mc2ec562f0d" x="108" y="313.687165" style="stroke: #000000; stroke-width: 0.8"/>
      </g>
     </g>
     <g id="text_9">
      <!-- $\mathdefault{10^{-4}}$ -->
      <g transform="translate(68.1 319.006072) scale(0.14 -0.14)">
       <defs>
        <path id="DejaVuSans-2212" d="M 678 2272 
L 4684 2272 
L 4684 1741 
L 678 1741 
L 678 2272 
z
" transform="scale(0.015625)"/>
       </defs>
       <use xlink:href="#DejaVuSans-31" transform="translate(0 0.684375)"/>
       <use xlink:href="#DejaVuSans-30" transform="translate(63.623047 0.684375)"/>
       <use xlink:href="#DejaVuSans-2212" transform="translate(128.203125 38.965625) scale(0.7)"/>
       <use xlink:href="#DejaVuSans-34" transform="translate(186.855469 38.965625) scale(0.7)"/>
      </g>
     </g>
    </g>
    <g id="ytick_2">
     <g id="line2d_17">
      <path d="M 108 238.594811 
L 412.363636 238.594811 
" clip-path="url(#p77da8c4186)" style="fill: none; stroke: #b0b0b0; stroke-width: 0.8; stroke-linecap: square"/>
     </g>
     <g id="line2d_18">
      <g>
       <use xlink:href="#mc2ec562f0d" x="108" y="238.594811" style="stroke: #000000; stroke-width: 0.8"/>
      </g>
     </g>
     <g id="text_10">
      <!-- $\mathdefault{10^{-3}}$ -->
      <g transform="translate(68.1 243.913717) scale(0.14 -0.14)">
       <use xlink:href="#DejaVuSans-31" transform="translate(0 0.765625)"/>
       <use xlink:href="#DejaVuSans-30" transform="translate(63.623047 0.765625)"/>
       <use xlink:href="#DejaVuSans-2212" transform="translate(128.203125 39.046875) scale(0.7)"/>
       <use xlink:href="#DejaVuSans-33" transform="translate(186.855469 39.046875) scale(0.7)"/>
      </g>
     </g>
    </g>
    <g id="ytick_3">
     <g id="line2d_19">
      <path d="M 108 163.502457 
L 412.363636 163.502457 
" clip-path="url(#p77da8c4186)" style="fill: none; stroke: #b0b0b0; stroke-width: 0.8; stroke-linecap: square"/>
     </g>
     <g id="line2d_20">
      <g>
       <use xlink:href="#mc2ec562f0d" x="108" y="163.502457" style="stroke: #000000; stroke-width: 0.8"/>
      </g>
     </g>
     <g id="text_11">
      <!-- $\mathdefault{10^{-2}}$ -->
      <g transform="translate(68.1 168.821363) scale(0.14 -0.14)">
       <use xlink:href="#DejaVuSans-31" transform="translate(0 0.765625)"/>
       <use xlink:href="#DejaVuSans-30" transform="translate(63.623047 0.765625)"/>
       <use xlink:href="#DejaVuSans-2212" transform="translate(128.203125 39.046875) scale(0.7)"/>
       <use xlink:href="#DejaVuSans-32" transform="translate(186.855469 39.046875) scale(0.7)"/>
      </g>
     </g>
    </g>
    <g id="ytick_4">
     <g id="line2d_21">
      <path d="M 108 88.410102 
L 412.363636 88.410102 
" clip-path="url(#p77da8c4186)" style="fill: none; stroke: #b0b0b0; stroke-width: 0.8; stroke-linecap: square"/>
     </g>
     <g id="line2d_22">
      <g>
       <use xlink:href="#mc2ec562f0d" x="108" y="88.410102" style="stroke: #000000; stroke-width: 0.8"/>
      </g>
     </g>
     <g id="text_12">
      <!-- $\mathdefault{10^{-1}}$ -->
      <g transform="translate(68.1 93.729008) scale(0.14 -0.14)">
       <use xlink:href="#DejaVuSans-31" transform="translate(0 0.684375)"/>
       <use xlink:href="#DejaVuSans-30" transform="translate(63.623047 0.684375)"/>
       <use xlink:href="#DejaVuSans-2212" transform="translate(128.203125 38.965625) scale(0.7)"/>
       <use xlink:href="#DejaVuSans-31" transform="translate(186.855469 38.965625) scale(0.7)"/>
      </g>
     </g>
    </g>
    <g id="ytick_5">
     <g id="line2d_23">
      <defs>
       <path id="mf50bc97b57" d="M 0 0 
L -2 0 
" style="stroke: #000000; stroke-width: 0.6"/>
      </defs>
      <g>
       <use xlink:href="#mf50bc97b57" x="108" y="317.123203" style="stroke: #000000; stroke-width: 0.6"/>
      </g>
     </g>
    </g>
    <g id="ytick_6">
     <g id="line2d_24">
      <g>
       <use xlink:href="#mf50bc97b57" x="108" y="291.082114" style="stroke: #000000; stroke-width: 0.6"/>
      </g>
     </g>
    </g>
    <g id="ytick_7">
     <g id="line2d_25">
      <g>
       <use xlink:href="#mf50bc97b57" x="108" y="277.859007" style="stroke: #000000; stroke-width: 0.6"/>
      </g>
     </g>
    </g>
    <g id="ytick_8">
     <g id="line2d_26">
      <g>
       <use xlink:href="#mf50bc97b57" x="108" y="268.477063" style="stroke: #000000; stroke-width: 0.6"/>
      </g>
     </g>
    </g>
    <g id="ytick_9">
     <g id="line2d_27">
      <g>
       <use xlink:href="#mf50bc97b57" x="108" y="261.199862" style="stroke: #000000; stroke-width: 0.6"/>
      </g>
     </g>
    </g>
    <g id="ytick_10">
     <g id="line2d_28">
      <g>
       <use xlink:href="#mf50bc97b57" x="108" y="255.253956" style="stroke: #000000; stroke-width: 0.6"/>
      </g>
     </g>
    </g>
    <g id="ytick_11">
     <g id="line2d_29">
      <g>
       <use xlink:href="#mf50bc97b57" x="108" y="250.226764" style="stroke: #000000; stroke-width: 0.6"/>
      </g>
     </g>
    </g>
    <g id="ytick_12">
     <g id="line2d_30">
      <g>
       <use xlink:href="#mf50bc97b57" x="108" y="245.872012" style="stroke: #000000; stroke-width: 0.6"/>
      </g>
     </g>
    </g>
    <g id="ytick_13">
     <g id="line2d_31">
      <g>
       <use xlink:href="#mf50bc97b57" x="108" y="242.030849" style="stroke: #000000; stroke-width: 0.6"/>
      </g>
     </g>
    </g>
    <g id="ytick_14">
     <g id="line2d_32">
      <g>
       <use xlink:href="#mf50bc97b57" x="108" y="215.98976" style="stroke: #000000; stroke-width: 0.6"/>
      </g>
     </g>
    </g>
    <g id="ytick_15">
     <g id="line2d_33">
      <g>
       <use xlink:href="#mf50bc97b57" x="108" y="202.766653" style="stroke: #000000; stroke-width: 0.6"/>
      </g>
     </g>
    </g>
    <g id="ytick_16">
     <g id="line2d_34">
      <g>
       <use xlink:href="#mf50bc97b57" x="108" y="193.384709" style="stroke: #000000; stroke-width: 0.6"/>
      </g>
     </g>
    </g>
    <g id="ytick_17">
     <g id="line2d_35">
      <g>
       <use xlink:href="#mf50bc97b57" x="108" y="186.107508" style="stroke: #000000; stroke-width: 0.6"/>
      </g>
     </g>
    </g>
    <g id="ytick_18">
     <g id="line2d_36">
      <g>
       <use xlink:href="#mf50bc97b57" x="108" y="180.161602" style="stroke: #000000; stroke-width: 0.6"/>
      </g>
     </g>
    </g>
    <g id="ytick_19">
     <g id="line2d_37">
      <g>
       <use xlink:href="#mf50bc97b57" x="108" y="175.13441" style="stroke: #000000; stroke-width: 0.6"/>
      </g>
     </g>
    </g>
    <g id="ytick_20">
     <g id="line2d_38">
      <g>
       <use xlink:href="#mf50bc97b57" x="108" y="170.779658" style="stroke: #000000; stroke-width: 0.6"/>
      </g>
     </g>
    </g>
    <g id="ytick_21">
     <g id="line2d_39">
      <g>
       <use xlink:href="#mf50bc97b57" x="108" y="166.938494" style="stroke: #000000; stroke-width: 0.6"/>
      </g>
     </g>
    </g>
    <g id="ytick_22">
     <g id="line2d_40">
      <g>
       <use xlink:href="#mf50bc97b57" x="108" y="140.897406" style="stroke: #000000; stroke-width: 0.6"/>
      </g>
     </g>
    </g>
    <g id="ytick_23">
     <g id="line2d_41">
      <g>
       <use xlink:href="#mf50bc97b57" x="108" y="127.674298" style="stroke: #000000; stroke-width: 0.6"/>
      </g>
     </g>
    </g>
    <g id="ytick_24">
     <g id="line2d_42">
      <g>
       <use xlink:href="#mf50bc97b57" x="108" y="118.292354" style="stroke: #000000; stroke-width: 0.6"/>
      </g>
     </g>
    </g>
    <g id="ytick_25">
     <g id="line2d_43">
      <g>
       <use xlink:href="#mf50bc97b57" x="108" y="111.015153" style="stroke: #000000; stroke-width: 0.6"/>
      </g>
     </g>
    </g>
    <g id="ytick_26">
     <g id="line2d_44">
      <g>
       <use xlink:href="#mf50bc97b57" x="108" y="105.069247" style="stroke: #000000; stroke-width: 0.6"/>
      </g>
     </g>
    </g>
    <g id="ytick_27">
     <g id="line2d_45">
      <g>
       <use xlink:href="#mf50bc97b57" x="108" y="100.042055" style="stroke: #000000; stroke-width: 0.6"/>
      </g>
     </g>
    </g>
    <g id="ytick_28">
     <g id="line2d_46">
      <g>
       <use xlink:href="#mf50bc97b57" x="108" y="95.687303" style="stroke: #000000; stroke-width: 0.6"/>
      </g>
     </g>
    </g>
    <g id="ytick_29">
     <g id="line2d_47">
      <g>
       <use xlink:href="#mf50bc97b57" x="108" y="91.84614" style="stroke: #000000; stroke-width: 0.6"/>
      </g>
     </g>
    </g>
    <g id="ytick_30">
     <g id="line2d_48">
      <g>
       <use xlink:href="#mf50bc97b57" x="108" y="65.805051" style="stroke: #000000; stroke-width: 0.6"/>
      </g>
     </g>
    </g>
    <g id="ytick_31">
     <g id="line2d_49">
      <g>
       <use xlink:href="#mf50bc97b57" x="108" y="52.581944" style="stroke: #000000; stroke-width: 0.6"/>
      </g>
     </g>
    </g>
    <g id="ytick_32">
     <g id="line2d_50">
      <g>
       <use xlink:href="#mf50bc97b57" x="108" y="43.2" style="stroke: #000000; stroke-width: 0.6"/>
      </g>
     </g>
    </g>
    <g id="text_13">
     <!-- δ [m] -->
     <g transform="translate(61.188437 200.588437) rotate(-90) scale(0.14 -0.14)">
      <defs>
       <path id="DejaVuSans-3b4" d="M 3138 4053 
Q 2819 4272 2072 4272 
Q 1281 4272 1281 3906 
Q 1281 3619 2106 3469 
Q 2756 3353 3122 3003 
Q 3566 2581 3566 1716 
Q 3566 888 3138 400 
Q 2709 -91 1959 -91 
Q 1213 -91 781 400 
Q 353 888 353 1747 
Q 353 2384 781 2900 
Q 947 3100 1181 3213 
Q 694 3459 694 3900 
Q 694 4750 2072 4750 
Q 2763 4750 3138 4531 
L 3138 4053 
z
M 1613 3056 
Q 1400 2966 1228 2738 
Q 959 2384 959 1747 
Q 959 1113 1225 756 
Q 1494 397 1959 397 
Q 2419 397 2687 759 
Q 2956 1122 2956 1716 
Q 2956 2338 2672 2638 
Q 2369 2959 1975 2994 
Q 1775 3013 1613 3056 
z
" transform="scale(0.015625)"/>
      </defs>
      <use xlink:href="#DejaVuSans-3b4"/>
      <use xlink:href="#DejaVuSans-20" transform="translate(61.181641 0)"/>
      <use xlink:href="#DejaVuSans-5b" transform="translate(92.96875 0)"/>
      <use xlink:href="#DejaVuSans-6d" transform="translate(131.982422 0)"/>
      <use xlink:href="#DejaVuSans-5d" transform="translate(229.394531 0)"/>
     </g>
    </g>
   </g>
   <g id="line2d_51">
    <path d="M 163.796351 361 
L 163.8 307.2 
L 168.872727 299.247489 
L 173.945455 290.548551 
L 179.018182 284.813457 
L 184.090909 278.531346 
L 189.163636 273.361767 
L 194.236364 268.060239 
L 199.309091 263.568969 
L 204.381818 259.068126 
L 209.454545 254.685346 
L 214.527273 250.818189 
L 219.6 247.385689 
L 224.672727 243.815209 
L 229.745455 240.33398 
L 234.818182 237.127345 
L 239.890909 233.953763 
L 244.963636 230.796927 
L 250.036364 228.032142 
L 255.109091 225.028067 
L 260.181818 222.445764 
L 265.254545 219.873512 
L 270.327273 217.308914 
L 275.4 214.741881 
L 280.472727 212.161748 
L 285.545455 209.668631 
L 290.618182 207.351161 
L 295.690909 205.058002 
L 300.763636 202.748146 
L 305.836364 200.771751 
L 310.909091 198.466988 
L 315.981818 196.277382 
L 321.054545 194.138161 
L 326.127273 192.110034 
L 331.2 190.051489 
L 336.272727 187.953513 
L 341.345455 185.804844 
L 346.418182 183.974733 
L 351.490909 181.985408 
L 356.563636 179.910767 
L 361.636364 178.074927 
L 366.709091 175.921237 
L 371.781818 174.099603 
L 376.854545 172.074344 
L 381.927273 169.974182 
L 387 168.103205 
L 392.072727 166.215282 
L 397.145455 164.306591 
L 402.218182 162.371547 
L 407.290909 160.404558 
L 412.363636 158.399292 
" clip-path="url(#p77da8c4186)" style="fill: none; stroke: #1f77b4; stroke-width: 2; stroke-linecap: square"/>
   </g>
   <g id="line2d_52">
    <path d="M 173.940668 361 
L 173.945455 290.406159 
L 179.018182 285.209281 
L 184.090909 279.495872 
L 189.163636 273.159845 
L 194.236364 267.117874 
L 199.309091 262.781086 
L 204.381818 258.09417 
L 209.454545 253.618294 
L 214.527273 249.62303 
L 219.6 245.431318 
L 224.672727 241.878598 
L 229.745455 238.125478 
L 234.818182 234.498012 
L 239.890909 231.009355 
L 244.963636 227.698614 
L 250.036364 224.906387 
L 255.109091 221.830631 
L 260.181818 218.551541 
L 265.254545 215.653945 
L 270.327273 212.702319 
L 275.4 209.662766 
L 280.472727 206.722244 
L 285.545455 203.962079 
L 290.618182 201.091917 
L 295.690909 198.487136 
L 300.763636 195.790548 
L 305.836364 192.95225 
L 310.909091 189.917138 
L 315.981818 186.933187 
L 321.054545 184.278543 
L 326.127273 181.535821 
L 331.2 178.676832 
L 336.272727 175.657604 
L 341.345455 172.413391 
L 346.418182 169.614195 
L 351.490909 166.499036 
L 356.563636 162.856169 
L 361.636364 159.707638 
L 366.709091 156.505716 
L 371.781818 152.769596 
L 376.854545 148.908927 
L 381.927273 145.313973 
L 387 141.034821 
L 392.072727 136.392977 
L 397.145455 132.327812 
L 402.218182 126.99671 
L 407.290909 121.811578 
L 412.363636 116.475928 
" clip-path="url(#p77da8c4186)" style="fill: none; stroke: #ff7f0e; stroke-width: 2; stroke-linecap: square"/>
   </g>
   <g id="line2d_53">
    <path d="M 184.08523 361 
L 184.090909 277.224472 
L 189.163636 272.765352 
L 194.236364 267.879957 
L 199.309091 262.487968 
L 204.381818 256.465244 
L 209.454545 252.194042 
L 214.527273 248.147638 
L 219.6 243.74008 
L 224.672727 239.757284 
L 229.745455 235.914468 
L 234.818182 231.926051 
L 239.890909 228.437247 
L 244.963636 224.697953 
L 250.036364 220.885671 
L 255.109091 217.309776 
L 260.181818 213.925048 
L 265.254545 211.037065 
L 270.327273 207.376534 
L 275.4 203.915735 
L 280.472727 200.548967 
L 285.545455 196.865239 
L 290.618182 193.245698 
L 295.690909 189.375014 
L 300.763636 186.215907 
L 305.836364 182.726215 
L 310.909091 178.676149 
L 315.981818 173.893128 
L 321.054545 170.458404 
L 326.127273 165.765164 
L 331.2 161.3954 
L 336.272727 155.961992 
L 341.345455 149.620507 
L 346.418182 144.103822 
L 351.490909 137.200725 
L 356.563636 130.266986 
L 361.636364 121.589596 
L 366.709091 111.653583 
L 371.781818 100.870748 
L 376.854545 91.448723 
L 381.927273 82.004456 
L 387 74.096766 
L 392.072727 67.397252 
L 397.145455 61.839615 
L 402.218182 57.036676 
L 407.290909 53.111876 
L 412.363636 52.581944 
" clip-path="url(#p77da8c4186)" style="fill: none; stroke: #2ca02c; stroke-width: 2; stroke-linecap: square"/>
   </g>
   <g id="line2d_54">
    <path d="M 194.229918 361 
L 194.236364 265.898287 
L 199.309091 261.551144 
L 204.381818 256.744223 
L 209.454545 251.374668 
L 214.527273 245.549019 
L 219.6 241.801674 
L 224.672727 237.684578 
L 229.745455 233.120945 
L 234.818182 229.26179 
L 239.890909 225.089869 
L 244.963636 221.110394 
L 250.036364 217.167068 
L 255.109091 212.894593 
L 260.181818 208.558158 
L 265.254545 204.645827 
L 270.327273 201.413291 
L 275.4 196.554931 
L 280.472727 192.582678 
L 285.545455 187.871099 
L 290.618182 183.225903 
L 295.690909 178.08803 
L 300.763636 173.496411 
L 305.836364 166.875673 
L 310.909091 161.200505 
L 315.981818 153.562256 
L 321.054545 145.915184 
L 326.127273 136.76349 
L 331.2 125.171585 
L 336.272727 112.080538 
L 341.345455 97.438291 
L 346.418182 83.459575 
L 351.490909 71.97132 
L 356.563636 62.815936 
L 361.636364 55.736044 
L 366.709091 49.882517 
L 371.781818 45.118357 
L 376.854545 43.2 
L 381.927273 43.2 
L 387 43.2 
L 392.072727 43.2 
L 397.145455 43.2 
L 402.218182 43.2 
L 407.290909 43.2 
L 412.363636 43.2 
" clip-path="url(#p77da8c4186)" style="fill: none; stroke: #d62728; stroke-width: 2; stroke-linecap: square"/>
   </g>
   <g id="patch_3">
    <path d="M 108 320.4 
L 108 43.2 
" style="fill: none; stroke: #000000; stroke-width: 0.8; stroke-linejoin: miter; stroke-linecap: square"/>
   </g>
   <g id="patch_4">
    <path d="M 412.363636 320.4 
L 412.363636 43.2 
" style="fill: none; stroke: #000000; stroke-width: 0.8; stroke-linejoin: miter; stroke-linecap: square"/>
   </g>
   <g id="patch_5">
    <path d="M 108 320.4 
L 412.363636 320.4 
" style="fill: none; stroke: #000000; stroke-width: 0.8; stroke-linejoin: miter; stroke-linecap: square"/>
   </g>
   <g id="patch_6">
    <path d="M 108 43.2 
L 412.363636 43.2 
" style="fill: none; stroke: #000000; stroke-width: 0.8; stroke-linejoin: miter; stroke-linecap: square"/>
   </g>
   <g id="text_14">
    <!-- Tear depth -->
    <g transform="translate(215.589631 37.2) scale(0.168 -0.168)">
     <defs>
      <path id="DejaVuSans-54" d="M -19 4666 
L 3928 4666 
L 3928 4134 
L 2272 4134 
L 2272 0 
L 1638 0 
L 1638 4134 
L -19 4134 
L -19 4666 
z
" transform="scale(0.015625)"/>
      <path id="DejaVuSans-65" d="M 3597 1894 
L 3597 1613 
L 953 1613 
Q 991 1019 1311 708 
Q 1631 397 2203 397 
Q 2534 397 2845 478 
Q 3156 559 3463 722 
L 3463 178 
Q 3153 47 2828 -22 
Q 2503 -91 2169 -91 
Q 1331 -91 842 396 
Q 353 884 353 1716 
Q 353 2575 817 3079 
Q 1281 3584 2069 3584 
Q 2775 3584 3186 3129 
Q 3597 2675 3597 1894 
z
M 3022 2063 
Q 3016 2534 2758 2815 
Q 2500 3097 2075 3097 
Q 1594 3097 1305 2825 
Q 1016 2553 972 2059 
L 3022 2063 
z
" transform="scale(0.015625)"/>
      <path id="DejaVuSans-61" d="M 2194 1759 
Q 1497 1759 1228 1600 
Q 959 1441 959 1056 
Q 959 750 1161 570 
Q 1363 391 1709 391 
Q 2188 391 2477 730 
Q 2766 1069 2766 1631 
L 2766 1759 
L 2194 1759 
z
M 3341 1997 
L 3341 0 
L 2766 0 
L 2766 531 
Q 2569 213 2275 61 
Q 1981 -91 1556 -91 
Q 1019 -91 701 211 
Q 384 513 384 1019 
Q 384 1609 779 1909 
Q 1175 2209 1959 2209 
L 2766 2209 
L 2766 2266 
Q 2766 2663 2505 2880 
Q 2244 3097 1772 3097 
Q 1472 3097 1187 3025 
Q 903 2953 641 2809 
L 641 3341 
Q 956 3463 1253 3523 
Q 1550 3584 1831 3584 
Q 2591 3584 2966 3190 
Q 3341 2797 3341 1997 
z
" transform="scale(0.015625)"/>
      <path id="DejaVuSans-72" d="M 2631 2963 
Q 2534 3019 2420 3045 
Q 2306 3072 2169 3072 
Q 1681 3072 1420 2755 
Q 1159 2438 1159 1844 
L 1159 0 
L 581 0 
L 581 3500 
L 1159 3500 
L 1159 2956 
Q 1341 3275 1631 3429 
Q 1922 3584 2338 3584 
Q 2397 3584 2469 3576 
Q 2541 3569 2628 3553 
L 2631 2963 
z
" transform="scale(0.015625)"/>
      <path id="DejaVuSans-64" d="M 2906 2969 
L 2906 4863 
L 3481 4863 
L 3481 0 
L 2906 0 
L 2906 525 
Q 2725 213 2448 61 
Q 2172 -91 1784 -91 
Q 1150 -91 751 415 
Q 353 922 353 1747 
Q 353 2572 751 3078 
Q 1150 3584 1784 3584 
Q 2172 3584 2448 3432 
Q 2725 3281 2906 2969 
z
M 947 1747 
Q 947 1113 1208 752 
Q 1469 391 1925 391 
Q 2381 391 2643 752 
Q 2906 1113 2906 1747 
Q 2906 2381 2643 2742 
Q 2381 3103 1925 3103 
Q 1469 3103 1208 2742 
Q 947 2381 947 1747 
z
" transform="scale(0.015625)"/>
      <path id="DejaVuSans-70" d="M 1159 525 
L 1159 -1331 
L 581 -1331 
L 581 3500 
L 1159 3500 
L 1159 2969 
Q 1341 3281 1617 3432 
Q 1894 3584 2278 3584 
Q 2916 3584 3314 3078 
Q 3713 2572 3713 1747 
Q 3713 922 3314 415 
Q 2916 -91 2278 -91 
Q 1894 -91 1617 61 
Q 1341 213 1159 525 
z
M 3116 1747 
Q 3116 2381 2855 2742 
Q 2594 3103 2138 3103 
Q 1681 3103 1420 2742 
Q 1159 2381 1159 1747 
Q 1159 1113 1420 752 
Q 1681 391 2138 391 
Q 2594 391 2855 752 
Q 3116 1113 3116 1747 
z
" transform="scale(0.015625)"/>
      <path id="DejaVuSans-74" d="M 1172 4494 
L 1172 3500 
L 2356 3500 
L 2356 3053 
L 1172 3053 
L 1172 1153 
Q 1172 725 1289 603 
Q 1406 481 1766 481 
L 2356 481 
L 2356 0 
L 1766 0 
Q 1100 0 847 248 
Q 594 497 594 1153 
L 594 3053 
L 172 3053 
L 172 3500 
L 594 3500 
L 594 4494 
L 1172 4494 
z
" transform="scale(0.015625)"/>
      <path id="DejaVuSans-68" d="M 3513 2113 
L 3513 0 
L 2938 0 
L 2938 2094 
Q 2938 2591 2744 2837 
Q 2550 3084 2163 3084 
Q 1697 3084 1428 2787 
Q 1159 2491 1159 1978 
L 1159 0 
L 581 0 
L 581 4863 
L 1159 4863 
L 1159 2956 
Q 1366 3272 1645 3428 
Q 1925 3584 2291 3584 
Q 2894 3584 3203 3211 
Q 3513 2838 3513 2113 
z
" transform="scale(0.015625)"/>
     </defs>
     <use xlink:href="#DejaVuSans-54"/>
     <use xlink:href="#DejaVuSans-65" transform="translate(44.083984 0)"/>
     <use xlink:href="#DejaVuSans-61" transform="translate(105.607422 0)"/>
     <use xlink:href="#DejaVuSans-72" transform="translate(166.886719 0)"/>
     <use xlink:href="#DejaVuSans-20" transform="translate(208 0)"/>
     <use xlink:href="#DejaVuSans-64" transform="translate(239.787109 0)"/>
     <use xlink:href="#DejaVuSans-65" transform="translate(303.263672 0)"/>
     <use xlink:href="#DejaVuSans-70" transform="translate(364.787109 0)"/>
     <use xlink:href="#DejaVuSans-74" transform="translate(428.263672 0)"/>
     <use xlink:href="#DejaVuSans-68" transform="translate(467.472656 0)"/>
    </g>
   </g>
   <g id="legend_1">
    <g id="patch_7">
     <path d="M 117.8 136.5975 
L 222.981562 136.5975 
Q 225.781563 136.5975 225.781563 133.7975 
L 225.781563 53 
Q 225.781563 50.2 222.981562 50.2 
L 117.8 50.2 
Q 115 50.2 115 53 
L 115 133.7975 
Q 115 136.5975 117.8 136.5975 
z
" style="fill: #ffffff; opacity: 0.8; stroke: #cccccc; stroke-linejoin: miter"/>
    </g>
    <g id="line2d_55">
     <path d="M 120.6 61.537812 
L 134.6 61.537812 
L 148.6 61.537812 
" style="fill: none; stroke: #1f77b4; stroke-width: 2; stroke-linecap: square"/>
    </g>
    <g id="text_15">
     <!-- a = 0.10 -->
     <g transform="translate(159.8 66.437812) scale(0.14 -0.14)">
      <defs>
       <path id="DejaVuSans-3d" d="M 678 2906 
L 4684 2906 
L 4684 2381 
L 678 2381 
L 678 2906 
z
M 678 1631 
L 4684 1631 
L 4684 1100 
L 678 1100 
L 678 1631 
z
" transform="scale(0.015625)"/>
       <path id="DejaVuSans-2e" d="M 684 794 
L 1344 794 
L 1344 0 
L 684 0 
L 684 794 
z
" transform="scale(0.015625)"/>
      </defs>
      <use xlink:href="#DejaVuSans-61"/>
      <use xlink:href="#DejaVuSans-20" transform="translate(61.279297 0)"/>
      <use xlink:href="#DejaVuSans-3d" transform="translate(93.066406 0)"/>
      <use xlink:href="#DejaVuSans-20" transform="translate(176.855469 0)"/>
      <use xlink:href="#DejaVuSans-30" transform="translate(208.642578 0)"/>
      <use xlink:href="#DejaVuSans-2e" transform="translate(272.265625 0)"/>
      <use xlink:href="#DejaVuSans-31" transform="translate(304.052734 0)"/>
      <use xlink:href="#DejaVuSans-30" transform="translate(367.675781 0)"/>
     </g>
    </g>
    <g id="line2d_56">
     <path d="M 120.6 82.087187 
L 134.6 82.087187 
L 148.6 82.087187 
" style="fill: none; stroke: #ff7f0e; stroke-width: 2; stroke-linecap: square"/>
    </g>
    <g id="text_16">
     <!-- a = 0.20 -->
     <g transform="translate(159.8 86.987187) scale(0.14 -0.14)">
      <use xlink:href="#DejaVuSans-61"/>
      <use xlink:href="#DejaVuSans-20" transform="translate(61.279297 0)"/>
      <use xlink:href="#DejaVuSans-3d" transform="translate(93.066406 0)"/>
      <use xlink:href="#DejaVuSans-20" transform="translate(176.855469 0)"/>
      <use xlink:href="#DejaVuSans-30" transform="translate(208.642578 0)"/>
      <use xlink:href="#DejaVuSans-2e" transform="translate(272.265625 0)"/>
      <use xlink:href="#DejaVuSans-32" transform="translate(304.052734 0)"/>
      <use xlink:href="#DejaVuSans-30" transform="translate(367.675781 0)"/>
     </g>
    </g>
    <g id="line2d_57">
     <path d="M 120.6 102.636562 
L 134.6 102.636562 
L 148.6 102.636562 
" style="fill: none; stroke: #2ca02c; stroke-width: 2; stroke-linecap: square"/>
    </g>
    <g id="text_17">
     <!-- a = 0.30 -->
     <g transform="translate(159.8 107.536562) scale(0.14 -0.14)">
      <use xlink:href="#DejaVuSans-61"/>
      <use xlink:href="#DejaVuSans-20" transform="translate(61.279297 0)"/>
      <use xlink:href="#DejaVuSans-3d" transform="translate(93.066406 0)"/>
      <use xlink:href="#DejaVuSans-20" transform="translate(176.855469 0)"/>
      <use xlink:href="#DejaVuSans-30" transform="translate(208.642578 0)"/>
      <use xlink:href="#DejaVuSans-2e" transform="translate(272.265625 0)"/>
      <use xlink:href="#DejaVuSans-33" transform="translate(304.052734 0)"/>
      <use xlink:href="#DejaVuSans-30" transform="translate(367.675781 0)"/>
     </g>
    </g>
    <g id="line2d_58">
     <path d="M 120.6 123.185937 
L 134.6 123.185937 
L 148.6 123.185937 
" style="fill: none; stroke: #d62728; stroke-width: 2; stroke-linecap: square"/>
    </g>
    <g id="text_18">
     <!-- a = 0.40 -->
     <g transform="translate(159.8 128.085937) scale(0.14 -0.14)">
      <use xlink:href="#DejaVuSans-61"/>
      <use xlink:href="#DejaVuSans-20" transform="translate(61.279297 0)"/>
      <use xlink:href="#DejaVuSans-3d" transform="translate(93.066406 0)"/>
      <use xlink:href="#DejaVuSans-20" transform="translate(176.855469 0)"/>
      <use xlink:href="#DejaVuSans-30" transform="translate(208.642578 0)"/>
      <use xlink:href="#DejaVuSans-2e" transform="translate(272.265625 0)"/>
      <use xlink:href="#DejaVuSans-34" transform="translate(304.052734 0)"/>
      <use xlink:href="#DejaVuSans-30" transform="translate(367.675781 0)"/>
     </g>
    </g>
   </g>
  </g>
  <g id="axes_2">
   <g id="patch_8">
    <path d="M 473.236364 320.4 
L 777.6 320.4 
L 777.6 43.2 
L 473.236364 43.2 
z
" style="fill: #ffffff"/>
   </g>
   <g id="matplotlib.axis_3">
    <g id="xtick_8">
     <g id="line2d_59">
      <path d="M 473.236364 320.4 
L 473.236364 43.2 
" clip-path="url(#pe318cd5a7d)" style="fill: none; stroke: #b0b0b0; stroke-width: 0.8; stroke-linecap: square"/>
     </g>
     <g id="line2d_60">
      <g>
       <use xlink:href="#m6c92672c99" x="473.236364" y="320.4" style="stroke: #000000; stroke-width: 0.8"/>
      </g>
     </g>
     <g id="text_19">
      <!-- 0 -->
      <g transform="translate(468.782614 338.037813) scale(0.14 -0.14)">
       <use xlink:href="#DejaVuSans-30"/>
      </g>
     </g>
    </g>
    <g id="xtick_9">
     <g id="line2d_61">
      <path d="M 523.963636 320.4 
L 523.963636 43.2 
" clip-path="url(#pe318cd5a7d)" style="fill: none; stroke: #b0b0b0; stroke-width: 0.8; stroke-linecap: square"/>
     </g>
     <g id="line2d_62">
      <g>
       <use xlink:href="#m6c92672c99" x="523.963636" y="320.4" style="stroke: #000000; stroke-width: 0.8"/>
      </g>
     </g>
     <g id="text_20">
      <!-- 10 -->
      <g transform="translate(515.056136 338.037813) scale(0.14 -0.14)">
       <use xlink:href="#DejaVuSans-31"/>
       <use xlink:href="#DejaVuSans-30" transform="translate(63.623047 0)"/>
      </g>
     </g>
    </g>
    <g id="xtick_10">
     <g id="line2d_63">
      <path d="M 574.690909 320.4 
L 574.690909 43.2 
" clip-path="url(#pe318cd5a7d)" style="fill: none; stroke: #b0b0b0; stroke-width: 0.8; stroke-linecap: square"/>
     </g>
     <g id="line2d_64">
      <g>
       <use xlink:href="#m6c92672c99" x="574.690909" y="320.4" style="stroke: #000000; stroke-width: 0.8"/>
      </g>
     </g>
     <g id="text_21">
      <!-- 20 -->
      <g transform="translate(565.783409 338.037813) scale(0.14 -0.14)">
       <use xlink:href="#DejaVuSans-32"/>
       <use xlink:href="#DejaVuSans-30" transform="translate(63.623047 0)"/>
      </g>
     </g>
    </g>
    <g id="xtick_11">
     <g id="line2d_65">
      <path d="M 625.418182 320.4 
L 625.418182 43.2 
" clip-path="url(#pe318cd5a7d)" style="fill: none; stroke: #b0b0b0; stroke-width: 0.8; stroke-linecap: square"/>
     </g>
     <g id="line2d_66">
      <g>
       <use xlink:href="#m6c92672c99" x="625.418182" y="320.4" style="stroke: #000000; stroke-width: 0.8"/>
      </g>
     </g>
     <g id="text_22">
      <!-- 30 -->
      <g transform="translate(616.510682 338.037813) scale(0.14 -0.14)">
       <use xlink:href="#DejaVuSans-33"/>
       <use xlink:href="#DejaVuSans-30" transform="translate(63.623047 0)"/>
      </g>
     </g>
    </g>
    <g id="xtick_12">
     <g id="line2d_67">
      <path d="M 676.145455 320.4 
L 676.145455 43.2 
" clip-path="url(#pe318cd5a7d)" style="fill: none; stroke: #b0b0b0; stroke-width: 0.8; stroke-linecap: square"/>
     </g>
     <g id="line2d_68">
      <g>
       <use xlink:href="#m6c92672c99" x="676.145455" y="320.4" style="stroke: #000000; stroke-width: 0.8"/>
      </g>
     </g>
     <g id="text_23">
      <!-- 40 -->
      <g transform="translate(667.237955 338.037813) scale(0.14 -0.14)">
       <use xlink:href="#DejaVuSans-34"/>
       <use xlink:href="#DejaVuSans-30" transform="translate(63.623047 0)"/>
      </g>
     </g>
    </g>
    <g id="xtick_13">
     <g id="line2d_69">
      <path d="M 726.872727 320.4 
L 726.872727 43.2 
" clip-path="url(#pe318cd5a7d)" style="fill: none; stroke: #b0b0b0; stroke-width: 0.8; stroke-linecap: square"/>
     </g>
     <g id="line2d_70">
      <g>
       <use xlink:href="#m6c92672c99" x="726.872727" y="320.4" style="stroke: #000000; stroke-width: 0.8"/>
      </g>
     </g>
     <g id="text_24">
      <!-- 50 -->
      <g transform="translate(717.965227 338.037813) scale(0.14 -0.14)">
       <use xlink:href="#DejaVuSans-35"/>
       <use xlink:href="#DejaVuSans-30" transform="translate(63.623047 0)"/>
      </g>
     </g>
    </g>
    <g id="xtick_14">
     <g id="line2d_71">
      <path d="M 777.6 320.4 
L 777.6 43.2 
" clip-path="url(#pe318cd5a7d)" style="fill: none; stroke: #b0b0b0; stroke-width: 0.8; stroke-linecap: square"/>
     </g>
     <g id="line2d_72">
      <g>
       <use xlink:href="#m6c92672c99" x="777.6" y="320.4" style="stroke: #000000; stroke-width: 0.8"/>
      </g>
     </g>
     <g id="text_25">
      <!-- 60 -->
      <g transform="translate(768.6925 338.037813) scale(0.14 -0.14)">
       <use xlink:href="#DejaVuSans-36"/>
       <use xlink:href="#DejaVuSans-30" transform="translate(63.623047 0)"/>
      </g>
     </g>
    </g>
    <g id="text_26">
     <!-- U [m/s] -->
     <g transform="translate(599.785057 355.587188) scale(0.14 -0.14)">
      <use xlink:href="#DejaVuSans-55"/>
      <use xlink:href="#DejaVuSans-20" transform="translate(73.193359 0)"/>
      <use xlink:href="#DejaVuSans-5b" transform="translate(104.980469 0)"/>
      <use xlink:href="#DejaVuSans-6d" transform="translate(143.994141 0)"/>
      <use xlink:href="#DejaVuSans-2f" transform="translate(241.40625 0)"/>
      <use xlink:href="#DejaVuSans-73" transform="translate(275.097656 0)"/>
      <use xlink:href="#DejaVuSans-5d" transform="translate(327.197266 0)"/>
     </g>
    </g>
   </g>
   <g id="matplotlib.axis_4">
    <g id="ytick_33">
     <g id="line2d_73">
      <path d="M 473.236364 307.945705 
L 777.6 307.945705 
" clip-path="url(#pe318cd5a7d)" style="fill: none; stroke: #b0b0b0; stroke-width: 0.8; stroke-linecap: square"/>
     </g>
     <g id="line2d_74">
      <g>
       <use xlink:href="#mc2ec562f0d" x="473.236364" y="307.945705" style="stroke: #000000; stroke-width: 0.8"/>
      </g>
     </g>
     <g id="text_27">
      <!-- $\mathdefault{10^{-3}}$ -->
      <g transform="translate(433.336364 313.264612) scale(0.14 -0.14)">
       <use xlink:href="#DejaVuSans-31" transform="translate(0 0.765625)"/>
       <use xlink:href="#DejaVuSans-30" transform="translate(63.623047 0.765625)"/>
       <use xlink:href="#DejaVuSans-2212" transform="translate(128.203125 39.046875) scale(0.7)"/>
       <use xlink:href="#DejaVuSans-33" transform="translate(186.855469 39.046875) scale(0.7)"/>
      </g>
     </g>
    </g>
    <g id="ytick_34">
     <g id="line2d_75">
      <path d="M 473.236364 219.697137 
L 777.6 219.697137 
" clip-path="url(#pe318cd5a7d)" style="fill: none; stroke: #b0b0b0; stroke-width: 0.8; stroke-linecap: square"/>
     </g>
     <g id="line2d_76">
      <g>
       <use xlink:href="#mc2ec562f0d" x="473.236364" y="219.697137" style="stroke: #000000; stroke-width: 0.8"/>
      </g>
     </g>
     <g id="text_28">
      <!-- $\mathdefault{10^{-2}}$ -->
      <g transform="translate(433.336364 225.016043) scale(0.14 -0.14)">
       <use xlink:href="#DejaVuSans-31" transform="translate(0 0.765625)"/>
       <use xlink:href="#DejaVuSans-30" transform="translate(63.623047 0.765625)"/>
       <use xlink:href="#DejaVuSans-2212" transform="translate(128.203125 39.046875) scale(0.7)"/>
       <use xlink:href="#DejaVuSans-32" transform="translate(186.855469 39.046875) scale(0.7)"/>
      </g>
     </g>
    </g>
    <g id="ytick_35">
     <g id="line2d_77">
      <path d="M 473.236364 131.448568 
L 777.6 131.448568 
" clip-path="url(#pe318cd5a7d)" style="fill: none; stroke: #b0b0b0; stroke-width: 0.8; stroke-linecap: square"/>
     </g>
     <g id="line2d_78">
      <g>
       <use xlink:href="#mc2ec562f0d" x="473.236364" y="131.448568" style="stroke: #000000; stroke-width: 0.8"/>
      </g>
     </g>
     <g id="text_29">
      <!-- $\mathdefault{10^{-1}}$ -->
      <g transform="translate(433.336364 136.767475) scale(0.14 -0.14)">
       <use xlink:href="#DejaVuSans-31" transform="translate(0 0.684375)"/>
       <use xlink:href="#DejaVuSans-30" transform="translate(63.623047 0.684375)"/>
       <use xlink:href="#DejaVuSans-2212" transform="translate(128.203125 38.965625) scale(0.7)"/>
       <use xlink:href="#DejaVuSans-31" transform="translate(186.855469 38.965625) scale(0.7)"/>
      </g>
     </g>
    </g>
    <g id="ytick_36">
     <g id="line2d_79">
      <path d="M 473.236364 43.2 
L 777.6 43.2 
" clip-path="url(#pe318cd5a7d)" style="fill: none; stroke: #b0b0b0; stroke-width: 0.8; stroke-linecap: square"/>
     </g>
     <g id="line2d_80">
      <g>
       <use xlink:href="#mc2ec562f0d" x="473.236364" y="43.2" style="stroke: #000000; stroke-width: 0.8"/>
      </g>
     </g>
     <g id="text_30">
      <!-- $\mathdefault{10^{0}}$ -->
      <g transform="translate(441.596364 48.518906) scale(0.14 -0.14)">
       <use xlink:href="#DejaVuSans-31" transform="translate(0 0.765625)"/>
       <use xlink:href="#DejaVuSans-30" transform="translate(63.623047 0.765625)"/>
       <use xlink:href="#DejaVuSans-30" transform="translate(128.203125 39.046875) scale(0.7)"/>
      </g>
     </g>
    </g>
    <g id="ytick_37">
     <g id="line2d_81">
      <g>
       <use xlink:href="#mf50bc97b57" x="473.236364" y="316.497875" style="stroke: #000000; stroke-width: 0.6"/>
      </g>
     </g>
    </g>
    <g id="ytick_38">
     <g id="line2d_82">
      <g>
       <use xlink:href="#mf50bc97b57" x="473.236364" y="311.983738" style="stroke: #000000; stroke-width: 0.6"/>
      </g>
     </g>
    </g>
    <g id="ytick_39">
     <g id="line2d_83">
      <g>
       <use xlink:href="#mf50bc97b57" x="473.236364" y="281.380239" style="stroke: #000000; stroke-width: 0.6"/>
      </g>
     </g>
    </g>
    <g id="ytick_40">
     <g id="line2d_84">
      <g>
       <use xlink:href="#mf50bc97b57" x="473.236364" y="265.840438" style="stroke: #000000; stroke-width: 0.6"/>
      </g>
     </g>
    </g>
    <g id="ytick_41">
     <g id="line2d_85">
      <g>
       <use xlink:href="#mf50bc97b57" x="473.236364" y="254.814773" style="stroke: #000000; stroke-width: 0.6"/>
      </g>
     </g>
    </g>
    <g id="ytick_42">
     <g id="line2d_86">
      <g>
       <use xlink:href="#mf50bc97b57" x="473.236364" y="246.262603" style="stroke: #000000; stroke-width: 0.6"/>
      </g>
     </g>
    </g>
    <g id="ytick_43">
     <g id="line2d_87">
      <g>
       <use xlink:href="#mf50bc97b57" x="473.236364" y="239.274972" style="stroke: #000000; stroke-width: 0.6"/>
      </g>
     </g>
    </g>
    <g id="ytick_44">
     <g id="line2d_88">
      <g>
       <use xlink:href="#mf50bc97b57" x="473.236364" y="233.367013" style="stroke: #000000; stroke-width: 0.6"/>
      </g>
     </g>
    </g>
    <g id="ytick_45">
     <g id="line2d_89">
      <g>
       <use xlink:href="#mf50bc97b57" x="473.236364" y="228.249307" style="stroke: #000000; stroke-width: 0.6"/>
      </g>
     </g>
    </g>
    <g id="ytick_46">
     <g id="line2d_90">
      <g>
       <use xlink:href="#mf50bc97b57" x="473.236364" y="223.73517" style="stroke: #000000; stroke-width: 0.6"/>
      </g>
     </g>
    </g>
    <g id="ytick_47">
     <g id="line2d_91">
      <g>
       <use xlink:href="#mf50bc97b57" x="473.236364" y="193.131671" style="stroke: #000000; stroke-width: 0.6"/>
      </g>
     </g>
    </g>
    <g id="ytick_48">
     <g id="line2d_92">
      <g>
       <use xlink:href="#mf50bc97b57" x="473.236364" y="177.591869" style="stroke: #000000; stroke-width: 0.6"/>
      </g>
     </g>
    </g>
    <g id="ytick_49">
     <g id="line2d_93">
      <g>
       <use xlink:href="#mf50bc97b57" x="473.236364" y="166.566205" style="stroke: #000000; stroke-width: 0.6"/>
      </g>
     </g>
    </g>
    <g id="ytick_50">
     <g id="line2d_94">
      <g>
       <use xlink:href="#mf50bc97b57" x="473.236364" y="158.014035" style="stroke: #000000; stroke-width: 0.6"/>
      </g>
     </g>
    </g>
    <g id="ytick_51">
     <g id="line2d_95">
      <g>
       <use xlink:href="#mf50bc97b57" x="473.236364" y="151.026403" style="stroke: #000000; stroke-width: 0.6"/>
      </g>
     </g>
    </g>
    <g id="ytick_52">
     <g id="line2d_96">
      <g>
       <use xlink:href="#mf50bc97b57" x="473.236364" y="145.118445" style="stroke: #000000; stroke-width: 0.6"/>
      </g>
     </g>
    </g>
    <g id="ytick_53">
     <g id="line2d_97">
      <g>
       <use xlink:href="#mf50bc97b57" x="473.236364" y="140.000738" style="stroke: #000000; stroke-width: 0.6"/>
      </g>
     </g>
    </g>
    <g id="ytick_54">
     <g id="line2d_98">
      <g>
       <use xlink:href="#mf50bc97b57" x="473.236364" y="135.486602" style="stroke: #000000; stroke-width: 0.6"/>
      </g>
     </g>
    </g>
    <g id="ytick_55">
     <g id="line2d_99">
      <g>
       <use xlink:href="#mf50bc97b57" x="473.236364" y="104.883102" style="stroke: #000000; stroke-width: 0.6"/>
      </g>
     </g>
    </g>
    <g id="ytick_56">
     <g id="line2d_100">
      <g>
       <use xlink:href="#mf50bc97b57" x="473.236364" y="89.343301" style="stroke: #000000; stroke-width: 0.6"/>
      </g>
     </g>
    </g>
    <g id="ytick_57">
     <g id="line2d_101">
      <g>
       <use xlink:href="#mf50bc97b57" x="473.236364" y="78.317636" style="stroke: #000000; stroke-width: 0.6"/>
      </g>
     </g>
    </g>
    <g id="ytick_58">
     <g id="line2d_102">
      <g>
       <use xlink:href="#mf50bc97b57" x="473.236364" y="69.765466" style="stroke: #000000; stroke-width: 0.6"/>
      </g>
     </g>
    </g>
    <g id="ytick_59">
     <g id="line2d_103">
      <g>
       <use xlink:href="#mf50bc97b57" x="473.236364" y="62.777835" style="stroke: #000000; stroke-width: 0.6"/>
      </g>
     </g>
    </g>
    <g id="ytick_60">
     <g id="line2d_104">
      <g>
       <use xlink:href="#mf50bc97b57" x="473.236364" y="56.869876" style="stroke: #000000; stroke-width: 0.6"/>
      </g>
     </g>
    </g>
    <g id="ytick_61">
     <g id="line2d_105">
      <g>
       <use xlink:href="#mf50bc97b57" x="473.236364" y="51.75217" style="stroke: #000000; stroke-width: 0.6"/>
      </g>
     </g>
    </g>
    <g id="ytick_62">
     <g id="line2d_106">
      <g>
       <use xlink:href="#mf50bc97b57" x="473.236364" y="47.238033" style="stroke: #000000; stroke-width: 0.6"/>
      </g>
     </g>
    </g>
    <g id="text_31">
     <!-- δ/a -->
     <g transform="translate(426.424801 192.730937) rotate(-90) scale(0.14 -0.14)">
      <use xlink:href="#DejaVuSans-3b4"/>
      <use xlink:href="#DejaVuSans-2f" transform="translate(61.181641 0)"/>
      <use xlink:href="#DejaVuSans-61" transform="translate(94.873047 0)"/>
     </g>
    </g>
   </g>
   <g id="line2d_107">
    <path d="M 529.032866 361 
L 529.036364 300.321986 
L 534.109091 290.976191 
L 539.181818 280.753196 
L 544.254545 274.01331 
L 549.327273 266.630571 
L 554.4 260.55528 
L 559.472727 254.324921 
L 564.545455 249.046778 
L 569.618182 243.757386 
L 574.690909 238.60674 
L 579.763636 234.062057 
L 584.836364 230.028181 
L 589.909091 225.832151 
L 594.981818 221.74101 
L 600.054545 217.972571 
L 605.127273 214.242975 
L 610.2 210.53306 
L 615.272727 207.283883 
L 620.345455 203.753493 
L 625.418182 200.718769 
L 630.490909 197.695858 
L 635.563636 194.681942 
L 640.636364 191.665163 
L 645.709091 188.632989 
L 650.781818 185.703078 
L 655.854545 182.979585 
L 660.927273 180.284664 
L 666 177.57012 
L 671.072727 175.24746 
L 676.145455 172.538901 
L 681.218182 169.965675 
L 686.290909 167.451662 
L 691.363636 165.068206 
L 696.436364 162.649003 
L 701.509091 160.183461 
L 706.581818 157.658344 
L 711.654545 155.507596 
L 716.727273 153.169742 
L 721.8 150.731622 
L 726.872727 148.574142 
L 731.945455 146.043124 
L 737.018182 143.90234 
L 742.090909 141.522255 
L 747.163636 139.054144 
L 752.236364 136.85537 
L 757.309091 134.636682 
L 762.381818 132.393588 
L 767.454545 130.119523 
L 772.527273 127.807916 
L 777.6 125.451327 
" clip-path="url(#pe318cd5a7d)" style="fill: none; stroke: #1f77b4; stroke-width: 2; stroke-linecap: square"/>
   </g>
   <g id="line2d_108">
    <path d="M 539.178714 361 
L 539.181818 307.151322 
L 544.254545 301.043949 
L 549.327273 294.329548 
L 554.4 286.883447 
L 559.472727 279.78292 
L 564.545455 274.686325 
L 569.618182 269.178259 
L 574.690909 263.918207 
L 579.763636 259.222971 
L 584.836364 254.296869 
L 589.909091 250.121711 
L 594.981818 245.711043 
L 600.054545 241.448044 
L 605.127273 237.348172 
L 610.2 233.457388 
L 615.272727 230.175961 
L 620.345455 226.561331 
L 625.418182 222.707743 
L 630.490909 219.302487 
L 635.563636 215.833735 
L 640.636364 212.26165 
L 645.709091 208.805948 
L 650.781818 205.562201 
L 655.854545 202.189186 
L 660.927273 199.128045 
L 666 195.959014 
L 671.072727 192.623445 
L 676.145455 189.05658 
L 681.218182 185.54984 
L 686.290909 182.430101 
L 691.363636 179.206852 
L 696.436364 175.846967 
L 701.509091 172.298769 
L 706.581818 168.486169 
L 711.654545 165.196552 
L 716.727273 161.535616 
L 721.8 157.254517 
L 726.872727 153.554363 
L 731.945455 149.791462 
L 737.018182 145.400772 
L 742.090909 140.863712 
L 747.163636 136.638921 
L 752.236364 131.610059 
L 757.309091 126.154963 
L 762.381818 121.377578 
L 767.454545 115.112465 
L 772.527273 109.018895 
L 777.6 102.748437 
" clip-path="url(#pe318cd5a7d)" style="fill: none; stroke: #ff7f0e; stroke-width: 2; stroke-linecap: square"/>
   </g>
   <g id="line2d_109">
    <path d="M 549.324171 361 
L 549.327273 307.2 
L 554.4 301.95964 
L 559.472727 296.218322 
L 564.545455 289.881653 
L 569.618182 282.803745 
L 574.690909 277.784227 
L 579.763636 273.028891 
L 584.836364 267.849127 
L 589.909091 263.168543 
L 594.981818 258.652465 
L 600.054545 253.965275 
L 605.127273 249.865231 
L 610.2 245.470811 
L 615.272727 240.990616 
L 620.345455 236.788222 
L 625.418182 232.810488 
L 630.490909 229.41653 
L 635.563636 225.114672 
L 640.636364 221.047539 
L 645.709091 217.090911 
L 650.781818 212.761793 
L 655.854545 208.508107 
L 660.927273 203.959277 
L 666 200.246693 
L 671.072727 196.145606 
L 676.145455 191.385966 
L 681.218182 185.764958 
L 686.290909 181.728469 
L 691.363636 176.212971 
L 696.436364 171.077622 
L 701.509091 164.692279 
L 706.581818 157.239763 
L 711.654545 150.756552 
L 716.727273 142.644029 
L 721.8 134.495497 
L 726.872727 124.297824 
L 731.945455 112.621017 
L 737.018182 99.949024 
L 742.090909 88.876256 
L 747.163636 77.777349 
L 752.236364 68.484229 
L 757.309091 60.610956 
L 762.381818 54.079619 
L 767.454545 48.435203 
L 772.527273 43.822777 
L 777.6 43.2 
" clip-path="url(#pe318cd5a7d)" style="fill: none; stroke: #2ca02c; stroke-width: 2; stroke-linecap: square"/>
   </g>
   <g id="line2d_110">
    <path d="M 559.469494 361 
L 559.472727 304.915126 
L 564.545455 299.806362 
L 569.618182 294.157267 
L 574.690909 287.846963 
L 579.763636 281.000657 
L 584.836364 276.596776 
L 589.909091 271.758363 
L 594.981818 266.39518 
L 600.054545 261.859898 
L 605.127273 256.957056 
L 610.2 252.280374 
L 615.272727 247.646176 
L 620.345455 242.625162 
L 625.418182 237.528982 
L 630.490909 232.931208 
L 635.563636 229.13233 
L 640.636364 223.422784 
L 645.709091 218.75459 
L 650.781818 213.21754 
L 655.854545 207.758504 
L 660.927273 201.720473 
L 666 196.324401 
L 671.072727 188.543706 
L 676.145455 181.874246 
L 681.218182 172.897773 
L 686.290909 163.910931 
L 691.363636 153.155855 
L 696.436364 139.533043 
L 701.509091 124.148439 
L 706.581818 106.940864 
L 711.654545 90.51307 
L 716.727273 77.012068 
L 721.8 66.252657 
L 726.872727 57.932365 
L 731.945455 51.053297 
L 737.018182 45.454454 
L 742.090909 43.2 
L 747.163636 43.2 
L 752.236364 43.2 
L 757.309091 43.2 
L 762.381818 43.2 
L 767.454545 43.2 
L 772.527273 43.2 
L 777.6 43.2 
" clip-path="url(#pe318cd5a7d)" style="fill: none; stroke: #d62728; stroke-width: 2; stroke-linecap: square"/>
   </g>
   <g id="patch_9">
    <path d="M 473.236364 320.4 
L 473.236364 43.2 
" style="fill: none; stroke: #000000; stroke-width: 0.8; stroke-linejoin: miter; stroke-linecap: square"/>
   </g>
   <g id="patch_10">
    <path d="M 777.6 320.4 
L 777.6 43.2 
" style="fill: none; stroke: #000000; stroke-width: 0.8; stroke-linejoin: miter; stroke-linecap: square"/>
   </g>
   <g id="patch_11">
    <path d="M 473.236364 320.4 
L 777.6 320.4 
" style="fill: none; stroke: #000000; stroke-width: 0.8; stroke-linejoin: miter; stroke-linecap: square"/>
   </g>
   <g id="patch_12">
    <path d="M 473.236364 43.2 
L 777.6 43.2 
" style="fill: none; stroke: #000000; stroke-width: 0.8; stroke-linejoin: miter; stroke-linecap: square"/>
   </g>
   <g id="text_32">
    <!-- Normalized tear depth -->
    <g transform="translate(530.928682 37.2) scale(0.168 -0.168)">
     <defs>
      <path id="DejaVuSans-4e" d="M 628 4666 
L 1478 4666 
L 3547 763 
L 3547 4666 
L 4159 4666 
L 4159 0 
L 3309 0 
L 1241 3903 
L 1241 0 
L 628 0 
L 628 4666 
z
" transform="scale(0.015625)"/>
      <path id="DejaVuSans-6f" d="M 1959 3097 
Q 1497 3097 1228 2736 
Q 959 2375 959 1747 
Q 959 1119 1226 758 
Q 1494 397 1959 397 
Q 2419 397 2687 759 
Q 2956 1122 2956 1747 
Q 2956 2369 2687 2733 
Q 2419 3097 1959 3097 
z
M 1959 3584 
Q 2709 3584 3137 3096 
Q 3566 2609 3566 1747 
Q 3566 888 3137 398 
Q 2709 -91 1959 -91 
Q 1206 -91 779 398 
Q 353 888 353 1747 
Q 353 2609 779 3096 
Q 1206 3584 1959 3584 
z
" transform="scale(0.015625)"/>
      <path id="DejaVuSans-6c" d="M 603 4863 
L 1178 4863 
L 1178 0 
L 603 0 
L 603 4863 
z
" transform="scale(0.015625)"/>
      <path id="DejaVuSans-69" d="M 603 3500 
L 1178 3500 
L 1178 0 
L 603 0 
L 603 3500 
z
M 603 4863 
L 1178 4863 
L 1178 4134 
L 603 4134 
L 603 4863 
z
" transform="scale(0.015625)"/>
      <path id="DejaVuSans-7a" d="M 353 3500 
L 3084 3500 
L 3084 2975 
L 922 459 
L 3084 459 
L 3084 0 
L 275 0 
L 275 525 
L 2438 3041 
L 353 3041 
L 353 3500 
z
" transform="scale(0.015625)"/>
     </defs>
     <use xlink:href="#DejaVuSans-4e"/>
     <use xlink:href="#DejaVuSans-6f" transform="translate(74.804688 0)"/>
     <use xlink:href="#DejaVuSans-72" transform="translate(135.986328 0)"/>
     <use xlink:href="#DejaVuSans-6d" transform="translate(175.349609 0)"/>
     <use xlink:href="#DejaVuSans-61" transform="translate(272.761719 0)"/>
     <use xlink:href="#DejaVuSans-6c" transform="translate(334.041016 0)"/>
     <use xlink:href="#DejaVuSans-69" transform="translate(361.824219 0)"/>
     <use xlink:href="#DejaVuSans-7a" transform="translate(389.607422 0)"/>
     <use xlink:href="#DejaVuSans-65" transform="translate(442.097656 0)"/>
     <use xlink:href="#DejaVuSans-64" transform="translate(503.621094 0)"/>
     <use xlink:href="#DejaVuSans-20" transform="translate(567.097656 0)"/>
     <use xlink:href="#DejaVuSans-74" transform="translate(598.884766 0)"/>
     <use xlink:href="#DejaVuSans-65" transform="translate(638.09375 0)"/>
     <use xlink:href="#DejaVuSans-61" transform="translate(699.617188 0)"/>
     <use xlink:href="#DejaVuSans-72" transform="translate(760.896484 0)"/>
     <use xlink:href="#DejaVuSans-20" transform="translate(802.009766 0)"/>
     <use xlink:href="#DejaVuSans-64" transform="translate(833.796875 0)"/>
     <use xlink:href="#DejaVuSans-65" transform="translate(897.273438 0)"/>
     <use xlink:href="#DejaVuSans-70" transform="translate(958.796875 0)"/>
     <use xlink:href="#DejaVuSans-74" transform="translate(1022.273438 0)"/>
     <use xlink:href="#DejaVuSans-68" transform="translate(1061.482422 0)"/>
    </g>
   </g>
  </g>
 </g>
 <defs>
  <clipPath id="p77da8c4186">
   <rect x="108" y="43.2" width="304.363636" height="277.2"/>
  </clipPath>
  <clipPath id="pe318cd5a7d">
   <rect x="473.236364" y="43.2" width="304.363636" height="277.2"/>
  </clipPath>
 </defs>
</svg>
