<?xml version="1.0" encoding="utf-8" standalone="no"?>
<!DOCTYPE svg PUBLIC "-//W3C//DTD SVG 1.1//EN"
  "http://www.w3.org/Graphics/SVG/1.1/DTD/svg11.dtd">
<svg xmlns:xlink="http://www.w3.org/1999/xlink" width="864pt" height="360pt" viewBox="0 0 864 360" xmlns="http://www.w3.org/2000/svg" version="1.1">
 <metadata>
  <rdf:RDF xmlns:dc="http://purl.org/dc/elements/1.1/" xmlns:cc="http://creativecommons.org/ns#" xmlns:rdf="http://www.w3.org/1999/02/22-rdf-syntax-ns#">
   <cc:Work>
    <dc:type rdf:resource="http://purl.org/dc/dcmitype/StillImage"/>
    <dc:date>2025-04-16T07:49:02.844375</dc:date>
    <dc:format>image/svg+xml</dc:format>
    <dc:creator>
     <cc:Agent>
      <dc:title>Matplotlib v3.10.1, https://matplotlib.org/</dc:title>
     </cc:Agent>
    </dc:creator>
   </cc:Work>
  </rdf:RDF>
 </metadata>
 <defs>
  <style type="text/css">*{stroke-linejoin: round; stroke-linecap: butt}</style>
 </defs>
 <g id="figure_1">
  <g id="patch_1">
   <path d="M 0 360 
L 864 360 
L 864 0 
L 0 0 
z
" style="fill: #ffffff"/>
  </g>
  <g id="axes_1">
   <g id="patch_2">
    <path d="M 108 320.4 
L 412.363636 320.4 
L 412.363636 43.2 
L 108 43.2 
z
" style="fill: #ffffff"/>
   </g>
   <g id="matplotlib.axis_1">
    <g id="xtick_1">
     <g id="line2d_1">
      <path d="M 108 320.4 
L 108 43.2 
" clip-path="url(#pa4f1a4393f)" style="fill: none; stroke: #b0b0b0; stroke-width: 0.8; stroke-linecap: square"/>
     </g>
     <g id="line2d_2">
      <defs>
       <path id="m4fe0bd63cf" d="M 0 0 
L 0 3.5 
" style="stroke: #000000; stroke-width: 0.8"/>
      </defs>
      <g>
       <use xlink:href="#m4fe0bd63cf" x="108" y="320.4" style="stroke: #000000; stroke-width: 0.8"/>
      </g>
     </g>
     <g id="text_1">
      <!-- 0 -->
      <g transform="translate(103.54625 338.037813) scale(0.14 -0.14)">
       <defs>
        <path id="DejaVuSans-30" d="M 2034 4250 
Q 1547 4250 1301 3770 
Q 1056 3291 1056 2328 
Q 1056 1369 1301 889 
Q 1547 409 2034 409 
Q 2525 409 2770 889 
Q 3016 1369 3016 2328 
Q 3016 3291 2770 3770 
Q 2525 4250 2034 4250 
z
M 2034 4750 
Q 2819 4750 3233 4129 
Q 3647 3509 3647 2328 
Q 3647 1150 3233 529 
Q 2819 -91 2034 -91 
Q 1250 -91 836 529 
Q 422 1150 422 2328 
Q 422 3509 836 4129 
Q 1250 4750 2034 4750 
z
" transform="scale(0.015625)"/>
       </defs>
       <use xlink:href="#DejaVuSans-30"/>
      </g>
     </g>
    </g>
    <g id="xtick_2">
     <g id="line2d_3">
      <path d="M 158.727273 320.4 
L 158.727273 43.2 
" clip-path="url(#pa4f1a4393f)" style="fill: none; stroke: #b0b0b0; stroke-width: 0.8; stroke-linecap: square"/>
     </g>
     <g id="line2d_4">
      <g>
       <use xlink:href="#m4fe0bd63cf" x="158.727273" y="320.4" style="stroke: #000000; stroke-width: 0.8"/>
      </g>
     </g>
     <g id="text_2">
      <!-- 10 -->
      <g transform="translate(149.819773 338.037813) scale(0.14 -0.14)">
       <defs>
        <path id="DejaVuSans-31" d="M 794 531 
L 1825 531 
L 1825 4091 
L 703 3866 
L 703 4441 
L 1819 4666 
L 2450 4666 
L 2450 531 
L 3481 531 
L 3481 0 
L 794 0 
L 794 531 
z
" transform="scale(0.015625)"/>
       </defs>
       <use xlink:href="#DejaVuSans-31"/>
       <use xlink:href="#DejaVuSans-30" transform="translate(63.623047 0)"/>
      </g>
     </g>
    </g>
    <g id="xtick_3">
     <g id="line2d_5">
      <path d="M 209.454545 320.4 
L 209.454545 43.2 
" clip-path="url(#pa4f1a4393f)" style="fill: none; stroke: #b0b0b0; stroke-width: 0.8; stroke-linecap: square"/>
     </g>
     <g id="line2d_6">
      <g>
       <use xlink:href="#m4fe0bd63cf" x="209.454545" y="320.4" style="stroke: #000000; stroke-width: 0.8"/>
      </g>
     </g>
     <g id="text_3">
      <!-- 20 -->
      <g transform="translate(200.547045 338.037813) scale(0.14 -0.14)">
       <defs>
        <path id="DejaVuSans-32" d="M 1228 531 
L 3431 531 
L 3431 0 
L 469 0 
L 469 531 
Q 828 903 1448 1529 
Q 2069 2156 2228 2338 
Q 2531 2678 2651 2914 
Q 2772 3150 2772 3378 
Q 2772 3750 2511 3984 
Q 2250 4219 1831 4219 
Q 1534 4219 1204 4116 
Q 875 4013 500 3803 
L 500 4441 
Q 881 4594 1212 4672 
Q 1544 4750 1819 4750 
Q 2544 4750 2975 4387 
Q 3406 4025 3406 3419 
Q 3406 3131 3298 2873 
Q 3191 2616 2906 2266 
Q 2828 2175 2409 1742 
Q 1991 1309 1228 531 
z
" transform="scale(0.015625)"/>
       </defs>
       <use xlink:href="#DejaVuSans-32"/>
       <use xlink:href="#DejaVuSans-30" transform="translate(63.623047 0)"/>
      </g>
     </g>
    </g>
    <g id="xtick_4">
     <g id="line2d_7">
      <path d="M 260.181818 320.4 
L 260.181818 43.2 
" clip-path="url(#pa4f1a4393f)" style="fill: none; stroke: #b0b0b0; stroke-width: 0.8; stroke-linecap: square"/>
     </g>
     <g id="line2d_8">
      <g>
       <use xlink:href="#m4fe0bd63cf" x="260.181818" y="320.4" style="stroke: #000000; stroke-width: 0.8"/>
      </g>
     </g>
     <g id="text_4">
      <!-- 30 -->
      <g transform="translate(251.274318 338.037813) scale(0.14 -0.14)">
       <defs>
        <path id="DejaVuSans-33" d="M 2597 2516 
Q 3050 2419 3304 2112 
Q 3559 1806 3559 1356 
Q 3559 666 3084 287 
Q 2609 -91 1734 -91 
Q 1441 -91 1130 -33 
Q 819 25 488 141 
L 488 750 
Q 750 597 1062 519 
Q 1375 441 1716 441 
Q 2309 441 2620 675 
Q 2931 909 2931 1356 
Q 2931 1769 2642 2001 
Q 2353 2234 1838 2234 
L 1294 2234 
L 1294 2753 
L 1863 2753 
Q 2328 2753 2575 2939 
Q 2822 3125 2822 3475 
Q 2822 3834 2567 4026 
Q 2313 4219 1838 4219 
Q 1578 4219 1281 4162 
Q 984 4106 628 3988 
L 628 4550 
Q 988 4650 1302 4700 
Q 1616 4750 1894 4750 
Q 2613 4750 3031 4423 
Q 3450 4097 3450 3541 
Q 3450 3153 3228 2886 
Q 3006 2619 2597 2516 
z
" transform="scale(0.015625)"/>
       </defs>
       <use xlink:href="#DejaVuSans-33"/>
       <use xlink:href="#DejaVuSans-30" transform="translate(63.623047 0)"/>
      </g>
     </g>
    </g>
    <g id="xtick_5">
     <g id="line2d_9">
      <path d="M 310.909091 320.4 
L 310.909091 43.2 
" clip-path="url(#pa4f1a4393f)" style="fill: none; stroke: #b0b0b0; stroke-width: 0.8; stroke-linecap: square"/>
     </g>
     <g id="line2d_10">
      <g>
       <use xlink:href="#m4fe0bd63cf" x="310.909091" y="320.4" style="stroke: #000000; stroke-width: 0.8"/>
      </g>
     </g>
     <g id="text_5">
      <!-- 40 -->
      <g transform="translate(302.001591 338.037813) scale(0.14 -0.14)">
       <defs>
        <path id="DejaVuSans-34" d="M 2419 4116 
L 825 1625 
L 2419 1625 
L 2419 4116 
z
M 2253 4666 
L 3047 4666 
L 3047 1625 
L 3713 1625 
L 3713 1100 
L 3047 1100 
L 3047 0 
L 2419 0 
L 2419 1100 
L 313 1100 
L 313 1709 
L 2253 4666 
z
" transform="scale(0.015625)"/>
       </defs>
       <use xlink:href="#DejaVuSans-34"/>
       <use xlink:href="#DejaVuSans-30" transform="translate(63.623047 0)"/>
      </g>
     </g>
    </g>
    <g id="xtick_6">
     <g id="line2d_11">
      <path d="M 361.636364 320.4 
L 361.636364 43.2 
" clip-path="url(#pa4f1a4393f)" style="fill: none; stroke: #b0b0b0; stroke-width: 0.8; stroke-linecap: square"/>
     </g>
     <g id="line2d_12">
      <g>
       <use xlink:href="#m4fe0bd63cf" x="361.636364" y="320.4" style="stroke: #000000; stroke-width: 0.8"/>
      </g>
     </g>
     <g id="text_6">
      <!-- 50 -->
      <g transform="translate(352.728864 338.037813) scale(0.14 -0.14)">
       <defs>
        <path id="DejaVuSans-35" d="M 691 4666 
L 3169 4666 
L 3169 4134 
L 1269 4134 
L 1269 2991 
Q 1406 3038 1543 3061 
Q 1681 3084 1819 3084 
Q 2600 3084 3056 2656 
Q 3513 2228 3513 1497 
Q 3513 744 3044 326 
Q 2575 -91 1722 -91 
Q 1428 -91 1123 -41 
Q 819 9 494 109 
L 494 744 
Q 775 591 1075 516 
Q 1375 441 1709 441 
Q 2250 441 2565 725 
Q 2881 1009 2881 1497 
Q 2881 1984 2565 2268 
Q 2250 2553 1709 2553 
Q 1456 2553 1204 2497 
Q 953 2441 691 2322 
L 691 4666 
z
" transform="scale(0.015625)"/>
       </defs>
       <use xlink:href="#DejaVuSans-35"/>
       <use xlink:href="#DejaVuSans-30" transform="translate(63.623047 0)"/>
      </g>
     </g>
    </g>
    <g id="xtick_7">
     <g id="line2d_13">
      <path d="M 412.363636 320.4 
L 412.363636 43.2 
" clip-path="url(#pa4f1a4393f)" style="fill: none; stroke: #b0b0b0; stroke-width: 0.8; stroke-linecap: square"/>
     </g>
     <g id="line2d_14">
      <g>
       <use xlink:href="#m4fe0bd63cf" x="412.363636" y="320.4" style="stroke: #000000; stroke-width: 0.8"/>
      </g>
     </g>
     <g id="text_7">
      <!-- 60 -->
      <g transform="translate(403.456136 338.037813) scale(0.14 -0.14)">
       <defs>
        <path id="DejaVuSans-36" d="M 2113 2584 
Q 1688 2584 1439 2293 
Q 1191 2003 1191 1497 
Q 1191 994 1439 701 
Q 1688 409 2113 409 
Q 2538 409 2786 701 
Q 3034 994 3034 1497 
Q 3034 2003 2786 2293 
Q 2538 2584 2113 2584 
z
M 3366 4563 
L 3366 3988 
Q 3128 4100 2886 4159 
Q 2644 4219 2406 4219 
Q 1781 4219 1451 3797 
Q 1122 3375 1075 2522 
Q 1259 2794 1537 2939 
Q 1816 3084 2150 3084 
Q 2853 3084 3261 2657 
Q 3669 2231 3669 1497 
Q 3669 778 3244 343 
Q 2819 -91 2113 -91 
Q 1303 -91 875 529 
Q 447 1150 447 2328 
Q 447 3434 972 4092 
Q 1497 4750 2381 4750 
Q 2619 4750 2861 4703 
Q 3103 4656 3366 4563 
z
" transform="scale(0.015625)"/>
       </defs>
       <use xlink:href="#DejaVuSans-36"/>
       <use xlink:href="#DejaVuSans-30" transform="translate(63.623047 0)"/>
      </g>
     </g>
    </g>
    <g id="text_8">
     <!-- U [m/s] -->
     <g transform="translate(234.548693 355.587188) scale(0.14 -0.14)">
      <defs>
       <path id="DejaVuSans-55" d="M 556 4666 
L 1191 4666 
L 1191 1831 
Q 1191 1081 1462 751 
Q 1734 422 2344 422 
Q 2950 422 3222 751 
Q 3494 1081 3494 1831 
L 3494 4666 
L 4128 4666 
L 4128 1753 
Q 4128 841 3676 375 
Q 3225 -91 2344 -91 
Q 1459 -91 1007 375 
Q 556 841 556 1753 
L 556 4666 
z
" transform="scale(0.015625)"/>
       <path id="DejaVuSans-20" transform="scale(0.015625)"/>
       <path id="DejaVuSans-5b" d="M 550 4863 
L 1875 4863 
L 1875 4416 
L 1125 4416 
L 1125 -397 
L 1875 -397 
L 1875 -844 
L 550 -844 
L 550 4863 
z
" transform="scale(0.015625)"/>
       <path id="DejaVuSans-6d" d="M 3328 2828 
Q 3544 3216 3844 3400 
Q 4144 3584 4550 3584 
Q 5097 3584 5394 3201 
Q 5691 2819 5691 2113 
L 5691 0 
L 5113 0 
L 5113 2094 
Q 5113 2597 4934 2840 
Q 4756 3084 4391 3084 
Q 3944 3084 3684 2787 
Q 3425 2491 3425 1978 
L 3425 0 
L 2847 0 
L 2847 2094 
Q 2847 2600 2669 2842 
Q 2491 3084 2119 3084 
Q 1678 3084 1418 2786 
Q 1159 2488 1159 1978 
L 1159 0 
L 581 0 
L 581 3500 
L 1159 3500 
L 1159 2956 
Q 1356 3278 1631 3431 
Q 1906 3584 2284 3584 
Q 2666 3584 2933 3390 
Q 3200 3197 3328 2828 
z
" transform="scale(0.015625)"/>
       <path id="DejaVuSans-2f" d="M 1625 4666 
L 2156 4666 
L 531 -594 
L 0 -594 
L 1625 4666 
z
" transform="scale(0.015625)"/>
       <path id="DejaVuSans-73" d="M 2834 3397 
L 2834 2853 
Q 2591 2978 2328 3040 
Q 2066 3103 1784 3103 
Q 1356 3103 1142 2972 
Q 928 2841 928 2578 
Q 928 2378 1081 2264 
Q 1234 2150 1697 2047 
L 1894 2003 
Q 2506 1872 2764 1633 
Q 3022 1394 3022 966 
Q 3022 478 2636 193 
Q 2250 -91 1575 -91 
Q 1294 -91 989 -36 
Q 684 19 347 128 
L 347 722 
Q 666 556 975 473 
Q 1284 391 1588 391 
Q 1994 391 2212 530 
Q 2431 669 2431 922 
Q 2431 1156 2273 1281 
Q 2116 1406 1581 1522 
L 1381 1569 
Q 847 1681 609 1914 
Q 372 2147 372 2553 
Q 372 3047 722 3315 
Q 1072 3584 1716 3584 
Q 2034 3584 2315 3537 
Q 2597 3491 2834 3397 
z
" transform="scale(0.015625)"/>
       <path id="DejaVuSans-5d" d="M 1947 4863 
L 1947 -844 
L 622 -844 
L 622 -397 
L 1369 -397 
L 1369 4416 
L 622 4416 
L 622 4863 
L 1947 4863 
z
" transform="scale(0.015625)"/>
      </defs>
      <use xlink:href="#DejaVuSans-55"/>
      <use xlink:href="#DejaVuSans-20" transform="translate(73.193359 0)"/>
      <use xlink:href="#DejaVuSans-5b" transform="translate(104.980469 0)"/>
      <use xlink:href="#DejaVuSans-6d" transform="translate(143.994141 0)"/>
      <use xlink:href="#DejaVuSans-2f" transform="translate(241.40625 0)"/>
      <use xlink:href="#DejaVuSans-73" transform="translate(275.097656 0)"/>
      <use xlink:href="#DejaVuSans-5d" transform="translate(327.197266 0)"/>
     </g>
    </g>
   </g>
   <g id="matplotlib.axis_2">
    <g id="ytick_1">
     <g id="line2d_15">
      <path d="M 108 319.537309 
L 412.363636 319.537309 
" clip-path="url(#pa4f1a4393f)" style="fill: none; stroke: #b0b0b0; stroke-width: 0.8; stroke-linecap: square"/>
     </g>
     <g id="line2d_16">
      <defs>
       <path id="m8bf9ee0280" d="M 0 0 
L -3.5 0 
" style="stroke: #000000; stroke-width: 0.8"/>
      </defs>
      <g>
       <use xlink:href="#m8bf9ee0280" x="108" y="319.537309" style="stroke: #000000; stroke-width: 0.8"/>
      </g>
     </g>
     <g id="text_9">
      <!-- $\mathdefault{10^{-4}}$ -->
      <g transform="translate(68.1 324.856216) scale(0.14 -0.14)">
       <defs>
        <path id="DejaVuSans-2212" d="M 678 2272 
L 4684 2272 
L 4684 1741 
L 678 1741 
L 678 2272 
z
" transform="scale(0.015625)"/>
       </defs>
       <use xlink:href="#DejaVuSans-31" transform="translate(0 0.684375)"/>
       <use xlink:href="#DejaVuSans-30" transform="translate(63.623047 0.684375)"/>
       <use xlink:href="#DejaVuSans-2212" transform="translate(128.203125 38.965625) scale(0.7)"/>
       <use xlink:href="#DejaVuSans-34" transform="translate(186.855469 38.965625) scale(0.7)"/>
      </g>
     </g>
    </g>
    <g id="ytick_2">
     <g id="line2d_17">
      <path d="M 108 242.820844 
L 412.363636 242.820844 
" clip-path="url(#pa4f1a4393f)" style="fill: none; stroke: #b0b0b0; stroke-width: 0.8; stroke-linecap: square"/>
     </g>
     <g id="line2d_18">
      <g>
       <use xlink:href="#m8bf9ee0280" x="108" y="242.820844" style="stroke: #000000; stroke-width: 0.8"/>
      </g>
     </g>
     <g id="text_10">
      <!-- $\mathdefault{10^{-3}}$ -->
      <g transform="translate(68.1 248.139751) scale(0.14 -0.14)">
       <use xlink:href="#DejaVuSans-31" transform="translate(0 0.765625)"/>
       <use xlink:href="#DejaVuSans-30" transform="translate(63.623047 0.765625)"/>
       <use xlink:href="#DejaVuSans-2212" transform="translate(128.203125 39.046875) scale(0.7)"/>
       <use xlink:href="#DejaVuSans-33" transform="translate(186.855469 39.046875) scale(0.7)"/>
      </g>
     </g>
    </g>
    <g id="ytick_3">
     <g id="line2d_19">
      <path d="M 108 166.104379 
L 412.363636 166.104379 
" clip-path="url(#pa4f1a4393f)" style="fill: none; stroke: #b0b0b0; stroke-width: 0.8; stroke-linecap: square"/>
     </g>
     <g id="line2d_20">
      <g>
       <use xlink:href="#m8bf9ee0280" x="108" y="166.104379" style="stroke: #000000; stroke-width: 0.8"/>
      </g>
     </g>
     <g id="text_11">
      <!-- $\mathdefault{10^{-2}}$ -->
      <g transform="translate(68.1 171.423286) scale(0.14 -0.14)">
       <use xlink:href="#DejaVuSans-31" transform="translate(0 0.765625)"/>
       <use xlink:href="#DejaVuSans-30" transform="translate(63.623047 0.765625)"/>
       <use xlink:href="#DejaVuSans-2212" transform="translate(128.203125 39.046875) scale(0.7)"/>
       <use xlink:href="#DejaVuSans-32" transform="translate(186.855469 39.046875) scale(0.7)"/>
      </g>
     </g>
    </g>
    <g id="ytick_4">
     <g id="line2d_21">
      <path d="M 108 89.387914 
L 412.363636 89.387914 
" clip-path="url(#pa4f1a4393f)" style="fill: none; stroke: #b0b0b0; stroke-width: 0.8; stroke-linecap: square"/>
     </g>
     <g id="line2d_22">
      <g>
       <use xlink:href="#m8bf9ee0280" x="108" y="89.387914" style="stroke: #000000; stroke-width: 0.8"/>
      </g>
     </g>
     <g id="text_12">
      <!-- $\mathdefault{10^{-1}}$ -->
      <g transform="translate(68.1 94.706821) scale(0.14 -0.14)">
       <use xlink:href="#DejaVuSans-31" transform="translate(0 0.684375)"/>
       <use xlink:href="#DejaVuSans-30" transform="translate(63.623047 0.684375)"/>
       <use xlink:href="#DejaVuSans-2212" transform="translate(128.203125 38.965625) scale(0.7)"/>
       <use xlink:href="#DejaVuSans-31" transform="translate(186.855469 38.965625) scale(0.7)"/>
      </g>
     </g>
    </g>
    <g id="ytick_5">
     <g id="line2d_23">
      <defs>
       <path id="m3a0ee2f206" d="M 0 0 
L -2 0 
" style="stroke: #000000; stroke-width: 0.6"/>
      </defs>
      <g>
       <use xlink:href="#m3a0ee2f206" x="108" y="296.443352" style="stroke: #000000; stroke-width: 0.6"/>
      </g>
     </g>
    </g>
    <g id="ytick_6">
     <g id="line2d_24">
      <g>
       <use xlink:href="#m3a0ee2f206" x="108" y="282.934253" style="stroke: #000000; stroke-width: 0.6"/>
      </g>
     </g>
    </g>
    <g id="ytick_7">
     <g id="line2d_25">
      <g>
       <use xlink:href="#m3a0ee2f206" x="108" y="273.349395" style="stroke: #000000; stroke-width: 0.6"/>
      </g>
     </g>
    </g>
    <g id="ytick_8">
     <g id="line2d_26">
      <g>
       <use xlink:href="#m3a0ee2f206" x="108" y="265.914801" style="stroke: #000000; stroke-width: 0.6"/>
      </g>
     </g>
    </g>
    <g id="ytick_9">
     <g id="line2d_27">
      <g>
       <use xlink:href="#m3a0ee2f206" x="108" y="259.840296" style="stroke: #000000; stroke-width: 0.6"/>
      </g>
     </g>
    </g>
    <g id="ytick_10">
     <g id="line2d_28">
      <g>
       <use xlink:href="#m3a0ee2f206" x="108" y="254.704375" style="stroke: #000000; stroke-width: 0.6"/>
      </g>
     </g>
    </g>
    <g id="ytick_11">
     <g id="line2d_29">
      <g>
       <use xlink:href="#m3a0ee2f206" x="108" y="250.255438" style="stroke: #000000; stroke-width: 0.6"/>
      </g>
     </g>
    </g>
    <g id="ytick_12">
     <g id="line2d_30">
      <g>
       <use xlink:href="#m3a0ee2f206" x="108" y="246.331197" style="stroke: #000000; stroke-width: 0.6"/>
      </g>
     </g>
    </g>
    <g id="ytick_13">
     <g id="line2d_31">
      <g>
       <use xlink:href="#m3a0ee2f206" x="108" y="219.726887" style="stroke: #000000; stroke-width: 0.6"/>
      </g>
     </g>
    </g>
    <g id="ytick_14">
     <g id="line2d_32">
      <g>
       <use xlink:href="#m3a0ee2f206" x="108" y="206.217788" style="stroke: #000000; stroke-width: 0.6"/>
      </g>
     </g>
    </g>
    <g id="ytick_15">
     <g id="line2d_33">
      <g>
       <use xlink:href="#m3a0ee2f206" x="108" y="196.63293" style="stroke: #000000; stroke-width: 0.6"/>
      </g>
     </g>
    </g>
    <g id="ytick_16">
     <g id="line2d_34">
      <g>
       <use xlink:href="#m3a0ee2f206" x="108" y="189.198336" style="stroke: #000000; stroke-width: 0.6"/>
      </g>
     </g>
    </g>
    <g id="ytick_17">
     <g id="line2d_35">
      <g>
       <use xlink:href="#m3a0ee2f206" x="108" y="183.123831" style="stroke: #000000; stroke-width: 0.6"/>
      </g>
     </g>
    </g>
    <g id="ytick_18">
     <g id="line2d_36">
      <g>
       <use xlink:href="#m3a0ee2f206" x="108" y="177.98791" style="stroke: #000000; stroke-width: 0.6"/>
      </g>
     </g>
    </g>
    <g id="ytick_19">
     <g id="line2d_37">
      <g>
       <use xlink:href="#m3a0ee2f206" x="108" y="173.538973" style="stroke: #000000; stroke-width: 0.6"/>
      </g>
     </g>
    </g>
    <g id="ytick_20">
     <g id="line2d_38">
      <g>
       <use xlink:href="#m3a0ee2f206" x="108" y="169.614732" style="stroke: #000000; stroke-width: 0.6"/>
      </g>
     </g>
    </g>
    <g id="ytick_21">
     <g id="line2d_39">
      <g>
       <use xlink:href="#m3a0ee2f206" x="108" y="143.010422" style="stroke: #000000; stroke-width: 0.6"/>
      </g>
     </g>
    </g>
    <g id="ytick_22">
     <g id="line2d_40">
      <g>
       <use xlink:href="#m3a0ee2f206" x="108" y="129.501323" style="stroke: #000000; stroke-width: 0.6"/>
      </g>
     </g>
    </g>
    <g id="ytick_23">
     <g id="line2d_41">
      <g>
       <use xlink:href="#m3a0ee2f206" x="108" y="119.916465" style="stroke: #000000; stroke-width: 0.6"/>
      </g>
     </g>
    </g>
    <g id="ytick_24">
     <g id="line2d_42">
      <g>
       <use xlink:href="#m3a0ee2f206" x="108" y="112.481871" style="stroke: #000000; stroke-width: 0.6"/>
      </g>
     </g>
    </g>
    <g id="ytick_25">
     <g id="line2d_43">
      <g>
       <use xlink:href="#m3a0ee2f206" x="108" y="106.407366" style="stroke: #000000; stroke-width: 0.6"/>
      </g>
     </g>
    </g>
    <g id="ytick_26">
     <g id="line2d_44">
      <g>
       <use xlink:href="#m3a0ee2f206" x="108" y="101.271445" style="stroke: #000000; stroke-width: 0.6"/>
      </g>
     </g>
    </g>
    <g id="ytick_27">
     <g id="line2d_45">
      <g>
       <use xlink:href="#m3a0ee2f206" x="108" y="96.822508" style="stroke: #000000; stroke-width: 0.6"/>
      </g>
     </g>
    </g>
    <g id="ytick_28">
     <g id="line2d_46">
      <g>
       <use xlink:href="#m3a0ee2f206" x="108" y="92.898267" style="stroke: #000000; stroke-width: 0.6"/>
      </g>
     </g>
    </g>
    <g id="ytick_29">
     <g id="line2d_47">
      <g>
       <use xlink:href="#m3a0ee2f206" x="108" y="66.293957" style="stroke: #000000; stroke-width: 0.6"/>
      </g>
     </g>
    </g>
    <g id="ytick_30">
     <g id="line2d_48">
      <g>
       <use xlink:href="#m3a0ee2f206" x="108" y="52.784858" style="stroke: #000000; stroke-width: 0.6"/>
      </g>
     </g>
    </g>
    <g id="ytick_31">
     <g id="line2d_49">
      <g>
       <use xlink:href="#m3a0ee2f206" x="108" y="43.2" style="stroke: #000000; stroke-width: 0.6"/>
      </g>
     </g>
    </g>
    <g id="text_13">
     <!-- δ [m] -->
     <g transform="translate(61.188437 200.588437) rotate(-90) scale(0.14 -0.14)">
      <defs>
       <path id="DejaVuSans-3b4" d="M 3138 4053 
Q 2819 4272 2072 4272 
Q 1281 4272 1281 3906 
Q 1281 3619 2106 3469 
Q 2756 3353 3122 3003 
Q 3566 2581 3566 1716 
Q 3566 888 3138 400 
Q 2709 -91 1959 -91 
Q 1213 -91 781 400 
Q 353 888 353 1747 
Q 353 2384 781 2900 
Q 947 3100 1181 3213 
Q 694 3459 694 3900 
Q 694 4750 2072 4750 
Q 2763 4750 3138 4531 
L 3138 4053 
z
M 1613 3056 
Q 1400 2966 1228 2738 
Q 959 2384 959 1747 
Q 959 1113 1225 756 
Q 1494 397 1959 397 
Q 2419 397 2687 759 
Q 2956 1122 2956 1716 
Q 2956 2338 2672 2638 
Q 2369 2959 1975 2994 
Q 1775 3013 1613 3056 
z
" transform="scale(0.015625)"/>
      </defs>
      <use xlink:href="#DejaVuSans-3b4"/>
      <use xlink:href="#DejaVuSans-20" transform="translate(61.181641 0)"/>
      <use xlink:href="#DejaVuSans-5b" transform="translate(92.96875 0)"/>
      <use xlink:href="#DejaVuSans-6d" transform="translate(131.982422 0)"/>
      <use xlink:href="#DejaVuSans-5d" transform="translate(229.394531 0)"/>
     </g>
    </g>
   </g>
   <g id="line2d_50">
    <path d="M 148.578247 361 
L 148.581818 307.2 
L 153.654545 293.156177 
L 158.727273 282.237921 
L 163.8 272.901304 
L 168.872727 264.756007 
L 173.945455 257.192502 
L 179.018182 250.773639 
L 184.090909 244.408624 
L 189.163636 238.657284 
L 194.236364 233.155349 
L 199.309091 228.0473 
L 204.381818 223.40375 
L 209.454545 218.788347 
L 214.527273 214.125765 
L 219.6 210.093301 
L 224.672727 205.873726 
L 229.745455 201.97617 
L 234.818182 198.045643 
L 239.890909 194.385843 
L 244.963636 190.618371 
L 250.036364 187.0713 
L 255.109091 183.309017 
L 260.181818 179.806566 
L 265.254545 176.131303 
L 270.327273 172.674579 
L 275.4 169.172046 
L 280.472727 165.859963 
L 285.545455 162.193353 
L 290.618182 158.666654 
L 295.690909 154.972106 
L 300.763636 151.354721 
L 305.836364 147.447269 
L 310.909091 143.851916 
L 315.981818 139.767474 
L 321.054545 135.842138 
L 326.127273 131.537835 
L 331.2 127.376538 
L 336.272727 123.031614 
L 341.345455 118.791896 
L 346.418182 114.352568 
L 351.490909 109.873711 
L 356.563636 105.54672 
L 361.636364 101.2853 
L 366.709091 97.293942 
L 371.781818 93.483604 
L 376.854545 90.036727 
L 381.927273 89.387914 
L 387 89.387914 
L 392.072727 89.387914 
L 397.145455 89.387914 
L 402.218182 89.387914 
L 407.290909 89.387914 
L 412.363636 89.387914 
" clip-path="url(#pa4f1a4393f)" style="fill: none; stroke: #1f77b4; stroke-width: 2; stroke-linecap: square"/>
   </g>
   <g id="line2d_51">
    <path d="M 153.650051 361 
L 153.654545 293.271318 
L 158.727273 283.104067 
L 163.8 271.939351 
L 168.872727 263.887268 
L 173.945455 256.040537 
L 179.018182 248.763299 
L 184.090909 242.137266 
L 189.163636 235.654141 
L 194.236364 230.035071 
L 199.309091 224.475157 
L 204.381818 219.063075 
L 209.454545 213.65884 
L 214.527273 208.652547 
L 219.6 203.45696 
L 224.672727 198.630217 
L 229.745455 193.330871 
L 234.818182 188.092959 
L 239.890909 182.892266 
L 244.963636 177.978749 
L 250.036364 172.416208 
L 255.109091 166.481915 
L 260.181818 160.583798 
L 265.254545 154.247564 
L 270.327273 147.465596 
L 275.4 139.926661 
L 280.472727 131.495161 
L 285.545455 122.022268 
L 290.618182 111.573677 
L 295.690909 100.371668 
L 300.763636 89.940728 
L 305.836364 80.960374 
L 310.909091 73.369063 
L 315.981818 67.257444 
L 321.054545 66.293957 
L 326.127273 66.293957 
L 331.2 66.293957 
L 336.272727 66.293957 
L 341.345455 66.293957 
L 346.418182 66.293957 
L 351.490909 66.293957 
L 356.563636 66.293957 
L 361.636364 66.293957 
L 366.709091 66.293957 
L 371.781818 66.293957 
L 376.854545 66.293957 
L 381.927273 66.293957 
L 387 66.293957 
L 392.072727 66.293957 
L 397.145455 66.293957 
L 402.218182 66.293957 
L 407.290909 66.293957 
L 412.363636 66.293957 
" clip-path="url(#pa4f1a4393f)" style="fill: none; stroke: #ff7f0e; stroke-width: 2; stroke-linecap: square"/>
   </g>
   <g id="line2d_52">
    <path d="M 158.721979 361 
L 158.727273 281.220482 
L 163.8 272.713063 
L 168.872727 262.570987 
L 173.945455 254.560599 
L 179.018182 246.671806 
L 184.090909 239.846385 
L 189.163636 233.106497 
L 194.236364 226.404534 
L 199.309091 219.861347 
L 204.381818 214.330982 
L 209.454545 207.814291 
L 214.527273 201.609582 
L 219.6 195.329995 
L 224.672727 188.757585 
L 229.745455 181.944464 
L 234.818182 174.065521 
L 239.890909 165.914217 
L 244.963636 157.279529 
L 250.036364 146.331422 
L 255.109091 134.017766 
L 260.181818 118.30586 
L 265.254545 99.59409 
L 270.327273 82.818249 
L 275.4 69.112184 
L 280.472727 59.372446 
L 285.545455 52.784858 
L 290.618182 52.784858 
L 295.690909 52.784858 
L 300.763636 52.784858 
L 305.836364 52.784858 
L 310.909091 52.784858 
L 315.981818 52.784858 
L 321.054545 52.784858 
L 326.127273 52.784858 
L 331.2 52.784858 
L 336.272727 52.784858 
L 341.345455 52.784858 
L 346.418182 52.784858 
L 351.490909 52.784858 
L 356.563636 52.784858 
L 361.636364 52.784858 
L 366.709091 52.784858 
L 371.781818 52.784858 
L 376.854545 52.784858 
L 381.927273 52.784858 
L 387 52.784858 
L 392.072727 52.784858 
L 397.145455 52.784858 
L 402.218182 52.784858 
L 407.290909 52.784858 
L 412.363636 52.784858 
" clip-path="url(#pa4f1a4393f)" style="fill: none; stroke: #2ca02c; stroke-width: 2; stroke-linecap: square"/>
   </g>
   <g id="line2d_53">
    <path d="M 163.794009 361 
L 163.8 270.693566 
L 168.872727 262.548268 
L 173.945455 252.677614 
L 179.018182 244.901623 
L 184.090909 236.945349 
L 189.163636 229.826647 
L 194.236364 222.664533 
L 199.309091 214.916141 
L 204.381818 207.790265 
L 209.454545 200.472944 
L 214.527273 192.878324 
L 219.6 183.883163 
L 224.672727 175.434135 
L 229.745455 164.009329 
L 234.818182 150.46233 
L 239.890909 133.451227 
L 244.963636 110.920311 
L 250.036364 84.353073 
L 255.109091 65.451864 
L 260.181818 52.748767 
L 265.254545 43.955713 
L 270.327273 43.2 
L 275.4 43.2 
L 280.472727 43.2 
L 285.545455 43.2 
L 290.618182 43.2 
L 295.690909 43.2 
L 300.763636 43.2 
L 305.836364 43.2 
L 310.909091 43.2 
L 315.981818 43.2 
L 321.054545 43.2 
L 326.127273 43.2 
L 331.2 43.2 
L 336.272727 43.2 
L 341.345455 43.2 
L 346.418182 43.2 
L 351.490909 43.2 
L 356.563636 43.2 
L 361.636364 43.2 
L 366.709091 43.2 
L 371.781818 43.2 
L 376.854545 43.2 
L 381.927273 43.2 
L 387 43.2 
L 392.072727 43.2 
L 397.145455 43.2 
L 402.218182 43.2 
L 407.290909 43.2 
L 412.363636 43.2 
" clip-path="url(#pa4f1a4393f)" style="fill: none; stroke: #d62728; stroke-width: 2; stroke-linecap: square"/>
   </g>
   <g id="patch_3">
    <path d="M 108 320.4 
L 108 43.2 
" style="fill: none; stroke: #000000; stroke-width: 0.8; stroke-linejoin: miter; stroke-linecap: square"/>
   </g>
   <g id="patch_4">
    <path d="M 412.363636 320.4 
L 412.363636 43.2 
" style="fill: none; stroke: #000000; stroke-width: 0.8; stroke-linejoin: miter; stroke-linecap: square"/>
   </g>
   <g id="patch_5">
    <path d="M 108 320.4 
L 412.363636 320.4 
" style="fill: none; stroke: #000000; stroke-width: 0.8; stroke-linejoin: miter; stroke-linecap: square"/>
   </g>
   <g id="patch_6">
    <path d="M 108 43.2 
L 412.363636 43.2 
" style="fill: none; stroke: #000000; stroke-width: 0.8; stroke-linejoin: miter; stroke-linecap: square"/>
   </g>
   <g id="text_14">
    <!-- Tear depth -->
    <g transform="translate(215.589631 37.2) scale(0.168 -0.168)">
     <defs>
      <path id="DejaVuSans-54" d="M -19 4666 
L 3928 4666 
L 3928 4134 
L 2272 4134 
L 2272 0 
L 1638 0 
L 1638 4134 
L -19 4134 
L -19 4666 
z
" transform="scale(0.015625)"/>
      <path id="DejaVuSans-65" d="M 3597 1894 
L 3597 1613 
L 953 1613 
Q 991 1019 1311 708 
Q 1631 397 2203 397 
Q 2534 397 2845 478 
Q 3156 559 3463 722 
L 3463 178 
Q 3153 47 2828 -22 
Q 2503 -91 2169 -91 
Q 1331 -91 842 396 
Q 353 884 353 1716 
Q 353 2575 817 3079 
Q 1281 3584 2069 3584 
Q 2775 3584 3186 3129 
Q 3597 2675 3597 1894 
z
M 3022 2063 
Q 3016 2534 2758 2815 
Q 2500 3097 2075 3097 
Q 1594 3097 1305 2825 
Q 1016 2553 972 2059 
L 3022 2063 
z
" transform="scale(0.015625)"/>
      <path id="DejaVuSans-61" d="M 2194 1759 
Q 1497 1759 1228 1600 
Q 959 1441 959 1056 
Q 959 750 1161 570 
Q 1363 391 1709 391 
Q 2188 391 2477 730 
Q 2766 1069 2766 1631 
L 2766 1759 
L 2194 1759 
z
M 3341 1997 
L 3341 0 
L 2766 0 
L 2766 531 
Q 2569 213 2275 61 
Q 1981 -91 1556 -91 
Q 1019 -91 701 211 
Q 384 513 384 1019 
Q 384 1609 779 1909 
Q 1175 2209 1959 2209 
L 2766 2209 
L 2766 2266 
Q 2766 2663 2505 2880 
Q 2244 3097 1772 3097 
Q 1472 3097 1187 3025 
Q 903 2953 641 2809 
L 641 3341 
Q 956 3463 1253 3523 
Q 1550 3584 1831 3584 
Q 2591 3584 2966 3190 
Q 3341 2797 3341 1997 
z
" transform="scale(0.015625)"/>
      <path id="DejaVuSans-72" d="M 2631 2963 
Q 2534 3019 2420 3045 
Q 2306 3072 2169 3072 
Q 1681 3072 1420 2755 
Q 1159 2438 1159 1844 
L 1159 0 
L 581 0 
L 581 3500 
L 1159 3500 
L 1159 2956 
Q 1341 3275 1631 3429 
Q 1922 3584 2338 3584 
Q 2397 3584 2469 3576 
Q 2541 3569 2628 3553 
L 2631 2963 
z
" transform="scale(0.015625)"/>
      <path id="DejaVuSans-64" d="M 2906 2969 
L 2906 4863 
L 3481 4863 
L 3481 0 
L 2906 0 
L 2906 525 
Q 2725 213 2448 61 
Q 2172 -91 1784 -91 
Q 1150 -91 751 415 
Q 353 922 353 1747 
Q 353 2572 751 3078 
Q 1150 3584 1784 3584 
Q 2172 3584 2448 3432 
Q 2725 3281 2906 2969 
z
M 947 1747 
Q 947 1113 1208 752 
Q 1469 391 1925 391 
Q 2381 391 2643 752 
Q 2906 1113 2906 1747 
Q 2906 2381 2643 2742 
Q 2381 3103 1925 3103 
Q 1469 3103 1208 2742 
Q 947 2381 947 1747 
z
" transform="scale(0.015625)"/>
      <path id="DejaVuSans-70" d="M 1159 525 
L 1159 -1331 
L 581 -1331 
L 581 3500 
L 1159 3500 
L 1159 2969 
Q 1341 3281 1617 3432 
Q 1894 3584 2278 3584 
Q 2916 3584 3314 3078 
Q 3713 2572 3713 1747 
Q 3713 922 3314 415 
Q 2916 -91 2278 -91 
Q 1894 -91 1617 61 
Q 1341 213 1159 525 
z
M 3116 1747 
Q 3116 2381 2855 2742 
Q 2594 3103 2138 3103 
Q 1681 3103 1420 2742 
Q 1159 2381 1159 1747 
Q 1159 1113 1420 752 
Q 1681 391 2138 391 
Q 2594 391 2855 752 
Q 3116 1113 3116 1747 
z
" transform="scale(0.015625)"/>
      <path id="DejaVuSans-74" d="M 1172 4494 
L 1172 3500 
L 2356 3500 
L 2356 3053 
L 1172 3053 
L 1172 1153 
Q 1172 725 1289 603 
Q 1406 481 1766 481 
L 2356 481 
L 2356 0 
L 1766 0 
Q 1100 0 847 248 
Q 594 497 594 1153 
L 594 3053 
L 172 3053 
L 172 3500 
L 594 3500 
L 594 4494 
L 1172 4494 
z
" transform="scale(0.015625)"/>
      <path id="DejaVuSans-68" d="M 3513 2113 
L 3513 0 
L 2938 0 
L 2938 2094 
Q 2938 2591 2744 2837 
Q 2550 3084 2163 3084 
Q 1697 3084 1428 2787 
Q 1159 2491 1159 1978 
L 1159 0 
L 581 0 
L 581 4863 
L 1159 4863 
L 1159 2956 
Q 1366 3272 1645 3428 
Q 1925 3584 2291 3584 
Q 2894 3584 3203 3211 
Q 3513 2838 3513 2113 
z
" transform="scale(0.015625)"/>
     </defs>
     <use xlink:href="#DejaVuSans-54"/>
     <use xlink:href="#DejaVuSans-65" transform="translate(44.083984 0)"/>
     <use xlink:href="#DejaVuSans-61" transform="translate(105.607422 0)"/>
     <use xlink:href="#DejaVuSans-72" transform="translate(166.886719 0)"/>
     <use xlink:href="#DejaVuSans-20" transform="translate(208 0)"/>
     <use xlink:href="#DejaVuSans-64" transform="translate(239.787109 0)"/>
     <use xlink:href="#DejaVuSans-65" transform="translate(303.263672 0)"/>
     <use xlink:href="#DejaVuSans-70" transform="translate(364.787109 0)"/>
     <use xlink:href="#DejaVuSans-74" transform="translate(428.263672 0)"/>
     <use xlink:href="#DejaVuSans-68" transform="translate(467.472656 0)"/>
    </g>
   </g>
   <g id="legend_1">
    <g id="patch_7">
     <path d="M 117.8 136.5975 
L 222.981562 136.5975 
Q 225.781563 136.5975 225.781563 133.7975 
L 225.781563 53 
Q 225.781563 50.2 222.981562 50.2 
L 117.8 50.2 
Q 115 50.2 115 53 
L 115 133.7975 
Q 115 136.5975 117.8 136.5975 
z
" style="fill: #ffffff; opacity: 0.8; stroke: #cccccc; stroke-linejoin: miter"/>
    </g>
    <g id="line2d_54">
     <path d="M 120.6 61.537812 
L 134.6 61.537812 
L 148.6 61.537812 
" style="fill: none; stroke: #1f77b4; stroke-width: 2; stroke-linecap: square"/>
    </g>
    <g id="text_15">
     <!-- a = 0.10 -->
     <g transform="translate(159.8 66.437812) scale(0.14 -0.14)">
      <defs>
       <path id="DejaVuSans-3d" d="M 678 2906 
L 4684 2906 
L 4684 2381 
L 678 2381 
L 678 2906 
z
M 678 1631 
L 4684 1631 
L 4684 1100 
L 678 1100 
L 678 1631 
z
" transform="scale(0.015625)"/>
       <path id="DejaVuSans-2e" d="M 684 794 
L 1344 794 
L 1344 0 
L 684 0 
L 684 794 
z
" transform="scale(0.015625)"/>
      </defs>
      <use xlink:href="#DejaVuSans-61"/>
      <use xlink:href="#DejaVuSans-20" transform="translate(61.279297 0)"/>
      <use xlink:href="#DejaVuSans-3d" transform="translate(93.066406 0)"/>
      <use xlink:href="#DejaVuSans-20" transform="translate(176.855469 0)"/>
      <use xlink:href="#DejaVuSans-30" transform="translate(208.642578 0)"/>
      <use xlink:href="#DejaVuSans-2e" transform="translate(272.265625 0)"/>
      <use xlink:href="#DejaVuSans-31" transform="translate(304.052734 0)"/>
      <use xlink:href="#DejaVuSans-30" transform="translate(367.675781 0)"/>
     </g>
    </g>
    <g id="line2d_55">
     <path d="M 120.6 82.087187 
L 134.6 82.087187 
L 148.6 82.087187 
" style="fill: none; stroke: #ff7f0e; stroke-width: 2; stroke-linecap: square"/>
    </g>
    <g id="text_16">
     <!-- a = 0.20 -->
     <g transform="translate(159.8 86.987187) scale(0.14 -0.14)">
      <use xlink:href="#DejaVuSans-61"/>
      <use xlink:href="#DejaVuSans-20" transform="translate(61.279297 0)"/>
      <use xlink:href="#DejaVuSans-3d" transform="translate(93.066406 0)"/>
      <use xlink:href="#DejaVuSans-20" transform="translate(176.855469 0)"/>
      <use xlink:href="#DejaVuSans-30" transform="translate(208.642578 0)"/>
      <use xlink:href="#DejaVuSans-2e" transform="translate(272.265625 0)"/>
      <use xlink:href="#DejaVuSans-32" transform="translate(304.052734 0)"/>
      <use xlink:href="#DejaVuSans-30" transform="translate(367.675781 0)"/>
     </g>
    </g>
    <g id="line2d_56">
     <path d="M 120.6 102.636562 
L 134.6 102.636562 
L 148.6 102.636562 
" style="fill: none; stroke: #2ca02c; stroke-width: 2; stroke-linecap: square"/>
    </g>
    <g id="text_17">
     <!-- a = 0.30 -->
     <g transform="translate(159.8 107.536562) scale(0.14 -0.14)">
      <use xlink:href="#DejaVuSans-61"/>
      <use xlink:href="#DejaVuSans-20" transform="translate(61.279297 0)"/>
      <use xlink:href="#DejaVuSans-3d" transform="translate(93.066406 0)"/>
      <use xlink:href="#DejaVuSans-20" transform="translate(176.855469 0)"/>
      <use xlink:href="#DejaVuSans-30" transform="translate(208.642578 0)"/>
      <use xlink:href="#DejaVuSans-2e" transform="translate(272.265625 0)"/>
      <use xlink:href="#DejaVuSans-33" transform="translate(304.052734 0)"/>
      <use xlink:href="#DejaVuSans-30" transform="translate(367.675781 0)"/>
     </g>
    </g>
    <g id="line2d_57">
     <path d="M 120.6 123.185937 
L 134.6 123.185937 
L 148.6 123.185937 
" style="fill: none; stroke: #d62728; stroke-width: 2; stroke-linecap: square"/>
    </g>
    <g id="text_18">
     <!-- a = 0.40 -->
     <g transform="translate(159.8 128.085937) scale(0.14 -0.14)">
      <use xlink:href="#DejaVuSans-61"/>
      <use xlink:href="#DejaVuSans-20" transform="translate(61.279297 0)"/>
      <use xlink:href="#DejaVuSans-3d" transform="translate(93.066406 0)"/>
      <use xlink:href="#DejaVuSans-20" transform="translate(176.855469 0)"/>
      <use xlink:href="#DejaVuSans-30" transform="translate(208.642578 0)"/>
      <use xlink:href="#DejaVuSans-2e" transform="translate(272.265625 0)"/>
      <use xlink:href="#DejaVuSans-34" transform="translate(304.052734 0)"/>
      <use xlink:href="#DejaVuSans-30" transform="translate(367.675781 0)"/>
     </g>
    </g>
   </g>
  </g>
  <g id="axes_2">
   <g id="patch_8">
    <path d="M 473.236364 320.4 
L 777.6 320.4 
L 777.6 43.2 
L 473.236364 43.2 
z
" style="fill: #ffffff"/>
   </g>
   <g id="matplotlib.axis_3">
    <g id="xtick_8">
     <g id="line2d_58">
      <path d="M 473.236364 320.4 
L 473.236364 43.2 
" clip-path="url(#pb116446f3b)" style="fill: none; stroke: #b0b0b0; stroke-width: 0.8; stroke-linecap: square"/>
     </g>
     <g id="line2d_59">
      <g>
       <use xlink:href="#m4fe0bd63cf" x="473.236364" y="320.4" style="stroke: #000000; stroke-width: 0.8"/>
      </g>
     </g>
     <g id="text_19">
      <!-- 0 -->
      <g transform="translate(468.782614 338.037813) scale(0.14 -0.14)">
       <use xlink:href="#DejaVuSans-30"/>
      </g>
     </g>
    </g>
    <g id="xtick_9">
     <g id="line2d_60">
      <path d="M 523.963636 320.4 
L 523.963636 43.2 
" clip-path="url(#pb116446f3b)" style="fill: none; stroke: #b0b0b0; stroke-width: 0.8; stroke-linecap: square"/>
     </g>
     <g id="line2d_61">
      <g>
       <use xlink:href="#m4fe0bd63cf" x="523.963636" y="320.4" style="stroke: #000000; stroke-width: 0.8"/>
      </g>
     </g>
     <g id="text_20">
      <!-- 10 -->
      <g transform="translate(515.056136 338.037813) scale(0.14 -0.14)">
       <use xlink:href="#DejaVuSans-31"/>
       <use xlink:href="#DejaVuSans-30" transform="translate(63.623047 0)"/>
      </g>
     </g>
    </g>
    <g id="xtick_10">
     <g id="line2d_62">
      <path d="M 574.690909 320.4 
L 574.690909 43.2 
" clip-path="url(#pb116446f3b)" style="fill: none; stroke: #b0b0b0; stroke-width: 0.8; stroke-linecap: square"/>
     </g>
     <g id="line2d_63">
      <g>
       <use xlink:href="#m4fe0bd63cf" x="574.690909" y="320.4" style="stroke: #000000; stroke-width: 0.8"/>
      </g>
     </g>
     <g id="text_21">
      <!-- 20 -->
      <g transform="translate(565.783409 338.037813) scale(0.14 -0.14)">
       <use xlink:href="#DejaVuSans-32"/>
       <use xlink:href="#DejaVuSans-30" transform="translate(63.623047 0)"/>
      </g>
     </g>
    </g>
    <g id="xtick_11">
     <g id="line2d_64">
      <path d="M 625.418182 320.4 
L 625.418182 43.2 
" clip-path="url(#pb116446f3b)" style="fill: none; stroke: #b0b0b0; stroke-width: 0.8; stroke-linecap: square"/>
     </g>
     <g id="line2d_65">
      <g>
       <use xlink:href="#m4fe0bd63cf" x="625.418182" y="320.4" style="stroke: #000000; stroke-width: 0.8"/>
      </g>
     </g>
     <g id="text_22">
      <!-- 30 -->
      <g transform="translate(616.510682 338.037813) scale(0.14 -0.14)">
       <use xlink:href="#DejaVuSans-33"/>
       <use xlink:href="#DejaVuSans-30" transform="translate(63.623047 0)"/>
      </g>
     </g>
    </g>
    <g id="xtick_12">
     <g id="line2d_66">
      <path d="M 676.145455 320.4 
L 676.145455 43.2 
" clip-path="url(#pb116446f3b)" style="fill: none; stroke: #b0b0b0; stroke-width: 0.8; stroke-linecap: square"/>
     </g>
     <g id="line2d_67">
      <g>
       <use xlink:href="#m4fe0bd63cf" x="676.145455" y="320.4" style="stroke: #000000; stroke-width: 0.8"/>
      </g>
     </g>
     <g id="text_23">
      <!-- 40 -->
      <g transform="translate(667.237955 338.037813) scale(0.14 -0.14)">
       <use xlink:href="#DejaVuSans-34"/>
       <use xlink:href="#DejaVuSans-30" transform="translate(63.623047 0)"/>
      </g>
     </g>
    </g>
    <g id="xtick_13">
     <g id="line2d_68">
      <path d="M 726.872727 320.4 
L 726.872727 43.2 
" clip-path="url(#pb116446f3b)" style="fill: none; stroke: #b0b0b0; stroke-width: 0.8; stroke-linecap: square"/>
     </g>
     <g id="line2d_69">
      <g>
       <use xlink:href="#m4fe0bd63cf" x="726.872727" y="320.4" style="stroke: #000000; stroke-width: 0.8"/>
      </g>
     </g>
     <g id="text_24">
      <!-- 50 -->
      <g transform="translate(717.965227 338.037813) scale(0.14 -0.14)">
       <use xlink:href="#DejaVuSans-35"/>
       <use xlink:href="#DejaVuSans-30" transform="translate(63.623047 0)"/>
      </g>
     </g>
    </g>
    <g id="xtick_14">
     <g id="line2d_70">
      <path d="M 777.6 320.4 
L 777.6 43.2 
" clip-path="url(#pb116446f3b)" style="fill: none; stroke: #b0b0b0; stroke-width: 0.8; stroke-linecap: square"/>
     </g>
     <g id="line2d_71">
      <g>
       <use xlink:href="#m4fe0bd63cf" x="777.6" y="320.4" style="stroke: #000000; stroke-width: 0.8"/>
      </g>
     </g>
     <g id="text_25">
      <!-- 60 -->
      <g transform="translate(768.6925 338.037813) scale(0.14 -0.14)">
       <use xlink:href="#DejaVuSans-36"/>
       <use xlink:href="#DejaVuSans-30" transform="translate(63.623047 0)"/>
      </g>
     </g>
    </g>
    <g id="text_26">
     <!-- U [m/s] -->
     <g transform="translate(599.785057 355.587188) scale(0.14 -0.14)">
      <use xlink:href="#DejaVuSans-55"/>
      <use xlink:href="#DejaVuSans-20" transform="translate(73.193359 0)"/>
      <use xlink:href="#DejaVuSans-5b" transform="translate(104.980469 0)"/>
      <use xlink:href="#DejaVuSans-6d" transform="translate(143.994141 0)"/>
      <use xlink:href="#DejaVuSans-2f" transform="translate(241.40625 0)"/>
      <use xlink:href="#DejaVuSans-73" transform="translate(275.097656 0)"/>
      <use xlink:href="#DejaVuSans-5d" transform="translate(327.197266 0)"/>
     </g>
    </g>
   </g>
   <g id="matplotlib.axis_4">
    <g id="ytick_32">
     <g id="line2d_72">
      <path d="M 473.236364 309.180583 
L 777.6 309.180583 
" clip-path="url(#pb116446f3b)" style="fill: none; stroke: #b0b0b0; stroke-width: 0.8; stroke-linecap: square"/>
     </g>
     <g id="line2d_73">
      <g>
       <use xlink:href="#m8bf9ee0280" x="473.236364" y="309.180583" style="stroke: #000000; stroke-width: 0.8"/>
      </g>
     </g>
     <g id="text_27">
      <!-- $\mathdefault{10^{-3}}$ -->
      <g transform="translate(433.336364 314.499489) scale(0.14 -0.14)">
       <use xlink:href="#DejaVuSans-31" transform="translate(0 0.765625)"/>
       <use xlink:href="#DejaVuSans-30" transform="translate(63.623047 0.765625)"/>
       <use xlink:href="#DejaVuSans-2212" transform="translate(128.203125 39.046875) scale(0.7)"/>
       <use xlink:href="#DejaVuSans-33" transform="translate(186.855469 39.046875) scale(0.7)"/>
      </g>
     </g>
    </g>
    <g id="ytick_33">
     <g id="line2d_74">
      <path d="M 473.236364 220.520389 
L 777.6 220.520389 
" clip-path="url(#pb116446f3b)" style="fill: none; stroke: #b0b0b0; stroke-width: 0.8; stroke-linecap: square"/>
     </g>
     <g id="line2d_75">
      <g>
       <use xlink:href="#m8bf9ee0280" x="473.236364" y="220.520389" style="stroke: #000000; stroke-width: 0.8"/>
      </g>
     </g>
     <g id="text_28">
      <!-- $\mathdefault{10^{-2}}$ -->
      <g transform="translate(433.336364 225.839295) scale(0.14 -0.14)">
       <use xlink:href="#DejaVuSans-31" transform="translate(0 0.765625)"/>
       <use xlink:href="#DejaVuSans-30" transform="translate(63.623047 0.765625)"/>
       <use xlink:href="#DejaVuSans-2212" transform="translate(128.203125 39.046875) scale(0.7)"/>
       <use xlink:href="#DejaVuSans-32" transform="translate(186.855469 39.046875) scale(0.7)"/>
      </g>
     </g>
    </g>
    <g id="ytick_34">
     <g id="line2d_76">
      <path d="M 473.236364 131.860194 
L 777.6 131.860194 
" clip-path="url(#pb116446f3b)" style="fill: none; stroke: #b0b0b0; stroke-width: 0.8; stroke-linecap: square"/>
     </g>
     <g id="line2d_77">
      <g>
       <use xlink:href="#m8bf9ee0280" x="473.236364" y="131.860194" style="stroke: #000000; stroke-width: 0.8"/>
      </g>
     </g>
     <g id="text_29">
      <!-- $\mathdefault{10^{-1}}$ -->
      <g transform="translate(433.336364 137.179101) scale(0.14 -0.14)">
       <use xlink:href="#DejaVuSans-31" transform="translate(0 0.684375)"/>
       <use xlink:href="#DejaVuSans-30" transform="translate(63.623047 0.684375)"/>
       <use xlink:href="#DejaVuSans-2212" transform="translate(128.203125 38.965625) scale(0.7)"/>
       <use xlink:href="#DejaVuSans-31" transform="translate(186.855469 38.965625) scale(0.7)"/>
      </g>
     </g>
    </g>
    <g id="ytick_35">
     <g id="line2d_78">
      <path d="M 473.236364 43.2 
L 777.6 43.2 
" clip-path="url(#pb116446f3b)" style="fill: none; stroke: #b0b0b0; stroke-width: 0.8; stroke-linecap: square"/>
     </g>
     <g id="line2d_79">
      <g>
       <use xlink:href="#m8bf9ee0280" x="473.236364" y="43.2" style="stroke: #000000; stroke-width: 0.8"/>
      </g>
     </g>
     <g id="text_30">
      <!-- $\mathdefault{10^{0}}$ -->
      <g transform="translate(441.596364 48.518906) scale(0.14 -0.14)">
       <use xlink:href="#DejaVuSans-31" transform="translate(0 0.765625)"/>
       <use xlink:href="#DejaVuSans-30" transform="translate(63.623047 0.765625)"/>
       <use xlink:href="#DejaVuSans-30" transform="translate(128.203125 39.046875) scale(0.7)"/>
      </g>
     </g>
    </g>
    <g id="ytick_36">
     <g id="line2d_80">
      <g>
       <use xlink:href="#m3a0ee2f206" x="473.236364" y="317.772644" style="stroke: #000000; stroke-width: 0.6"/>
      </g>
     </g>
    </g>
    <g id="ytick_37">
     <g id="line2d_81">
      <g>
       <use xlink:href="#m3a0ee2f206" x="473.236364" y="313.237451" style="stroke: #000000; stroke-width: 0.6"/>
      </g>
     </g>
    </g>
    <g id="ytick_38">
     <g id="line2d_82">
      <g>
       <use xlink:href="#m3a0ee2f206" x="473.236364" y="282.491205" style="stroke: #000000; stroke-width: 0.6"/>
      </g>
     </g>
    </g>
    <g id="ytick_39">
     <g id="line2d_83">
      <g>
       <use xlink:href="#m3a0ee2f206" x="473.236364" y="266.87892" style="stroke: #000000; stroke-width: 0.6"/>
      </g>
     </g>
    </g>
    <g id="ytick_40">
     <g id="line2d_84">
      <g>
       <use xlink:href="#m3a0ee2f206" x="473.236364" y="255.801827" style="stroke: #000000; stroke-width: 0.6"/>
      </g>
     </g>
    </g>
    <g id="ytick_41">
     <g id="line2d_85">
      <g>
       <use xlink:href="#m3a0ee2f206" x="473.236364" y="247.209767" style="stroke: #000000; stroke-width: 0.6"/>
      </g>
     </g>
    </g>
    <g id="ytick_42">
     <g id="line2d_86">
      <g>
       <use xlink:href="#m3a0ee2f206" x="473.236364" y="240.189542" style="stroke: #000000; stroke-width: 0.6"/>
      </g>
     </g>
    </g>
    <g id="ytick_43">
     <g id="line2d_87">
      <g>
       <use xlink:href="#m3a0ee2f206" x="473.236364" y="234.254027" style="stroke: #000000; stroke-width: 0.6"/>
      </g>
     </g>
    </g>
    <g id="ytick_44">
     <g id="line2d_88">
      <g>
       <use xlink:href="#m3a0ee2f206" x="473.236364" y="229.112449" style="stroke: #000000; stroke-width: 0.6"/>
      </g>
     </g>
    </g>
    <g id="ytick_45">
     <g id="line2d_89">
      <g>
       <use xlink:href="#m3a0ee2f206" x="473.236364" y="224.577257" style="stroke: #000000; stroke-width: 0.6"/>
      </g>
     </g>
    </g>
    <g id="ytick_46">
     <g id="line2d_90">
      <g>
       <use xlink:href="#m3a0ee2f206" x="473.236364" y="193.831011" style="stroke: #000000; stroke-width: 0.6"/>
      </g>
     </g>
    </g>
    <g id="ytick_47">
     <g id="line2d_91">
      <g>
       <use xlink:href="#m3a0ee2f206" x="473.236364" y="178.218726" style="stroke: #000000; stroke-width: 0.6"/>
      </g>
     </g>
    </g>
    <g id="ytick_48">
     <g id="line2d_92">
      <g>
       <use xlink:href="#m3a0ee2f206" x="473.236364" y="167.141633" style="stroke: #000000; stroke-width: 0.6"/>
      </g>
     </g>
    </g>
    <g id="ytick_49">
     <g id="line2d_93">
      <g>
       <use xlink:href="#m3a0ee2f206" x="473.236364" y="158.549572" style="stroke: #000000; stroke-width: 0.6"/>
      </g>
     </g>
    </g>
    <g id="ytick_50">
     <g id="line2d_94">
      <g>
       <use xlink:href="#m3a0ee2f206" x="473.236364" y="151.529348" style="stroke: #000000; stroke-width: 0.6"/>
      </g>
     </g>
    </g>
    <g id="ytick_51">
     <g id="line2d_95">
      <g>
       <use xlink:href="#m3a0ee2f206" x="473.236364" y="145.593832" style="stroke: #000000; stroke-width: 0.6"/>
      </g>
     </g>
    </g>
    <g id="ytick_52">
     <g id="line2d_96">
      <g>
       <use xlink:href="#m3a0ee2f206" x="473.236364" y="140.452255" style="stroke: #000000; stroke-width: 0.6"/>
      </g>
     </g>
    </g>
    <g id="ytick_53">
     <g id="line2d_97">
      <g>
       <use xlink:href="#m3a0ee2f206" x="473.236364" y="135.917062" style="stroke: #000000; stroke-width: 0.6"/>
      </g>
     </g>
    </g>
    <g id="ytick_54">
     <g id="line2d_98">
      <g>
       <use xlink:href="#m3a0ee2f206" x="473.236364" y="105.170816" style="stroke: #000000; stroke-width: 0.6"/>
      </g>
     </g>
    </g>
    <g id="ytick_55">
     <g id="line2d_99">
      <g>
       <use xlink:href="#m3a0ee2f206" x="473.236364" y="89.558531" style="stroke: #000000; stroke-width: 0.6"/>
      </g>
     </g>
    </g>
    <g id="ytick_56">
     <g id="line2d_100">
      <g>
       <use xlink:href="#m3a0ee2f206" x="473.236364" y="78.481439" style="stroke: #000000; stroke-width: 0.6"/>
      </g>
     </g>
    </g>
    <g id="ytick_57">
     <g id="line2d_101">
      <g>
       <use xlink:href="#m3a0ee2f206" x="473.236364" y="69.889378" style="stroke: #000000; stroke-width: 0.6"/>
      </g>
     </g>
    </g>
    <g id="ytick_58">
     <g id="line2d_102">
      <g>
       <use xlink:href="#m3a0ee2f206" x="473.236364" y="62.869153" style="stroke: #000000; stroke-width: 0.6"/>
      </g>
     </g>
    </g>
    <g id="ytick_59">
     <g id="line2d_103">
      <g>
       <use xlink:href="#m3a0ee2f206" x="473.236364" y="56.933638" style="stroke: #000000; stroke-width: 0.6"/>
      </g>
     </g>
    </g>
    <g id="ytick_60">
     <g id="line2d_104">
      <g>
       <use xlink:href="#m3a0ee2f206" x="473.236364" y="51.792061" style="stroke: #000000; stroke-width: 0.6"/>
      </g>
     </g>
    </g>
    <g id="ytick_61">
     <g id="line2d_105">
      <g>
       <use xlink:href="#m3a0ee2f206" x="473.236364" y="47.256868" style="stroke: #000000; stroke-width: 0.6"/>
      </g>
     </g>
    </g>
    <g id="text_31">
     <!-- δ/a -->
     <g transform="translate(426.424801 192.730937) rotate(-90) scale(0.14 -0.14)">
      <use xlink:href="#DejaVuSans-3b4"/>
      <use xlink:href="#DejaVuSans-2f" transform="translate(61.181641 0)"/>
      <use xlink:href="#DejaVuSans-61" transform="translate(94.873047 0)"/>
     </g>
    </g>
   </g>
   <g id="line2d_106">
    <path d="M 513.81439 361 
L 513.818182 294.922519 
L 518.890909 278.69226 
L 523.963636 266.074177 
L 529.036364 255.283974 
L 534.109091 245.870563 
L 539.181818 237.129522 
L 544.254545 229.711327 
L 549.327273 222.355365 
L 554.4 215.708618 
L 559.472727 209.350105 
L 564.545455 203.446801 
L 569.618182 198.080312 
L 574.690909 192.746353 
L 579.763636 187.357869 
L 584.836364 182.697604 
L 589.909091 177.821098 
L 594.981818 173.316744 
L 600.054545 168.774286 
L 605.127273 164.544705 
L 610.2 160.190687 
L 615.272727 156.091385 
L 620.345455 151.743364 
L 625.418182 147.695628 
L 630.490909 143.448176 
L 635.563636 139.453287 
L 640.636364 135.405456 
L 645.709091 131.577725 
L 650.781818 127.340273 
L 655.854545 123.264515 
L 660.927273 118.994775 
L 666 114.814211 
L 671.072727 110.298421 
L 676.145455 106.14332 
L 681.218182 101.422985 
L 686.290909 96.886526 
L 691.363636 91.912101 
L 696.436364 87.102945 
L 701.509091 82.081574 
L 706.581818 77.181789 
L 711.654545 72.051317 
L 716.727273 66.875162 
L 721.8 61.874516 
L 726.872727 56.94965 
L 731.945455 52.336891 
L 737.018182 47.933334 
L 742.090909 43.949824 
L 747.163636 43.2 
L 752.236364 43.2 
L 757.309091 43.2 
L 762.381818 43.2 
L 767.454545 43.2 
L 772.527273 43.2 
L 777.6 43.2 
" clip-path="url(#pb116446f3b)" style="fill: none; stroke: #1f77b4; stroke-width: 2; stroke-linecap: square"/>
   </g>
   <g id="line2d_107">
    <path d="M 518.887725 361 
L 518.890909 305.514705 
L 523.963636 293.764549 
L 529.036364 280.861635 
L 534.109091 271.555952 
L 539.181818 262.487589 
L 544.254545 254.077382 
L 549.327273 246.419764 
L 554.4 238.927303 
L 559.472727 232.433419 
L 564.545455 226.007901 
L 569.618182 219.75323 
L 574.690909 213.507628 
L 579.763636 207.721921 
L 584.836364 201.717451 
L 589.909091 196.139249 
L 594.981818 190.014866 
L 600.054545 183.96148 
L 605.127273 177.951108 
L 610.2 172.272623 
L 615.272727 165.844068 
L 620.345455 158.985885 
L 625.418182 152.16951 
L 630.490909 144.84681 
L 635.563636 137.00898 
L 640.636364 128.296332 
L 645.709091 118.552161 
L 650.781818 107.604465 
L 655.854545 95.529168 
L 660.927273 82.583156 
L 666 70.528257 
L 671.072727 60.149782 
L 676.145455 51.376606 
L 681.218182 44.313489 
L 686.290909 43.2 
L 691.363636 43.2 
L 696.436364 43.2 
L 701.509091 43.2 
L 706.581818 43.2 
L 711.654545 43.2 
L 716.727273 43.2 
L 721.8 43.2 
L 726.872727 43.2 
L 731.945455 43.2 
L 737.018182 43.2 
L 742.090909 43.2 
L 747.163636 43.2 
L 752.236364 43.2 
L 757.309091 43.2 
L 762.381818 43.2 
L 767.454545 43.2 
L 772.527273 43.2 
L 777.6 43.2 
" clip-path="url(#pb116446f3b)" style="fill: none; stroke: #ff7f0e; stroke-width: 2; stroke-linecap: square"/>
   </g>
   <g id="line2d_108">
    <path d="M 523.960549 361 
L 523.963636 307.2 
L 529.036364 297.36809 
L 534.109091 285.647028 
L 539.181818 276.389529 
L 544.254545 267.272556 
L 549.327273 259.384509 
L 554.4 251.595311 
L 559.472727 243.849941 
L 564.545455 236.288068 
L 569.618182 229.896698 
L 574.690909 222.365446 
L 579.763636 215.194746 
L 584.836364 207.937511 
L 589.909091 200.341865 
L 594.981818 192.468032 
L 600.054545 183.362442 
L 605.127273 173.94209 
L 610.2 163.963095 
L 615.272727 151.310515 
L 620.345455 137.079786 
L 625.418182 118.921747 
L 630.490909 97.296804 
L 635.563636 77.909189 
L 640.636364 62.069272 
L 645.709091 50.813188 
L 650.781818 43.2 
L 655.854545 43.2 
L 660.927273 43.2 
L 666 43.2 
L 671.072727 43.2 
L 676.145455 43.2 
L 681.218182 43.2 
L 686.290909 43.2 
L 691.363636 43.2 
L 696.436364 43.2 
L 701.509091 43.2 
L 706.581818 43.2 
L 711.654545 43.2 
L 716.727273 43.2 
L 721.8 43.2 
L 726.872727 43.2 
L 731.945455 43.2 
L 737.018182 43.2 
L 742.090909 43.2 
L 747.163636 43.2 
L 752.236364 43.2 
L 757.309091 43.2 
L 762.381818 43.2 
L 767.454545 43.2 
L 772.527273 43.2 
L 777.6 43.2 
" clip-path="url(#pb116446f3b)" style="fill: none; stroke: #2ca02c; stroke-width: 2; stroke-linecap: square"/>
   </g>
   <g id="line2d_109">
    <path d="M 529.033214 361 
L 529.036364 306.111277 
L 534.109091 296.697864 
L 539.181818 285.290482 
L 544.254545 276.303872 
L 549.327273 267.108913 
L 554.4 258.881924 
L 559.472727 250.604765 
L 564.545455 241.650051 
L 569.618182 233.414772 
L 574.690909 224.958242 
L 579.763636 216.18124 
L 584.836364 205.785653 
L 589.909091 196.021224 
L 594.981818 182.817728 
L 600.054545 167.161643 
L 605.127273 147.502138 
L 610.2 121.463459 
L 615.272727 90.760057 
L 620.345455 68.916182 
L 625.418182 54.235382 
L 630.490909 44.073367 
L 635.563636 43.2 
L 640.636364 43.2 
L 645.709091 43.2 
L 650.781818 43.2 
L 655.854545 43.2 
L 660.927273 43.2 
L 666 43.2 
L 671.072727 43.2 
L 676.145455 43.2 
L 681.218182 43.2 
L 686.290909 43.2 
L 691.363636 43.2 
L 696.436364 43.2 
L 701.509091 43.2 
L 706.581818 43.2 
L 711.654545 43.2 
L 716.727273 43.2 
L 721.8 43.2 
L 726.872727 43.2 
L 731.945455 43.2 
L 737.018182 43.2 
L 742.090909 43.2 
L 747.163636 43.2 
L 752.236364 43.2 
L 757.309091 43.2 
L 762.381818 43.2 
L 767.454545 43.2 
L 772.527273 43.2 
L 777.6 43.2 
" clip-path="url(#pb116446f3b)" style="fill: none; stroke: #d62728; stroke-width: 2; stroke-linecap: square"/>
   </g>
   <g id="patch_9">
    <path d="M 473.236364 320.4 
L 473.236364 43.2 
" style="fill: none; stroke: #000000; stroke-width: 0.8; stroke-linejoin: miter; stroke-linecap: square"/>
   </g>
   <g id="patch_10">
    <path d="M 777.6 320.4 
L 777.6 43.2 
" style="fill: none; stroke: #000000; stroke-width: 0.8; stroke-linejoin: miter; stroke-linecap: square"/>
   </g>
   <g id="patch_11">
    <path d="M 473.236364 320.4 
L 777.6 320.4 
" style="fill: none; stroke: #000000; stroke-width: 0.8; stroke-linejoin: miter; stroke-linecap: square"/>
   </g>
   <g id="patch_12">
    <path d="M 473.236364 43.2 
L 777.6 43.2 
" style="fill: none; stroke: #000000; stroke-width: 0.8; stroke-linejoin: miter; stroke-linecap: square"/>
   </g>
   <g id="text_32">
    <!-- Normalized tear depth -->
    <g transform="translate(530.928682 37.2) scale(0.168 -0.168)">
     <defs>
      <path id="DejaVuSans-4e" d="M 628 4666 
L 1478 4666 
L 3547 763 
L 3547 4666 
L 4159 4666 
L 4159 0 
L 3309 0 
L 1241 3903 
L 1241 0 
L 628 0 
L 628 4666 
z
" transform="scale(0.015625)"/>
      <path id="DejaVuSans-6f" d="M 1959 3097 
Q 1497 3097 1228 2736 
Q 959 2375 959 1747 
Q 959 1119 1226 758 
Q 1494 397 1959 397 
Q 2419 397 2687 759 
Q 2956 1122 2956 1747 
Q 2956 2369 2687 2733 
Q 2419 3097 1959 3097 
z
M 1959 3584 
Q 2709 3584 3137 3096 
Q 3566 2609 3566 1747 
Q 3566 888 3137 398 
Q 2709 -91 1959 -91 
Q 1206 -91 779 398 
Q 353 888 353 1747 
Q 353 2609 779 3096 
Q 1206 3584 1959 3584 
z
" transform="scale(0.015625)"/>
      <path id="DejaVuSans-6c" d="M 603 4863 
L 1178 4863 
L 1178 0 
L 603 0 
L 603 4863 
z
" transform="scale(0.015625)"/>
      <path id="DejaVuSans-69" d="M 603 3500 
L 1178 3500 
L 1178 0 
L 603 0 
L 603 3500 
z
M 603 4863 
L 1178 4863 
L 1178 4134 
L 603 4134 
L 603 4863 
z
" transform="scale(0.015625)"/>
      <path id="DejaVuSans-7a" d="M 353 3500 
L 3084 3500 
L 3084 2975 
L 922 459 
L 3084 459 
L 3084 0 
L 275 0 
L 275 525 
L 2438 3041 
L 353 3041 
L 353 3500 
z
" transform="scale(0.015625)"/>
     </defs>
     <use xlink:href="#DejaVuSans-4e"/>
     <use xlink:href="#DejaVuSans-6f" transform="translate(74.804688 0)"/>
     <use xlink:href="#DejaVuSans-72" transform="translate(135.986328 0)"/>
     <use xlink:href="#DejaVuSans-6d" transform="translate(175.349609 0)"/>
     <use xlink:href="#DejaVuSans-61" transform="translate(272.761719 0)"/>
     <use xlink:href="#DejaVuSans-6c" transform="translate(334.041016 0)"/>
     <use xlink:href="#DejaVuSans-69" transform="translate(361.824219 0)"/>
     <use xlink:href="#DejaVuSans-7a" transform="translate(389.607422 0)"/>
     <use xlink:href="#DejaVuSans-65" transform="translate(442.097656 0)"/>
     <use xlink:href="#DejaVuSans-64" transform="translate(503.621094 0)"/>
     <use xlink:href="#DejaVuSans-20" transform="translate(567.097656 0)"/>
     <use xlink:href="#DejaVuSans-74" transform="translate(598.884766 0)"/>
     <use xlink:href="#DejaVuSans-65" transform="translate(638.09375 0)"/>
     <use xlink:href="#DejaVuSans-61" transform="translate(699.617188 0)"/>
     <use xlink:href="#DejaVuSans-72" transform="translate(760.896484 0)"/>
     <use xlink:href="#DejaVuSans-20" transform="translate(802.009766 0)"/>
     <use xlink:href="#DejaVuSans-64" transform="translate(833.796875 0)"/>
     <use xlink:href="#DejaVuSans-65" transform="translate(897.273438 0)"/>
     <use xlink:href="#DejaVuSans-70" transform="translate(958.796875 0)"/>
     <use xlink:href="#DejaVuSans-74" transform="translate(1022.273438 0)"/>
     <use xlink:href="#DejaVuSans-68" transform="translate(1061.482422 0)"/>
    </g>
   </g>
  </g>
  <g id="text_33">
   <!-- Linear wave, $r = 10^{3}\ \mu m$ -->
   <g transform="translate(330.948 22.488) scale(0.168 -0.168)">
    <defs>
     <path id="DejaVuSans-4c" d="M 628 4666 
L 1259 4666 
L 1259 531 
L 3531 531 
L 3531 0 
L 628 0 
L 628 4666 
z
" transform="scale(0.015625)"/>
     <path id="DejaVuSans-6e" d="M 3513 2113 
L 3513 0 
L 2938 0 
L 2938 2094 
Q 2938 2591 2744 2837 
Q 2550 3084 2163 3084 
Q 1697 3084 1428 2787 
Q 1159 2491 1159 1978 
L 1159 0 
L 581 0 
L 581 3500 
L 1159 3500 
L 1159 2956 
Q 1366 3272 1645 3428 
Q 1925 3584 2291 3584 
Q 2894 3584 3203 3211 
Q 3513 2838 3513 2113 
z
" transform="scale(0.015625)"/>
     <path id="DejaVuSans-77" d="M 269 3500 
L 844 3500 
L 1563 769 
L 2278 3500 
L 2956 3500 
L 3675 769 
L 4391 3500 
L 4966 3500 
L 4050 0 
L 3372 0 
L 2619 2869 
L 1863 0 
L 1184 0 
L 269 3500 
z
" transform="scale(0.015625)"/>
     <path id="DejaVuSans-76" d="M 191 3500 
L 800 3500 
L 1894 563 
L 2988 3500 
L 3597 3500 
L 2284 0 
L 1503 0 
L 191 3500 
z
" transform="scale(0.015625)"/>
     <path id="DejaVuSans-2c" d="M 750 794 
L 1409 794 
L 1409 256 
L 897 -744 
L 494 -744 
L 750 256 
L 750 794 
z
" transform="scale(0.015625)"/>
     <path id="DejaVuSans-Oblique-72" d="M 2853 2969 
Q 2766 3016 2653 3041 
Q 2541 3066 2413 3066 
Q 1953 3066 1609 2717 
Q 1266 2369 1153 1784 
L 800 0 
L 225 0 
L 909 3500 
L 1484 3500 
L 1375 2956 
Q 1603 3259 1920 3421 
Q 2238 3584 2597 3584 
Q 2691 3584 2781 3573 
Q 2872 3563 2963 3538 
L 2853 2969 
z
" transform="scale(0.015625)"/>
     <path id="DejaVuSans-Oblique-3bc" d="M -84 -1331 
L 856 3500 
L 1434 3500 
L 1009 1322 
Q 997 1256 987 1175 
Q 978 1094 978 1013 
Q 978 722 1161 565 
Q 1344 409 1684 409 
Q 2147 409 2431 671 
Q 2716 934 2816 1459 
L 3213 3500 
L 3788 3500 
L 3266 809 
Q 3253 750 3248 706 
Q 3244 663 3244 628 
Q 3244 531 3283 486 
Q 3322 441 3406 441 
Q 3438 441 3492 456 
Q 3547 472 3647 513 
L 3559 50 
Q 3422 -19 3297 -55 
Q 3172 -91 3053 -91 
Q 2847 -91 2730 40 
Q 2613 172 2613 403 
Q 2438 153 2195 31 
Q 1953 -91 1625 -91 
Q 1334 -91 1117 43 
Q 900 178 831 397 
L 494 -1331 
L -84 -1331 
z
" transform="scale(0.015625)"/>
     <path id="DejaVuSans-Oblique-6d" d="M 5747 2113 
L 5338 0 
L 4763 0 
L 5166 2094 
Q 5191 2228 5203 2325 
Q 5216 2422 5216 2491 
Q 5216 2772 5059 2928 
Q 4903 3084 4622 3084 
Q 4203 3084 3875 2770 
Q 3547 2456 3450 1953 
L 3066 0 
L 2491 0 
L 2900 2094 
Q 2925 2209 2937 2307 
Q 2950 2406 2950 2484 
Q 2950 2769 2794 2926 
Q 2638 3084 2363 3084 
Q 1938 3084 1609 2770 
Q 1281 2456 1184 1953 
L 800 0 
L 225 0 
L 909 3500 
L 1484 3500 
L 1375 2956 
Q 1609 3263 1923 3423 
Q 2238 3584 2597 3584 
Q 2978 3584 3223 3384 
Q 3469 3184 3519 2828 
Q 3781 3197 4126 3390 
Q 4472 3584 4856 3584 
Q 5306 3584 5551 3325 
Q 5797 3066 5797 2591 
Q 5797 2488 5784 2364 
Q 5772 2241 5747 2113 
z
" transform="scale(0.015625)"/>
    </defs>
    <use xlink:href="#DejaVuSans-4c" transform="translate(0 0.765625)"/>
    <use xlink:href="#DejaVuSans-69" transform="translate(55.712891 0.765625)"/>
    <use xlink:href="#DejaVuSans-6e" transform="translate(83.496094 0.765625)"/>
    <use xlink:href="#DejaVuSans-65" transform="translate(146.875 0.765625)"/>
    <use xlink:href="#DejaVuSans-61" transform="translate(208.398438 0.765625)"/>
    <use xlink:href="#DejaVuSans-72" transform="translate(269.677734 0.765625)"/>
    <use xlink:href="#DejaVuSans-20" transform="translate(310.791016 0.765625)"/>
    <use xlink:href="#DejaVuSans-77" transform="translate(342.578125 0.765625)"/>
    <use xlink:href="#DejaVuSans-61" transform="translate(424.365234 0.765625)"/>
    <use xlink:href="#DejaVuSans-76" transform="translate(485.644531 0.765625)"/>
    <use xlink:href="#DejaVuSans-65" transform="translate(544.824219 0.765625)"/>
    <use xlink:href="#DejaVuSans-2c" transform="translate(606.347656 0.765625)"/>
    <use xlink:href="#DejaVuSans-20" transform="translate(638.134766 0.765625)"/>
    <use xlink:href="#DejaVuSans-Oblique-72" transform="translate(669.921875 0.765625)"/>
    <use xlink:href="#DejaVuSans-3d" transform="translate(730.517578 0.765625)"/>
    <use xlink:href="#DejaVuSans-31" transform="translate(833.789062 0.765625)"/>
    <use xlink:href="#DejaVuSans-30" transform="translate(897.412109 0.765625)"/>
    <use xlink:href="#DejaVuSans-33" transform="translate(961.992188 39.046875) scale(0.7)"/>
    <use xlink:href="#DejaVuSans-Oblique-3bc" transform="translate(1041.733074 0.765625)"/>
    <use xlink:href="#DejaVuSans-Oblique-6d" transform="translate(1105.356121 0.765625)"/>
   </g>
  </g>
 </g>
 <defs>
  <clipPath id="pa4f1a4393f">
   <rect x="108" y="43.2" width="304.363636" height="277.2"/>
  </clipPath>
  <clipPath id="pb116446f3b">
   <rect x="473.236364" y="43.2" width="304.363636" height="277.2"/>
  </clipPath>
 </defs>
</svg>
