<?xml version="1.0" encoding="utf-8" standalone="no"?>
<!DOCTYPE svg PUBLIC "-//W3C//DTD SVG 1.1//EN"
  "http://www.w3.org/Graphics/SVG/1.1/DTD/svg11.dtd">
<svg xmlns:xlink="http://www.w3.org/1999/xlink" width="576pt" height="432pt" viewBox="0 0 576 432" xmlns="http://www.w3.org/2000/svg" version="1.1">
 <metadata>
  <rdf:RDF xmlns:dc="http://purl.org/dc/elements/1.1/" xmlns:cc="http://creativecommons.org/ns#" xmlns:rdf="http://www.w3.org/1999/02/22-rdf-syntax-ns#">
   <cc:Work>
    <dc:type rdf:resource="http://purl.org/dc/dcmitype/StillImage"/>
    <dc:date>2025-05-13T03:19:33.604667</dc:date>
    <dc:format>image/svg+xml</dc:format>
    <dc:creator>
     <cc:Agent>
      <dc:title>Matplotlib v3.10.3, https://matplotlib.org/</dc:title>
     </cc:Agent>
    </dc:creator>
   </cc:Work>
  </rdf:RDF>
 </metadata>
 <defs>
  <style type="text/css">*{stroke-linejoin: round; stroke-linecap: butt}</style>
 </defs>
 <g id="figure_1">
  <g id="patch_1">
   <path d="M 0 432 
L 576 432 
L 576 0 
L 0 0 
z
" style="fill: #ffffff"/>
  </g>
  <g id="axes_1">
   <g id="patch_2">
    <path d="M 72 384.48 
L 482.688 384.48 
L 482.688 51.84 
L 72 51.84 
z
" style="fill: #ffffff"/>
   </g>
   <g id="QuadContourSet_1">
    <path d="M 426.2184 343.667814 
L 431.352 344.484242 
L 436.4856 345.23541 
L 441.6192 345.927521 
L 446.7528 346.566099 
L 451.8864 347.156075 
L 457.02 347.701853 
L 462.1536 348.207382 
L 467.2872 348.6762 
L 472.4208 349.111491 
L 477.5544 349.516116 
L 482.688 349.892659 
L 482.688 342.9 
L 482.688 342.845143 
L 477.5544 342.407043 
L 472.4208 341.936711 
L 467.2872 341.431227 
L 462.1536 340.887356 
L 457.02 340.30151 
L 451.8864 339.669701 
L 446.7528 338.98749 
L 441.6192 338.249932 
L 436.4856 337.451501 
L 431.352 336.586016 
L 426.2184 335.64655 
L 421.0848 334.625324 
L 420.88087 334.584 
L 415.9512 333.921847 
L 410.8176 333.173184 
L 405.684 332.356928 
L 400.5504 331.465538 
L 395.4168 330.490474 
L 390.2832 329.422037 
L 385.1496 328.249186 
L 380.016 326.959323 
L 377.41741 326.268 
L 374.8824 325.777741 
L 369.7488 324.725054 
L 364.6152 323.562203 
L 359.4816 322.274901 
L 354.348 320.846644 
L 349.2144 319.25831 
L 345.340669 317.952 
L 344.0808 317.621265 
L 338.9472 316.213151 
L 333.8136 314.637787 
L 328.68 312.870475 
L 323.5464 310.882143 
L 320.570541 309.636 
L 318.4128 308.893667 
L 313.2792 307.00581 
L 308.1456 304.86514 
L 303.012 302.429439 
L 300.828931 301.32 
L 297.8784 300.032858 
L 292.7448 297.581494 
L 287.6112 294.764715 
L 284.681236 293.004 
L 282.4776 291.825558 
L 277.344 288.848644 
L 272.2104 285.387459 
L 271.224471 284.688 
L 267.0768 281.983493 
L 261.9432 278.147875 
L 259.759133 276.372 
L 256.8096 274.10867 
L 251.676 269.693579 
L 249.914905 268.056 
L 246.5424 265.023227 
L 241.4088 259.746407 
L 241.402768 259.74 
L 236.2752 254.348206 
L 233.77957 251.424 
L 231.1416 248.310825 
L 227.10579 243.108 
L 226.008 241.65947 
L 221.155609 234.792 
L 220.8744 234.378357 
L 215.779315 226.476 
L 215.7408 226.412987 
L 210.878446 218.16 
L 210.6072 217.667223 
L 206.391054 209.844 
L 205.4736 207.995168 
L 202.283158 201.528 
L 200.34 197.18671 
L 197.29317 193.212 
L 195.2064 190.395057 
L 191.560168 184.896 
L 190.0728 182.532488 
L 186.640814 176.58 
L 184.9392 173.412986 
L 182.347542 168.264 
L 179.8056 162.74183 
L 178.574446 159.948 
L 175.215569 151.632 
L 174.672 150.187331 
L 172.125716 143.316 
L 169.5384 135.335531 
L 169.428965 135 
L 166.830408 126.684 
L 164.584545 118.368 
L 164.4048 117.668935 
L 162.370066 110.052 
L 160.41024 101.736 
L 159.2712 96.408153 
L 158.589397 93.42 
L 156.809511 85.104 
L 155.231357 76.788 
L 154.1376 70.433057 
L 153.765821 68.472 
L 152.262874 60.156 
L 150.915008 51.84 
L 149.004 51.84 
L 143.8704 51.84 
L 139.374332 51.84 
L 140.334286 60.156 
L 141.402386 68.472 
L 142.59438 76.788 
L 143.8704 84.767917 
L 143.916844 85.104 
L 145.108782 93.42 
L 146.45447 101.736 
L 147.979524 110.052 
L 149.004 115.153423 
L 149.58691 118.368 
L 151.215407 126.684 
L 153.088865 135 
L 154.1376 139.251692 
L 155.079017 143.316 
L 157.204553 151.632 
L 159.2712 158.664224 
L 159.637543 159.948 
L 162.176656 168.264 
L 164.4048 174.593508 
L 165.106973 176.58 
L 168.313947 184.896 
L 169.5384 187.777227 
L 171.940209 193.212 
L 174.672 198.775168 
L 176.115898 201.528 
L 179.8056 208.0106 
L 180.951189 209.844 
L 184.9392 215.862015 
L 186.659738 218.16 
L 190.0728 222.556711 
L 193.618427 226.476 
L 195.2064 228.2081 
L 200.34 233.084558 
L 201.300027 234.792 
L 205.4736 241.705465 
L 206.360122 243.108 
L 210.6072 249.481371 
L 211.990692 251.424 
L 215.7408 256.513081 
L 218.33825 259.74 
L 220.8744 262.845258 
L 225.634757 268.056 
L 226.008 268.467162 
L 231.1416 273.856939 
L 233.872839 276.372 
L 236.2752 278.662932 
L 241.4088 283.061207 
L 243.513532 284.688 
L 246.5424 287.185867 
L 251.676 290.944815 
L 254.865691 293.004 
L 256.8096 294.387163 
L 261.9432 297.752954 
L 267.0768 300.601543 
L 268.463348 301.32 
L 272.2104 303.547151 
L 277.344 306.250724 
L 282.4776 308.571423 
L 285.055736 309.636 
L 287.6112 310.902576 
L 292.7448 313.24293 
L 297.8784 315.275187 
L 303.012 317.047228 
L 305.871742 317.952 
L 308.1456 318.865558 
L 313.2792 320.788639 
L 318.4128 322.480561 
L 323.5464 323.97418 
L 328.68 325.297015 
L 332.849169 326.268 
L 333.8136 326.574376 
L 338.9472 328.143265 
L 344.0808 329.541983 
L 349.2144 330.792387 
L 354.348 331.91312 
L 359.4816 332.920141 
L 364.6152 333.827157 
L 369.329565 334.584 
L 369.7488 334.685052 
L 374.8824 335.891497 
L 380.016 336.982921 
L 385.1496 337.972332 
L 390.2832 338.871051 
L 395.4168 339.688957 
L 400.5504 340.434691 
L 405.684 341.115833 
L 410.8176 341.739049 
L 415.9512 342.310212 
L 421.0848 342.83451 
L 421.742325 342.9 
z
" clip-path="url(#pb094d03555)" style="fill: #481668"/>
    <path d="M 421.0848 334.625324 
L 426.2184 335.64655 
L 431.352 336.586016 
L 436.4856 337.451501 
L 441.6192 338.249932 
L 446.7528 338.98749 
L 451.8864 339.669701 
L 457.02 340.30151 
L 462.1536 340.887356 
L 467.2872 341.431227 
L 472.4208 341.936711 
L 477.5544 342.407043 
L 482.688 342.845143 
L 482.688 334.584 
L 482.688 334.513834 
L 477.5544 333.933172 
L 472.4208 333.310096 
L 467.2872 332.640797 
L 462.1536 331.921061 
L 457.02 331.146218 
L 451.8864 330.311084 
L 446.7528 329.409897 
L 441.6192 328.436238 
L 436.4856 327.38295 
L 431.461642 326.268 
L 431.352 326.250435 
L 426.2184 325.413807 
L 421.0848 324.506068 
L 415.9512 323.519771 
L 410.8176 322.44654 
L 405.684 321.276935 
L 400.5504 320.000296 
L 395.4168 318.604557 
L 393.131727 317.952 
L 390.2832 317.324363 
L 385.1496 316.12389 
L 380.016 314.805954 
L 374.8824 313.356358 
L 369.7488 311.758855 
L 364.6152 309.994808 
L 363.606292 309.636 
L 359.4816 308.444074 
L 354.348 306.826156 
L 349.2144 305.029814 
L 344.0808 303.030682 
L 340.063128 301.32 
L 338.9472 300.917877 
L 333.8136 298.988619 
L 328.68 296.827382 
L 323.5464 294.399538 
L 320.80231 293.004 
L 318.4128 291.939156 
L 313.2792 289.484344 
L 308.1456 286.704425 
L 304.746225 284.688 
L 303.012 283.760092 
L 297.8784 280.836413 
L 292.7448 277.494133 
L 291.120204 276.372 
L 287.6112 274.127698 
L 282.4776 270.475502 
L 279.387578 268.056 
L 277.344 266.542012 
L 272.2104 262.427037 
L 269.176516 259.74 
L 267.0768 257.944972 
L 261.9432 253.166881 
L 260.20112 251.424 
L 256.8096 248.086108 
L 252.265674 243.108 
L 251.676 242.463421 
L 246.5424 236.553937 
L 245.115573 234.792 
L 241.4088 230.142332 
L 238.687467 226.476 
L 236.2752 223.13205 
L 232.886764 218.16 
L 231.1416 215.49237 
L 227.602378 209.844 
L 226.008 207.16114 
L 222.759099 201.528 
L 220.8744 198.041213 
L 218.30858 193.212 
L 215.7408 187.993315 
L 214.223924 184.896 
L 210.6072 176.824457 
L 210.496811 176.58 
L 206.90223 168.264 
L 205.4736 164.607083 
L 203.606669 159.948 
L 200.608972 151.632 
L 200.34 150.846213 
L 196.136552 143.316 
L 195.2064 141.536155 
L 191.980775 135 
L 190.0728 130.808217 
L 188.269207 126.684 
L 184.963894 118.368 
L 184.9392 118.303058 
L 181.855855 110.052 
L 179.8056 103.891318 
L 179.088672 101.736 
L 176.483526 93.42 
L 174.672 86.959926 
L 174.1404 85.104 
L 171.879735 76.788 
L 169.877187 68.472 
L 169.5384 66.994372 
L 167.896007 60.156 
L 166.084162 51.84 
L 164.4048 51.84 
L 159.2712 51.84 
L 154.1376 51.84 
L 150.915008 51.84 
L 152.262874 60.156 
L 153.765821 68.472 
L 154.1376 70.433057 
L 155.231357 76.788 
L 156.809511 85.104 
L 158.589397 93.42 
L 159.2712 96.408153 
L 160.41024 101.736 
L 162.370066 110.052 
L 164.4048 117.668935 
L 164.584545 118.368 
L 166.830408 126.684 
L 169.428965 135 
L 169.5384 135.335531 
L 172.125716 143.316 
L 174.672 150.187331 
L 175.215569 151.632 
L 178.574446 159.948 
L 179.8056 162.74183 
L 182.347542 168.264 
L 184.9392 173.412986 
L 186.640814 176.58 
L 190.0728 182.532488 
L 191.560168 184.896 
L 195.2064 190.395057 
L 197.29317 193.212 
L 200.34 197.18671 
L 202.283158 201.528 
L 205.4736 207.995168 
L 206.391054 209.844 
L 210.6072 217.667223 
L 210.878446 218.16 
L 215.7408 226.412987 
L 215.779315 226.476 
L 220.8744 234.378357 
L 221.155609 234.792 
L 226.008 241.65947 
L 227.10579 243.108 
L 231.1416 248.310825 
L 233.77957 251.424 
L 236.2752 254.348206 
L 241.402768 259.74 
L 241.4088 259.746407 
L 246.5424 265.023227 
L 249.914905 268.056 
L 251.676 269.693579 
L 256.8096 274.10867 
L 259.759133 276.372 
L 261.9432 278.147875 
L 267.0768 281.983493 
L 271.224471 284.688 
L 272.2104 285.387459 
L 277.344 288.848644 
L 282.4776 291.825558 
L 284.681236 293.004 
L 287.6112 294.764715 
L 292.7448 297.581494 
L 297.8784 300.032858 
L 300.828931 301.32 
L 303.012 302.429439 
L 308.1456 304.86514 
L 313.2792 307.00581 
L 318.4128 308.893667 
L 320.570541 309.636 
L 323.5464 310.882143 
L 328.68 312.870475 
L 333.8136 314.637787 
L 338.9472 316.213151 
L 344.0808 317.621265 
L 345.340669 317.952 
L 349.2144 319.25831 
L 354.348 320.846644 
L 359.4816 322.274901 
L 364.6152 323.562203 
L 369.7488 324.725054 
L 374.8824 325.777741 
L 377.41741 326.268 
L 380.016 326.959323 
L 385.1496 328.249186 
L 390.2832 329.422037 
L 395.4168 330.490474 
L 400.5504 331.465538 
L 405.684 332.356928 
L 410.8176 333.173184 
L 415.9512 333.921847 
L 420.88087 334.584 
z
" clip-path="url(#pb094d03555)" style="fill: #443983"/>
    <path d="M 436.4856 327.38295 
L 441.6192 328.436238 
L 446.7528 329.409897 
L 451.8864 330.311084 
L 457.02 331.146218 
L 462.1536 331.921061 
L 467.2872 332.640797 
L 472.4208 333.310096 
L 477.5544 333.933172 
L 482.688 334.513834 
L 482.688 326.268 
L 482.688 324.223517 
L 477.5544 323.383959 
L 472.4208 322.483324 
L 467.2872 321.516162 
L 462.1536 320.476451 
L 457.02 319.357516 
L 451.8864 318.151959 
L 451.055064 317.952 
L 446.7528 317.159598 
L 441.6192 316.149013 
L 436.4856 315.057071 
L 431.352 313.875722 
L 426.2184 312.595973 
L 421.0848 311.207752 
L 415.9512 309.699764 
L 415.738107 309.636 
L 410.8176 308.451035 
L 405.684 307.108823 
L 400.5504 305.64537 
L 395.4168 304.047193 
L 390.2832 302.29902 
L 387.564053 301.32 
L 385.1496 300.592292 
L 380.016 298.959369 
L 374.8824 297.165048 
L 369.7488 295.189648 
L 364.6152 293.010623 
L 364.599888 293.004 
L 359.4816 291.087883 
L 354.348 288.961168 
L 349.2144 286.602019 
L 345.382522 284.688 
L 344.0808 284.109943 
L 338.9472 281.727558 
L 333.8136 279.067772 
L 329.126268 276.372 
L 328.68 276.138389 
L 323.5464 273.365692 
L 318.4128 270.247198 
L 315.097844 268.056 
L 313.2792 266.93816 
L 308.1456 263.585736 
L 303.012 259.782794 
L 302.955638 259.74 
L 297.8784 256.082692 
L 292.7448 251.866205 
L 292.225113 251.424 
L 287.6112 247.636795 
L 282.730758 243.108 
L 282.4776 242.87847 
L 277.344 238.059319 
L 274.190993 234.792 
L 272.2104 232.756572 
L 267.0768 227.047937 
L 266.582411 226.476 
L 261.9432 221.074718 
L 259.619526 218.16 
L 256.8096 214.574658 
L 253.325487 209.844 
L 251.676 207.542399 
L 247.577989 201.528 
L 246.5424 199.950568 
L 242.28964 193.212 
L 241.4088 191.749371 
L 237.398797 184.896 
L 236.2752 182.864311 
L 232.863594 176.58 
L 231.1416 173.191887 
L 228.658126 168.264 
L 226.008 162.592878 
L 224.770184 159.948 
L 221.160169 151.632 
L 220.8744 150.93965 
L 217.67745 143.316 
L 215.7408 138.221245 
L 214.484638 135 
L 211.476485 126.684 
L 210.6072 124.108615 
L 208.592592 118.368 
L 205.956672 110.052 
L 205.4736 108.444903 
L 203.349491 101.736 
L 200.984074 93.42 
L 200.34 91.018863 
L 197.853273 85.104 
L 195.2064 78.222493 
L 194.66497 76.788 
L 191.677076 68.472 
L 190.0728 63.59275 
L 188.944155 60.156 
L 186.388837 51.84 
L 184.9392 51.84 
L 179.8056 51.84 
L 174.672 51.84 
L 169.5384 51.84 
L 166.084162 51.84 
L 167.896007 60.156 
L 169.5384 66.994372 
L 169.877187 68.472 
L 171.879735 76.788 
L 174.1404 85.104 
L 174.672 86.959926 
L 176.483526 93.42 
L 179.088672 101.736 
L 179.8056 103.891318 
L 181.855855 110.052 
L 184.9392 118.303058 
L 184.963894 118.368 
L 188.269207 126.684 
L 190.0728 130.808217 
L 191.980775 135 
L 195.2064 141.536155 
L 196.136552 143.316 
L 200.34 150.846213 
L 200.608972 151.632 
L 203.606669 159.948 
L 205.4736 164.607083 
L 206.90223 168.264 
L 210.496811 176.58 
L 210.6072 176.824457 
L 214.223924 184.896 
L 215.7408 187.993315 
L 218.30858 193.212 
L 220.8744 198.041213 
L 222.759099 201.528 
L 226.008 207.16114 
L 227.602378 209.844 
L 231.1416 215.49237 
L 232.886764 218.16 
L 236.2752 223.13205 
L 238.687467 226.476 
L 241.4088 230.142332 
L 245.115573 234.792 
L 246.5424 236.553937 
L 251.676 242.463421 
L 252.265674 243.108 
L 256.8096 248.086108 
L 260.20112 251.424 
L 261.9432 253.166881 
L 267.0768 257.944972 
L 269.176516 259.74 
L 272.2104 262.427037 
L 277.344 266.542012 
L 279.387578 268.056 
L 282.4776 270.475502 
L 287.6112 274.127698 
L 291.120204 276.372 
L 292.7448 277.494133 
L 297.8784 280.836413 
L 303.012 283.760092 
L 304.746225 284.688 
L 308.1456 286.704425 
L 313.2792 289.484344 
L 318.4128 291.939156 
L 320.80231 293.004 
L 323.5464 294.399538 
L 328.68 296.827382 
L 333.8136 298.988619 
L 338.9472 300.917877 
L 340.063128 301.32 
L 344.0808 303.030682 
L 349.2144 305.029814 
L 354.348 306.826156 
L 359.4816 308.444074 
L 363.606292 309.636 
L 364.6152 309.994808 
L 369.7488 311.758855 
L 374.8824 313.356358 
L 380.016 314.805954 
L 385.1496 316.12389 
L 390.2832 317.324363 
L 393.131727 317.952 
L 395.4168 318.604557 
L 400.5504 320.000296 
L 405.684 321.276935 
L 410.8176 322.44654 
L 415.9512 323.519771 
L 421.0848 324.506068 
L 426.2184 325.413807 
L 431.352 326.250435 
L 431.461642 326.268 
z
" clip-path="url(#pb094d03555)" style="fill: #375a8c"/>
    <path d="M 451.8864 318.151959 
L 457.02 319.357516 
L 462.1536 320.476451 
L 467.2872 321.516162 
L 472.4208 322.483324 
L 477.5544 323.383959 
L 482.688 324.223517 
L 482.688 317.952 
L 482.688 310.586174 
L 478.857534 309.636 
L 477.5544 309.378036 
L 472.4208 308.3327 
L 467.2872 307.210946 
L 462.1536 306.005928 
L 457.02 304.710071 
L 451.8864 303.314984 
L 446.7528 301.811354 
L 445.130423 301.32 
L 441.6192 300.43801 
L 436.4856 299.071802 
L 431.352 297.59469 
L 426.2184 295.995621 
L 421.0848 294.262236 
L 417.576922 293.004 
L 415.9512 292.505045 
L 410.8176 290.868391 
L 405.684 289.087642 
L 400.5504 287.147199 
L 395.4168 285.029454 
L 394.611657 284.688 
L 390.2832 283.074383 
L 385.1496 281.002832 
L 380.016 278.731833 
L 375.139467 276.372 
L 374.8824 276.260241 
L 369.7488 273.976589 
L 364.6152 271.460403 
L 359.4816 268.682478 
L 358.364879 268.056 
L 354.348 265.989104 
L 349.2144 263.112125 
L 344.0808 259.916917 
L 343.803393 259.74 
L 338.9472 256.848333 
L 333.8136 253.454271 
L 330.951347 251.424 
L 328.68 249.897252 
L 323.5464 246.21785 
L 319.596046 243.108 
L 318.4128 242.213121 
L 313.2792 238.144991 
L 309.435324 234.792 
L 308.1456 233.697182 
L 303.012 229.110775 
L 300.283036 226.476 
L 297.8784 224.188626 
L 292.7448 218.915463 
L 292.037422 218.16 
L 287.6112 213.446291 
L 284.482061 209.844 
L 282.4776 207.52237 
L 277.639003 201.528 
L 277.344 201.157173 
L 272.2104 194.463608 
L 271.295308 193.212 
L 267.0768 187.289683 
L 265.447342 184.896 
L 261.9432 179.56947 
L 260.046545 176.58 
L 256.8096 171.258683 
L 255.037357 168.264 
L 251.676 162.293394 
L 250.380447 159.948 
L 246.5424 152.587053 
L 246.049732 151.632 
L 241.96494 143.316 
L 241.4088 142.119161 
L 238.095488 135 
L 236.2752 130.779466 
L 234.492129 126.684 
L 231.161216 118.368 
L 231.1416 118.317255 
L 227.880152 110.052 
L 226.008 104.838456 
L 224.861847 101.736 
L 221.98149 93.42 
L 220.8744 89.992771 
L 219.232306 85.104 
L 216.654098 76.788 
L 215.7408 73.651648 
L 214.155987 68.472 
L 211.804262 60.156 
L 210.6072 55.602796 
L 209.556924 51.84 
L 205.4736 51.84 
L 200.34 51.84 
L 195.2064 51.84 
L 190.0728 51.84 
L 186.388837 51.84 
L 188.944155 60.156 
L 190.0728 63.59275 
L 191.677076 68.472 
L 194.66497 76.788 
L 195.2064 78.222493 
L 197.853273 85.104 
L 200.34 91.018863 
L 200.984074 93.42 
L 203.349491 101.736 
L 205.4736 108.444903 
L 205.956672 110.052 
L 208.592592 118.368 
L 210.6072 124.108615 
L 211.476485 126.684 
L 214.484638 135 
L 215.7408 138.221245 
L 217.67745 143.316 
L 220.8744 150.93965 
L 221.160169 151.632 
L 224.770184 159.948 
L 226.008 162.592878 
L 228.658126 168.264 
L 231.1416 173.191887 
L 232.863594 176.58 
L 236.2752 182.864311 
L 237.398797 184.896 
L 241.4088 191.749371 
L 242.28964 193.212 
L 246.5424 199.950568 
L 247.577989 201.528 
L 251.676 207.542399 
L 253.325487 209.844 
L 256.8096 214.574658 
L 259.619526 218.16 
L 261.9432 221.074718 
L 266.582411 226.476 
L 267.0768 227.047937 
L 272.2104 232.756572 
L 274.190993 234.792 
L 277.344 238.059319 
L 282.4776 242.87847 
L 282.730758 243.108 
L 287.6112 247.636795 
L 292.225113 251.424 
L 292.7448 251.866205 
L 297.8784 256.082692 
L 302.955638 259.74 
L 303.012 259.782794 
L 308.1456 263.585736 
L 313.2792 266.93816 
L 315.097844 268.056 
L 318.4128 270.247198 
L 323.5464 273.365692 
L 328.68 276.138389 
L 329.126268 276.372 
L 333.8136 279.067772 
L 338.9472 281.727558 
L 344.0808 284.109943 
L 345.382522 284.688 
L 349.2144 286.602019 
L 354.348 288.961168 
L 359.4816 291.087883 
L 364.599888 293.004 
L 364.6152 293.010623 
L 369.7488 295.189648 
L 374.8824 297.165048 
L 380.016 298.959369 
L 385.1496 300.592292 
L 387.564053 301.32 
L 390.2832 302.29902 
L 395.4168 304.047193 
L 400.5504 305.64537 
L 405.684 307.108823 
L 410.8176 308.451035 
L 415.738107 309.636 
L 415.9512 309.699764 
L 421.0848 311.207752 
L 426.2184 312.595973 
L 431.352 313.875722 
L 436.4856 315.057071 
L 441.6192 316.149013 
L 446.7528 317.159598 
L 451.055064 317.952 
z
" clip-path="url(#pb094d03555)" style="fill: #2b758e"/>
    <path d="M 482.688 310.586174 
L 482.688 309.636 
L 482.688 301.32 
L 482.688 293.270418 
L 481.806886 293.004 
L 477.5544 291.913193 
L 472.4208 290.51511 
L 467.2872 289.015402 
L 462.1536 287.405027 
L 457.02 285.673986 
L 454.226807 284.688 
L 451.8864 283.969273 
L 446.7528 282.324678 
L 441.6192 280.551514 
L 436.4856 278.637462 
L 431.352 276.568799 
L 430.873619 276.372 
L 426.2184 274.668805 
L 421.0848 272.646105 
L 415.9512 270.452239 
L 410.8176 268.069429 
L 410.789131 268.056 
L 405.684 265.873287 
L 400.5504 263.484141 
L 395.4168 260.878623 
L 393.273941 259.74 
L 390.2832 258.276172 
L 385.1496 255.607329 
L 380.016 252.683513 
L 377.907654 251.424 
L 374.8824 249.734503 
L 369.7488 246.677601 
L 364.6152 243.311538 
L 364.311801 243.108 
L 359.4816 240.036788 
L 354.348 236.445816 
L 352.108844 234.792 
L 349.2144 232.742305 
L 344.0808 228.848851 
L 341.157888 226.476 
L 338.9472 224.736605 
L 333.8136 220.447723 
L 331.246535 218.16 
L 328.68 215.920273 
L 323.5464 211.120687 
L 322.240292 209.844 
L 318.4128 206.143928 
L 314.008276 201.528 
L 313.2792 200.766647 
L 308.1456 195.194042 
L 306.418475 193.212 
L 303.012 189.279787 
L 299.439981 184.896 
L 297.8784 182.954973 
L 293.015082 176.58 
L 292.7448 176.218782 
L 287.6112 169.128159 
L 287.00854 168.264 
L 282.4776 161.578306 
L 281.411634 159.948 
L 277.344 153.504878 
L 276.195028 151.632 
L 272.2104 144.862324 
L 271.319763 143.316 
L 267.0768 135.589547 
L 266.757837 135 
L 262.440085 126.684 
L 261.9432 125.678823 
L 258.346112 118.368 
L 256.8096 115.043446 
L 254.498801 110.052 
L 251.676 103.52013 
L 250.898751 101.736 
L 247.450938 93.42 
L 246.5424 91.099023 
L 244.155132 85.104 
L 241.4088 77.606681 
L 241.101806 76.788 
L 238.09281 68.472 
L 236.2752 63.011217 
L 235.293867 60.156 
L 232.584394 51.84 
L 231.1416 51.84 
L 226.008 51.84 
L 220.8744 51.84 
L 215.7408 51.84 
L 210.6072 51.84 
L 209.556924 51.84 
L 210.6072 55.602796 
L 211.804262 60.156 
L 214.155987 68.472 
L 215.7408 73.651648 
L 216.654098 76.788 
L 219.232306 85.104 
L 220.8744 89.992771 
L 221.98149 93.42 
L 224.861847 101.736 
L 226.008 104.838456 
L 227.880152 110.052 
L 231.1416 118.317255 
L 231.161216 118.368 
L 234.492129 126.684 
L 236.2752 130.779466 
L 238.095488 135 
L 241.4088 142.119161 
L 241.96494 143.316 
L 246.049732 151.632 
L 246.5424 152.587053 
L 250.380447 159.948 
L 251.676 162.293394 
L 255.037357 168.264 
L 256.8096 171.258683 
L 260.046545 176.58 
L 261.9432 179.56947 
L 265.447342 184.896 
L 267.0768 187.289683 
L 271.295308 193.212 
L 272.2104 194.463608 
L 277.344 201.157173 
L 277.639003 201.528 
L 282.4776 207.52237 
L 284.482061 209.844 
L 287.6112 213.446291 
L 292.037422 218.16 
L 292.7448 218.915463 
L 297.8784 224.188626 
L 300.283036 226.476 
L 303.012 229.110775 
L 308.1456 233.697182 
L 309.435324 234.792 
L 313.2792 238.144991 
L 318.4128 242.213121 
L 319.596046 243.108 
L 323.5464 246.21785 
L 328.68 249.897252 
L 330.951347 251.424 
L 333.8136 253.454271 
L 338.9472 256.848333 
L 343.803393 259.74 
L 344.0808 259.916917 
L 349.2144 263.112125 
L 354.348 265.989104 
L 358.364879 268.056 
L 359.4816 268.682478 
L 364.6152 271.460403 
L 369.7488 273.976589 
L 374.8824 276.260241 
L 375.139467 276.372 
L 380.016 278.731833 
L 385.1496 281.002832 
L 390.2832 283.074383 
L 394.611657 284.688 
L 395.4168 285.029454 
L 400.5504 287.147199 
L 405.684 289.087642 
L 410.8176 290.868391 
L 415.9512 292.505045 
L 417.576922 293.004 
L 421.0848 294.262236 
L 426.2184 295.995621 
L 431.352 297.59469 
L 436.4856 299.071802 
L 441.6192 300.43801 
L 445.130423 301.32 
L 446.7528 301.811354 
L 451.8864 303.314984 
L 457.02 304.710071 
L 462.1536 306.005928 
L 467.2872 307.210946 
L 472.4208 308.3327 
L 477.5544 309.378036 
L 478.857534 309.636 
z
" clip-path="url(#pb094d03555)" style="fill: #21918c"/>
    <path d="M 482.688 293.270418 
L 482.688 293.004 
L 482.688 284.688 
L 482.688 276.372 
L 482.688 271.259715 
L 477.5544 269.348799 
L 474.246518 268.056 
L 472.4208 267.41603 
L 467.2872 265.554046 
L 462.1536 263.555628 
L 457.02 261.408545 
L 453.250826 259.74 
L 451.8864 259.189696 
L 446.7528 257.054481 
L 441.6192 254.753369 
L 436.4856 252.270575 
L 434.794996 251.424 
L 431.352 249.830555 
L 426.2184 247.312687 
L 421.0848 244.586546 
L 418.432546 243.108 
L 415.9512 241.813629 
L 410.8176 239.002256 
L 405.684 235.946606 
L 403.820995 234.792 
L 400.5504 232.873367 
L 395.4168 229.670359 
L 390.698405 226.476 
L 390.2832 226.207336 
L 385.1496 222.805359 
L 380.016 219.080748 
L 378.790235 218.16 
L 374.8824 215.325301 
L 369.7488 211.30544 
L 367.9633 209.844 
L 364.6152 207.174607 
L 359.4816 202.780264 
L 358.076088 201.528 
L 354.348 198.265616 
L 349.2144 193.400299 
L 349.020102 193.212 
L 344.0808 188.472684 
L 340.617657 184.896 
L 338.9472 183.177451 
L 333.8136 177.622554 
L 332.884201 176.58 
L 328.68 171.846236 
L 325.676714 168.264 
L 323.5464 165.699141 
L 319.006894 159.948 
L 318.4128 159.184151 
L 313.2792 152.348022 
L 312.758262 151.632 
L 308.1456 145.149643 
L 306.88794 143.316 
L 303.012 137.507937 
L 301.389197 135 
L 297.8784 129.394936 
L 296.22249 126.684 
L 292.7448 120.77258 
L 291.357562 118.368 
L 287.6112 111.591636 
L 286.771915 110.052 
L 282.4776 101.790127 
L 282.449711 101.736 
L 278.293978 93.42 
L 277.344 91.413664 
L 274.358617 85.104 
L 272.2104 80.285434 
L 270.644354 76.788 
L 267.147281 68.472 
L 267.0768 68.299137 
L 263.717455 60.156 
L 261.9432 55.538006 
L 260.498436 51.84 
L 256.8096 51.84 
L 251.676 51.84 
L 246.5424 51.84 
L 241.4088 51.84 
L 236.2752 51.84 
L 232.584394 51.84 
L 235.293867 60.156 
L 236.2752 63.011217 
L 238.09281 68.472 
L 241.101806 76.788 
L 241.4088 77.606681 
L 244.155132 85.104 
L 246.5424 91.099023 
L 247.450938 93.42 
L 250.898751 101.736 
L 251.676 103.52013 
L 254.498801 110.052 
L 256.8096 115.043446 
L 258.346112 118.368 
L 261.9432 125.678823 
L 262.440085 126.684 
L 266.757837 135 
L 267.0768 135.589547 
L 271.319763 143.316 
L 272.2104 144.862324 
L 276.195028 151.632 
L 277.344 153.504878 
L 281.411634 159.948 
L 282.4776 161.578306 
L 287.00854 168.264 
L 287.6112 169.128159 
L 292.7448 176.218782 
L 293.015082 176.58 
L 297.8784 182.954973 
L 299.439981 184.896 
L 303.012 189.279787 
L 306.418475 193.212 
L 308.1456 195.194042 
L 313.2792 200.766647 
L 314.008276 201.528 
L 318.4128 206.143928 
L 322.240292 209.844 
L 323.5464 211.120687 
L 328.68 215.920273 
L 331.246535 218.16 
L 333.8136 220.447723 
L 338.9472 224.736605 
L 341.157888 226.476 
L 344.0808 228.848851 
L 349.2144 232.742305 
L 352.108844 234.792 
L 354.348 236.445816 
L 359.4816 240.036788 
L 364.311801 243.108 
L 364.6152 243.311538 
L 369.7488 246.677601 
L 374.8824 249.734503 
L 377.907654 251.424 
L 380.016 252.683513 
L 385.1496 255.607329 
L 390.2832 258.276172 
L 393.273941 259.74 
L 395.4168 260.878623 
L 400.5504 263.484141 
L 405.684 265.873287 
L 410.789131 268.056 
L 410.8176 268.069429 
L 415.9512 270.452239 
L 421.0848 272.646105 
L 426.2184 274.668805 
L 430.873619 276.372 
L 431.352 276.568799 
L 436.4856 278.637462 
L 441.6192 280.551514 
L 446.7528 282.324678 
L 451.8864 283.969273 
L 454.226807 284.688 
L 457.02 285.673986 
L 462.1536 287.405027 
L 467.2872 289.015402 
L 472.4208 290.51511 
L 477.5544 291.913193 
L 481.806886 293.004 
z
" clip-path="url(#pb094d03555)" style="fill: #25ab82"/>
    <path d="M 477.5544 269.348799 
L 482.688 271.259715 
L 482.688 268.056 
L 482.688 259.74 
L 482.688 251.424 
L 482.688 243.108 
L 482.688 242.525785 
L 477.5544 240.253772 
L 472.4208 237.820753 
L 467.2872 235.212786 
L 466.477088 234.792 
L 462.1536 232.688693 
L 457.02 230.030136 
L 451.8864 227.17208 
L 450.670301 226.476 
L 446.7528 224.35532 
L 441.6192 221.402586 
L 436.4856 218.218125 
L 436.393352 218.16 
L 431.352 215.128228 
L 426.2184 211.794826 
L 423.360924 209.844 
L 421.0848 208.349333 
L 415.9512 204.822847 
L 411.49071 201.528 
L 410.8176 201.046255 
L 405.684 197.276824 
L 400.592116 193.212 
L 400.5504 193.17951 
L 395.4168 189.109311 
L 390.528539 184.896 
L 390.2832 184.688317 
L 385.1496 180.248815 
L 381.204484 176.58 
L 380.016 175.487522 
L 374.8824 170.595958 
L 372.557115 168.264 
L 369.7488 165.462647 
L 364.6152 160.01745 
L 364.550963 159.948 
L 359.4816 154.46258 
L 357.006684 151.632 
L 354.348 148.574666 
L 349.997265 143.316 
L 349.2144 142.360385 
L 344.0808 135.879072 
L 343.405334 135 
L 338.9472 129.105422 
L 337.184372 126.684 
L 333.8136 121.960007 
L 331.334271 118.368 
L 328.68 114.428249 
L 325.814382 110.052 
L 323.5464 106.489011 
L 320.592246 101.736 
L 318.4128 98.114219 
L 315.642205 93.42 
L 313.2792 89.268247 
L 310.944352 85.104 
L 308.1456 79.907043 
L 306.483741 76.788 
L 303.012 69.976963 
L 302.249816 68.472 
L 298.209121 60.156 
L 297.8784 59.450894 
L 294.308915 51.84 
L 292.7448 51.84 
L 287.6112 51.84 
L 282.4776 51.84 
L 277.344 51.84 
L 272.2104 51.84 
L 267.0768 51.84 
L 261.9432 51.84 
L 260.498436 51.84 
L 261.9432 55.538006 
L 263.717455 60.156 
L 267.0768 68.299137 
L 267.147281 68.472 
L 270.644354 76.788 
L 272.2104 80.285434 
L 274.358617 85.104 
L 277.344 91.413664 
L 278.293978 93.42 
L 282.449711 101.736 
L 282.4776 101.790127 
L 286.771915 110.052 
L 287.6112 111.591636 
L 291.357562 118.368 
L 292.7448 120.77258 
L 296.22249 126.684 
L 297.8784 129.394936 
L 301.389197 135 
L 303.012 137.507937 
L 306.88794 143.316 
L 308.1456 145.149643 
L 312.758262 151.632 
L 313.2792 152.348022 
L 318.4128 159.184151 
L 319.006894 159.948 
L 323.5464 165.699141 
L 325.676714 168.264 
L 328.68 171.846236 
L 332.884201 176.58 
L 333.8136 177.622554 
L 338.9472 183.177451 
L 340.617657 184.896 
L 344.0808 188.472684 
L 349.020102 193.212 
L 349.2144 193.400299 
L 354.348 198.265616 
L 358.076088 201.528 
L 359.4816 202.780264 
L 364.6152 207.174607 
L 367.9633 209.844 
L 369.7488 211.30544 
L 374.8824 215.325301 
L 378.790235 218.16 
L 380.016 219.080748 
L 385.1496 222.805359 
L 390.2832 226.207336 
L 390.698405 226.476 
L 395.4168 229.670359 
L 400.5504 232.873367 
L 403.820995 234.792 
L 405.684 235.946606 
L 410.8176 239.002256 
L 415.9512 241.813629 
L 418.432546 243.108 
L 421.0848 244.586546 
L 426.2184 247.312687 
L 431.352 249.830555 
L 434.794996 251.424 
L 436.4856 252.270575 
L 441.6192 254.753369 
L 446.7528 257.054481 
L 451.8864 259.189696 
L 453.250826 259.74 
L 457.02 261.408545 
L 462.1536 263.555628 
L 467.2872 265.554046 
L 472.4208 267.41603 
L 474.246518 268.056 
z
" clip-path="url(#pb094d03555)" style="fill: #4ec36b"/>
    <path d="M 467.2872 235.212786 
L 472.4208 237.820753 
L 477.5544 240.253772 
L 482.688 242.525785 
L 482.688 234.792 
L 482.688 226.476 
L 482.688 218.16 
L 482.688 209.844 
L 482.688 205.493672 
L 477.5544 202.384541 
L 476.178508 201.528 
L 472.4208 199.284309 
L 467.2872 196.047179 
L 463.052334 193.212 
L 462.1536 192.631289 
L 457.02 189.232142 
L 451.8864 185.579306 
L 450.949288 184.896 
L 446.7528 181.922905 
L 441.6192 178.047394 
L 439.744372 176.58 
L 436.4856 174.087713 
L 431.352 169.941869 
L 429.353174 168.264 
L 426.2184 165.678698 
L 421.0848 161.207192 
L 419.685212 159.948 
L 415.9512 156.630002 
L 410.8176 151.767582 
L 410.676924 151.632 
L 405.684 146.85478 
L 402.199572 143.316 
L 400.5504 141.646693 
L 395.4168 136.240874 
L 394.275016 135 
L 390.2832 130.654913 
L 386.810192 126.684 
L 385.1496 124.775372 
L 380.016 118.623071 
L 379.807398 118.368 
L 374.8824 112.285025 
L 373.144394 110.052 
L 369.7488 105.629812 
L 366.862676 101.736 
L 364.6152 98.652046 
L 360.919911 93.42 
L 359.4816 91.341876 
L 355.281319 85.104 
L 354.348 83.684935 
L 349.918393 76.788 
L 349.2144 75.662171 
L 344.807892 68.472 
L 344.0808 67.249544 
L 339.931061 60.156 
L 338.9472 58.417585 
L 335.273021 51.84 
L 333.8136 51.84 
L 328.68 51.84 
L 323.5464 51.84 
L 318.4128 51.84 
L 313.2792 51.84 
L 308.1456 51.84 
L 303.012 51.84 
L 297.8784 51.84 
L 294.308915 51.84 
L 297.8784 59.450894 
L 298.209121 60.156 
L 302.249816 68.472 
L 303.012 69.976963 
L 306.483741 76.788 
L 308.1456 79.907043 
L 310.944352 85.104 
L 313.2792 89.268247 
L 315.642205 93.42 
L 318.4128 98.114219 
L 320.592246 101.736 
L 323.5464 106.489011 
L 325.814382 110.052 
L 328.68 114.428249 
L 331.334271 118.368 
L 333.8136 121.960007 
L 337.184372 126.684 
L 338.9472 129.105422 
L 343.405334 135 
L 344.0808 135.879072 
L 349.2144 142.360385 
L 349.997265 143.316 
L 354.348 148.574666 
L 357.006684 151.632 
L 359.4816 154.46258 
L 364.550963 159.948 
L 364.6152 160.01745 
L 369.7488 165.462647 
L 372.557115 168.264 
L 374.8824 170.595958 
L 380.016 175.487522 
L 381.204484 176.58 
L 385.1496 180.248815 
L 390.2832 184.688317 
L 390.528539 184.896 
L 395.4168 189.109311 
L 400.5504 193.17951 
L 400.592116 193.212 
L 405.684 197.276824 
L 410.8176 201.046255 
L 411.49071 201.528 
L 415.9512 204.822847 
L 421.0848 208.349333 
L 423.360924 209.844 
L 426.2184 211.794826 
L 431.352 215.128228 
L 436.393352 218.16 
L 436.4856 218.218125 
L 441.6192 221.402586 
L 446.7528 224.35532 
L 450.670301 226.476 
L 451.8864 227.17208 
L 457.02 230.030136 
L 462.1536 232.688693 
L 466.477088 234.792 
z
" clip-path="url(#pb094d03555)" style="fill: #90d743"/>
    <path d="M 477.5544 202.384541 
L 482.688 205.493672 
L 482.688 201.528 
L 482.688 193.212 
L 482.688 184.896 
L 482.688 176.58 
L 482.688 168.264 
L 482.688 159.948 
L 482.688 157.140727 
L 477.5544 153.167312 
L 475.63547 151.632 
L 472.4208 149.107351 
L 467.2872 144.874917 
L 465.45784 143.316 
L 462.1536 140.54015 
L 457.02 136.002161 
L 455.915269 135 
L 451.8864 131.38185 
L 446.950732 126.684 
L 446.7528 126.496884 
L 441.6192 121.559459 
L 438.465946 118.368 
L 436.4856 116.369311 
L 431.352 110.981319 
L 430.488332 110.052 
L 426.2184 105.45233 
L 422.919927 101.736 
L 421.0848 99.659958 
L 415.9512 93.62027 
L 415.783911 93.42 
L 410.8176 87.427187 
L 408.962281 85.104 
L 405.684 80.954647 
L 402.500911 76.788 
L 400.5504 74.200114 
L 396.362225 68.472 
L 395.4168 67.157871 
L 390.514709 60.156 
L 390.2832 59.819047 
L 385.1496 52.188423 
L 384.919831 51.84 
L 380.016 51.84 
L 374.8824 51.84 
L 369.7488 51.84 
L 364.6152 51.84 
L 359.4816 51.84 
L 354.348 51.84 
L 349.2144 51.84 
L 344.0808 51.84 
L 338.9472 51.84 
L 335.273021 51.84 
L 338.9472 58.417585 
L 339.931061 60.156 
L 344.0808 67.249544 
L 344.807892 68.472 
L 349.2144 75.662171 
L 349.918393 76.788 
L 354.348 83.684935 
L 355.281319 85.104 
L 359.4816 91.341876 
L 360.919911 93.42 
L 364.6152 98.652046 
L 366.862676 101.736 
L 369.7488 105.629812 
L 373.144394 110.052 
L 374.8824 112.285025 
L 379.807398 118.368 
L 380.016 118.623071 
L 385.1496 124.775372 
L 386.810192 126.684 
L 390.2832 130.654913 
L 394.275016 135 
L 395.4168 136.240874 
L 400.5504 141.646693 
L 402.199572 143.316 
L 405.684 146.85478 
L 410.676924 151.632 
L 410.8176 151.767582 
L 415.9512 156.630002 
L 419.685212 159.948 
L 421.0848 161.207192 
L 426.2184 165.678698 
L 429.353174 168.264 
L 431.352 169.941869 
L 436.4856 174.087713 
L 439.744372 176.58 
L 441.6192 178.047394 
L 446.7528 181.922905 
L 450.949288 184.896 
L 451.8864 185.579306 
L 457.02 189.232142 
L 462.1536 192.631289 
L 463.052334 193.212 
L 467.2872 196.047179 
L 472.4208 199.284309 
L 476.178508 201.528 
z
" clip-path="url(#pb094d03555)" style="fill: #dae319"/>
   </g>
   <g id="matplotlib.axis_1">
    <g id="xtick_1">
     <g id="line2d_1">
      <path d="M 72 384.48 
L 72 51.84 
" clip-path="url(#pb094d03555)" style="fill: none; stroke: #b0b0b0; stroke-width: 0.8; stroke-linecap: square"/>
     </g>
     <g id="line2d_2">
      <defs>
       <path id="mb10bdcfe24" d="M 0 0 
L 0 3.5 
" style="stroke: #000000; stroke-width: 0.8"/>
      </defs>
      <g>
       <use xlink:href="#mb10bdcfe24" x="72" y="384.48" style="stroke: #000000; stroke-width: 0.8"/>
      </g>
     </g>
     <g id="text_1">
      <!-- 0 -->
      <g transform="translate(67.54625 402.117813) scale(0.14 -0.14)">
       <defs>
        <path id="DejaVuSans-30" d="M 2034 4250 
Q 1547 4250 1301 3770 
Q 1056 3291 1056 2328 
Q 1056 1369 1301 889 
Q 1547 409 2034 409 
Q 2525 409 2770 889 
Q 3016 1369 3016 2328 
Q 3016 3291 2770 3770 
Q 2525 4250 2034 4250 
z
M 2034 4750 
Q 2819 4750 3233 4129 
Q 3647 3509 3647 2328 
Q 3647 1150 3233 529 
Q 2819 -91 2034 -91 
Q 1250 -91 836 529 
Q 422 1150 422 2328 
Q 422 3509 836 4129 
Q 1250 4750 2034 4750 
z
" transform="scale(0.015625)"/>
       </defs>
       <use xlink:href="#DejaVuSans-30"/>
      </g>
     </g>
    </g>
    <g id="xtick_2">
     <g id="line2d_3">
      <path d="M 123.336 384.48 
L 123.336 51.84 
" clip-path="url(#pb094d03555)" style="fill: none; stroke: #b0b0b0; stroke-width: 0.8; stroke-linecap: square"/>
     </g>
     <g id="line2d_4">
      <g>
       <use xlink:href="#mb10bdcfe24" x="123.336" y="384.48" style="stroke: #000000; stroke-width: 0.8"/>
      </g>
     </g>
     <g id="text_2">
      <!-- 10 -->
      <g transform="translate(114.4285 402.117813) scale(0.14 -0.14)">
       <defs>
        <path id="DejaVuSans-31" d="M 794 531 
L 1825 531 
L 1825 4091 
L 703 3866 
L 703 4441 
L 1819 4666 
L 2450 4666 
L 2450 531 
L 3481 531 
L 3481 0 
L 794 0 
L 794 531 
z
" transform="scale(0.015625)"/>
       </defs>
       <use xlink:href="#DejaVuSans-31"/>
       <use xlink:href="#DejaVuSans-30" transform="translate(63.623047 0)"/>
      </g>
     </g>
    </g>
    <g id="xtick_3">
     <g id="line2d_5">
      <path d="M 174.672 384.48 
L 174.672 51.84 
" clip-path="url(#pb094d03555)" style="fill: none; stroke: #b0b0b0; stroke-width: 0.8; stroke-linecap: square"/>
     </g>
     <g id="line2d_6">
      <g>
       <use xlink:href="#mb10bdcfe24" x="174.672" y="384.48" style="stroke: #000000; stroke-width: 0.8"/>
      </g>
     </g>
     <g id="text_3">
      <!-- 20 -->
      <g transform="translate(165.7645 402.117813) scale(0.14 -0.14)">
       <defs>
        <path id="DejaVuSans-32" d="M 1228 531 
L 3431 531 
L 3431 0 
L 469 0 
L 469 531 
Q 828 903 1448 1529 
Q 2069 2156 2228 2338 
Q 2531 2678 2651 2914 
Q 2772 3150 2772 3378 
Q 2772 3750 2511 3984 
Q 2250 4219 1831 4219 
Q 1534 4219 1204 4116 
Q 875 4013 500 3803 
L 500 4441 
Q 881 4594 1212 4672 
Q 1544 4750 1819 4750 
Q 2544 4750 2975 4387 
Q 3406 4025 3406 3419 
Q 3406 3131 3298 2873 
Q 3191 2616 2906 2266 
Q 2828 2175 2409 1742 
Q 1991 1309 1228 531 
z
" transform="scale(0.015625)"/>
       </defs>
       <use xlink:href="#DejaVuSans-32"/>
       <use xlink:href="#DejaVuSans-30" transform="translate(63.623047 0)"/>
      </g>
     </g>
    </g>
    <g id="xtick_4">
     <g id="line2d_7">
      <path d="M 226.008 384.48 
L 226.008 51.84 
" clip-path="url(#pb094d03555)" style="fill: none; stroke: #b0b0b0; stroke-width: 0.8; stroke-linecap: square"/>
     </g>
     <g id="line2d_8">
      <g>
       <use xlink:href="#mb10bdcfe24" x="226.008" y="384.48" style="stroke: #000000; stroke-width: 0.8"/>
      </g>
     </g>
     <g id="text_4">
      <!-- 30 -->
      <g transform="translate(217.1005 402.117813) scale(0.14 -0.14)">
       <defs>
        <path id="DejaVuSans-33" d="M 2597 2516 
Q 3050 2419 3304 2112 
Q 3559 1806 3559 1356 
Q 3559 666 3084 287 
Q 2609 -91 1734 -91 
Q 1441 -91 1130 -33 
Q 819 25 488 141 
L 488 750 
Q 750 597 1062 519 
Q 1375 441 1716 441 
Q 2309 441 2620 675 
Q 2931 909 2931 1356 
Q 2931 1769 2642 2001 
Q 2353 2234 1838 2234 
L 1294 2234 
L 1294 2753 
L 1863 2753 
Q 2328 2753 2575 2939 
Q 2822 3125 2822 3475 
Q 2822 3834 2567 4026 
Q 2313 4219 1838 4219 
Q 1578 4219 1281 4162 
Q 984 4106 628 3988 
L 628 4550 
Q 988 4650 1302 4700 
Q 1616 4750 1894 4750 
Q 2613 4750 3031 4423 
Q 3450 4097 3450 3541 
Q 3450 3153 3228 2886 
Q 3006 2619 2597 2516 
z
" transform="scale(0.015625)"/>
       </defs>
       <use xlink:href="#DejaVuSans-33"/>
       <use xlink:href="#DejaVuSans-30" transform="translate(63.623047 0)"/>
      </g>
     </g>
    </g>
    <g id="xtick_5">
     <g id="line2d_9">
      <path d="M 277.344 384.48 
L 277.344 51.84 
" clip-path="url(#pb094d03555)" style="fill: none; stroke: #b0b0b0; stroke-width: 0.8; stroke-linecap: square"/>
     </g>
     <g id="line2d_10">
      <g>
       <use xlink:href="#mb10bdcfe24" x="277.344" y="384.48" style="stroke: #000000; stroke-width: 0.8"/>
      </g>
     </g>
     <g id="text_5">
      <!-- 40 -->
      <g transform="translate(268.4365 402.117813) scale(0.14 -0.14)">
       <defs>
        <path id="DejaVuSans-34" d="M 2419 4116 
L 825 1625 
L 2419 1625 
L 2419 4116 
z
M 2253 4666 
L 3047 4666 
L 3047 1625 
L 3713 1625 
L 3713 1100 
L 3047 1100 
L 3047 0 
L 2419 0 
L 2419 1100 
L 313 1100 
L 313 1709 
L 2253 4666 
z
" transform="scale(0.015625)"/>
       </defs>
       <use xlink:href="#DejaVuSans-34"/>
       <use xlink:href="#DejaVuSans-30" transform="translate(63.623047 0)"/>
      </g>
     </g>
    </g>
    <g id="xtick_6">
     <g id="line2d_11">
      <path d="M 328.68 384.48 
L 328.68 51.84 
" clip-path="url(#pb094d03555)" style="fill: none; stroke: #b0b0b0; stroke-width: 0.8; stroke-linecap: square"/>
     </g>
     <g id="line2d_12">
      <g>
       <use xlink:href="#mb10bdcfe24" x="328.68" y="384.48" style="stroke: #000000; stroke-width: 0.8"/>
      </g>
     </g>
     <g id="text_6">
      <!-- 50 -->
      <g transform="translate(319.7725 402.117813) scale(0.14 -0.14)">
       <defs>
        <path id="DejaVuSans-35" d="M 691 4666 
L 3169 4666 
L 3169 4134 
L 1269 4134 
L 1269 2991 
Q 1406 3038 1543 3061 
Q 1681 3084 1819 3084 
Q 2600 3084 3056 2656 
Q 3513 2228 3513 1497 
Q 3513 744 3044 326 
Q 2575 -91 1722 -91 
Q 1428 -91 1123 -41 
Q 819 9 494 109 
L 494 744 
Q 775 591 1075 516 
Q 1375 441 1709 441 
Q 2250 441 2565 725 
Q 2881 1009 2881 1497 
Q 2881 1984 2565 2268 
Q 2250 2553 1709 2553 
Q 1456 2553 1204 2497 
Q 953 2441 691 2322 
L 691 4666 
z
" transform="scale(0.015625)"/>
       </defs>
       <use xlink:href="#DejaVuSans-35"/>
       <use xlink:href="#DejaVuSans-30" transform="translate(63.623047 0)"/>
      </g>
     </g>
    </g>
    <g id="xtick_7">
     <g id="line2d_13">
      <path d="M 380.016 384.48 
L 380.016 51.84 
" clip-path="url(#pb094d03555)" style="fill: none; stroke: #b0b0b0; stroke-width: 0.8; stroke-linecap: square"/>
     </g>
     <g id="line2d_14">
      <g>
       <use xlink:href="#mb10bdcfe24" x="380.016" y="384.48" style="stroke: #000000; stroke-width: 0.8"/>
      </g>
     </g>
     <g id="text_7">
      <!-- 60 -->
      <g transform="translate(371.1085 402.117813) scale(0.14 -0.14)">
       <defs>
        <path id="DejaVuSans-36" d="M 2113 2584 
Q 1688 2584 1439 2293 
Q 1191 2003 1191 1497 
Q 1191 994 1439 701 
Q 1688 409 2113 409 
Q 2538 409 2786 701 
Q 3034 994 3034 1497 
Q 3034 2003 2786 2293 
Q 2538 2584 2113 2584 
z
M 3366 4563 
L 3366 3988 
Q 3128 4100 2886 4159 
Q 2644 4219 2406 4219 
Q 1781 4219 1451 3797 
Q 1122 3375 1075 2522 
Q 1259 2794 1537 2939 
Q 1816 3084 2150 3084 
Q 2853 3084 3261 2657 
Q 3669 2231 3669 1497 
Q 3669 778 3244 343 
Q 2819 -91 2113 -91 
Q 1303 -91 875 529 
Q 447 1150 447 2328 
Q 447 3434 972 4092 
Q 1497 4750 2381 4750 
Q 2619 4750 2861 4703 
Q 3103 4656 3366 4563 
z
" transform="scale(0.015625)"/>
       </defs>
       <use xlink:href="#DejaVuSans-36"/>
       <use xlink:href="#DejaVuSans-30" transform="translate(63.623047 0)"/>
      </g>
     </g>
    </g>
    <g id="xtick_8">
     <g id="line2d_15">
      <path d="M 431.352 384.48 
L 431.352 51.84 
" clip-path="url(#pb094d03555)" style="fill: none; stroke: #b0b0b0; stroke-width: 0.8; stroke-linecap: square"/>
     </g>
     <g id="line2d_16">
      <g>
       <use xlink:href="#mb10bdcfe24" x="431.352" y="384.48" style="stroke: #000000; stroke-width: 0.8"/>
      </g>
     </g>
     <g id="text_8">
      <!-- 70 -->
      <g transform="translate(422.4445 402.117813) scale(0.14 -0.14)">
       <defs>
        <path id="DejaVuSans-37" d="M 525 4666 
L 3525 4666 
L 3525 4397 
L 1831 0 
L 1172 0 
L 2766 4134 
L 525 4134 
L 525 4666 
z
" transform="scale(0.015625)"/>
       </defs>
       <use xlink:href="#DejaVuSans-37"/>
       <use xlink:href="#DejaVuSans-30" transform="translate(63.623047 0)"/>
      </g>
     </g>
    </g>
    <g id="xtick_9">
     <g id="line2d_17">
      <path d="M 482.688 384.48 
L 482.688 51.84 
" clip-path="url(#pb094d03555)" style="fill: none; stroke: #b0b0b0; stroke-width: 0.8; stroke-linecap: square"/>
     </g>
     <g id="line2d_18">
      <g>
       <use xlink:href="#mb10bdcfe24" x="482.688" y="384.48" style="stroke: #000000; stroke-width: 0.8"/>
      </g>
     </g>
     <g id="text_9">
      <!-- 80 -->
      <g transform="translate(473.7805 402.117813) scale(0.14 -0.14)">
       <defs>
        <path id="DejaVuSans-38" d="M 2034 2216 
Q 1584 2216 1326 1975 
Q 1069 1734 1069 1313 
Q 1069 891 1326 650 
Q 1584 409 2034 409 
Q 2484 409 2743 651 
Q 3003 894 3003 1313 
Q 3003 1734 2745 1975 
Q 2488 2216 2034 2216 
z
M 1403 2484 
Q 997 2584 770 2862 
Q 544 3141 544 3541 
Q 544 4100 942 4425 
Q 1341 4750 2034 4750 
Q 2731 4750 3128 4425 
Q 3525 4100 3525 3541 
Q 3525 3141 3298 2862 
Q 3072 2584 2669 2484 
Q 3125 2378 3379 2068 
Q 3634 1759 3634 1313 
Q 3634 634 3220 271 
Q 2806 -91 2034 -91 
Q 1263 -91 848 271 
Q 434 634 434 1313 
Q 434 1759 690 2068 
Q 947 2378 1403 2484 
z
M 1172 3481 
Q 1172 3119 1398 2916 
Q 1625 2713 2034 2713 
Q 2441 2713 2670 2916 
Q 2900 3119 2900 3481 
Q 2900 3844 2670 4047 
Q 2441 4250 2034 4250 
Q 1625 4250 1398 4047 
Q 1172 3844 1172 3481 
z
" transform="scale(0.015625)"/>
       </defs>
       <use xlink:href="#DejaVuSans-38"/>
       <use xlink:href="#DejaVuSans-30" transform="translate(63.623047 0)"/>
      </g>
     </g>
    </g>
    <g id="text_10">
     <!-- U$_{10}$ [m/s] -->
     <g transform="translate(245.214 419.667188) scale(0.14 -0.14)">
      <defs>
       <path id="DejaVuSans-55" d="M 556 4666 
L 1191 4666 
L 1191 1831 
Q 1191 1081 1462 751 
Q 1734 422 2344 422 
Q 2950 422 3222 751 
Q 3494 1081 3494 1831 
L 3494 4666 
L 4128 4666 
L 4128 1753 
Q 4128 841 3676 375 
Q 3225 -91 2344 -91 
Q 1459 -91 1007 375 
Q 556 841 556 1753 
L 556 4666 
z
" transform="scale(0.015625)"/>
       <path id="DejaVuSans-20" transform="scale(0.015625)"/>
       <path id="DejaVuSans-5b" d="M 550 4863 
L 1875 4863 
L 1875 4416 
L 1125 4416 
L 1125 -397 
L 1875 -397 
L 1875 -844 
L 550 -844 
L 550 4863 
z
" transform="scale(0.015625)"/>
       <path id="DejaVuSans-6d" d="M 3328 2828 
Q 3544 3216 3844 3400 
Q 4144 3584 4550 3584 
Q 5097 3584 5394 3201 
Q 5691 2819 5691 2113 
L 5691 0 
L 5113 0 
L 5113 2094 
Q 5113 2597 4934 2840 
Q 4756 3084 4391 3084 
Q 3944 3084 3684 2787 
Q 3425 2491 3425 1978 
L 3425 0 
L 2847 0 
L 2847 2094 
Q 2847 2600 2669 2842 
Q 2491 3084 2119 3084 
Q 1678 3084 1418 2786 
Q 1159 2488 1159 1978 
L 1159 0 
L 581 0 
L 581 3500 
L 1159 3500 
L 1159 2956 
Q 1356 3278 1631 3431 
Q 1906 3584 2284 3584 
Q 2666 3584 2933 3390 
Q 3200 3197 3328 2828 
z
" transform="scale(0.015625)"/>
       <path id="DejaVuSans-2f" d="M 1625 4666 
L 2156 4666 
L 531 -594 
L 0 -594 
L 1625 4666 
z
" transform="scale(0.015625)"/>
       <path id="DejaVuSans-73" d="M 2834 3397 
L 2834 2853 
Q 2591 2978 2328 3040 
Q 2066 3103 1784 3103 
Q 1356 3103 1142 2972 
Q 928 2841 928 2578 
Q 928 2378 1081 2264 
Q 1234 2150 1697 2047 
L 1894 2003 
Q 2506 1872 2764 1633 
Q 3022 1394 3022 966 
Q 3022 478 2636 193 
Q 2250 -91 1575 -91 
Q 1294 -91 989 -36 
Q 684 19 347 128 
L 347 722 
Q 666 556 975 473 
Q 1284 391 1588 391 
Q 1994 391 2212 530 
Q 2431 669 2431 922 
Q 2431 1156 2273 1281 
Q 2116 1406 1581 1522 
L 1381 1569 
Q 847 1681 609 1914 
Q 372 2147 372 2553 
Q 372 3047 722 3315 
Q 1072 3584 1716 3584 
Q 2034 3584 2315 3537 
Q 2597 3491 2834 3397 
z
" transform="scale(0.015625)"/>
       <path id="DejaVuSans-5d" d="M 1947 4863 
L 1947 -844 
L 622 -844 
L 622 -397 
L 1369 -397 
L 1369 4416 
L 622 4416 
L 622 4863 
L 1947 4863 
z
" transform="scale(0.015625)"/>
      </defs>
      <use xlink:href="#DejaVuSans-55" transform="translate(0 0.015625)"/>
      <use xlink:href="#DejaVuSans-31" transform="translate(74.150391 -16.390625) scale(0.7)"/>
      <use xlink:href="#DejaVuSans-30" transform="translate(118.686523 -16.390625) scale(0.7)"/>
      <use xlink:href="#DejaVuSans-20" transform="translate(165.957031 0.015625)"/>
      <use xlink:href="#DejaVuSans-5b" transform="translate(197.744141 0.015625)"/>
      <use xlink:href="#DejaVuSans-6d" transform="translate(236.757812 0.015625)"/>
      <use xlink:href="#DejaVuSans-2f" transform="translate(334.169922 0.015625)"/>
      <use xlink:href="#DejaVuSans-73" transform="translate(367.861328 0.015625)"/>
      <use xlink:href="#DejaVuSans-5d" transform="translate(419.960938 0.015625)"/>
     </g>
    </g>
   </g>
   <g id="matplotlib.axis_2">
    <g id="ytick_1">
     <g id="line2d_19">
      <path d="M 72 384.48 
L 482.688 384.48 
" clip-path="url(#pb094d03555)" style="fill: none; stroke: #b0b0b0; stroke-width: 0.8; stroke-linecap: square"/>
     </g>
     <g id="line2d_20">
      <defs>
       <path id="m891a6d9329" d="M 0 0 
L -3.5 0 
" style="stroke: #000000; stroke-width: 0.8"/>
      </defs>
      <g>
       <use xlink:href="#m891a6d9329" x="72" y="384.48" style="stroke: #000000; stroke-width: 0.8"/>
      </g>
     </g>
     <g id="text_11">
      <!-- 0.00 -->
      <g transform="translate(33.828125 389.798906) scale(0.14 -0.14)">
       <defs>
        <path id="DejaVuSans-2e" d="M 684 794 
L 1344 794 
L 1344 0 
L 684 0 
L 684 794 
z
" transform="scale(0.015625)"/>
       </defs>
       <use xlink:href="#DejaVuSans-30"/>
       <use xlink:href="#DejaVuSans-2e" transform="translate(63.623047 0)"/>
       <use xlink:href="#DejaVuSans-30" transform="translate(95.410156 0)"/>
       <use xlink:href="#DejaVuSans-30" transform="translate(159.033203 0)"/>
      </g>
     </g>
    </g>
    <g id="ytick_2">
     <g id="line2d_21">
      <path d="M 72 342.9 
L 482.688 342.9 
" clip-path="url(#pb094d03555)" style="fill: none; stroke: #b0b0b0; stroke-width: 0.8; stroke-linecap: square"/>
     </g>
     <g id="line2d_22">
      <g>
       <use xlink:href="#m891a6d9329" x="72" y="342.9" style="stroke: #000000; stroke-width: 0.8"/>
      </g>
     </g>
     <g id="text_12">
      <!-- 0.05 -->
      <g transform="translate(33.828125 348.218906) scale(0.14 -0.14)">
       <use xlink:href="#DejaVuSans-30"/>
       <use xlink:href="#DejaVuSans-2e" transform="translate(63.623047 0)"/>
       <use xlink:href="#DejaVuSans-30" transform="translate(95.410156 0)"/>
       <use xlink:href="#DejaVuSans-35" transform="translate(159.033203 0)"/>
      </g>
     </g>
    </g>
    <g id="ytick_3">
     <g id="line2d_23">
      <path d="M 72 301.32 
L 482.688 301.32 
" clip-path="url(#pb094d03555)" style="fill: none; stroke: #b0b0b0; stroke-width: 0.8; stroke-linecap: square"/>
     </g>
     <g id="line2d_24">
      <g>
       <use xlink:href="#m891a6d9329" x="72" y="301.32" style="stroke: #000000; stroke-width: 0.8"/>
      </g>
     </g>
     <g id="text_13">
      <!-- 0.10 -->
      <g transform="translate(33.828125 306.638906) scale(0.14 -0.14)">
       <use xlink:href="#DejaVuSans-30"/>
       <use xlink:href="#DejaVuSans-2e" transform="translate(63.623047 0)"/>
       <use xlink:href="#DejaVuSans-31" transform="translate(95.410156 0)"/>
       <use xlink:href="#DejaVuSans-30" transform="translate(159.033203 0)"/>
      </g>
     </g>
    </g>
    <g id="ytick_4">
     <g id="line2d_25">
      <path d="M 72 259.74 
L 482.688 259.74 
" clip-path="url(#pb094d03555)" style="fill: none; stroke: #b0b0b0; stroke-width: 0.8; stroke-linecap: square"/>
     </g>
     <g id="line2d_26">
      <g>
       <use xlink:href="#m891a6d9329" x="72" y="259.74" style="stroke: #000000; stroke-width: 0.8"/>
      </g>
     </g>
     <g id="text_14">
      <!-- 0.15 -->
      <g transform="translate(33.828125 265.058906) scale(0.14 -0.14)">
       <use xlink:href="#DejaVuSans-30"/>
       <use xlink:href="#DejaVuSans-2e" transform="translate(63.623047 0)"/>
       <use xlink:href="#DejaVuSans-31" transform="translate(95.410156 0)"/>
       <use xlink:href="#DejaVuSans-35" transform="translate(159.033203 0)"/>
      </g>
     </g>
    </g>
    <g id="ytick_5">
     <g id="line2d_27">
      <path d="M 72 218.16 
L 482.688 218.16 
" clip-path="url(#pb094d03555)" style="fill: none; stroke: #b0b0b0; stroke-width: 0.8; stroke-linecap: square"/>
     </g>
     <g id="line2d_28">
      <g>
       <use xlink:href="#m891a6d9329" x="72" y="218.16" style="stroke: #000000; stroke-width: 0.8"/>
      </g>
     </g>
     <g id="text_15">
      <!-- 0.20 -->
      <g transform="translate(33.828125 223.478906) scale(0.14 -0.14)">
       <use xlink:href="#DejaVuSans-30"/>
       <use xlink:href="#DejaVuSans-2e" transform="translate(63.623047 0)"/>
       <use xlink:href="#DejaVuSans-32" transform="translate(95.410156 0)"/>
       <use xlink:href="#DejaVuSans-30" transform="translate(159.033203 0)"/>
      </g>
     </g>
    </g>
    <g id="ytick_6">
     <g id="line2d_29">
      <path d="M 72 176.58 
L 482.688 176.58 
" clip-path="url(#pb094d03555)" style="fill: none; stroke: #b0b0b0; stroke-width: 0.8; stroke-linecap: square"/>
     </g>
     <g id="line2d_30">
      <g>
       <use xlink:href="#m891a6d9329" x="72" y="176.58" style="stroke: #000000; stroke-width: 0.8"/>
      </g>
     </g>
     <g id="text_16">
      <!-- 0.25 -->
      <g transform="translate(33.828125 181.898906) scale(0.14 -0.14)">
       <use xlink:href="#DejaVuSans-30"/>
       <use xlink:href="#DejaVuSans-2e" transform="translate(63.623047 0)"/>
       <use xlink:href="#DejaVuSans-32" transform="translate(95.410156 0)"/>
       <use xlink:href="#DejaVuSans-35" transform="translate(159.033203 0)"/>
      </g>
     </g>
    </g>
    <g id="ytick_7">
     <g id="line2d_31">
      <path d="M 72 135 
L 482.688 135 
" clip-path="url(#pb094d03555)" style="fill: none; stroke: #b0b0b0; stroke-width: 0.8; stroke-linecap: square"/>
     </g>
     <g id="line2d_32">
      <g>
       <use xlink:href="#m891a6d9329" x="72" y="135" style="stroke: #000000; stroke-width: 0.8"/>
      </g>
     </g>
     <g id="text_17">
      <!-- 0.30 -->
      <g transform="translate(33.828125 140.318906) scale(0.14 -0.14)">
       <use xlink:href="#DejaVuSans-30"/>
       <use xlink:href="#DejaVuSans-2e" transform="translate(63.623047 0)"/>
       <use xlink:href="#DejaVuSans-33" transform="translate(95.410156 0)"/>
       <use xlink:href="#DejaVuSans-30" transform="translate(159.033203 0)"/>
      </g>
     </g>
    </g>
    <g id="ytick_8">
     <g id="line2d_33">
      <path d="M 72 93.42 
L 482.688 93.42 
" clip-path="url(#pb094d03555)" style="fill: none; stroke: #b0b0b0; stroke-width: 0.8; stroke-linecap: square"/>
     </g>
     <g id="line2d_34">
      <g>
       <use xlink:href="#m891a6d9329" x="72" y="93.42" style="stroke: #000000; stroke-width: 0.8"/>
      </g>
     </g>
     <g id="text_18">
      <!-- 0.35 -->
      <g transform="translate(33.828125 98.738906) scale(0.14 -0.14)">
       <use xlink:href="#DejaVuSans-30"/>
       <use xlink:href="#DejaVuSans-2e" transform="translate(63.623047 0)"/>
       <use xlink:href="#DejaVuSans-33" transform="translate(95.410156 0)"/>
       <use xlink:href="#DejaVuSans-35" transform="translate(159.033203 0)"/>
      </g>
     </g>
    </g>
    <g id="ytick_9">
     <g id="line2d_35">
      <path d="M 72 51.84 
L 482.688 51.84 
" clip-path="url(#pb094d03555)" style="fill: none; stroke: #b0b0b0; stroke-width: 0.8; stroke-linecap: square"/>
     </g>
     <g id="line2d_36">
      <g>
       <use xlink:href="#m891a6d9329" x="72" y="51.84" style="stroke: #000000; stroke-width: 0.8"/>
      </g>
     </g>
     <g id="text_19">
      <!-- 0.40 -->
      <g transform="translate(33.828125 57.158906) scale(0.14 -0.14)">
       <use xlink:href="#DejaVuSans-30"/>
       <use xlink:href="#DejaVuSans-2e" transform="translate(63.623047 0)"/>
       <use xlink:href="#DejaVuSans-34" transform="translate(95.410156 0)"/>
       <use xlink:href="#DejaVuSans-30" transform="translate(159.033203 0)"/>
      </g>
     </g>
    </g>
    <g id="text_20">
     <!-- ak -->
     <g transform="translate(26.916562 226.503125) rotate(-90) scale(0.14 -0.14)">
      <defs>
       <path id="DejaVuSans-61" d="M 2194 1759 
Q 1497 1759 1228 1600 
Q 959 1441 959 1056 
Q 959 750 1161 570 
Q 1363 391 1709 391 
Q 2188 391 2477 730 
Q 2766 1069 2766 1631 
L 2766 1759 
L 2194 1759 
z
M 3341 1997 
L 3341 0 
L 2766 0 
L 2766 531 
Q 2569 213 2275 61 
Q 1981 -91 1556 -91 
Q 1019 -91 701 211 
Q 384 513 384 1019 
Q 384 1609 779 1909 
Q 1175 2209 1959 2209 
L 2766 2209 
L 2766 2266 
Q 2766 2663 2505 2880 
Q 2244 3097 1772 3097 
Q 1472 3097 1187 3025 
Q 903 2953 641 2809 
L 641 3341 
Q 956 3463 1253 3523 
Q 1550 3584 1831 3584 
Q 2591 3584 2966 3190 
Q 3341 2797 3341 1997 
z
" transform="scale(0.015625)"/>
       <path id="DejaVuSans-6b" d="M 581 4863 
L 1159 4863 
L 1159 1991 
L 2875 3500 
L 3609 3500 
L 1753 1863 
L 3688 0 
L 2938 0 
L 1159 1709 
L 1159 0 
L 581 0 
L 581 4863 
z
" transform="scale(0.015625)"/>
      </defs>
      <use xlink:href="#DejaVuSans-61"/>
      <use xlink:href="#DejaVuSans-6b" transform="translate(61.279297 0)"/>
     </g>
    </g>
   </g>
   <g id="patch_3">
    <path d="M 72 384.48 
L 72 51.84 
" style="fill: none; stroke: #000000; stroke-width: 0.8; stroke-linejoin: miter; stroke-linecap: square"/>
   </g>
   <g id="patch_4">
    <path d="M 482.688 384.48 
L 482.688 51.84 
" style="fill: none; stroke: #000000; stroke-width: 0.8; stroke-linejoin: miter; stroke-linecap: square"/>
   </g>
   <g id="patch_5">
    <path d="M 72 384.48 
L 482.688 384.48 
" style="fill: none; stroke: #000000; stroke-width: 0.8; stroke-linejoin: miter; stroke-linecap: square"/>
   </g>
   <g id="patch_6">
    <path d="M 72 51.84 
L 482.688 51.84 
" style="fill: none; stroke: #000000; stroke-width: 0.8; stroke-linejoin: miter; stroke-linecap: square"/>
   </g>
   <g id="text_21">
    <g id="patch_7">
     <path d="M 133.6032 339.384 
L 229.0707 339.384 
Q 233.8707 339.384 233.8707 334.584 
L 233.8707 318.974 
Q 233.8707 314.174 229.0707 314.174 
L 133.6032 314.174 
Q 128.8032 314.174 128.8032 318.974 
L 128.8032 334.584 
Q 128.8032 339.384 133.6032 339.384 
z
" style="opacity: 0.5; stroke: #000000; stroke-linejoin: miter"/>
    </g>
    <!-- No tearing -->
    <g style="fill: #ffffff" transform="translate(133.6032 331.1315) scale(0.16 -0.16)">
     <defs>
      <path id="DejaVuSans-Bold-4e" d="M 588 4666 
L 1931 4666 
L 3628 1466 
L 3628 4666 
L 4769 4666 
L 4769 0 
L 3425 0 
L 1728 3200 
L 1728 0 
L 588 0 
L 588 4666 
z
" transform="scale(0.015625)"/>
      <path id="DejaVuSans-Bold-6f" d="M 2203 2784 
Q 1831 2784 1636 2517 
Q 1441 2250 1441 1747 
Q 1441 1244 1636 976 
Q 1831 709 2203 709 
Q 2569 709 2762 976 
Q 2956 1244 2956 1747 
Q 2956 2250 2762 2517 
Q 2569 2784 2203 2784 
z
M 2203 3584 
Q 3106 3584 3614 3096 
Q 4122 2609 4122 1747 
Q 4122 884 3614 396 
Q 3106 -91 2203 -91 
Q 1297 -91 786 396 
Q 275 884 275 1747 
Q 275 2609 786 3096 
Q 1297 3584 2203 3584 
z
" transform="scale(0.015625)"/>
      <path id="DejaVuSans-Bold-20" transform="scale(0.015625)"/>
      <path id="DejaVuSans-Bold-74" d="M 1759 4494 
L 1759 3500 
L 2913 3500 
L 2913 2700 
L 1759 2700 
L 1759 1216 
Q 1759 972 1856 886 
Q 1953 800 2241 800 
L 2816 800 
L 2816 0 
L 1856 0 
Q 1194 0 917 276 
Q 641 553 641 1216 
L 641 2700 
L 84 2700 
L 84 3500 
L 641 3500 
L 641 4494 
L 1759 4494 
z
" transform="scale(0.015625)"/>
      <path id="DejaVuSans-Bold-65" d="M 4031 1759 
L 4031 1441 
L 1416 1441 
Q 1456 1047 1700 850 
Q 1944 653 2381 653 
Q 2734 653 3104 758 
Q 3475 863 3866 1075 
L 3866 213 
Q 3469 63 3072 -14 
Q 2675 -91 2278 -91 
Q 1328 -91 801 392 
Q 275 875 275 1747 
Q 275 2603 792 3093 
Q 1309 3584 2216 3584 
Q 3041 3584 3536 3087 
Q 4031 2591 4031 1759 
z
M 2881 2131 
Q 2881 2450 2695 2645 
Q 2509 2841 2209 2841 
Q 1884 2841 1681 2658 
Q 1478 2475 1428 2131 
L 2881 2131 
z
" transform="scale(0.015625)"/>
      <path id="DejaVuSans-Bold-61" d="M 2106 1575 
Q 1756 1575 1579 1456 
Q 1403 1338 1403 1106 
Q 1403 894 1545 773 
Q 1688 653 1941 653 
Q 2256 653 2472 879 
Q 2688 1106 2688 1447 
L 2688 1575 
L 2106 1575 
z
M 3816 1997 
L 3816 0 
L 2688 0 
L 2688 519 
Q 2463 200 2181 54 
Q 1900 -91 1497 -91 
Q 953 -91 614 226 
Q 275 544 275 1050 
Q 275 1666 698 1953 
Q 1122 2241 2028 2241 
L 2688 2241 
L 2688 2328 
Q 2688 2594 2478 2717 
Q 2269 2841 1825 2841 
Q 1466 2841 1156 2769 
Q 847 2697 581 2553 
L 581 3406 
Q 941 3494 1303 3539 
Q 1666 3584 2028 3584 
Q 2975 3584 3395 3211 
Q 3816 2838 3816 1997 
z
" transform="scale(0.015625)"/>
      <path id="DejaVuSans-Bold-72" d="M 3138 2547 
Q 2991 2616 2845 2648 
Q 2700 2681 2553 2681 
Q 2122 2681 1889 2404 
Q 1656 2128 1656 1613 
L 1656 0 
L 538 0 
L 538 3500 
L 1656 3500 
L 1656 2925 
Q 1872 3269 2151 3426 
Q 2431 3584 2822 3584 
Q 2878 3584 2943 3579 
Q 3009 3575 3134 3559 
L 3138 2547 
z
" transform="scale(0.015625)"/>
      <path id="DejaVuSans-Bold-69" d="M 538 3500 
L 1656 3500 
L 1656 0 
L 538 0 
L 538 3500 
z
M 538 4863 
L 1656 4863 
L 1656 3950 
L 538 3950 
L 538 4863 
z
" transform="scale(0.015625)"/>
      <path id="DejaVuSans-Bold-6e" d="M 4056 2131 
L 4056 0 
L 2931 0 
L 2931 347 
L 2931 1631 
Q 2931 2084 2911 2256 
Q 2891 2428 2841 2509 
Q 2775 2619 2662 2680 
Q 2550 2741 2406 2741 
Q 2056 2741 1856 2470 
Q 1656 2200 1656 1722 
L 1656 0 
L 538 0 
L 538 3500 
L 1656 3500 
L 1656 2988 
Q 1909 3294 2193 3439 
Q 2478 3584 2822 3584 
Q 3428 3584 3742 3212 
Q 4056 2841 4056 2131 
z
" transform="scale(0.015625)"/>
      <path id="DejaVuSans-Bold-67" d="M 2919 594 
Q 2688 288 2409 144 
Q 2131 0 1766 0 
Q 1125 0 706 504 
Q 288 1009 288 1791 
Q 288 2575 706 3076 
Q 1125 3578 1766 3578 
Q 2131 3578 2409 3434 
Q 2688 3291 2919 2981 
L 2919 3500 
L 4044 3500 
L 4044 353 
Q 4044 -491 3511 -936 
Q 2978 -1381 1966 -1381 
Q 1638 -1381 1331 -1331 
Q 1025 -1281 716 -1178 
L 716 -306 
Q 1009 -475 1290 -558 
Q 1572 -641 1856 -641 
Q 2406 -641 2662 -400 
Q 2919 -159 2919 353 
L 2919 594 
z
M 2181 2772 
Q 1834 2772 1640 2515 
Q 1447 2259 1447 1791 
Q 1447 1309 1634 1061 
Q 1822 813 2181 813 
Q 2531 813 2725 1069 
Q 2919 1325 2919 1791 
Q 2919 2259 2725 2515 
Q 2531 2772 2181 2772 
z
" transform="scale(0.015625)"/>
     </defs>
     <use xlink:href="#DejaVuSans-Bold-4e"/>
     <use xlink:href="#DejaVuSans-Bold-6f" transform="translate(83.691406 0)"/>
     <use xlink:href="#DejaVuSans-Bold-20" transform="translate(152.392578 0)"/>
     <use xlink:href="#DejaVuSans-Bold-74" transform="translate(187.207031 0)"/>
     <use xlink:href="#DejaVuSans-Bold-65" transform="translate(235.009766 0)"/>
     <use xlink:href="#DejaVuSans-Bold-61" transform="translate(302.832031 0)"/>
     <use xlink:href="#DejaVuSans-Bold-72" transform="translate(370.3125 0)"/>
     <use xlink:href="#DejaVuSans-Bold-69" transform="translate(419.628906 0)"/>
     <use xlink:href="#DejaVuSans-Bold-6e" transform="translate(453.90625 0)"/>
     <use xlink:href="#DejaVuSans-Bold-67" transform="translate(525.097656 0)"/>
    </g>
   </g>
   <g id="text_22">
    <!-- Tear fraction, k = 1 -->
    <g transform="translate(197.009813 45.84) scale(0.168 -0.168)">
     <defs>
      <path id="DejaVuSans-54" d="M -19 4666 
L 3928 4666 
L 3928 4134 
L 2272 4134 
L 2272 0 
L 1638 0 
L 1638 4134 
L -19 4134 
L -19 4666 
z
" transform="scale(0.015625)"/>
      <path id="DejaVuSans-65" d="M 3597 1894 
L 3597 1613 
L 953 1613 
Q 991 1019 1311 708 
Q 1631 397 2203 397 
Q 2534 397 2845 478 
Q 3156 559 3463 722 
L 3463 178 
Q 3153 47 2828 -22 
Q 2503 -91 2169 -91 
Q 1331 -91 842 396 
Q 353 884 353 1716 
Q 353 2575 817 3079 
Q 1281 3584 2069 3584 
Q 2775 3584 3186 3129 
Q 3597 2675 3597 1894 
z
M 3022 2063 
Q 3016 2534 2758 2815 
Q 2500 3097 2075 3097 
Q 1594 3097 1305 2825 
Q 1016 2553 972 2059 
L 3022 2063 
z
" transform="scale(0.015625)"/>
      <path id="DejaVuSans-72" d="M 2631 2963 
Q 2534 3019 2420 3045 
Q 2306 3072 2169 3072 
Q 1681 3072 1420 2755 
Q 1159 2438 1159 1844 
L 1159 0 
L 581 0 
L 581 3500 
L 1159 3500 
L 1159 2956 
Q 1341 3275 1631 3429 
Q 1922 3584 2338 3584 
Q 2397 3584 2469 3576 
Q 2541 3569 2628 3553 
L 2631 2963 
z
" transform="scale(0.015625)"/>
      <path id="DejaVuSans-66" d="M 2375 4863 
L 2375 4384 
L 1825 4384 
Q 1516 4384 1395 4259 
Q 1275 4134 1275 3809 
L 1275 3500 
L 2222 3500 
L 2222 3053 
L 1275 3053 
L 1275 0 
L 697 0 
L 697 3053 
L 147 3053 
L 147 3500 
L 697 3500 
L 697 3744 
Q 697 4328 969 4595 
Q 1241 4863 1831 4863 
L 2375 4863 
z
" transform="scale(0.015625)"/>
      <path id="DejaVuSans-63" d="M 3122 3366 
L 3122 2828 
Q 2878 2963 2633 3030 
Q 2388 3097 2138 3097 
Q 1578 3097 1268 2742 
Q 959 2388 959 1747 
Q 959 1106 1268 751 
Q 1578 397 2138 397 
Q 2388 397 2633 464 
Q 2878 531 3122 666 
L 3122 134 
Q 2881 22 2623 -34 
Q 2366 -91 2075 -91 
Q 1284 -91 818 406 
Q 353 903 353 1747 
Q 353 2603 823 3093 
Q 1294 3584 2113 3584 
Q 2378 3584 2631 3529 
Q 2884 3475 3122 3366 
z
" transform="scale(0.015625)"/>
      <path id="DejaVuSans-74" d="M 1172 4494 
L 1172 3500 
L 2356 3500 
L 2356 3053 
L 1172 3053 
L 1172 1153 
Q 1172 725 1289 603 
Q 1406 481 1766 481 
L 2356 481 
L 2356 0 
L 1766 0 
Q 1100 0 847 248 
Q 594 497 594 1153 
L 594 3053 
L 172 3053 
L 172 3500 
L 594 3500 
L 594 4494 
L 1172 4494 
z
" transform="scale(0.015625)"/>
      <path id="DejaVuSans-69" d="M 603 3500 
L 1178 3500 
L 1178 0 
L 603 0 
L 603 3500 
z
M 603 4863 
L 1178 4863 
L 1178 4134 
L 603 4134 
L 603 4863 
z
" transform="scale(0.015625)"/>
      <path id="DejaVuSans-6f" d="M 1959 3097 
Q 1497 3097 1228 2736 
Q 959 2375 959 1747 
Q 959 1119 1226 758 
Q 1494 397 1959 397 
Q 2419 397 2687 759 
Q 2956 1122 2956 1747 
Q 2956 2369 2687 2733 
Q 2419 3097 1959 3097 
z
M 1959 3584 
Q 2709 3584 3137 3096 
Q 3566 2609 3566 1747 
Q 3566 888 3137 398 
Q 2709 -91 1959 -91 
Q 1206 -91 779 398 
Q 353 888 353 1747 
Q 353 2609 779 3096 
Q 1206 3584 1959 3584 
z
" transform="scale(0.015625)"/>
      <path id="DejaVuSans-6e" d="M 3513 2113 
L 3513 0 
L 2938 0 
L 2938 2094 
Q 2938 2591 2744 2837 
Q 2550 3084 2163 3084 
Q 1697 3084 1428 2787 
Q 1159 2491 1159 1978 
L 1159 0 
L 581 0 
L 581 3500 
L 1159 3500 
L 1159 2956 
Q 1366 3272 1645 3428 
Q 1925 3584 2291 3584 
Q 2894 3584 3203 3211 
Q 3513 2838 3513 2113 
z
" transform="scale(0.015625)"/>
      <path id="DejaVuSans-2c" d="M 750 794 
L 1409 794 
L 1409 256 
L 897 -744 
L 494 -744 
L 750 256 
L 750 794 
z
" transform="scale(0.015625)"/>
      <path id="DejaVuSans-3d" d="M 678 2906 
L 4684 2906 
L 4684 2381 
L 678 2381 
L 678 2906 
z
M 678 1631 
L 4684 1631 
L 4684 1100 
L 678 1100 
L 678 1631 
z
" transform="scale(0.015625)"/>
     </defs>
     <use xlink:href="#DejaVuSans-54"/>
     <use xlink:href="#DejaVuSans-65" transform="translate(44.083984 0)"/>
     <use xlink:href="#DejaVuSans-61" transform="translate(105.607422 0)"/>
     <use xlink:href="#DejaVuSans-72" transform="translate(166.886719 0)"/>
     <use xlink:href="#DejaVuSans-20" transform="translate(208 0)"/>
     <use xlink:href="#DejaVuSans-66" transform="translate(239.787109 0)"/>
     <use xlink:href="#DejaVuSans-72" transform="translate(274.992188 0)"/>
     <use xlink:href="#DejaVuSans-61" transform="translate(316.105469 0)"/>
     <use xlink:href="#DejaVuSans-63" transform="translate(377.384766 0)"/>
     <use xlink:href="#DejaVuSans-74" transform="translate(432.365234 0)"/>
     <use xlink:href="#DejaVuSans-69" transform="translate(471.574219 0)"/>
     <use xlink:href="#DejaVuSans-6f" transform="translate(499.357422 0)"/>
     <use xlink:href="#DejaVuSans-6e" transform="translate(560.539062 0)"/>
     <use xlink:href="#DejaVuSans-2c" transform="translate(623.917969 0)"/>
     <use xlink:href="#DejaVuSans-20" transform="translate(655.705078 0)"/>
     <use xlink:href="#DejaVuSans-6b" transform="translate(687.492188 0)"/>
     <use xlink:href="#DejaVuSans-20" transform="translate(745.402344 0)"/>
     <use xlink:href="#DejaVuSans-3d" transform="translate(777.189453 0)"/>
     <use xlink:href="#DejaVuSans-20" transform="translate(860.978516 0)"/>
     <use xlink:href="#DejaVuSans-31" transform="translate(892.765625 0)"/>
    </g>
   </g>
  </g>
  <g id="axes_2">
   <g id="patch_8">
    <path d="M 500.544 384.48 
L 517.176 384.48 
L 517.176 51.84 
L 500.544 51.84 
z
" style="fill: #ffffff"/>
   </g>
   <g id="QuadMesh_1">
    <path d="M 500.544 384.48 
L 517.176 384.48 
L 517.176 347.52 
L 500.544 347.52 
L 500.544 384.48 
" clip-path="url(#p6d623a236d)" style="fill: #481668"/>
    <path d="M 500.544 347.52 
L 517.176 347.52 
L 517.176 310.56 
L 500.544 310.56 
L 500.544 347.52 
" clip-path="url(#p6d623a236d)" style="fill: #443983"/>
    <path d="M 500.544 310.56 
L 517.176 310.56 
L 517.176 273.6 
L 500.544 273.6 
L 500.544 310.56 
" clip-path="url(#p6d623a236d)" style="fill: #375a8c"/>
    <path d="M 500.544 273.6 
L 517.176 273.6 
L 517.176 236.64 
L 500.544 236.64 
L 500.544 273.6 
" clip-path="url(#p6d623a236d)" style="fill: #2b758e"/>
    <path d="M 500.544 236.64 
L 517.176 236.64 
L 517.176 199.68 
L 500.544 199.68 
L 500.544 236.64 
" clip-path="url(#p6d623a236d)" style="fill: #21918c"/>
    <path d="M 500.544 199.68 
L 517.176 199.68 
L 517.176 162.72 
L 500.544 162.72 
L 500.544 199.68 
" clip-path="url(#p6d623a236d)" style="fill: #25ab82"/>
    <path d="M 500.544 162.72 
L 517.176 162.72 
L 517.176 125.76 
L 500.544 125.76 
L 500.544 162.72 
" clip-path="url(#p6d623a236d)" style="fill: #4ec36b"/>
    <path d="M 500.544 125.76 
L 517.176 125.76 
L 517.176 88.8 
L 500.544 88.8 
L 500.544 125.76 
" clip-path="url(#p6d623a236d)" style="fill: #90d743"/>
    <path d="M 500.544 88.8 
L 517.176 88.8 
L 517.176 51.84 
L 500.544 51.84 
L 500.544 88.8 
" clip-path="url(#p6d623a236d)" style="fill: #dae319"/>
   </g>
   <g id="matplotlib.axis_3"/>
   <g id="matplotlib.axis_4">
    <g id="ytick_10">
     <g id="line2d_37">
      <defs>
       <path id="mabd31f23e4" d="M 0 0 
L 3.5 0 
" style="stroke: #000000; stroke-width: 0.8"/>
      </defs>
      <g>
       <use xlink:href="#mabd31f23e4" x="517.176" y="384.48" style="stroke: #000000; stroke-width: 0.8"/>
      </g>
     </g>
     <g id="text_23">
      <!-- $\mathdefault{10^{-3}}$ -->
      <g transform="translate(524.176 389.798906) scale(0.14 -0.14)">
       <defs>
        <path id="DejaVuSans-2212" d="M 678 2272 
L 4684 2272 
L 4684 1741 
L 678 1741 
L 678 2272 
z
" transform="scale(0.015625)"/>
       </defs>
       <use xlink:href="#DejaVuSans-31" transform="translate(0 0.765625)"/>
       <use xlink:href="#DejaVuSans-30" transform="translate(63.623047 0.765625)"/>
       <use xlink:href="#DejaVuSans-2212" transform="translate(128.203125 39.046875) scale(0.7)"/>
       <use xlink:href="#DejaVuSans-33" transform="translate(186.855469 39.046875) scale(0.7)"/>
      </g>
     </g>
    </g>
    <g id="ytick_11">
     <g id="line2d_38">
      <g>
       <use xlink:href="#mabd31f23e4" x="517.176" y="347.52" style="stroke: #000000; stroke-width: 0.8"/>
      </g>
     </g>
    </g>
    <g id="ytick_12">
     <g id="line2d_39">
      <g>
       <use xlink:href="#mabd31f23e4" x="517.176" y="310.56" style="stroke: #000000; stroke-width: 0.8"/>
      </g>
     </g>
    </g>
    <g id="ytick_13">
     <g id="line2d_40">
      <g>
       <use xlink:href="#mabd31f23e4" x="517.176" y="273.6" style="stroke: #000000; stroke-width: 0.8"/>
      </g>
     </g>
     <g id="text_24">
      <!-- $\mathdefault{10^{-2}}$ -->
      <g transform="translate(524.176 278.918906) scale(0.14 -0.14)">
       <use xlink:href="#DejaVuSans-31" transform="translate(0 0.765625)"/>
       <use xlink:href="#DejaVuSans-30" transform="translate(63.623047 0.765625)"/>
       <use xlink:href="#DejaVuSans-2212" transform="translate(128.203125 39.046875) scale(0.7)"/>
       <use xlink:href="#DejaVuSans-32" transform="translate(186.855469 39.046875) scale(0.7)"/>
      </g>
     </g>
    </g>
    <g id="ytick_14">
     <g id="line2d_41">
      <g>
       <use xlink:href="#mabd31f23e4" x="517.176" y="236.64" style="stroke: #000000; stroke-width: 0.8"/>
      </g>
     </g>
    </g>
    <g id="ytick_15">
     <g id="line2d_42">
      <g>
       <use xlink:href="#mabd31f23e4" x="517.176" y="199.68" style="stroke: #000000; stroke-width: 0.8"/>
      </g>
     </g>
    </g>
    <g id="ytick_16">
     <g id="line2d_43">
      <g>
       <use xlink:href="#mabd31f23e4" x="517.176" y="162.72" style="stroke: #000000; stroke-width: 0.8"/>
      </g>
     </g>
     <g id="text_25">
      <!-- $\mathdefault{10^{-1}}$ -->
      <g transform="translate(524.176 168.038906) scale(0.14 -0.14)">
       <use xlink:href="#DejaVuSans-31" transform="translate(0 0.684375)"/>
       <use xlink:href="#DejaVuSans-30" transform="translate(63.623047 0.684375)"/>
       <use xlink:href="#DejaVuSans-2212" transform="translate(128.203125 38.965625) scale(0.7)"/>
       <use xlink:href="#DejaVuSans-31" transform="translate(186.855469 38.965625) scale(0.7)"/>
      </g>
     </g>
    </g>
    <g id="ytick_17">
     <g id="line2d_44">
      <g>
       <use xlink:href="#mabd31f23e4" x="517.176" y="125.76" style="stroke: #000000; stroke-width: 0.8"/>
      </g>
     </g>
    </g>
    <g id="ytick_18">
     <g id="line2d_45">
      <g>
       <use xlink:href="#mabd31f23e4" x="517.176" y="88.8" style="stroke: #000000; stroke-width: 0.8"/>
      </g>
     </g>
    </g>
    <g id="ytick_19">
     <g id="line2d_46">
      <g>
       <use xlink:href="#mabd31f23e4" x="517.176" y="51.84" style="stroke: #000000; stroke-width: 0.8"/>
      </g>
     </g>
     <g id="text_26">
      <!-- $\mathdefault{10^{0}}$ -->
      <g transform="translate(524.176 57.158906) scale(0.14 -0.14)">
       <use xlink:href="#DejaVuSans-31" transform="translate(0 0.765625)"/>
       <use xlink:href="#DejaVuSans-30" transform="translate(63.623047 0.765625)"/>
       <use xlink:href="#DejaVuSans-30" transform="translate(128.203125 39.046875) scale(0.7)"/>
      </g>
     </g>
    </g>
   </g>
   <g id="LineCollection_1"/>
   <g id="patch_9">
    <path d="M 500.544 384.48 
L 508.86 384.48 
L 517.176 384.48 
L 517.176 51.84 
L 508.86 51.84 
L 500.544 51.84 
L 500.544 384.48 
z
" style="fill: none; stroke: #000000; stroke-width: 0.8; stroke-linejoin: miter; stroke-linecap: square"/>
   </g>
  </g>
 </g>
 <defs>
  <clipPath id="pb094d03555">
   <rect x="72" y="51.84" width="410.688" height="332.64"/>
  </clipPath>
  <clipPath id="p6d623a236d">
   <rect x="500.544" y="51.84" width="16.632" height="332.64"/>
  </clipPath>
 </defs>
</svg>
